G04 #@! TF.GenerationSoftware,KiCad,Pcbnew,9.0.2*
G04 #@! TF.CreationDate,2025-07-17T00:51:24+08:00*
G04 #@! TF.ProjectId,RTL8723DS-BreakOut,52544c38-3732-4334-9453-2d427265616b,rev?*
G04 #@! TF.SameCoordinates,Original*
G04 #@! TF.FileFunction,Legend,Top*
G04 #@! TF.FilePolarity,Positive*
%FSLAX45Y45*%
G04 Gerber Fmt 4.5, Leading zero omitted, Abs format (unit mm)*
G04 Created by KiCad (PCBNEW 9.0.2) date 2025-07-17 00:51:24*
%MOMM*%
%LPD*%
G01*
G04 APERTURE LIST*
%ADD10C,0.100000*%
%ADD11C,0.150000*%
%ADD12C,0.300000*%
%ADD13C,0.400000*%
%ADD14C,0.200000*%
%ADD15C,0.120000*%
G04 APERTURE END LIST*
D10*
D11*
X17700220Y-16600720D02*
X28500220Y-16600720D01*
X28500220Y-19800720D01*
X17700220Y-19800720D01*
X17700220Y-16600720D01*
D10*
D11*
X1000000Y-1000000D02*
X28700220Y-1000000D01*
X28700220Y-20000720D01*
X1000000Y-20000720D01*
X1000000Y-1000000D01*
D10*
D11*
X1200000Y-1200000D02*
X28500220Y-1200000D01*
X28500220Y-19800720D01*
X1200000Y-19800720D01*
X1200000Y-1200000D01*
D10*
D11*
X6000000Y-1200000D02*
X6000000Y-1000000D01*
D10*
D11*
X11000000Y-1200000D02*
X11000000Y-1000000D01*
D10*
D11*
X16000000Y-1200000D02*
X16000000Y-1000000D01*
D10*
D11*
X21000000Y-1200000D02*
X21000000Y-1000000D01*
D10*
D11*
X26000000Y-1200000D02*
X26000000Y-1000000D01*
D10*
D11*
X3608916Y-1159360D02*
X3534630Y-1159360D01*
X3571773Y-1159360D02*
X3571773Y-1029360D01*
X3571773Y-1029360D02*
X3559392Y-1047932D01*
X3559392Y-1047932D02*
X3547011Y-1060313D01*
X3547011Y-1060313D02*
X3534630Y-1066503D01*
D10*
D11*
X8534630Y-1041741D02*
X8540821Y-1035551D01*
X8540821Y-1035551D02*
X8553202Y-1029360D01*
X8553202Y-1029360D02*
X8584154Y-1029360D01*
X8584154Y-1029360D02*
X8596535Y-1035551D01*
X8596535Y-1035551D02*
X8602726Y-1041741D01*
X8602726Y-1041741D02*
X8608916Y-1054122D01*
X8608916Y-1054122D02*
X8608916Y-1066503D01*
X8608916Y-1066503D02*
X8602726Y-1085075D01*
X8602726Y-1085075D02*
X8528440Y-1159360D01*
X8528440Y-1159360D02*
X8608916Y-1159360D01*
D10*
D11*
X13528440Y-1029360D02*
X13608916Y-1029360D01*
X13608916Y-1029360D02*
X13565583Y-1078884D01*
X13565583Y-1078884D02*
X13584154Y-1078884D01*
X13584154Y-1078884D02*
X13596535Y-1085075D01*
X13596535Y-1085075D02*
X13602725Y-1091265D01*
X13602725Y-1091265D02*
X13608916Y-1103646D01*
X13608916Y-1103646D02*
X13608916Y-1134599D01*
X13608916Y-1134599D02*
X13602725Y-1146980D01*
X13602725Y-1146980D02*
X13596535Y-1153170D01*
X13596535Y-1153170D02*
X13584154Y-1159360D01*
X13584154Y-1159360D02*
X13547011Y-1159360D01*
X13547011Y-1159360D02*
X13534630Y-1153170D01*
X13534630Y-1153170D02*
X13528440Y-1146980D01*
D10*
D11*
X18596535Y-1072694D02*
X18596535Y-1159360D01*
X18565583Y-1023170D02*
X18534630Y-1116027D01*
X18534630Y-1116027D02*
X18615106Y-1116027D01*
D10*
D11*
X23602725Y-1029360D02*
X23540821Y-1029360D01*
X23540821Y-1029360D02*
X23534630Y-1091265D01*
X23534630Y-1091265D02*
X23540821Y-1085075D01*
X23540821Y-1085075D02*
X23553202Y-1078884D01*
X23553202Y-1078884D02*
X23584154Y-1078884D01*
X23584154Y-1078884D02*
X23596535Y-1085075D01*
X23596535Y-1085075D02*
X23602725Y-1091265D01*
X23602725Y-1091265D02*
X23608916Y-1103646D01*
X23608916Y-1103646D02*
X23608916Y-1134599D01*
X23608916Y-1134599D02*
X23602725Y-1146980D01*
X23602725Y-1146980D02*
X23596535Y-1153170D01*
X23596535Y-1153170D02*
X23584154Y-1159360D01*
X23584154Y-1159360D02*
X23553202Y-1159360D01*
X23553202Y-1159360D02*
X23540821Y-1153170D01*
X23540821Y-1153170D02*
X23534630Y-1146980D01*
D10*
D11*
X28596535Y-1029360D02*
X28571773Y-1029360D01*
X28571773Y-1029360D02*
X28559392Y-1035551D01*
X28559392Y-1035551D02*
X28553202Y-1041741D01*
X28553202Y-1041741D02*
X28540821Y-1060313D01*
X28540821Y-1060313D02*
X28534630Y-1085075D01*
X28534630Y-1085075D02*
X28534630Y-1134599D01*
X28534630Y-1134599D02*
X28540821Y-1146980D01*
X28540821Y-1146980D02*
X28547011Y-1153170D01*
X28547011Y-1153170D02*
X28559392Y-1159360D01*
X28559392Y-1159360D02*
X28584154Y-1159360D01*
X28584154Y-1159360D02*
X28596535Y-1153170D01*
X28596535Y-1153170D02*
X28602725Y-1146980D01*
X28602725Y-1146980D02*
X28608916Y-1134599D01*
X28608916Y-1134599D02*
X28608916Y-1103646D01*
X28608916Y-1103646D02*
X28602725Y-1091265D01*
X28602725Y-1091265D02*
X28596535Y-1085075D01*
X28596535Y-1085075D02*
X28584154Y-1078884D01*
X28584154Y-1078884D02*
X28559392Y-1078884D01*
X28559392Y-1078884D02*
X28547011Y-1085075D01*
X28547011Y-1085075D02*
X28540821Y-1091265D01*
X28540821Y-1091265D02*
X28534630Y-1103646D01*
D10*
D11*
X6000000Y-19800720D02*
X6000000Y-20000720D01*
D10*
D11*
X11000000Y-19800720D02*
X11000000Y-20000720D01*
D10*
D11*
X16000000Y-19800720D02*
X16000000Y-20000720D01*
D10*
D11*
X21000000Y-19800720D02*
X21000000Y-20000720D01*
D10*
D11*
X26000000Y-19800720D02*
X26000000Y-20000720D01*
D10*
D11*
X3608916Y-19960080D02*
X3534630Y-19960080D01*
X3571773Y-19960080D02*
X3571773Y-19830080D01*
X3571773Y-19830080D02*
X3559392Y-19848652D01*
X3559392Y-19848652D02*
X3547011Y-19861033D01*
X3547011Y-19861033D02*
X3534630Y-19867223D01*
D10*
D11*
X8534630Y-19842461D02*
X8540821Y-19836271D01*
X8540821Y-19836271D02*
X8553202Y-19830080D01*
X8553202Y-19830080D02*
X8584154Y-19830080D01*
X8584154Y-19830080D02*
X8596535Y-19836271D01*
X8596535Y-19836271D02*
X8602726Y-19842461D01*
X8602726Y-19842461D02*
X8608916Y-19854842D01*
X8608916Y-19854842D02*
X8608916Y-19867223D01*
X8608916Y-19867223D02*
X8602726Y-19885795D01*
X8602726Y-19885795D02*
X8528440Y-19960080D01*
X8528440Y-19960080D02*
X8608916Y-19960080D01*
D10*
D11*
X13528440Y-19830080D02*
X13608916Y-19830080D01*
X13608916Y-19830080D02*
X13565583Y-19879604D01*
X13565583Y-19879604D02*
X13584154Y-19879604D01*
X13584154Y-19879604D02*
X13596535Y-19885795D01*
X13596535Y-19885795D02*
X13602725Y-19891985D01*
X13602725Y-19891985D02*
X13608916Y-19904366D01*
X13608916Y-19904366D02*
X13608916Y-19935319D01*
X13608916Y-19935319D02*
X13602725Y-19947700D01*
X13602725Y-19947700D02*
X13596535Y-19953890D01*
X13596535Y-19953890D02*
X13584154Y-19960080D01*
X13584154Y-19960080D02*
X13547011Y-19960080D01*
X13547011Y-19960080D02*
X13534630Y-19953890D01*
X13534630Y-19953890D02*
X13528440Y-19947700D01*
D10*
D11*
X18596535Y-19873414D02*
X18596535Y-19960080D01*
X18565583Y-19823890D02*
X18534630Y-19916747D01*
X18534630Y-19916747D02*
X18615106Y-19916747D01*
D10*
D11*
X23602725Y-19830080D02*
X23540821Y-19830080D01*
X23540821Y-19830080D02*
X23534630Y-19891985D01*
X23534630Y-19891985D02*
X23540821Y-19885795D01*
X23540821Y-19885795D02*
X23553202Y-19879604D01*
X23553202Y-19879604D02*
X23584154Y-19879604D01*
X23584154Y-19879604D02*
X23596535Y-19885795D01*
X23596535Y-19885795D02*
X23602725Y-19891985D01*
X23602725Y-19891985D02*
X23608916Y-19904366D01*
X23608916Y-19904366D02*
X23608916Y-19935319D01*
X23608916Y-19935319D02*
X23602725Y-19947700D01*
X23602725Y-19947700D02*
X23596535Y-19953890D01*
X23596535Y-19953890D02*
X23584154Y-19960080D01*
X23584154Y-19960080D02*
X23553202Y-19960080D01*
X23553202Y-19960080D02*
X23540821Y-19953890D01*
X23540821Y-19953890D02*
X23534630Y-19947700D01*
D10*
D11*
X28596535Y-19830080D02*
X28571773Y-19830080D01*
X28571773Y-19830080D02*
X28559392Y-19836271D01*
X28559392Y-19836271D02*
X28553202Y-19842461D01*
X28553202Y-19842461D02*
X28540821Y-19861033D01*
X28540821Y-19861033D02*
X28534630Y-19885795D01*
X28534630Y-19885795D02*
X28534630Y-19935319D01*
X28534630Y-19935319D02*
X28540821Y-19947700D01*
X28540821Y-19947700D02*
X28547011Y-19953890D01*
X28547011Y-19953890D02*
X28559392Y-19960080D01*
X28559392Y-19960080D02*
X28584154Y-19960080D01*
X28584154Y-19960080D02*
X28596535Y-19953890D01*
X28596535Y-19953890D02*
X28602725Y-19947700D01*
X28602725Y-19947700D02*
X28608916Y-19935319D01*
X28608916Y-19935319D02*
X28608916Y-19904366D01*
X28608916Y-19904366D02*
X28602725Y-19891985D01*
X28602725Y-19891985D02*
X28596535Y-19885795D01*
X28596535Y-19885795D02*
X28584154Y-19879604D01*
X28584154Y-19879604D02*
X28559392Y-19879604D01*
X28559392Y-19879604D02*
X28547011Y-19885795D01*
X28547011Y-19885795D02*
X28540821Y-19891985D01*
X28540821Y-19891985D02*
X28534630Y-19904366D01*
D10*
D11*
X1000000Y-6000000D02*
X1200000Y-6000000D01*
D10*
D11*
X1000000Y-11000000D02*
X1200000Y-11000000D01*
D10*
D11*
X1000000Y-16000000D02*
X1200000Y-16000000D01*
D10*
D11*
X1069048Y-3522218D02*
X1130952Y-3522218D01*
X1056667Y-3559360D02*
X1100000Y-3429360D01*
X1100000Y-3429360D02*
X1143333Y-3559360D01*
D10*
D11*
X1109286Y-8491265D02*
X1127857Y-8497456D01*
X1127857Y-8497456D02*
X1134048Y-8503646D01*
X1134048Y-8503646D02*
X1140238Y-8516027D01*
X1140238Y-8516027D02*
X1140238Y-8534599D01*
X1140238Y-8534599D02*
X1134048Y-8546980D01*
X1134048Y-8546980D02*
X1127857Y-8553170D01*
X1127857Y-8553170D02*
X1115476Y-8559360D01*
X1115476Y-8559360D02*
X1065952Y-8559360D01*
X1065952Y-8559360D02*
X1065952Y-8429360D01*
X1065952Y-8429360D02*
X1109286Y-8429360D01*
X1109286Y-8429360D02*
X1121667Y-8435551D01*
X1121667Y-8435551D02*
X1127857Y-8441741D01*
X1127857Y-8441741D02*
X1134048Y-8454122D01*
X1134048Y-8454122D02*
X1134048Y-8466503D01*
X1134048Y-8466503D02*
X1127857Y-8478884D01*
X1127857Y-8478884D02*
X1121667Y-8485075D01*
X1121667Y-8485075D02*
X1109286Y-8491265D01*
X1109286Y-8491265D02*
X1065952Y-8491265D01*
D10*
D11*
X1140238Y-13546979D02*
X1134048Y-13553170D01*
X1134048Y-13553170D02*
X1115476Y-13559360D01*
X1115476Y-13559360D02*
X1103095Y-13559360D01*
X1103095Y-13559360D02*
X1084524Y-13553170D01*
X1084524Y-13553170D02*
X1072143Y-13540789D01*
X1072143Y-13540789D02*
X1065952Y-13528408D01*
X1065952Y-13528408D02*
X1059762Y-13503646D01*
X1059762Y-13503646D02*
X1059762Y-13485075D01*
X1059762Y-13485075D02*
X1065952Y-13460313D01*
X1065952Y-13460313D02*
X1072143Y-13447932D01*
X1072143Y-13447932D02*
X1084524Y-13435551D01*
X1084524Y-13435551D02*
X1103095Y-13429360D01*
X1103095Y-13429360D02*
X1115476Y-13429360D01*
X1115476Y-13429360D02*
X1134048Y-13435551D01*
X1134048Y-13435551D02*
X1140238Y-13441741D01*
D10*
D11*
X1065952Y-18559360D02*
X1065952Y-18429360D01*
X1065952Y-18429360D02*
X1096905Y-18429360D01*
X1096905Y-18429360D02*
X1115476Y-18435551D01*
X1115476Y-18435551D02*
X1127857Y-18447932D01*
X1127857Y-18447932D02*
X1134048Y-18460313D01*
X1134048Y-18460313D02*
X1140238Y-18485075D01*
X1140238Y-18485075D02*
X1140238Y-18503646D01*
X1140238Y-18503646D02*
X1134048Y-18528408D01*
X1134048Y-18528408D02*
X1127857Y-18540789D01*
X1127857Y-18540789D02*
X1115476Y-18553170D01*
X1115476Y-18553170D02*
X1096905Y-18559360D01*
X1096905Y-18559360D02*
X1065952Y-18559360D01*
D10*
D11*
X28700220Y-6000000D02*
X28500220Y-6000000D01*
D10*
D11*
X28700220Y-11000000D02*
X28500220Y-11000000D01*
D10*
D11*
X28700220Y-16000000D02*
X28500220Y-16000000D01*
D10*
D11*
X28569268Y-3522218D02*
X28631172Y-3522218D01*
X28556887Y-3559360D02*
X28600220Y-3429360D01*
X28600220Y-3429360D02*
X28643553Y-3559360D01*
D10*
D11*
X28609506Y-8491265D02*
X28628077Y-8497456D01*
X28628077Y-8497456D02*
X28634268Y-8503646D01*
X28634268Y-8503646D02*
X28640458Y-8516027D01*
X28640458Y-8516027D02*
X28640458Y-8534599D01*
X28640458Y-8534599D02*
X28634268Y-8546980D01*
X28634268Y-8546980D02*
X28628077Y-8553170D01*
X28628077Y-8553170D02*
X28615696Y-8559360D01*
X28615696Y-8559360D02*
X28566172Y-8559360D01*
X28566172Y-8559360D02*
X28566172Y-8429360D01*
X28566172Y-8429360D02*
X28609506Y-8429360D01*
X28609506Y-8429360D02*
X28621887Y-8435551D01*
X28621887Y-8435551D02*
X28628077Y-8441741D01*
X28628077Y-8441741D02*
X28634268Y-8454122D01*
X28634268Y-8454122D02*
X28634268Y-8466503D01*
X28634268Y-8466503D02*
X28628077Y-8478884D01*
X28628077Y-8478884D02*
X28621887Y-8485075D01*
X28621887Y-8485075D02*
X28609506Y-8491265D01*
X28609506Y-8491265D02*
X28566172Y-8491265D01*
D10*
D11*
X28640458Y-13546979D02*
X28634268Y-13553170D01*
X28634268Y-13553170D02*
X28615696Y-13559360D01*
X28615696Y-13559360D02*
X28603315Y-13559360D01*
X28603315Y-13559360D02*
X28584744Y-13553170D01*
X28584744Y-13553170D02*
X28572363Y-13540789D01*
X28572363Y-13540789D02*
X28566172Y-13528408D01*
X28566172Y-13528408D02*
X28559982Y-13503646D01*
X28559982Y-13503646D02*
X28559982Y-13485075D01*
X28559982Y-13485075D02*
X28566172Y-13460313D01*
X28566172Y-13460313D02*
X28572363Y-13447932D01*
X28572363Y-13447932D02*
X28584744Y-13435551D01*
X28584744Y-13435551D02*
X28603315Y-13429360D01*
X28603315Y-13429360D02*
X28615696Y-13429360D01*
X28615696Y-13429360D02*
X28634268Y-13435551D01*
X28634268Y-13435551D02*
X28640458Y-13441741D01*
D10*
D11*
X28566172Y-18559360D02*
X28566172Y-18429360D01*
X28566172Y-18429360D02*
X28597125Y-18429360D01*
X28597125Y-18429360D02*
X28615696Y-18435551D01*
X28615696Y-18435551D02*
X28628077Y-18447932D01*
X28628077Y-18447932D02*
X28634268Y-18460313D01*
X28634268Y-18460313D02*
X28640458Y-18485075D01*
X28640458Y-18485075D02*
X28640458Y-18503646D01*
X28640458Y-18503646D02*
X28634268Y-18528408D01*
X28634268Y-18528408D02*
X28628077Y-18540789D01*
X28628077Y-18540789D02*
X28615696Y-18553170D01*
X28615696Y-18553170D02*
X28597125Y-18559360D01*
X28597125Y-18559360D02*
X28566172Y-18559360D01*
D10*
D11*
X20045803Y-19379333D02*
X20045803Y-19229333D01*
X20045803Y-19229333D02*
X20081517Y-19229333D01*
X20081517Y-19229333D02*
X20102946Y-19236476D01*
X20102946Y-19236476D02*
X20117231Y-19250761D01*
X20117231Y-19250761D02*
X20124374Y-19265047D01*
X20124374Y-19265047D02*
X20131517Y-19293619D01*
X20131517Y-19293619D02*
X20131517Y-19315047D01*
X20131517Y-19315047D02*
X20124374Y-19343619D01*
X20124374Y-19343619D02*
X20117231Y-19357904D01*
X20117231Y-19357904D02*
X20102946Y-19372190D01*
X20102946Y-19372190D02*
X20081517Y-19379333D01*
X20081517Y-19379333D02*
X20045803Y-19379333D01*
X20260088Y-19379333D02*
X20260088Y-19300761D01*
X20260088Y-19300761D02*
X20252946Y-19286476D01*
X20252946Y-19286476D02*
X20238660Y-19279333D01*
X20238660Y-19279333D02*
X20210088Y-19279333D01*
X20210088Y-19279333D02*
X20195803Y-19286476D01*
X20260088Y-19372190D02*
X20245803Y-19379333D01*
X20245803Y-19379333D02*
X20210088Y-19379333D01*
X20210088Y-19379333D02*
X20195803Y-19372190D01*
X20195803Y-19372190D02*
X20188660Y-19357904D01*
X20188660Y-19357904D02*
X20188660Y-19343619D01*
X20188660Y-19343619D02*
X20195803Y-19329333D01*
X20195803Y-19329333D02*
X20210088Y-19322190D01*
X20210088Y-19322190D02*
X20245803Y-19322190D01*
X20245803Y-19322190D02*
X20260088Y-19315047D01*
X20310088Y-19279333D02*
X20367231Y-19279333D01*
X20331517Y-19229333D02*
X20331517Y-19357904D01*
X20331517Y-19357904D02*
X20338660Y-19372190D01*
X20338660Y-19372190D02*
X20352946Y-19379333D01*
X20352946Y-19379333D02*
X20367231Y-19379333D01*
X20474374Y-19372190D02*
X20460088Y-19379333D01*
X20460088Y-19379333D02*
X20431517Y-19379333D01*
X20431517Y-19379333D02*
X20417231Y-19372190D01*
X20417231Y-19372190D02*
X20410088Y-19357904D01*
X20410088Y-19357904D02*
X20410088Y-19300761D01*
X20410088Y-19300761D02*
X20417231Y-19286476D01*
X20417231Y-19286476D02*
X20431517Y-19279333D01*
X20431517Y-19279333D02*
X20460088Y-19279333D01*
X20460088Y-19279333D02*
X20474374Y-19286476D01*
X20474374Y-19286476D02*
X20481517Y-19300761D01*
X20481517Y-19300761D02*
X20481517Y-19315047D01*
X20481517Y-19315047D02*
X20410088Y-19329333D01*
X20545803Y-19365047D02*
X20552946Y-19372190D01*
X20552946Y-19372190D02*
X20545803Y-19379333D01*
X20545803Y-19379333D02*
X20538660Y-19372190D01*
X20538660Y-19372190D02*
X20545803Y-19365047D01*
X20545803Y-19365047D02*
X20545803Y-19379333D01*
X20545803Y-19286476D02*
X20552946Y-19293619D01*
X20552946Y-19293619D02*
X20545803Y-19300761D01*
X20545803Y-19300761D02*
X20538660Y-19293619D01*
X20538660Y-19293619D02*
X20545803Y-19286476D01*
X20545803Y-19286476D02*
X20545803Y-19300761D01*
D10*
D11*
X17700220Y-19450720D02*
X28500220Y-19450720D01*
D10*
D11*
X17845803Y-19659333D02*
X17845803Y-19509333D01*
X17931517Y-19659333D02*
X17867231Y-19573619D01*
X17931517Y-19509333D02*
X17845803Y-19595047D01*
X17995803Y-19659333D02*
X17995803Y-19559333D01*
X17995803Y-19509333D02*
X17988660Y-19516476D01*
X17988660Y-19516476D02*
X17995803Y-19523619D01*
X17995803Y-19523619D02*
X18002946Y-19516476D01*
X18002946Y-19516476D02*
X17995803Y-19509333D01*
X17995803Y-19509333D02*
X17995803Y-19523619D01*
X18152946Y-19645047D02*
X18145803Y-19652190D01*
X18145803Y-19652190D02*
X18124374Y-19659333D01*
X18124374Y-19659333D02*
X18110088Y-19659333D01*
X18110088Y-19659333D02*
X18088660Y-19652190D01*
X18088660Y-19652190D02*
X18074374Y-19637904D01*
X18074374Y-19637904D02*
X18067231Y-19623619D01*
X18067231Y-19623619D02*
X18060088Y-19595047D01*
X18060088Y-19595047D02*
X18060088Y-19573619D01*
X18060088Y-19573619D02*
X18067231Y-19545047D01*
X18067231Y-19545047D02*
X18074374Y-19530761D01*
X18074374Y-19530761D02*
X18088660Y-19516476D01*
X18088660Y-19516476D02*
X18110088Y-19509333D01*
X18110088Y-19509333D02*
X18124374Y-19509333D01*
X18124374Y-19509333D02*
X18145803Y-19516476D01*
X18145803Y-19516476D02*
X18152946Y-19523619D01*
X18281517Y-19659333D02*
X18281517Y-19580761D01*
X18281517Y-19580761D02*
X18274374Y-19566476D01*
X18274374Y-19566476D02*
X18260088Y-19559333D01*
X18260088Y-19559333D02*
X18231517Y-19559333D01*
X18231517Y-19559333D02*
X18217231Y-19566476D01*
X18281517Y-19652190D02*
X18267231Y-19659333D01*
X18267231Y-19659333D02*
X18231517Y-19659333D01*
X18231517Y-19659333D02*
X18217231Y-19652190D01*
X18217231Y-19652190D02*
X18210088Y-19637904D01*
X18210088Y-19637904D02*
X18210088Y-19623619D01*
X18210088Y-19623619D02*
X18217231Y-19609333D01*
X18217231Y-19609333D02*
X18231517Y-19602190D01*
X18231517Y-19602190D02*
X18267231Y-19602190D01*
X18267231Y-19602190D02*
X18281517Y-19595047D01*
X18417231Y-19659333D02*
X18417231Y-19509333D01*
X18417231Y-19652190D02*
X18402946Y-19659333D01*
X18402946Y-19659333D02*
X18374374Y-19659333D01*
X18374374Y-19659333D02*
X18360088Y-19652190D01*
X18360088Y-19652190D02*
X18352946Y-19645047D01*
X18352946Y-19645047D02*
X18345803Y-19630761D01*
X18345803Y-19630761D02*
X18345803Y-19587904D01*
X18345803Y-19587904D02*
X18352946Y-19573619D01*
X18352946Y-19573619D02*
X18360088Y-19566476D01*
X18360088Y-19566476D02*
X18374374Y-19559333D01*
X18374374Y-19559333D02*
X18402946Y-19559333D01*
X18402946Y-19559333D02*
X18417231Y-19566476D01*
X18602946Y-19580761D02*
X18652946Y-19580761D01*
X18674374Y-19659333D02*
X18602946Y-19659333D01*
X18602946Y-19659333D02*
X18602946Y-19509333D01*
X18602946Y-19509333D02*
X18674374Y-19509333D01*
X18738660Y-19645047D02*
X18745803Y-19652190D01*
X18745803Y-19652190D02*
X18738660Y-19659333D01*
X18738660Y-19659333D02*
X18731517Y-19652190D01*
X18731517Y-19652190D02*
X18738660Y-19645047D01*
X18738660Y-19645047D02*
X18738660Y-19659333D01*
X18810088Y-19659333D02*
X18810088Y-19509333D01*
X18810088Y-19509333D02*
X18845803Y-19509333D01*
X18845803Y-19509333D02*
X18867231Y-19516476D01*
X18867231Y-19516476D02*
X18881517Y-19530761D01*
X18881517Y-19530761D02*
X18888660Y-19545047D01*
X18888660Y-19545047D02*
X18895803Y-19573619D01*
X18895803Y-19573619D02*
X18895803Y-19595047D01*
X18895803Y-19595047D02*
X18888660Y-19623619D01*
X18888660Y-19623619D02*
X18881517Y-19637904D01*
X18881517Y-19637904D02*
X18867231Y-19652190D01*
X18867231Y-19652190D02*
X18845803Y-19659333D01*
X18845803Y-19659333D02*
X18810088Y-19659333D01*
X18960088Y-19645047D02*
X18967231Y-19652190D01*
X18967231Y-19652190D02*
X18960088Y-19659333D01*
X18960088Y-19659333D02*
X18952946Y-19652190D01*
X18952946Y-19652190D02*
X18960088Y-19645047D01*
X18960088Y-19645047D02*
X18960088Y-19659333D01*
X19024374Y-19616476D02*
X19095803Y-19616476D01*
X19010089Y-19659333D02*
X19060089Y-19509333D01*
X19060089Y-19509333D02*
X19110089Y-19659333D01*
X19160088Y-19645047D02*
X19167231Y-19652190D01*
X19167231Y-19652190D02*
X19160088Y-19659333D01*
X19160088Y-19659333D02*
X19152946Y-19652190D01*
X19152946Y-19652190D02*
X19160088Y-19645047D01*
X19160088Y-19645047D02*
X19160088Y-19659333D01*
X19352946Y-19659333D02*
X19381517Y-19659333D01*
X19381517Y-19659333D02*
X19395803Y-19652190D01*
X19395803Y-19652190D02*
X19402946Y-19645047D01*
X19402946Y-19645047D02*
X19417231Y-19623619D01*
X19417231Y-19623619D02*
X19424374Y-19595047D01*
X19424374Y-19595047D02*
X19424374Y-19537904D01*
X19424374Y-19537904D02*
X19417231Y-19523619D01*
X19417231Y-19523619D02*
X19410089Y-19516476D01*
X19410089Y-19516476D02*
X19395803Y-19509333D01*
X19395803Y-19509333D02*
X19367231Y-19509333D01*
X19367231Y-19509333D02*
X19352946Y-19516476D01*
X19352946Y-19516476D02*
X19345803Y-19523619D01*
X19345803Y-19523619D02*
X19338660Y-19537904D01*
X19338660Y-19537904D02*
X19338660Y-19573619D01*
X19338660Y-19573619D02*
X19345803Y-19587904D01*
X19345803Y-19587904D02*
X19352946Y-19595047D01*
X19352946Y-19595047D02*
X19367231Y-19602190D01*
X19367231Y-19602190D02*
X19395803Y-19602190D01*
X19395803Y-19602190D02*
X19410089Y-19595047D01*
X19410089Y-19595047D02*
X19417231Y-19587904D01*
X19417231Y-19587904D02*
X19424374Y-19573619D01*
X19488660Y-19645047D02*
X19495803Y-19652190D01*
X19495803Y-19652190D02*
X19488660Y-19659333D01*
X19488660Y-19659333D02*
X19481517Y-19652190D01*
X19481517Y-19652190D02*
X19488660Y-19645047D01*
X19488660Y-19645047D02*
X19488660Y-19659333D01*
X19588660Y-19509333D02*
X19602946Y-19509333D01*
X19602946Y-19509333D02*
X19617231Y-19516476D01*
X19617231Y-19516476D02*
X19624374Y-19523619D01*
X19624374Y-19523619D02*
X19631517Y-19537904D01*
X19631517Y-19537904D02*
X19638660Y-19566476D01*
X19638660Y-19566476D02*
X19638660Y-19602190D01*
X19638660Y-19602190D02*
X19631517Y-19630761D01*
X19631517Y-19630761D02*
X19624374Y-19645047D01*
X19624374Y-19645047D02*
X19617231Y-19652190D01*
X19617231Y-19652190D02*
X19602946Y-19659333D01*
X19602946Y-19659333D02*
X19588660Y-19659333D01*
X19588660Y-19659333D02*
X19574374Y-19652190D01*
X19574374Y-19652190D02*
X19567231Y-19645047D01*
X19567231Y-19645047D02*
X19560088Y-19630761D01*
X19560088Y-19630761D02*
X19552946Y-19602190D01*
X19552946Y-19602190D02*
X19552946Y-19566476D01*
X19552946Y-19566476D02*
X19560088Y-19537904D01*
X19560088Y-19537904D02*
X19567231Y-19523619D01*
X19567231Y-19523619D02*
X19574374Y-19516476D01*
X19574374Y-19516476D02*
X19588660Y-19509333D01*
X19702946Y-19645047D02*
X19710088Y-19652190D01*
X19710088Y-19652190D02*
X19702946Y-19659333D01*
X19702946Y-19659333D02*
X19695803Y-19652190D01*
X19695803Y-19652190D02*
X19702946Y-19645047D01*
X19702946Y-19645047D02*
X19702946Y-19659333D01*
X19767231Y-19523619D02*
X19774374Y-19516476D01*
X19774374Y-19516476D02*
X19788660Y-19509333D01*
X19788660Y-19509333D02*
X19824374Y-19509333D01*
X19824374Y-19509333D02*
X19838660Y-19516476D01*
X19838660Y-19516476D02*
X19845803Y-19523619D01*
X19845803Y-19523619D02*
X19852946Y-19537904D01*
X19852946Y-19537904D02*
X19852946Y-19552190D01*
X19852946Y-19552190D02*
X19845803Y-19573619D01*
X19845803Y-19573619D02*
X19760088Y-19659333D01*
X19760088Y-19659333D02*
X19852946Y-19659333D01*
D10*
D11*
X17700220Y-19150720D02*
X28500220Y-19150720D01*
D10*
D12*
X26441385Y-19378553D02*
X26391385Y-19307124D01*
X26355671Y-19378553D02*
X26355671Y-19228553D01*
X26355671Y-19228553D02*
X26412814Y-19228553D01*
X26412814Y-19228553D02*
X26427100Y-19235696D01*
X26427100Y-19235696D02*
X26434242Y-19242839D01*
X26434242Y-19242839D02*
X26441385Y-19257124D01*
X26441385Y-19257124D02*
X26441385Y-19278553D01*
X26441385Y-19278553D02*
X26434242Y-19292839D01*
X26434242Y-19292839D02*
X26427100Y-19299981D01*
X26427100Y-19299981D02*
X26412814Y-19307124D01*
X26412814Y-19307124D02*
X26355671Y-19307124D01*
X26562814Y-19371410D02*
X26548528Y-19378553D01*
X26548528Y-19378553D02*
X26519957Y-19378553D01*
X26519957Y-19378553D02*
X26505671Y-19371410D01*
X26505671Y-19371410D02*
X26498528Y-19357124D01*
X26498528Y-19357124D02*
X26498528Y-19299981D01*
X26498528Y-19299981D02*
X26505671Y-19285696D01*
X26505671Y-19285696D02*
X26519957Y-19278553D01*
X26519957Y-19278553D02*
X26548528Y-19278553D01*
X26548528Y-19278553D02*
X26562814Y-19285696D01*
X26562814Y-19285696D02*
X26569957Y-19299981D01*
X26569957Y-19299981D02*
X26569957Y-19314267D01*
X26569957Y-19314267D02*
X26498528Y-19328553D01*
X26619957Y-19278553D02*
X26655671Y-19378553D01*
X26655671Y-19378553D02*
X26691385Y-19278553D01*
X26748528Y-19364267D02*
X26755671Y-19371410D01*
X26755671Y-19371410D02*
X26748528Y-19378553D01*
X26748528Y-19378553D02*
X26741385Y-19371410D01*
X26741385Y-19371410D02*
X26748528Y-19364267D01*
X26748528Y-19364267D02*
X26748528Y-19378553D01*
X26748528Y-19285696D02*
X26755671Y-19292839D01*
X26755671Y-19292839D02*
X26748528Y-19299981D01*
X26748528Y-19299981D02*
X26741385Y-19292839D01*
X26741385Y-19292839D02*
X26748528Y-19285696D01*
X26748528Y-19285696D02*
X26748528Y-19299981D01*
D10*
D11*
X17838660Y-19372190D02*
X17860088Y-19379333D01*
X17860088Y-19379333D02*
X17895803Y-19379333D01*
X17895803Y-19379333D02*
X17910088Y-19372190D01*
X17910088Y-19372190D02*
X17917231Y-19365047D01*
X17917231Y-19365047D02*
X17924374Y-19350761D01*
X17924374Y-19350761D02*
X17924374Y-19336476D01*
X17924374Y-19336476D02*
X17917231Y-19322190D01*
X17917231Y-19322190D02*
X17910088Y-19315047D01*
X17910088Y-19315047D02*
X17895803Y-19307904D01*
X17895803Y-19307904D02*
X17867231Y-19300761D01*
X17867231Y-19300761D02*
X17852946Y-19293619D01*
X17852946Y-19293619D02*
X17845803Y-19286476D01*
X17845803Y-19286476D02*
X17838660Y-19272190D01*
X17838660Y-19272190D02*
X17838660Y-19257904D01*
X17838660Y-19257904D02*
X17845803Y-19243619D01*
X17845803Y-19243619D02*
X17852946Y-19236476D01*
X17852946Y-19236476D02*
X17867231Y-19229333D01*
X17867231Y-19229333D02*
X17902946Y-19229333D01*
X17902946Y-19229333D02*
X17924374Y-19236476D01*
X17988660Y-19379333D02*
X17988660Y-19279333D01*
X17988660Y-19229333D02*
X17981517Y-19236476D01*
X17981517Y-19236476D02*
X17988660Y-19243619D01*
X17988660Y-19243619D02*
X17995803Y-19236476D01*
X17995803Y-19236476D02*
X17988660Y-19229333D01*
X17988660Y-19229333D02*
X17988660Y-19243619D01*
X18045803Y-19279333D02*
X18124374Y-19279333D01*
X18124374Y-19279333D02*
X18045803Y-19379333D01*
X18045803Y-19379333D02*
X18124374Y-19379333D01*
X18238660Y-19372190D02*
X18224374Y-19379333D01*
X18224374Y-19379333D02*
X18195803Y-19379333D01*
X18195803Y-19379333D02*
X18181517Y-19372190D01*
X18181517Y-19372190D02*
X18174374Y-19357904D01*
X18174374Y-19357904D02*
X18174374Y-19300761D01*
X18174374Y-19300761D02*
X18181517Y-19286476D01*
X18181517Y-19286476D02*
X18195803Y-19279333D01*
X18195803Y-19279333D02*
X18224374Y-19279333D01*
X18224374Y-19279333D02*
X18238660Y-19286476D01*
X18238660Y-19286476D02*
X18245803Y-19300761D01*
X18245803Y-19300761D02*
X18245803Y-19315047D01*
X18245803Y-19315047D02*
X18174374Y-19329333D01*
X18310088Y-19365047D02*
X18317231Y-19372190D01*
X18317231Y-19372190D02*
X18310088Y-19379333D01*
X18310088Y-19379333D02*
X18302946Y-19372190D01*
X18302946Y-19372190D02*
X18310088Y-19365047D01*
X18310088Y-19365047D02*
X18310088Y-19379333D01*
X18310088Y-19286476D02*
X18317231Y-19293619D01*
X18317231Y-19293619D02*
X18310088Y-19300761D01*
X18310088Y-19300761D02*
X18302946Y-19293619D01*
X18302946Y-19293619D02*
X18310088Y-19286476D01*
X18310088Y-19286476D02*
X18310088Y-19300761D01*
X18488660Y-19336476D02*
X18560088Y-19336476D01*
X18474374Y-19379333D02*
X18524374Y-19229333D01*
X18524374Y-19229333D02*
X18574374Y-19379333D01*
X18688660Y-19279333D02*
X18688660Y-19379333D01*
X18652946Y-19222190D02*
X18617231Y-19329333D01*
X18617231Y-19329333D02*
X18710088Y-19329333D01*
D10*
D11*
X26345803Y-19659333D02*
X26345803Y-19509333D01*
X26481517Y-19659333D02*
X26481517Y-19509333D01*
X26481517Y-19652190D02*
X26467231Y-19659333D01*
X26467231Y-19659333D02*
X26438660Y-19659333D01*
X26438660Y-19659333D02*
X26424374Y-19652190D01*
X26424374Y-19652190D02*
X26417231Y-19645047D01*
X26417231Y-19645047D02*
X26410088Y-19630761D01*
X26410088Y-19630761D02*
X26410088Y-19587904D01*
X26410088Y-19587904D02*
X26417231Y-19573619D01*
X26417231Y-19573619D02*
X26424374Y-19566476D01*
X26424374Y-19566476D02*
X26438660Y-19559333D01*
X26438660Y-19559333D02*
X26467231Y-19559333D01*
X26467231Y-19559333D02*
X26481517Y-19566476D01*
X26552945Y-19645047D02*
X26560088Y-19652190D01*
X26560088Y-19652190D02*
X26552945Y-19659333D01*
X26552945Y-19659333D02*
X26545803Y-19652190D01*
X26545803Y-19652190D02*
X26552945Y-19645047D01*
X26552945Y-19645047D02*
X26552945Y-19659333D01*
X26552945Y-19566476D02*
X26560088Y-19573619D01*
X26560088Y-19573619D02*
X26552945Y-19580761D01*
X26552945Y-19580761D02*
X26545803Y-19573619D01*
X26545803Y-19573619D02*
X26552945Y-19566476D01*
X26552945Y-19566476D02*
X26552945Y-19580761D01*
X26810088Y-19509333D02*
X26738660Y-19509333D01*
X26738660Y-19509333D02*
X26731517Y-19580761D01*
X26731517Y-19580761D02*
X26738660Y-19573619D01*
X26738660Y-19573619D02*
X26752946Y-19566476D01*
X26752946Y-19566476D02*
X26788660Y-19566476D01*
X26788660Y-19566476D02*
X26802946Y-19573619D01*
X26802946Y-19573619D02*
X26810088Y-19580761D01*
X26810088Y-19580761D02*
X26817231Y-19595047D01*
X26817231Y-19595047D02*
X26817231Y-19630761D01*
X26817231Y-19630761D02*
X26810088Y-19645047D01*
X26810088Y-19645047D02*
X26802946Y-19652190D01*
X26802946Y-19652190D02*
X26788660Y-19659333D01*
X26788660Y-19659333D02*
X26752946Y-19659333D01*
X26752946Y-19659333D02*
X26738660Y-19652190D01*
X26738660Y-19652190D02*
X26731517Y-19645047D01*
X26988660Y-19502190D02*
X26860088Y-19695047D01*
X27045803Y-19659333D02*
X27074374Y-19659333D01*
X27074374Y-19659333D02*
X27088660Y-19652190D01*
X27088660Y-19652190D02*
X27095803Y-19645047D01*
X27095803Y-19645047D02*
X27110088Y-19623619D01*
X27110088Y-19623619D02*
X27117231Y-19595047D01*
X27117231Y-19595047D02*
X27117231Y-19537904D01*
X27117231Y-19537904D02*
X27110088Y-19523619D01*
X27110088Y-19523619D02*
X27102946Y-19516476D01*
X27102946Y-19516476D02*
X27088660Y-19509333D01*
X27088660Y-19509333D02*
X27060088Y-19509333D01*
X27060088Y-19509333D02*
X27045803Y-19516476D01*
X27045803Y-19516476D02*
X27038660Y-19523619D01*
X27038660Y-19523619D02*
X27031517Y-19537904D01*
X27031517Y-19537904D02*
X27031517Y-19573619D01*
X27031517Y-19573619D02*
X27038660Y-19587904D01*
X27038660Y-19587904D02*
X27045803Y-19595047D01*
X27045803Y-19595047D02*
X27060088Y-19602190D01*
X27060088Y-19602190D02*
X27088660Y-19602190D01*
X27088660Y-19602190D02*
X27102946Y-19595047D01*
X27102946Y-19595047D02*
X27110088Y-19587904D01*
X27110088Y-19587904D02*
X27117231Y-19573619D01*
D10*
D11*
X17700220Y-18750720D02*
X28500220Y-18750720D01*
D10*
D13*
X17869393Y-18821164D02*
X17983679Y-18821164D01*
X17901536Y-19021164D02*
X17926536Y-18821164D01*
X18025345Y-19021164D02*
X18042012Y-18887830D01*
X18050345Y-18821164D02*
X18039631Y-18830688D01*
X18039631Y-18830688D02*
X18047964Y-18840211D01*
X18047964Y-18840211D02*
X18058679Y-18830688D01*
X18058679Y-18830688D02*
X18050345Y-18821164D01*
X18050345Y-18821164D02*
X18047964Y-18840211D01*
X18108679Y-18887830D02*
X18184869Y-18887830D01*
X18145583Y-18821164D02*
X18124155Y-18992592D01*
X18124155Y-18992592D02*
X18131298Y-19011640D01*
X18131298Y-19011640D02*
X18149155Y-19021164D01*
X18149155Y-19021164D02*
X18168202Y-19021164D01*
X18263441Y-19021164D02*
X18245583Y-19011640D01*
X18245583Y-19011640D02*
X18238441Y-18992592D01*
X18238441Y-18992592D02*
X18259869Y-18821164D01*
X18417012Y-19011640D02*
X18396774Y-19021164D01*
X18396774Y-19021164D02*
X18358679Y-19021164D01*
X18358679Y-19021164D02*
X18340821Y-19011640D01*
X18340821Y-19011640D02*
X18333679Y-18992592D01*
X18333679Y-18992592D02*
X18343202Y-18916402D01*
X18343202Y-18916402D02*
X18355107Y-18897354D01*
X18355107Y-18897354D02*
X18375345Y-18887830D01*
X18375345Y-18887830D02*
X18413440Y-18887830D01*
X18413440Y-18887830D02*
X18431298Y-18897354D01*
X18431298Y-18897354D02*
X18438440Y-18916402D01*
X18438440Y-18916402D02*
X18436060Y-18935450D01*
X18436060Y-18935450D02*
X18338440Y-18954497D01*
X18513441Y-19002116D02*
X18521774Y-19011640D01*
X18521774Y-19011640D02*
X18511060Y-19021164D01*
X18511060Y-19021164D02*
X18502726Y-19011640D01*
X18502726Y-19011640D02*
X18513441Y-19002116D01*
X18513441Y-19002116D02*
X18511060Y-19021164D01*
X18526536Y-18897354D02*
X18534869Y-18906878D01*
X18534869Y-18906878D02*
X18524155Y-18916402D01*
X18524155Y-18916402D02*
X18515821Y-18906878D01*
X18515821Y-18906878D02*
X18526536Y-18897354D01*
X18526536Y-18897354D02*
X18524155Y-18916402D01*
D10*
D11*
X17895803Y-18560761D02*
X17845803Y-18560761D01*
X17845803Y-18639333D02*
X17845803Y-18489333D01*
X17845803Y-18489333D02*
X17917231Y-18489333D01*
X17974374Y-18639333D02*
X17974374Y-18539333D01*
X17974374Y-18489333D02*
X17967231Y-18496476D01*
X17967231Y-18496476D02*
X17974374Y-18503619D01*
X17974374Y-18503619D02*
X17981517Y-18496476D01*
X17981517Y-18496476D02*
X17974374Y-18489333D01*
X17974374Y-18489333D02*
X17974374Y-18503619D01*
X18067231Y-18639333D02*
X18052946Y-18632190D01*
X18052946Y-18632190D02*
X18045803Y-18617904D01*
X18045803Y-18617904D02*
X18045803Y-18489333D01*
X18181517Y-18632190D02*
X18167231Y-18639333D01*
X18167231Y-18639333D02*
X18138660Y-18639333D01*
X18138660Y-18639333D02*
X18124374Y-18632190D01*
X18124374Y-18632190D02*
X18117231Y-18617904D01*
X18117231Y-18617904D02*
X18117231Y-18560761D01*
X18117231Y-18560761D02*
X18124374Y-18546476D01*
X18124374Y-18546476D02*
X18138660Y-18539333D01*
X18138660Y-18539333D02*
X18167231Y-18539333D01*
X18167231Y-18539333D02*
X18181517Y-18546476D01*
X18181517Y-18546476D02*
X18188660Y-18560761D01*
X18188660Y-18560761D02*
X18188660Y-18575047D01*
X18188660Y-18575047D02*
X18117231Y-18589333D01*
X18252945Y-18625047D02*
X18260088Y-18632190D01*
X18260088Y-18632190D02*
X18252945Y-18639333D01*
X18252945Y-18639333D02*
X18245803Y-18632190D01*
X18245803Y-18632190D02*
X18252945Y-18625047D01*
X18252945Y-18625047D02*
X18252945Y-18639333D01*
X18252945Y-18546476D02*
X18260088Y-18553619D01*
X18260088Y-18553619D02*
X18252945Y-18560761D01*
X18252945Y-18560761D02*
X18245803Y-18553619D01*
X18245803Y-18553619D02*
X18252945Y-18546476D01*
X18252945Y-18546476D02*
X18252945Y-18560761D01*
X18524374Y-18639333D02*
X18474374Y-18567904D01*
X18438660Y-18639333D02*
X18438660Y-18489333D01*
X18438660Y-18489333D02*
X18495803Y-18489333D01*
X18495803Y-18489333D02*
X18510088Y-18496476D01*
X18510088Y-18496476D02*
X18517231Y-18503619D01*
X18517231Y-18503619D02*
X18524374Y-18517904D01*
X18524374Y-18517904D02*
X18524374Y-18539333D01*
X18524374Y-18539333D02*
X18517231Y-18553619D01*
X18517231Y-18553619D02*
X18510088Y-18560761D01*
X18510088Y-18560761D02*
X18495803Y-18567904D01*
X18495803Y-18567904D02*
X18438660Y-18567904D01*
X18567231Y-18489333D02*
X18652946Y-18489333D01*
X18610088Y-18639333D02*
X18610088Y-18489333D01*
X18774374Y-18639333D02*
X18702945Y-18639333D01*
X18702945Y-18639333D02*
X18702945Y-18489333D01*
X18845803Y-18553619D02*
X18831517Y-18546476D01*
X18831517Y-18546476D02*
X18824374Y-18539333D01*
X18824374Y-18539333D02*
X18817231Y-18525047D01*
X18817231Y-18525047D02*
X18817231Y-18517904D01*
X18817231Y-18517904D02*
X18824374Y-18503619D01*
X18824374Y-18503619D02*
X18831517Y-18496476D01*
X18831517Y-18496476D02*
X18845803Y-18489333D01*
X18845803Y-18489333D02*
X18874374Y-18489333D01*
X18874374Y-18489333D02*
X18888660Y-18496476D01*
X18888660Y-18496476D02*
X18895803Y-18503619D01*
X18895803Y-18503619D02*
X18902946Y-18517904D01*
X18902946Y-18517904D02*
X18902946Y-18525047D01*
X18902946Y-18525047D02*
X18895803Y-18539333D01*
X18895803Y-18539333D02*
X18888660Y-18546476D01*
X18888660Y-18546476D02*
X18874374Y-18553619D01*
X18874374Y-18553619D02*
X18845803Y-18553619D01*
X18845803Y-18553619D02*
X18831517Y-18560761D01*
X18831517Y-18560761D02*
X18824374Y-18567904D01*
X18824374Y-18567904D02*
X18817231Y-18582190D01*
X18817231Y-18582190D02*
X18817231Y-18610761D01*
X18817231Y-18610761D02*
X18824374Y-18625047D01*
X18824374Y-18625047D02*
X18831517Y-18632190D01*
X18831517Y-18632190D02*
X18845803Y-18639333D01*
X18845803Y-18639333D02*
X18874374Y-18639333D01*
X18874374Y-18639333D02*
X18888660Y-18632190D01*
X18888660Y-18632190D02*
X18895803Y-18625047D01*
X18895803Y-18625047D02*
X18902946Y-18610761D01*
X18902946Y-18610761D02*
X18902946Y-18582190D01*
X18902946Y-18582190D02*
X18895803Y-18567904D01*
X18895803Y-18567904D02*
X18888660Y-18560761D01*
X18888660Y-18560761D02*
X18874374Y-18553619D01*
X18952945Y-18489333D02*
X19052945Y-18489333D01*
X19052945Y-18489333D02*
X18988660Y-18639333D01*
X19102945Y-18503619D02*
X19110088Y-18496476D01*
X19110088Y-18496476D02*
X19124374Y-18489333D01*
X19124374Y-18489333D02*
X19160088Y-18489333D01*
X19160088Y-18489333D02*
X19174374Y-18496476D01*
X19174374Y-18496476D02*
X19181517Y-18503619D01*
X19181517Y-18503619D02*
X19188660Y-18517904D01*
X19188660Y-18517904D02*
X19188660Y-18532190D01*
X19188660Y-18532190D02*
X19181517Y-18553619D01*
X19181517Y-18553619D02*
X19095803Y-18639333D01*
X19095803Y-18639333D02*
X19188660Y-18639333D01*
X19238660Y-18489333D02*
X19331517Y-18489333D01*
X19331517Y-18489333D02*
X19281517Y-18546476D01*
X19281517Y-18546476D02*
X19302945Y-18546476D01*
X19302945Y-18546476D02*
X19317231Y-18553619D01*
X19317231Y-18553619D02*
X19324374Y-18560761D01*
X19324374Y-18560761D02*
X19331517Y-18575047D01*
X19331517Y-18575047D02*
X19331517Y-18610761D01*
X19331517Y-18610761D02*
X19324374Y-18625047D01*
X19324374Y-18625047D02*
X19317231Y-18632190D01*
X19317231Y-18632190D02*
X19302945Y-18639333D01*
X19302945Y-18639333D02*
X19260088Y-18639333D01*
X19260088Y-18639333D02*
X19245803Y-18632190D01*
X19245803Y-18632190D02*
X19238660Y-18625047D01*
X19395802Y-18639333D02*
X19395802Y-18489333D01*
X19395802Y-18489333D02*
X19431517Y-18489333D01*
X19431517Y-18489333D02*
X19452945Y-18496476D01*
X19452945Y-18496476D02*
X19467231Y-18510761D01*
X19467231Y-18510761D02*
X19474374Y-18525047D01*
X19474374Y-18525047D02*
X19481517Y-18553619D01*
X19481517Y-18553619D02*
X19481517Y-18575047D01*
X19481517Y-18575047D02*
X19474374Y-18603619D01*
X19474374Y-18603619D02*
X19467231Y-18617904D01*
X19467231Y-18617904D02*
X19452945Y-18632190D01*
X19452945Y-18632190D02*
X19431517Y-18639333D01*
X19431517Y-18639333D02*
X19395802Y-18639333D01*
X19538660Y-18632190D02*
X19560088Y-18639333D01*
X19560088Y-18639333D02*
X19595802Y-18639333D01*
X19595802Y-18639333D02*
X19610088Y-18632190D01*
X19610088Y-18632190D02*
X19617231Y-18625047D01*
X19617231Y-18625047D02*
X19624374Y-18610761D01*
X19624374Y-18610761D02*
X19624374Y-18596476D01*
X19624374Y-18596476D02*
X19617231Y-18582190D01*
X19617231Y-18582190D02*
X19610088Y-18575047D01*
X19610088Y-18575047D02*
X19595802Y-18567904D01*
X19595802Y-18567904D02*
X19567231Y-18560761D01*
X19567231Y-18560761D02*
X19552945Y-18553619D01*
X19552945Y-18553619D02*
X19545802Y-18546476D01*
X19545802Y-18546476D02*
X19538660Y-18532190D01*
X19538660Y-18532190D02*
X19538660Y-18517904D01*
X19538660Y-18517904D02*
X19545802Y-18503619D01*
X19545802Y-18503619D02*
X19552945Y-18496476D01*
X19552945Y-18496476D02*
X19567231Y-18489333D01*
X19567231Y-18489333D02*
X19602945Y-18489333D01*
X19602945Y-18489333D02*
X19624374Y-18496476D01*
X19688660Y-18582190D02*
X19802945Y-18582190D01*
X19924374Y-18560761D02*
X19945802Y-18567904D01*
X19945802Y-18567904D02*
X19952945Y-18575047D01*
X19952945Y-18575047D02*
X19960088Y-18589333D01*
X19960088Y-18589333D02*
X19960088Y-18610761D01*
X19960088Y-18610761D02*
X19952945Y-18625047D01*
X19952945Y-18625047D02*
X19945802Y-18632190D01*
X19945802Y-18632190D02*
X19931517Y-18639333D01*
X19931517Y-18639333D02*
X19874374Y-18639333D01*
X19874374Y-18639333D02*
X19874374Y-18489333D01*
X19874374Y-18489333D02*
X19924374Y-18489333D01*
X19924374Y-18489333D02*
X19938660Y-18496476D01*
X19938660Y-18496476D02*
X19945802Y-18503619D01*
X19945802Y-18503619D02*
X19952945Y-18517904D01*
X19952945Y-18517904D02*
X19952945Y-18532190D01*
X19952945Y-18532190D02*
X19945802Y-18546476D01*
X19945802Y-18546476D02*
X19938660Y-18553619D01*
X19938660Y-18553619D02*
X19924374Y-18560761D01*
X19924374Y-18560761D02*
X19874374Y-18560761D01*
X20024374Y-18639333D02*
X20024374Y-18539333D01*
X20024374Y-18567904D02*
X20031517Y-18553619D01*
X20031517Y-18553619D02*
X20038660Y-18546476D01*
X20038660Y-18546476D02*
X20052945Y-18539333D01*
X20052945Y-18539333D02*
X20067231Y-18539333D01*
X20174374Y-18632190D02*
X20160088Y-18639333D01*
X20160088Y-18639333D02*
X20131517Y-18639333D01*
X20131517Y-18639333D02*
X20117231Y-18632190D01*
X20117231Y-18632190D02*
X20110088Y-18617904D01*
X20110088Y-18617904D02*
X20110088Y-18560761D01*
X20110088Y-18560761D02*
X20117231Y-18546476D01*
X20117231Y-18546476D02*
X20131517Y-18539333D01*
X20131517Y-18539333D02*
X20160088Y-18539333D01*
X20160088Y-18539333D02*
X20174374Y-18546476D01*
X20174374Y-18546476D02*
X20181517Y-18560761D01*
X20181517Y-18560761D02*
X20181517Y-18575047D01*
X20181517Y-18575047D02*
X20110088Y-18589333D01*
X20310088Y-18639333D02*
X20310088Y-18560761D01*
X20310088Y-18560761D02*
X20302945Y-18546476D01*
X20302945Y-18546476D02*
X20288660Y-18539333D01*
X20288660Y-18539333D02*
X20260088Y-18539333D01*
X20260088Y-18539333D02*
X20245802Y-18546476D01*
X20310088Y-18632190D02*
X20295802Y-18639333D01*
X20295802Y-18639333D02*
X20260088Y-18639333D01*
X20260088Y-18639333D02*
X20245802Y-18632190D01*
X20245802Y-18632190D02*
X20238660Y-18617904D01*
X20238660Y-18617904D02*
X20238660Y-18603619D01*
X20238660Y-18603619D02*
X20245802Y-18589333D01*
X20245802Y-18589333D02*
X20260088Y-18582190D01*
X20260088Y-18582190D02*
X20295802Y-18582190D01*
X20295802Y-18582190D02*
X20310088Y-18575047D01*
X20381517Y-18639333D02*
X20381517Y-18489333D01*
X20395802Y-18582190D02*
X20438660Y-18639333D01*
X20438660Y-18539333D02*
X20381517Y-18596476D01*
X20531517Y-18489333D02*
X20560088Y-18489333D01*
X20560088Y-18489333D02*
X20574374Y-18496476D01*
X20574374Y-18496476D02*
X20588660Y-18510761D01*
X20588660Y-18510761D02*
X20595802Y-18539333D01*
X20595802Y-18539333D02*
X20595802Y-18589333D01*
X20595802Y-18589333D02*
X20588660Y-18617904D01*
X20588660Y-18617904D02*
X20574374Y-18632190D01*
X20574374Y-18632190D02*
X20560088Y-18639333D01*
X20560088Y-18639333D02*
X20531517Y-18639333D01*
X20531517Y-18639333D02*
X20517231Y-18632190D01*
X20517231Y-18632190D02*
X20502945Y-18617904D01*
X20502945Y-18617904D02*
X20495802Y-18589333D01*
X20495802Y-18589333D02*
X20495802Y-18539333D01*
X20495802Y-18539333D02*
X20502945Y-18510761D01*
X20502945Y-18510761D02*
X20517231Y-18496476D01*
X20517231Y-18496476D02*
X20531517Y-18489333D01*
X20724374Y-18539333D02*
X20724374Y-18639333D01*
X20660088Y-18539333D02*
X20660088Y-18617904D01*
X20660088Y-18617904D02*
X20667231Y-18632190D01*
X20667231Y-18632190D02*
X20681517Y-18639333D01*
X20681517Y-18639333D02*
X20702945Y-18639333D01*
X20702945Y-18639333D02*
X20717231Y-18632190D01*
X20717231Y-18632190D02*
X20724374Y-18625047D01*
X20774374Y-18539333D02*
X20831517Y-18539333D01*
X20795802Y-18489333D02*
X20795802Y-18617904D01*
X20795802Y-18617904D02*
X20802945Y-18632190D01*
X20802945Y-18632190D02*
X20817231Y-18639333D01*
X20817231Y-18639333D02*
X20831517Y-18639333D01*
X20881517Y-18625047D02*
X20888660Y-18632190D01*
X20888660Y-18632190D02*
X20881517Y-18639333D01*
X20881517Y-18639333D02*
X20874374Y-18632190D01*
X20874374Y-18632190D02*
X20881517Y-18625047D01*
X20881517Y-18625047D02*
X20881517Y-18639333D01*
X20952945Y-18639333D02*
X20952945Y-18489333D01*
X20967231Y-18582190D02*
X21010088Y-18639333D01*
X21010088Y-18539333D02*
X20952945Y-18596476D01*
X21074374Y-18639333D02*
X21074374Y-18539333D01*
X21074374Y-18489333D02*
X21067231Y-18496476D01*
X21067231Y-18496476D02*
X21074374Y-18503619D01*
X21074374Y-18503619D02*
X21081517Y-18496476D01*
X21081517Y-18496476D02*
X21074374Y-18489333D01*
X21074374Y-18489333D02*
X21074374Y-18503619D01*
X21210088Y-18632190D02*
X21195803Y-18639333D01*
X21195803Y-18639333D02*
X21167231Y-18639333D01*
X21167231Y-18639333D02*
X21152945Y-18632190D01*
X21152945Y-18632190D02*
X21145803Y-18625047D01*
X21145803Y-18625047D02*
X21138660Y-18610761D01*
X21138660Y-18610761D02*
X21138660Y-18567904D01*
X21138660Y-18567904D02*
X21145803Y-18553619D01*
X21145803Y-18553619D02*
X21152945Y-18546476D01*
X21152945Y-18546476D02*
X21167231Y-18539333D01*
X21167231Y-18539333D02*
X21195803Y-18539333D01*
X21195803Y-18539333D02*
X21210088Y-18546476D01*
X21338660Y-18639333D02*
X21338660Y-18560761D01*
X21338660Y-18560761D02*
X21331517Y-18546476D01*
X21331517Y-18546476D02*
X21317231Y-18539333D01*
X21317231Y-18539333D02*
X21288660Y-18539333D01*
X21288660Y-18539333D02*
X21274374Y-18546476D01*
X21338660Y-18632190D02*
X21324374Y-18639333D01*
X21324374Y-18639333D02*
X21288660Y-18639333D01*
X21288660Y-18639333D02*
X21274374Y-18632190D01*
X21274374Y-18632190D02*
X21267231Y-18617904D01*
X21267231Y-18617904D02*
X21267231Y-18603619D01*
X21267231Y-18603619D02*
X21274374Y-18589333D01*
X21274374Y-18589333D02*
X21288660Y-18582190D01*
X21288660Y-18582190D02*
X21324374Y-18582190D01*
X21324374Y-18582190D02*
X21338660Y-18575047D01*
X21474374Y-18639333D02*
X21474374Y-18489333D01*
X21474374Y-18632190D02*
X21460088Y-18639333D01*
X21460088Y-18639333D02*
X21431517Y-18639333D01*
X21431517Y-18639333D02*
X21417231Y-18632190D01*
X21417231Y-18632190D02*
X21410088Y-18625047D01*
X21410088Y-18625047D02*
X21402945Y-18610761D01*
X21402945Y-18610761D02*
X21402945Y-18567904D01*
X21402945Y-18567904D02*
X21410088Y-18553619D01*
X21410088Y-18553619D02*
X21417231Y-18546476D01*
X21417231Y-18546476D02*
X21431517Y-18539333D01*
X21431517Y-18539333D02*
X21460088Y-18539333D01*
X21460088Y-18539333D02*
X21474374Y-18546476D01*
X21510088Y-18653619D02*
X21624374Y-18653619D01*
X21660088Y-18539333D02*
X21660088Y-18689333D01*
X21660088Y-18546476D02*
X21674374Y-18539333D01*
X21674374Y-18539333D02*
X21702945Y-18539333D01*
X21702945Y-18539333D02*
X21717231Y-18546476D01*
X21717231Y-18546476D02*
X21724374Y-18553619D01*
X21724374Y-18553619D02*
X21731517Y-18567904D01*
X21731517Y-18567904D02*
X21731517Y-18610761D01*
X21731517Y-18610761D02*
X21724374Y-18625047D01*
X21724374Y-18625047D02*
X21717231Y-18632190D01*
X21717231Y-18632190D02*
X21702945Y-18639333D01*
X21702945Y-18639333D02*
X21674374Y-18639333D01*
X21674374Y-18639333D02*
X21660088Y-18632190D01*
X21860088Y-18632190D02*
X21845803Y-18639333D01*
X21845803Y-18639333D02*
X21817231Y-18639333D01*
X21817231Y-18639333D02*
X21802945Y-18632190D01*
X21802945Y-18632190D02*
X21795803Y-18625047D01*
X21795803Y-18625047D02*
X21788660Y-18610761D01*
X21788660Y-18610761D02*
X21788660Y-18567904D01*
X21788660Y-18567904D02*
X21795803Y-18553619D01*
X21795803Y-18553619D02*
X21802945Y-18546476D01*
X21802945Y-18546476D02*
X21817231Y-18539333D01*
X21817231Y-18539333D02*
X21845803Y-18539333D01*
X21845803Y-18539333D02*
X21860088Y-18546476D01*
X21924374Y-18639333D02*
X21924374Y-18489333D01*
X21924374Y-18546476D02*
X21938660Y-18539333D01*
X21938660Y-18539333D02*
X21967231Y-18539333D01*
X21967231Y-18539333D02*
X21981517Y-18546476D01*
X21981517Y-18546476D02*
X21988660Y-18553619D01*
X21988660Y-18553619D02*
X21995803Y-18567904D01*
X21995803Y-18567904D02*
X21995803Y-18610761D01*
X21995803Y-18610761D02*
X21988660Y-18625047D01*
X21988660Y-18625047D02*
X21981517Y-18632190D01*
X21981517Y-18632190D02*
X21967231Y-18639333D01*
X21967231Y-18639333D02*
X21938660Y-18639333D01*
X21938660Y-18639333D02*
X21924374Y-18632190D01*
D10*
D11*
X17700220Y-18150720D02*
X28500220Y-18150720D01*
D10*
D11*
X17838660Y-18362190D02*
X17860088Y-18369333D01*
X17860088Y-18369333D02*
X17895803Y-18369333D01*
X17895803Y-18369333D02*
X17910088Y-18362190D01*
X17910088Y-18362190D02*
X17917231Y-18355047D01*
X17917231Y-18355047D02*
X17924374Y-18340761D01*
X17924374Y-18340761D02*
X17924374Y-18326476D01*
X17924374Y-18326476D02*
X17917231Y-18312190D01*
X17917231Y-18312190D02*
X17910088Y-18305047D01*
X17910088Y-18305047D02*
X17895803Y-18297904D01*
X17895803Y-18297904D02*
X17867231Y-18290761D01*
X17867231Y-18290761D02*
X17852946Y-18283619D01*
X17852946Y-18283619D02*
X17845803Y-18276476D01*
X17845803Y-18276476D02*
X17838660Y-18262190D01*
X17838660Y-18262190D02*
X17838660Y-18247904D01*
X17838660Y-18247904D02*
X17845803Y-18233619D01*
X17845803Y-18233619D02*
X17852946Y-18226476D01*
X17852946Y-18226476D02*
X17867231Y-18219333D01*
X17867231Y-18219333D02*
X17902946Y-18219333D01*
X17902946Y-18219333D02*
X17924374Y-18226476D01*
X17988660Y-18369333D02*
X17988660Y-18219333D01*
X18052946Y-18369333D02*
X18052946Y-18290761D01*
X18052946Y-18290761D02*
X18045803Y-18276476D01*
X18045803Y-18276476D02*
X18031517Y-18269333D01*
X18031517Y-18269333D02*
X18010088Y-18269333D01*
X18010088Y-18269333D02*
X17995803Y-18276476D01*
X17995803Y-18276476D02*
X17988660Y-18283619D01*
X18181517Y-18362190D02*
X18167231Y-18369333D01*
X18167231Y-18369333D02*
X18138660Y-18369333D01*
X18138660Y-18369333D02*
X18124374Y-18362190D01*
X18124374Y-18362190D02*
X18117231Y-18347904D01*
X18117231Y-18347904D02*
X18117231Y-18290761D01*
X18117231Y-18290761D02*
X18124374Y-18276476D01*
X18124374Y-18276476D02*
X18138660Y-18269333D01*
X18138660Y-18269333D02*
X18167231Y-18269333D01*
X18167231Y-18269333D02*
X18181517Y-18276476D01*
X18181517Y-18276476D02*
X18188660Y-18290761D01*
X18188660Y-18290761D02*
X18188660Y-18305047D01*
X18188660Y-18305047D02*
X18117231Y-18319333D01*
X18310088Y-18362190D02*
X18295803Y-18369333D01*
X18295803Y-18369333D02*
X18267231Y-18369333D01*
X18267231Y-18369333D02*
X18252945Y-18362190D01*
X18252945Y-18362190D02*
X18245803Y-18347904D01*
X18245803Y-18347904D02*
X18245803Y-18290761D01*
X18245803Y-18290761D02*
X18252945Y-18276476D01*
X18252945Y-18276476D02*
X18267231Y-18269333D01*
X18267231Y-18269333D02*
X18295803Y-18269333D01*
X18295803Y-18269333D02*
X18310088Y-18276476D01*
X18310088Y-18276476D02*
X18317231Y-18290761D01*
X18317231Y-18290761D02*
X18317231Y-18305047D01*
X18317231Y-18305047D02*
X18245803Y-18319333D01*
X18360088Y-18269333D02*
X18417231Y-18269333D01*
X18381517Y-18219333D02*
X18381517Y-18347904D01*
X18381517Y-18347904D02*
X18388660Y-18362190D01*
X18388660Y-18362190D02*
X18402945Y-18369333D01*
X18402945Y-18369333D02*
X18417231Y-18369333D01*
X18467231Y-18355047D02*
X18474374Y-18362190D01*
X18474374Y-18362190D02*
X18467231Y-18369333D01*
X18467231Y-18369333D02*
X18460088Y-18362190D01*
X18460088Y-18362190D02*
X18467231Y-18355047D01*
X18467231Y-18355047D02*
X18467231Y-18369333D01*
X18467231Y-18276476D02*
X18474374Y-18283619D01*
X18474374Y-18283619D02*
X18467231Y-18290761D01*
X18467231Y-18290761D02*
X18460088Y-18283619D01*
X18460088Y-18283619D02*
X18467231Y-18276476D01*
X18467231Y-18276476D02*
X18467231Y-18290761D01*
D10*
D11*
X19700220Y-19150720D02*
X19700220Y-19450720D01*
D10*
D11*
X26100220Y-19150720D02*
X26100220Y-19800720D01*
X15270482Y-7665821D02*
X15351434Y-7665821D01*
X15351434Y-7665821D02*
X15360958Y-7661059D01*
X15360958Y-7661059D02*
X15365720Y-7656297D01*
X15365720Y-7656297D02*
X15370482Y-7646773D01*
X15370482Y-7646773D02*
X15370482Y-7627725D01*
X15370482Y-7627725D02*
X15365720Y-7618202D01*
X15365720Y-7618202D02*
X15360958Y-7613440D01*
X15360958Y-7613440D02*
X15351434Y-7608678D01*
X15351434Y-7608678D02*
X15270482Y-7608678D01*
X15370482Y-7561059D02*
X15270482Y-7561059D01*
X15270482Y-7561059D02*
X15270482Y-7522964D01*
X15270482Y-7522964D02*
X15275244Y-7513440D01*
X15275244Y-7513440D02*
X15280006Y-7508678D01*
X15280006Y-7508678D02*
X15289529Y-7503916D01*
X15289529Y-7503916D02*
X15303815Y-7503916D01*
X15303815Y-7503916D02*
X15313339Y-7508678D01*
X15313339Y-7508678D02*
X15318101Y-7513440D01*
X15318101Y-7513440D02*
X15322863Y-7522964D01*
X15322863Y-7522964D02*
X15322863Y-7561059D01*
X16270482Y-6959868D02*
X16222863Y-6993202D01*
X16270482Y-7017011D02*
X16170482Y-7017011D01*
X16170482Y-7017011D02*
X16170482Y-6978916D01*
X16170482Y-6978916D02*
X16175244Y-6969392D01*
X16175244Y-6969392D02*
X16180006Y-6964630D01*
X16180006Y-6964630D02*
X16189529Y-6959868D01*
X16189529Y-6959868D02*
X16203815Y-6959868D01*
X16203815Y-6959868D02*
X16213339Y-6964630D01*
X16213339Y-6964630D02*
X16218101Y-6969392D01*
X16218101Y-6969392D02*
X16222863Y-6978916D01*
X16222863Y-6978916D02*
X16222863Y-7017011D01*
X16270482Y-6926535D02*
X16203815Y-6874154D01*
X16203815Y-6926535D02*
X16270482Y-6874154D01*
X18868703Y-9140720D02*
X18882989Y-9145482D01*
X18882989Y-9145482D02*
X18906798Y-9145482D01*
X18906798Y-9145482D02*
X18916322Y-9140720D01*
X18916322Y-9140720D02*
X18921084Y-9135958D01*
X18921084Y-9135958D02*
X18925846Y-9126434D01*
X18925846Y-9126434D02*
X18925846Y-9116910D01*
X18925846Y-9116910D02*
X18921084Y-9107387D01*
X18921084Y-9107387D02*
X18916322Y-9102625D01*
X18916322Y-9102625D02*
X18906798Y-9097863D01*
X18906798Y-9097863D02*
X18887751Y-9093101D01*
X18887751Y-9093101D02*
X18878227Y-9088339D01*
X18878227Y-9088339D02*
X18873465Y-9083577D01*
X18873465Y-9083577D02*
X18868703Y-9074053D01*
X18868703Y-9074053D02*
X18868703Y-9064530D01*
X18868703Y-9064530D02*
X18873465Y-9055006D01*
X18873465Y-9055006D02*
X18878227Y-9050244D01*
X18878227Y-9050244D02*
X18887751Y-9045482D01*
X18887751Y-9045482D02*
X18911560Y-9045482D01*
X18911560Y-9045482D02*
X18925846Y-9050244D01*
X18968703Y-9145482D02*
X18968703Y-9045482D01*
X18968703Y-9045482D02*
X18992513Y-9045482D01*
X18992513Y-9045482D02*
X19006798Y-9050244D01*
X19006798Y-9050244D02*
X19016322Y-9059768D01*
X19016322Y-9059768D02*
X19021084Y-9069291D01*
X19021084Y-9069291D02*
X19025846Y-9088339D01*
X19025846Y-9088339D02*
X19025846Y-9102625D01*
X19025846Y-9102625D02*
X19021084Y-9121672D01*
X19021084Y-9121672D02*
X19016322Y-9131196D01*
X19016322Y-9131196D02*
X19006798Y-9140720D01*
X19006798Y-9140720D02*
X18992513Y-9145482D01*
X18992513Y-9145482D02*
X18968703Y-9145482D01*
X19063941Y-9055006D02*
X19068703Y-9050244D01*
X19068703Y-9050244D02*
X19078227Y-9045482D01*
X19078227Y-9045482D02*
X19102036Y-9045482D01*
X19102036Y-9045482D02*
X19111560Y-9050244D01*
X19111560Y-9050244D02*
X19116322Y-9055006D01*
X19116322Y-9055006D02*
X19121084Y-9064530D01*
X19121084Y-9064530D02*
X19121084Y-9074053D01*
X19121084Y-9074053D02*
X19116322Y-9088339D01*
X19116322Y-9088339D02*
X19059179Y-9145482D01*
X19059179Y-9145482D02*
X19121084Y-9145482D01*
X18911560Y-7524244D02*
X18902036Y-7519482D01*
X18902036Y-7519482D02*
X18887751Y-7519482D01*
X18887751Y-7519482D02*
X18873465Y-7524244D01*
X18873465Y-7524244D02*
X18863941Y-7533768D01*
X18863941Y-7533768D02*
X18859179Y-7543291D01*
X18859179Y-7543291D02*
X18854417Y-7562339D01*
X18854417Y-7562339D02*
X18854417Y-7576625D01*
X18854417Y-7576625D02*
X18859179Y-7595672D01*
X18859179Y-7595672D02*
X18863941Y-7605196D01*
X18863941Y-7605196D02*
X18873465Y-7614720D01*
X18873465Y-7614720D02*
X18887751Y-7619482D01*
X18887751Y-7619482D02*
X18897274Y-7619482D01*
X18897274Y-7619482D02*
X18911560Y-7614720D01*
X18911560Y-7614720D02*
X18916322Y-7609958D01*
X18916322Y-7609958D02*
X18916322Y-7576625D01*
X18916322Y-7576625D02*
X18897274Y-7576625D01*
X18959179Y-7619482D02*
X18959179Y-7519482D01*
X18959179Y-7519482D02*
X19016322Y-7619482D01*
X19016322Y-7619482D02*
X19016322Y-7519482D01*
X19063941Y-7619482D02*
X19063941Y-7519482D01*
X19063941Y-7519482D02*
X19087751Y-7519482D01*
X19087751Y-7519482D02*
X19102036Y-7524244D01*
X19102036Y-7524244D02*
X19111560Y-7533768D01*
X19111560Y-7533768D02*
X19116322Y-7543291D01*
X19116322Y-7543291D02*
X19121084Y-7562339D01*
X19121084Y-7562339D02*
X19121084Y-7576625D01*
X19121084Y-7576625D02*
X19116322Y-7595672D01*
X19116322Y-7595672D02*
X19111560Y-7605196D01*
X19111560Y-7605196D02*
X19102036Y-7614720D01*
X19102036Y-7614720D02*
X19087751Y-7619482D01*
X19087751Y-7619482D02*
X19063941Y-7619482D01*
X18868703Y-8115720D02*
X18882989Y-8120482D01*
X18882989Y-8120482D02*
X18906798Y-8120482D01*
X18906798Y-8120482D02*
X18916322Y-8115720D01*
X18916322Y-8115720D02*
X18921084Y-8110958D01*
X18921084Y-8110958D02*
X18925846Y-8101434D01*
X18925846Y-8101434D02*
X18925846Y-8091910D01*
X18925846Y-8091910D02*
X18921084Y-8082387D01*
X18921084Y-8082387D02*
X18916322Y-8077625D01*
X18916322Y-8077625D02*
X18906798Y-8072863D01*
X18906798Y-8072863D02*
X18887751Y-8068101D01*
X18887751Y-8068101D02*
X18878227Y-8063339D01*
X18878227Y-8063339D02*
X18873465Y-8058577D01*
X18873465Y-8058577D02*
X18868703Y-8049053D01*
X18868703Y-8049053D02*
X18868703Y-8039529D01*
X18868703Y-8039529D02*
X18873465Y-8030006D01*
X18873465Y-8030006D02*
X18878227Y-8025244D01*
X18878227Y-8025244D02*
X18887751Y-8020482D01*
X18887751Y-8020482D02*
X18911560Y-8020482D01*
X18911560Y-8020482D02*
X18925846Y-8025244D01*
X18968703Y-8120482D02*
X18968703Y-8020482D01*
X18968703Y-8020482D02*
X18992513Y-8020482D01*
X18992513Y-8020482D02*
X19006798Y-8025244D01*
X19006798Y-8025244D02*
X19016322Y-8034768D01*
X19016322Y-8034768D02*
X19021084Y-8044291D01*
X19021084Y-8044291D02*
X19025846Y-8063339D01*
X19025846Y-8063339D02*
X19025846Y-8077625D01*
X19025846Y-8077625D02*
X19021084Y-8096672D01*
X19021084Y-8096672D02*
X19016322Y-8106196D01*
X19016322Y-8106196D02*
X19006798Y-8115720D01*
X19006798Y-8115720D02*
X18992513Y-8120482D01*
X18992513Y-8120482D02*
X18968703Y-8120482D01*
X19087751Y-8020482D02*
X19097274Y-8020482D01*
X19097274Y-8020482D02*
X19106798Y-8025244D01*
X19106798Y-8025244D02*
X19111560Y-8030006D01*
X19111560Y-8030006D02*
X19116322Y-8039529D01*
X19116322Y-8039529D02*
X19121084Y-8058577D01*
X19121084Y-8058577D02*
X19121084Y-8082387D01*
X19121084Y-8082387D02*
X19116322Y-8101434D01*
X19116322Y-8101434D02*
X19111560Y-8110958D01*
X19111560Y-8110958D02*
X19106798Y-8115720D01*
X19106798Y-8115720D02*
X19097274Y-8120482D01*
X19097274Y-8120482D02*
X19087751Y-8120482D01*
X19087751Y-8120482D02*
X19078227Y-8115720D01*
X19078227Y-8115720D02*
X19073465Y-8110958D01*
X19073465Y-8110958D02*
X19068703Y-8101434D01*
X19068703Y-8101434D02*
X19063941Y-8082387D01*
X19063941Y-8082387D02*
X19063941Y-8058577D01*
X19063941Y-8058577D02*
X19068703Y-8039529D01*
X19068703Y-8039529D02*
X19073465Y-8030006D01*
X19073465Y-8030006D02*
X19078227Y-8025244D01*
X19078227Y-8025244D02*
X19087751Y-8020482D01*
X15150244Y-7088440D02*
X15145482Y-7097964D01*
X15145482Y-7097964D02*
X15145482Y-7112249D01*
X15145482Y-7112249D02*
X15150244Y-7126535D01*
X15150244Y-7126535D02*
X15159768Y-7136059D01*
X15159768Y-7136059D02*
X15169291Y-7140821D01*
X15169291Y-7140821D02*
X15188339Y-7145583D01*
X15188339Y-7145583D02*
X15202625Y-7145583D01*
X15202625Y-7145583D02*
X15221672Y-7140821D01*
X15221672Y-7140821D02*
X15231196Y-7136059D01*
X15231196Y-7136059D02*
X15240720Y-7126535D01*
X15240720Y-7126535D02*
X15245482Y-7112249D01*
X15245482Y-7112249D02*
X15245482Y-7102725D01*
X15245482Y-7102725D02*
X15240720Y-7088440D01*
X15240720Y-7088440D02*
X15235958Y-7083678D01*
X15235958Y-7083678D02*
X15202625Y-7083678D01*
X15202625Y-7083678D02*
X15202625Y-7102725D01*
X15245482Y-7040821D02*
X15145482Y-7040821D01*
X15145482Y-7040821D02*
X15245482Y-6983678D01*
X15245482Y-6983678D02*
X15145482Y-6983678D01*
X15245482Y-6936059D02*
X15145482Y-6936059D01*
X15145482Y-6936059D02*
X15145482Y-6912249D01*
X15145482Y-6912249D02*
X15150244Y-6897964D01*
X15150244Y-6897964D02*
X15159768Y-6888440D01*
X15159768Y-6888440D02*
X15169291Y-6883678D01*
X15169291Y-6883678D02*
X15188339Y-6878916D01*
X15188339Y-6878916D02*
X15202625Y-6878916D01*
X15202625Y-6878916D02*
X15221672Y-6883678D01*
X15221672Y-6883678D02*
X15231196Y-6888440D01*
X15231196Y-6888440D02*
X15240720Y-6897964D01*
X15240720Y-6897964D02*
X15245482Y-6912249D01*
X15245482Y-6912249D02*
X15245482Y-6936059D01*
X16420482Y-7007487D02*
X16420482Y-6950345D01*
X16520482Y-6978916D02*
X16420482Y-6978916D01*
X16520482Y-6926535D02*
X16453815Y-6874154D01*
X16453815Y-6926535D02*
X16520482Y-6874154D01*
X16793101Y-10347964D02*
X16797863Y-10333678D01*
X16797863Y-10333678D02*
X16802625Y-10328916D01*
X16802625Y-10328916D02*
X16812149Y-10324154D01*
X16812149Y-10324154D02*
X16826434Y-10324154D01*
X16826434Y-10324154D02*
X16835958Y-10328916D01*
X16835958Y-10328916D02*
X16840720Y-10333678D01*
X16840720Y-10333678D02*
X16845482Y-10343202D01*
X16845482Y-10343202D02*
X16845482Y-10381297D01*
X16845482Y-10381297D02*
X16745482Y-10381297D01*
X16745482Y-10381297D02*
X16745482Y-10347964D01*
X16745482Y-10347964D02*
X16750244Y-10338440D01*
X16750244Y-10338440D02*
X16755006Y-10333678D01*
X16755006Y-10333678D02*
X16764529Y-10328916D01*
X16764529Y-10328916D02*
X16774053Y-10328916D01*
X16774053Y-10328916D02*
X16783577Y-10333678D01*
X16783577Y-10333678D02*
X16788339Y-10338440D01*
X16788339Y-10338440D02*
X16793101Y-10347964D01*
X16793101Y-10347964D02*
X16793101Y-10381297D01*
X16745482Y-10295583D02*
X16745482Y-10238440D01*
X16845482Y-10267011D02*
X16745482Y-10267011D01*
X16745482Y-10214630D02*
X16845482Y-10190821D01*
X16845482Y-10190821D02*
X16774053Y-10171773D01*
X16774053Y-10171773D02*
X16845482Y-10152726D01*
X16845482Y-10152726D02*
X16745482Y-10128916D01*
X16845482Y-10090821D02*
X16745482Y-10090821D01*
X16793101Y-10090821D02*
X16793101Y-10033678D01*
X16845482Y-10033678D02*
X16745482Y-10033678D01*
X17040720Y-7126535D02*
X17045482Y-7112249D01*
X17045482Y-7112249D02*
X17045482Y-7088440D01*
X17045482Y-7088440D02*
X17040720Y-7078916D01*
X17040720Y-7078916D02*
X17035958Y-7074154D01*
X17035958Y-7074154D02*
X17026434Y-7069392D01*
X17026434Y-7069392D02*
X17016910Y-7069392D01*
X17016910Y-7069392D02*
X17007387Y-7074154D01*
X17007387Y-7074154D02*
X17002625Y-7078916D01*
X17002625Y-7078916D02*
X16997863Y-7088440D01*
X16997863Y-7088440D02*
X16993101Y-7107487D01*
X16993101Y-7107487D02*
X16988339Y-7117011D01*
X16988339Y-7117011D02*
X16983577Y-7121773D01*
X16983577Y-7121773D02*
X16974053Y-7126535D01*
X16974053Y-7126535D02*
X16964530Y-7126535D01*
X16964530Y-7126535D02*
X16955006Y-7121773D01*
X16955006Y-7121773D02*
X16950244Y-7117011D01*
X16950244Y-7117011D02*
X16945482Y-7107487D01*
X16945482Y-7107487D02*
X16945482Y-7083678D01*
X16945482Y-7083678D02*
X16950244Y-7069392D01*
X16997863Y-7007487D02*
X17045482Y-7007487D01*
X16945482Y-7040821D02*
X16997863Y-7007487D01*
X16997863Y-7007487D02*
X16945482Y-6974154D01*
X17045482Y-6940821D02*
X16945482Y-6940821D01*
X16945482Y-6940821D02*
X17045482Y-6883678D01*
X17045482Y-6883678D02*
X16945482Y-6883678D01*
D12*
X18955451Y-7322940D02*
X19069737Y-7322940D01*
D11*
X17970482Y-10190821D02*
X18051434Y-10190821D01*
X18051434Y-10190821D02*
X18060958Y-10186059D01*
X18060958Y-10186059D02*
X18065720Y-10181297D01*
X18065720Y-10181297D02*
X18070482Y-10171773D01*
X18070482Y-10171773D02*
X18070482Y-10152726D01*
X18070482Y-10152726D02*
X18065720Y-10143202D01*
X18065720Y-10143202D02*
X18060958Y-10138440D01*
X18060958Y-10138440D02*
X18051434Y-10133678D01*
X18051434Y-10133678D02*
X17970482Y-10133678D01*
X18070482Y-10086059D02*
X17970482Y-10086059D01*
X17970482Y-10086059D02*
X17970482Y-10047964D01*
X17970482Y-10047964D02*
X17975244Y-10038440D01*
X17975244Y-10038440D02*
X17980006Y-10033678D01*
X17980006Y-10033678D02*
X17989530Y-10028916D01*
X17989530Y-10028916D02*
X18003815Y-10028916D01*
X18003815Y-10028916D02*
X18013339Y-10033678D01*
X18013339Y-10033678D02*
X18018101Y-10038440D01*
X18018101Y-10038440D02*
X18022863Y-10047964D01*
X18022863Y-10047964D02*
X18022863Y-10086059D01*
X17295482Y-6988440D02*
X17195482Y-6988440D01*
X17295482Y-6940821D02*
X17195482Y-6940821D01*
X17195482Y-6940821D02*
X17295482Y-6883678D01*
X17295482Y-6883678D02*
X17195482Y-6883678D01*
X16010958Y-7050345D02*
X16015720Y-7055106D01*
X16015720Y-7055106D02*
X16020482Y-7069392D01*
X16020482Y-7069392D02*
X16020482Y-7078916D01*
X16020482Y-7078916D02*
X16015720Y-7093202D01*
X16015720Y-7093202D02*
X16006196Y-7102725D01*
X16006196Y-7102725D02*
X15996672Y-7107487D01*
X15996672Y-7107487D02*
X15977625Y-7112249D01*
X15977625Y-7112249D02*
X15963339Y-7112249D01*
X15963339Y-7112249D02*
X15944291Y-7107487D01*
X15944291Y-7107487D02*
X15934768Y-7102725D01*
X15934768Y-7102725D02*
X15925244Y-7093202D01*
X15925244Y-7093202D02*
X15920482Y-7078916D01*
X15920482Y-7078916D02*
X15920482Y-7069392D01*
X15920482Y-7069392D02*
X15925244Y-7055106D01*
X15925244Y-7055106D02*
X15930006Y-7050345D01*
X15920482Y-7021773D02*
X15920482Y-6964630D01*
X16020482Y-6993202D02*
X15920482Y-6993202D01*
X16015720Y-6936059D02*
X16020482Y-6921773D01*
X16020482Y-6921773D02*
X16020482Y-6897964D01*
X16020482Y-6897964D02*
X16015720Y-6888440D01*
X16015720Y-6888440D02*
X16010958Y-6883678D01*
X16010958Y-6883678D02*
X16001434Y-6878916D01*
X16001434Y-6878916D02*
X15991910Y-6878916D01*
X15991910Y-6878916D02*
X15982387Y-6883678D01*
X15982387Y-6883678D02*
X15977625Y-6888440D01*
X15977625Y-6888440D02*
X15972863Y-6897964D01*
X15972863Y-6897964D02*
X15968101Y-6917011D01*
X15968101Y-6917011D02*
X15963339Y-6926535D01*
X15963339Y-6926535D02*
X15958577Y-6931297D01*
X15958577Y-6931297D02*
X15949053Y-6936059D01*
X15949053Y-6936059D02*
X15939529Y-6936059D01*
X15939529Y-6936059D02*
X15930006Y-6931297D01*
X15930006Y-6931297D02*
X15925244Y-6926535D01*
X15925244Y-6926535D02*
X15920482Y-6917011D01*
X15920482Y-6917011D02*
X15920482Y-6893202D01*
X15920482Y-6893202D02*
X15925244Y-6878916D01*
X15895482Y-7884868D02*
X15795482Y-7884868D01*
X15795482Y-7884868D02*
X15795482Y-7861059D01*
X15795482Y-7861059D02*
X15800244Y-7846773D01*
X15800244Y-7846773D02*
X15809768Y-7837249D01*
X15809768Y-7837249D02*
X15819291Y-7832487D01*
X15819291Y-7832487D02*
X15838339Y-7827725D01*
X15838339Y-7827725D02*
X15852625Y-7827725D01*
X15852625Y-7827725D02*
X15871672Y-7832487D01*
X15871672Y-7832487D02*
X15881196Y-7837249D01*
X15881196Y-7837249D02*
X15890720Y-7846773D01*
X15890720Y-7846773D02*
X15895482Y-7861059D01*
X15895482Y-7861059D02*
X15895482Y-7884868D01*
X15795482Y-7765821D02*
X15795482Y-7746773D01*
X15795482Y-7746773D02*
X15800244Y-7737249D01*
X15800244Y-7737249D02*
X15809768Y-7727725D01*
X15809768Y-7727725D02*
X15828815Y-7722964D01*
X15828815Y-7722964D02*
X15862148Y-7722964D01*
X15862148Y-7722964D02*
X15881196Y-7727725D01*
X15881196Y-7727725D02*
X15890720Y-7737249D01*
X15890720Y-7737249D02*
X15895482Y-7746773D01*
X15895482Y-7746773D02*
X15895482Y-7765821D01*
X15895482Y-7765821D02*
X15890720Y-7775344D01*
X15890720Y-7775344D02*
X15881196Y-7784868D01*
X15881196Y-7784868D02*
X15862148Y-7789630D01*
X15862148Y-7789630D02*
X15828815Y-7789630D01*
X15828815Y-7789630D02*
X15809768Y-7784868D01*
X15809768Y-7784868D02*
X15800244Y-7775344D01*
X15800244Y-7775344D02*
X15795482Y-7765821D01*
X15795482Y-7689630D02*
X15895482Y-7665821D01*
X15895482Y-7665821D02*
X15824053Y-7646773D01*
X15824053Y-7646773D02*
X15895482Y-7627725D01*
X15895482Y-7627725D02*
X15795482Y-7603916D01*
X15895482Y-7565821D02*
X15795482Y-7565821D01*
X15795482Y-7565821D02*
X15895482Y-7508678D01*
X15895482Y-7508678D02*
X15795482Y-7508678D01*
X18940132Y-8360958D02*
X18935370Y-8365720D01*
X18935370Y-8365720D02*
X18921084Y-8370482D01*
X18921084Y-8370482D02*
X18911560Y-8370482D01*
X18911560Y-8370482D02*
X18897274Y-8365720D01*
X18897274Y-8365720D02*
X18887751Y-8356196D01*
X18887751Y-8356196D02*
X18882989Y-8346672D01*
X18882989Y-8346672D02*
X18878227Y-8327625D01*
X18878227Y-8327625D02*
X18878227Y-8313339D01*
X18878227Y-8313339D02*
X18882989Y-8294291D01*
X18882989Y-8294291D02*
X18887751Y-8284768D01*
X18887751Y-8284768D02*
X18897274Y-8275244D01*
X18897274Y-8275244D02*
X18911560Y-8270482D01*
X18911560Y-8270482D02*
X18921084Y-8270482D01*
X18921084Y-8270482D02*
X18935370Y-8275244D01*
X18935370Y-8275244D02*
X18940132Y-8280006D01*
X19030608Y-8370482D02*
X18982989Y-8370482D01*
X18982989Y-8370482D02*
X18982989Y-8270482D01*
X19063941Y-8370482D02*
X19063941Y-8270482D01*
X19121084Y-8370482D02*
X19078227Y-8313339D01*
X19121084Y-8270482D02*
X19063941Y-8327625D01*
X16795482Y-7055345D02*
X16747863Y-7088678D01*
X16795482Y-7112487D02*
X16695482Y-7112487D01*
X16695482Y-7112487D02*
X16695482Y-7074392D01*
X16695482Y-7074392D02*
X16700244Y-7064868D01*
X16700244Y-7064868D02*
X16705006Y-7060106D01*
X16705006Y-7060106D02*
X16714529Y-7055345D01*
X16714529Y-7055345D02*
X16728815Y-7055345D01*
X16728815Y-7055345D02*
X16738339Y-7060106D01*
X16738339Y-7060106D02*
X16743101Y-7064868D01*
X16743101Y-7064868D02*
X16747863Y-7074392D01*
X16747863Y-7074392D02*
X16747863Y-7112487D01*
X16695482Y-7026773D02*
X16695482Y-6969630D01*
X16795482Y-6998202D02*
X16695482Y-6998202D01*
X16790720Y-6941059D02*
X16795482Y-6926773D01*
X16795482Y-6926773D02*
X16795482Y-6902964D01*
X16795482Y-6902964D02*
X16790720Y-6893440D01*
X16790720Y-6893440D02*
X16785958Y-6888678D01*
X16785958Y-6888678D02*
X16776434Y-6883916D01*
X16776434Y-6883916D02*
X16766910Y-6883916D01*
X16766910Y-6883916D02*
X16757387Y-6888678D01*
X16757387Y-6888678D02*
X16752625Y-6893440D01*
X16752625Y-6893440D02*
X16747863Y-6902964D01*
X16747863Y-6902964D02*
X16743101Y-6922011D01*
X16743101Y-6922011D02*
X16738339Y-6931535D01*
X16738339Y-6931535D02*
X16733577Y-6936297D01*
X16733577Y-6936297D02*
X16724053Y-6941059D01*
X16724053Y-6941059D02*
X16714529Y-6941059D01*
X16714529Y-6941059D02*
X16705006Y-6936297D01*
X16705006Y-6936297D02*
X16700244Y-6931535D01*
X16700244Y-6931535D02*
X16695482Y-6922011D01*
X16695482Y-6922011D02*
X16695482Y-6898202D01*
X16695482Y-6898202D02*
X16700244Y-6883916D01*
X16543101Y-10347964D02*
X16547863Y-10333678D01*
X16547863Y-10333678D02*
X16552625Y-10328916D01*
X16552625Y-10328916D02*
X16562148Y-10324154D01*
X16562148Y-10324154D02*
X16576434Y-10324154D01*
X16576434Y-10324154D02*
X16585958Y-10328916D01*
X16585958Y-10328916D02*
X16590720Y-10333678D01*
X16590720Y-10333678D02*
X16595482Y-10343202D01*
X16595482Y-10343202D02*
X16595482Y-10381297D01*
X16595482Y-10381297D02*
X16495482Y-10381297D01*
X16495482Y-10381297D02*
X16495482Y-10347964D01*
X16495482Y-10347964D02*
X16500244Y-10338440D01*
X16500244Y-10338440D02*
X16505006Y-10333678D01*
X16505006Y-10333678D02*
X16514529Y-10328916D01*
X16514529Y-10328916D02*
X16524053Y-10328916D01*
X16524053Y-10328916D02*
X16533577Y-10333678D01*
X16533577Y-10333678D02*
X16538339Y-10338440D01*
X16538339Y-10338440D02*
X16543101Y-10347964D01*
X16543101Y-10347964D02*
X16543101Y-10381297D01*
X16495482Y-10295583D02*
X16495482Y-10238440D01*
X16595482Y-10267011D02*
X16495482Y-10267011D01*
X16595482Y-10205106D02*
X16495482Y-10205106D01*
X16543101Y-10205106D02*
X16543101Y-10147964D01*
X16595482Y-10147964D02*
X16495482Y-10147964D01*
X16495482Y-10109868D02*
X16595482Y-10086059D01*
X16595482Y-10086059D02*
X16524053Y-10067011D01*
X16524053Y-10067011D02*
X16595482Y-10047964D01*
X16595482Y-10047964D02*
X16495482Y-10024154D01*
X18868703Y-8890720D02*
X18882989Y-8895482D01*
X18882989Y-8895482D02*
X18906798Y-8895482D01*
X18906798Y-8895482D02*
X18916322Y-8890720D01*
X18916322Y-8890720D02*
X18921084Y-8885958D01*
X18921084Y-8885958D02*
X18925846Y-8876434D01*
X18925846Y-8876434D02*
X18925846Y-8866910D01*
X18925846Y-8866910D02*
X18921084Y-8857387D01*
X18921084Y-8857387D02*
X18916322Y-8852625D01*
X18916322Y-8852625D02*
X18906798Y-8847863D01*
X18906798Y-8847863D02*
X18887751Y-8843101D01*
X18887751Y-8843101D02*
X18878227Y-8838339D01*
X18878227Y-8838339D02*
X18873465Y-8833577D01*
X18873465Y-8833577D02*
X18868703Y-8824053D01*
X18868703Y-8824053D02*
X18868703Y-8814530D01*
X18868703Y-8814530D02*
X18873465Y-8805006D01*
X18873465Y-8805006D02*
X18878227Y-8800244D01*
X18878227Y-8800244D02*
X18887751Y-8795482D01*
X18887751Y-8795482D02*
X18911560Y-8795482D01*
X18911560Y-8795482D02*
X18925846Y-8800244D01*
X18968703Y-8895482D02*
X18968703Y-8795482D01*
X18968703Y-8795482D02*
X18992513Y-8795482D01*
X18992513Y-8795482D02*
X19006798Y-8800244D01*
X19006798Y-8800244D02*
X19016322Y-8809768D01*
X19016322Y-8809768D02*
X19021084Y-8819291D01*
X19021084Y-8819291D02*
X19025846Y-8838339D01*
X19025846Y-8838339D02*
X19025846Y-8852625D01*
X19025846Y-8852625D02*
X19021084Y-8871672D01*
X19021084Y-8871672D02*
X19016322Y-8881196D01*
X19016322Y-8881196D02*
X19006798Y-8890720D01*
X19006798Y-8890720D02*
X18992513Y-8895482D01*
X18992513Y-8895482D02*
X18968703Y-8895482D01*
X19059179Y-8795482D02*
X19121084Y-8795482D01*
X19121084Y-8795482D02*
X19087751Y-8833577D01*
X19087751Y-8833577D02*
X19102036Y-8833577D01*
X19102036Y-8833577D02*
X19111560Y-8838339D01*
X19111560Y-8838339D02*
X19116322Y-8843101D01*
X19116322Y-8843101D02*
X19121084Y-8852625D01*
X19121084Y-8852625D02*
X19121084Y-8876434D01*
X19121084Y-8876434D02*
X19116322Y-8885958D01*
X19116322Y-8885958D02*
X19111560Y-8890720D01*
X19111560Y-8890720D02*
X19102036Y-8895482D01*
X19102036Y-8895482D02*
X19073465Y-8895482D01*
X19073465Y-8895482D02*
X19063941Y-8890720D01*
X19063941Y-8890720D02*
X19059179Y-8885958D01*
D12*
X18688451Y-6967690D02*
X18802737Y-6967690D01*
D11*
X18595482Y-10409868D02*
X18495482Y-10409868D01*
X18495482Y-10409868D02*
X18495482Y-10386059D01*
X18495482Y-10386059D02*
X18500244Y-10371773D01*
X18500244Y-10371773D02*
X18509768Y-10362249D01*
X18509768Y-10362249D02*
X18519291Y-10357487D01*
X18519291Y-10357487D02*
X18538339Y-10352726D01*
X18538339Y-10352726D02*
X18552625Y-10352726D01*
X18552625Y-10352726D02*
X18571672Y-10357487D01*
X18571672Y-10357487D02*
X18581196Y-10362249D01*
X18581196Y-10362249D02*
X18590720Y-10371773D01*
X18590720Y-10371773D02*
X18595482Y-10386059D01*
X18595482Y-10386059D02*
X18595482Y-10409868D01*
X18495482Y-10290821D02*
X18495482Y-10271773D01*
X18495482Y-10271773D02*
X18500244Y-10262249D01*
X18500244Y-10262249D02*
X18509768Y-10252726D01*
X18509768Y-10252726D02*
X18528815Y-10247964D01*
X18528815Y-10247964D02*
X18562149Y-10247964D01*
X18562149Y-10247964D02*
X18581196Y-10252726D01*
X18581196Y-10252726D02*
X18590720Y-10262249D01*
X18590720Y-10262249D02*
X18595482Y-10271773D01*
X18595482Y-10271773D02*
X18595482Y-10290821D01*
X18595482Y-10290821D02*
X18590720Y-10300345D01*
X18590720Y-10300345D02*
X18581196Y-10309868D01*
X18581196Y-10309868D02*
X18562149Y-10314630D01*
X18562149Y-10314630D02*
X18528815Y-10314630D01*
X18528815Y-10314630D02*
X18509768Y-10309868D01*
X18509768Y-10309868D02*
X18500244Y-10300345D01*
X18500244Y-10300345D02*
X18495482Y-10290821D01*
X18495482Y-10214630D02*
X18595482Y-10190821D01*
X18595482Y-10190821D02*
X18524053Y-10171773D01*
X18524053Y-10171773D02*
X18595482Y-10152726D01*
X18595482Y-10152726D02*
X18495482Y-10128916D01*
X18595482Y-10090821D02*
X18495482Y-10090821D01*
X18495482Y-10090821D02*
X18595482Y-10033678D01*
X18595482Y-10033678D02*
X18495482Y-10033678D01*
X18220482Y-10386059D02*
X18320482Y-10362249D01*
X18320482Y-10362249D02*
X18249053Y-10343202D01*
X18249053Y-10343202D02*
X18320482Y-10324154D01*
X18320482Y-10324154D02*
X18220482Y-10300345D01*
X18320482Y-10214630D02*
X18320482Y-10262249D01*
X18320482Y-10262249D02*
X18220482Y-10262249D01*
X18268101Y-10181297D02*
X18268101Y-10147964D01*
X18320482Y-10133678D02*
X18320482Y-10181297D01*
X18320482Y-10181297D02*
X18220482Y-10181297D01*
X18220482Y-10181297D02*
X18220482Y-10133678D01*
X18320482Y-10090821D02*
X18220482Y-10090821D01*
X18220482Y-10090821D02*
X18320482Y-10033678D01*
X18320482Y-10033678D02*
X18220482Y-10033678D01*
D12*
X18688451Y-6710690D02*
X18802737Y-6710690D01*
X18745594Y-6767833D02*
X18745594Y-6653547D01*
D11*
X17695482Y-7102725D02*
X17695482Y-7083678D01*
X17695482Y-7083678D02*
X17700244Y-7074154D01*
X17700244Y-7074154D02*
X17709768Y-7064630D01*
X17709768Y-7064630D02*
X17728815Y-7059868D01*
X17728815Y-7059868D02*
X17762149Y-7059868D01*
X17762149Y-7059868D02*
X17781196Y-7064630D01*
X17781196Y-7064630D02*
X17790720Y-7074154D01*
X17790720Y-7074154D02*
X17795482Y-7083678D01*
X17795482Y-7083678D02*
X17795482Y-7102725D01*
X17795482Y-7102725D02*
X17790720Y-7112249D01*
X17790720Y-7112249D02*
X17781196Y-7121773D01*
X17781196Y-7121773D02*
X17762149Y-7126535D01*
X17762149Y-7126535D02*
X17728815Y-7126535D01*
X17728815Y-7126535D02*
X17709768Y-7121773D01*
X17709768Y-7121773D02*
X17700244Y-7112249D01*
X17700244Y-7112249D02*
X17695482Y-7102725D01*
X17695482Y-7017011D02*
X17776434Y-7017011D01*
X17776434Y-7017011D02*
X17785958Y-7012249D01*
X17785958Y-7012249D02*
X17790720Y-7007487D01*
X17790720Y-7007487D02*
X17795482Y-6997964D01*
X17795482Y-6997964D02*
X17795482Y-6978916D01*
X17795482Y-6978916D02*
X17790720Y-6969392D01*
X17790720Y-6969392D02*
X17785958Y-6964630D01*
X17785958Y-6964630D02*
X17776434Y-6959868D01*
X17776434Y-6959868D02*
X17695482Y-6959868D01*
X17695482Y-6926535D02*
X17695482Y-6869392D01*
X17795482Y-6897964D02*
X17695482Y-6897964D01*
D12*
X15954398Y-10313597D02*
X15871065Y-10371930D01*
X15954398Y-10413597D02*
X15779398Y-10413597D01*
X15779398Y-10413597D02*
X15779398Y-10346930D01*
X15779398Y-10346930D02*
X15787732Y-10330263D01*
X15787732Y-10330263D02*
X15796065Y-10321930D01*
X15796065Y-10321930D02*
X15812732Y-10313597D01*
X15812732Y-10313597D02*
X15837732Y-10313597D01*
X15837732Y-10313597D02*
X15854398Y-10321930D01*
X15854398Y-10321930D02*
X15862732Y-10330263D01*
X15862732Y-10330263D02*
X15871065Y-10346930D01*
X15871065Y-10346930D02*
X15871065Y-10413597D01*
X15779398Y-10263597D02*
X15779398Y-10163597D01*
X15954398Y-10213597D02*
X15779398Y-10213597D01*
X15954398Y-10021930D02*
X15954398Y-10105263D01*
X15954398Y-10105263D02*
X15779398Y-10105263D01*
X15854398Y-9938597D02*
X15846065Y-9955263D01*
X15846065Y-9955263D02*
X15837732Y-9963597D01*
X15837732Y-9963597D02*
X15821065Y-9971930D01*
X15821065Y-9971930D02*
X15812732Y-9971930D01*
X15812732Y-9971930D02*
X15796065Y-9963597D01*
X15796065Y-9963597D02*
X15787732Y-9955263D01*
X15787732Y-9955263D02*
X15779398Y-9938597D01*
X15779398Y-9938597D02*
X15779398Y-9905263D01*
X15779398Y-9905263D02*
X15787732Y-9888597D01*
X15787732Y-9888597D02*
X15796065Y-9880263D01*
X15796065Y-9880263D02*
X15812732Y-9871930D01*
X15812732Y-9871930D02*
X15821065Y-9871930D01*
X15821065Y-9871930D02*
X15837732Y-9880263D01*
X15837732Y-9880263D02*
X15846065Y-9888597D01*
X15846065Y-9888597D02*
X15854398Y-9905263D01*
X15854398Y-9905263D02*
X15854398Y-9938597D01*
X15854398Y-9938597D02*
X15862732Y-9955263D01*
X15862732Y-9955263D02*
X15871065Y-9963597D01*
X15871065Y-9963597D02*
X15887732Y-9971930D01*
X15887732Y-9971930D02*
X15921065Y-9971930D01*
X15921065Y-9971930D02*
X15937732Y-9963597D01*
X15937732Y-9963597D02*
X15946065Y-9955263D01*
X15946065Y-9955263D02*
X15954398Y-9938597D01*
X15954398Y-9938597D02*
X15954398Y-9905263D01*
X15954398Y-9905263D02*
X15946065Y-9888597D01*
X15946065Y-9888597D02*
X15937732Y-9880263D01*
X15937732Y-9880263D02*
X15921065Y-9871930D01*
X15921065Y-9871930D02*
X15887732Y-9871930D01*
X15887732Y-9871930D02*
X15871065Y-9880263D01*
X15871065Y-9880263D02*
X15862732Y-9888597D01*
X15862732Y-9888597D02*
X15854398Y-9905263D01*
X15779398Y-9813597D02*
X15779398Y-9696930D01*
X15779398Y-9696930D02*
X15954398Y-9771930D01*
X15796065Y-9638596D02*
X15787732Y-9630263D01*
X15787732Y-9630263D02*
X15779398Y-9613596D01*
X15779398Y-9613596D02*
X15779398Y-9571930D01*
X15779398Y-9571930D02*
X15787732Y-9555263D01*
X15787732Y-9555263D02*
X15796065Y-9546930D01*
X15796065Y-9546930D02*
X15812732Y-9538596D01*
X15812732Y-9538596D02*
X15829398Y-9538596D01*
X15829398Y-9538596D02*
X15854398Y-9546930D01*
X15854398Y-9546930D02*
X15954398Y-9646930D01*
X15954398Y-9646930D02*
X15954398Y-9538596D01*
X15779398Y-9480263D02*
X15779398Y-9371930D01*
X15779398Y-9371930D02*
X15846065Y-9430263D01*
X15846065Y-9430263D02*
X15846065Y-9405263D01*
X15846065Y-9405263D02*
X15854398Y-9388596D01*
X15854398Y-9388596D02*
X15862732Y-9380263D01*
X15862732Y-9380263D02*
X15879398Y-9371930D01*
X15879398Y-9371930D02*
X15921065Y-9371930D01*
X15921065Y-9371930D02*
X15937732Y-9380263D01*
X15937732Y-9380263D02*
X15946065Y-9388596D01*
X15946065Y-9388596D02*
X15954398Y-9405263D01*
X15954398Y-9405263D02*
X15954398Y-9455263D01*
X15954398Y-9455263D02*
X15946065Y-9471930D01*
X15946065Y-9471930D02*
X15937732Y-9480263D01*
X15954398Y-9296930D02*
X15779398Y-9296930D01*
X15779398Y-9296930D02*
X15779398Y-9255263D01*
X15779398Y-9255263D02*
X15787732Y-9230263D01*
X15787732Y-9230263D02*
X15804398Y-9213596D01*
X15804398Y-9213596D02*
X15821065Y-9205263D01*
X15821065Y-9205263D02*
X15854398Y-9196930D01*
X15854398Y-9196930D02*
X15879398Y-9196930D01*
X15879398Y-9196930D02*
X15912732Y-9205263D01*
X15912732Y-9205263D02*
X15929398Y-9213596D01*
X15929398Y-9213596D02*
X15946065Y-9230263D01*
X15946065Y-9230263D02*
X15954398Y-9255263D01*
X15954398Y-9255263D02*
X15954398Y-9296930D01*
X15946065Y-9130263D02*
X15954398Y-9105263D01*
X15954398Y-9105263D02*
X15954398Y-9063596D01*
X15954398Y-9063596D02*
X15946065Y-9046930D01*
X15946065Y-9046930D02*
X15937732Y-9038596D01*
X15937732Y-9038596D02*
X15921065Y-9030263D01*
X15921065Y-9030263D02*
X15904398Y-9030263D01*
X15904398Y-9030263D02*
X15887732Y-9038596D01*
X15887732Y-9038596D02*
X15879398Y-9046930D01*
X15879398Y-9046930D02*
X15871065Y-9063596D01*
X15871065Y-9063596D02*
X15862732Y-9096930D01*
X15862732Y-9096930D02*
X15854398Y-9113596D01*
X15854398Y-9113596D02*
X15846065Y-9121930D01*
X15846065Y-9121930D02*
X15829398Y-9130263D01*
X15829398Y-9130263D02*
X15812732Y-9130263D01*
X15812732Y-9130263D02*
X15796065Y-9121930D01*
X15796065Y-9121930D02*
X15787732Y-9113596D01*
X15787732Y-9113596D02*
X15779398Y-9096930D01*
X15779398Y-9096930D02*
X15779398Y-9055263D01*
X15779398Y-9055263D02*
X15787732Y-9030263D01*
D11*
X15670482Y-7064630D02*
X15770482Y-7040821D01*
X15770482Y-7040821D02*
X15699053Y-7021773D01*
X15699053Y-7021773D02*
X15770482Y-7002725D01*
X15770482Y-7002725D02*
X15670482Y-6978916D01*
X15770482Y-6940821D02*
X15670482Y-6940821D01*
X15718101Y-6940821D02*
X15718101Y-6883678D01*
X15770482Y-6883678D02*
X15670482Y-6883678D01*
X18868703Y-7865720D02*
X18882989Y-7870482D01*
X18882989Y-7870482D02*
X18906798Y-7870482D01*
X18906798Y-7870482D02*
X18916322Y-7865720D01*
X18916322Y-7865720D02*
X18921084Y-7860958D01*
X18921084Y-7860958D02*
X18925846Y-7851434D01*
X18925846Y-7851434D02*
X18925846Y-7841910D01*
X18925846Y-7841910D02*
X18921084Y-7832387D01*
X18921084Y-7832387D02*
X18916322Y-7827625D01*
X18916322Y-7827625D02*
X18906798Y-7822863D01*
X18906798Y-7822863D02*
X18887751Y-7818101D01*
X18887751Y-7818101D02*
X18878227Y-7813339D01*
X18878227Y-7813339D02*
X18873465Y-7808577D01*
X18873465Y-7808577D02*
X18868703Y-7799053D01*
X18868703Y-7799053D02*
X18868703Y-7789529D01*
X18868703Y-7789529D02*
X18873465Y-7780006D01*
X18873465Y-7780006D02*
X18878227Y-7775244D01*
X18878227Y-7775244D02*
X18887751Y-7770482D01*
X18887751Y-7770482D02*
X18911560Y-7770482D01*
X18911560Y-7770482D02*
X18925846Y-7775244D01*
X18968703Y-7870482D02*
X18968703Y-7770482D01*
X18968703Y-7770482D02*
X18992513Y-7770482D01*
X18992513Y-7770482D02*
X19006798Y-7775244D01*
X19006798Y-7775244D02*
X19016322Y-7784768D01*
X19016322Y-7784768D02*
X19021084Y-7794291D01*
X19021084Y-7794291D02*
X19025846Y-7813339D01*
X19025846Y-7813339D02*
X19025846Y-7827625D01*
X19025846Y-7827625D02*
X19021084Y-7846672D01*
X19021084Y-7846672D02*
X19016322Y-7856196D01*
X19016322Y-7856196D02*
X19006798Y-7865720D01*
X19006798Y-7865720D02*
X18992513Y-7870482D01*
X18992513Y-7870482D02*
X18968703Y-7870482D01*
X19121084Y-7870482D02*
X19063941Y-7870482D01*
X19092513Y-7870482D02*
X19092513Y-7770482D01*
X19092513Y-7770482D02*
X19082989Y-7784768D01*
X19082989Y-7784768D02*
X19073465Y-7794291D01*
X19073465Y-7794291D02*
X19063941Y-7799053D01*
X17275244Y-10238440D02*
X17270482Y-10247964D01*
X17270482Y-10247964D02*
X17270482Y-10262249D01*
X17270482Y-10262249D02*
X17275244Y-10276535D01*
X17275244Y-10276535D02*
X17284768Y-10286059D01*
X17284768Y-10286059D02*
X17294291Y-10290821D01*
X17294291Y-10290821D02*
X17313339Y-10295583D01*
X17313339Y-10295583D02*
X17327625Y-10295583D01*
X17327625Y-10295583D02*
X17346672Y-10290821D01*
X17346672Y-10290821D02*
X17356196Y-10286059D01*
X17356196Y-10286059D02*
X17365720Y-10276535D01*
X17365720Y-10276535D02*
X17370482Y-10262249D01*
X17370482Y-10262249D02*
X17370482Y-10252726D01*
X17370482Y-10252726D02*
X17365720Y-10238440D01*
X17365720Y-10238440D02*
X17360958Y-10233678D01*
X17360958Y-10233678D02*
X17327625Y-10233678D01*
X17327625Y-10233678D02*
X17327625Y-10252726D01*
X17370482Y-10190821D02*
X17270482Y-10190821D01*
X17270482Y-10190821D02*
X17370482Y-10133678D01*
X17370482Y-10133678D02*
X17270482Y-10133678D01*
X17370482Y-10086059D02*
X17270482Y-10086059D01*
X17270482Y-10086059D02*
X17270482Y-10062249D01*
X17270482Y-10062249D02*
X17275244Y-10047964D01*
X17275244Y-10047964D02*
X17284768Y-10038440D01*
X17284768Y-10038440D02*
X17294291Y-10033678D01*
X17294291Y-10033678D02*
X17313339Y-10028916D01*
X17313339Y-10028916D02*
X17327625Y-10028916D01*
X17327625Y-10028916D02*
X17346672Y-10033678D01*
X17346672Y-10033678D02*
X17356196Y-10038440D01*
X17356196Y-10038440D02*
X17365720Y-10047964D01*
X17365720Y-10047964D02*
X17370482Y-10062249D01*
X17370482Y-10062249D02*
X17370482Y-10086059D01*
D14*
X16091311Y-10390414D02*
X16091311Y-10432080D01*
X16156787Y-10432080D02*
X16031787Y-10432080D01*
X16031787Y-10432080D02*
X16031787Y-10372556D01*
X16156787Y-10324937D02*
X16031787Y-10324937D01*
X16031787Y-10324937D02*
X16156787Y-10253509D01*
X16156787Y-10253509D02*
X16031787Y-10253509D01*
X16109168Y-10193985D02*
X16109168Y-10098747D01*
X16156787Y-9979699D02*
X16156787Y-10039223D01*
X16156787Y-10039223D02*
X16031787Y-10039223D01*
X16156787Y-9938033D02*
X16031787Y-9938033D01*
X16156787Y-9878509D02*
X16031787Y-9878509D01*
X16031787Y-9878509D02*
X16156787Y-9807080D01*
X16156787Y-9807080D02*
X16031787Y-9807080D01*
X16156787Y-9747556D02*
X16031787Y-9747556D01*
X16156787Y-9676128D02*
X16085359Y-9729699D01*
X16031787Y-9676128D02*
X16103216Y-9747556D01*
X16150835Y-9533271D02*
X16156787Y-9515414D01*
X16156787Y-9515414D02*
X16156787Y-9485652D01*
X16156787Y-9485652D02*
X16150835Y-9473747D01*
X16150835Y-9473747D02*
X16144883Y-9467794D01*
X16144883Y-9467794D02*
X16132978Y-9461842D01*
X16132978Y-9461842D02*
X16121073Y-9461842D01*
X16121073Y-9461842D02*
X16109168Y-9467794D01*
X16109168Y-9467794D02*
X16103216Y-9473747D01*
X16103216Y-9473747D02*
X16097263Y-9485652D01*
X16097263Y-9485652D02*
X16091311Y-9509461D01*
X16091311Y-9509461D02*
X16085359Y-9521366D01*
X16085359Y-9521366D02*
X16079406Y-9527318D01*
X16079406Y-9527318D02*
X16067502Y-9533271D01*
X16067502Y-9533271D02*
X16055597Y-9533271D01*
X16055597Y-9533271D02*
X16043692Y-9527318D01*
X16043692Y-9527318D02*
X16037740Y-9521366D01*
X16037740Y-9521366D02*
X16031787Y-9509461D01*
X16031787Y-9509461D02*
X16031787Y-9479699D01*
X16031787Y-9479699D02*
X16037740Y-9461842D01*
X16156787Y-9336842D02*
X16097263Y-9378509D01*
X16156787Y-9408271D02*
X16031787Y-9408271D01*
X16031787Y-9408271D02*
X16031787Y-9360652D01*
X16031787Y-9360652D02*
X16037740Y-9348747D01*
X16037740Y-9348747D02*
X16043692Y-9342795D01*
X16043692Y-9342795D02*
X16055597Y-9336842D01*
X16055597Y-9336842D02*
X16073454Y-9336842D01*
X16073454Y-9336842D02*
X16085359Y-9342795D01*
X16085359Y-9342795D02*
X16091311Y-9348747D01*
X16091311Y-9348747D02*
X16097263Y-9360652D01*
X16097263Y-9360652D02*
X16097263Y-9408271D01*
X16156787Y-9283271D02*
X16031787Y-9283271D01*
X16031787Y-9283271D02*
X16031787Y-9253509D01*
X16031787Y-9253509D02*
X16037740Y-9235652D01*
X16037740Y-9235652D02*
X16049644Y-9223747D01*
X16049644Y-9223747D02*
X16061549Y-9217795D01*
X16061549Y-9217795D02*
X16085359Y-9211842D01*
X16085359Y-9211842D02*
X16103216Y-9211842D01*
X16103216Y-9211842D02*
X16127025Y-9217795D01*
X16127025Y-9217795D02*
X16138930Y-9223747D01*
X16138930Y-9223747D02*
X16150835Y-9235652D01*
X16150835Y-9235652D02*
X16156787Y-9253509D01*
X16156787Y-9253509D02*
X16156787Y-9283271D01*
X16109168Y-9158271D02*
X16109168Y-9063033D01*
X16031787Y-8949937D02*
X16031787Y-8973747D01*
X16031787Y-8973747D02*
X16037740Y-8985652D01*
X16037740Y-8985652D02*
X16043692Y-8991604D01*
X16043692Y-8991604D02*
X16061549Y-9003509D01*
X16061549Y-9003509D02*
X16085359Y-9009461D01*
X16085359Y-9009461D02*
X16132978Y-9009461D01*
X16132978Y-9009461D02*
X16144883Y-9003509D01*
X16144883Y-9003509D02*
X16150835Y-8997556D01*
X16150835Y-8997556D02*
X16156787Y-8985652D01*
X16156787Y-8985652D02*
X16156787Y-8961842D01*
X16156787Y-8961842D02*
X16150835Y-8949937D01*
X16150835Y-8949937D02*
X16144883Y-8943985D01*
X16144883Y-8943985D02*
X16132978Y-8938033D01*
X16132978Y-8938033D02*
X16103216Y-8938033D01*
X16103216Y-8938033D02*
X16091311Y-8943985D01*
X16091311Y-8943985D02*
X16085359Y-8949937D01*
X16085359Y-8949937D02*
X16079406Y-8961842D01*
X16079406Y-8961842D02*
X16079406Y-8985652D01*
X16079406Y-8985652D02*
X16085359Y-8997556D01*
X16085359Y-8997556D02*
X16091311Y-9003509D01*
X16091311Y-9003509D02*
X16103216Y-9009461D01*
X16043692Y-8890414D02*
X16037740Y-8884461D01*
X16037740Y-8884461D02*
X16031787Y-8872556D01*
X16031787Y-8872556D02*
X16031787Y-8842795D01*
X16031787Y-8842795D02*
X16037740Y-8830890D01*
X16037740Y-8830890D02*
X16043692Y-8824937D01*
X16043692Y-8824937D02*
X16055597Y-8818985D01*
X16055597Y-8818985D02*
X16067502Y-8818985D01*
X16067502Y-8818985D02*
X16085359Y-8824937D01*
X16085359Y-8824937D02*
X16156787Y-8896366D01*
X16156787Y-8896366D02*
X16156787Y-8818985D01*
X16043692Y-8771366D02*
X16037740Y-8765414D01*
X16037740Y-8765414D02*
X16031787Y-8753509D01*
X16031787Y-8753509D02*
X16031787Y-8723747D01*
X16031787Y-8723747D02*
X16037740Y-8711842D01*
X16037740Y-8711842D02*
X16043692Y-8705890D01*
X16043692Y-8705890D02*
X16055597Y-8699937D01*
X16055597Y-8699937D02*
X16067502Y-8699937D01*
X16067502Y-8699937D02*
X16085359Y-8705890D01*
X16085359Y-8705890D02*
X16156787Y-8777318D01*
X16156787Y-8777318D02*
X16156787Y-8699937D01*
X16031787Y-8658271D02*
X16031787Y-8580890D01*
X16031787Y-8580890D02*
X16079406Y-8622556D01*
X16079406Y-8622556D02*
X16079406Y-8604699D01*
X16079406Y-8604699D02*
X16085359Y-8592795D01*
X16085359Y-8592795D02*
X16091311Y-8586842D01*
X16091311Y-8586842D02*
X16103216Y-8580890D01*
X16103216Y-8580890D02*
X16132978Y-8580890D01*
X16132978Y-8580890D02*
X16144883Y-8586842D01*
X16144883Y-8586842D02*
X16150835Y-8592795D01*
X16150835Y-8592795D02*
X16156787Y-8604699D01*
X16156787Y-8604699D02*
X16156787Y-8640414D01*
X16156787Y-8640414D02*
X16150835Y-8652318D01*
X16150835Y-8652318D02*
X16144883Y-8658271D01*
X16121073Y-8533271D02*
X16121073Y-8473747D01*
X16156787Y-8545176D02*
X16031787Y-8503509D01*
X16031787Y-8503509D02*
X16156787Y-8461842D01*
X16109168Y-8420175D02*
X16109168Y-8324937D01*
X16031787Y-8277318D02*
X16156787Y-8247556D01*
X16156787Y-8247556D02*
X16067502Y-8223747D01*
X16067502Y-8223747D02*
X16156787Y-8199937D01*
X16156787Y-8199937D02*
X16031787Y-8170175D01*
X16031787Y-8068985D02*
X16031787Y-8092794D01*
X16031787Y-8092794D02*
X16037740Y-8104699D01*
X16037740Y-8104699D02*
X16043692Y-8110652D01*
X16043692Y-8110652D02*
X16061549Y-8122556D01*
X16061549Y-8122556D02*
X16085359Y-8128509D01*
X16085359Y-8128509D02*
X16132978Y-8128509D01*
X16132978Y-8128509D02*
X16144883Y-8122556D01*
X16144883Y-8122556D02*
X16150835Y-8116604D01*
X16150835Y-8116604D02*
X16156787Y-8104699D01*
X16156787Y-8104699D02*
X16156787Y-8080890D01*
X16156787Y-8080890D02*
X16150835Y-8068985D01*
X16150835Y-8068985D02*
X16144883Y-8063033D01*
X16144883Y-8063033D02*
X16132978Y-8057080D01*
X16132978Y-8057080D02*
X16103216Y-8057080D01*
X16103216Y-8057080D02*
X16091311Y-8063033D01*
X16091311Y-8063033D02*
X16085359Y-8068985D01*
X16085359Y-8068985D02*
X16079406Y-8080890D01*
X16079406Y-8080890D02*
X16079406Y-8104699D01*
X16079406Y-8104699D02*
X16085359Y-8116604D01*
X16085359Y-8116604D02*
X16091311Y-8122556D01*
X16091311Y-8122556D02*
X16103216Y-8128509D01*
D11*
X15520482Y-7055106D02*
X15420482Y-7055106D01*
X15468101Y-7055106D02*
X15468101Y-6997964D01*
X15520482Y-6997964D02*
X15420482Y-6997964D01*
X15420482Y-6959868D02*
X15520482Y-6936059D01*
X15520482Y-6936059D02*
X15449053Y-6917011D01*
X15449053Y-6917011D02*
X15520482Y-6897964D01*
X15520482Y-6897964D02*
X15420482Y-6874154D01*
X18763941Y-9295482D02*
X18787751Y-9395482D01*
X18787751Y-9395482D02*
X18806798Y-9324053D01*
X18806798Y-9324053D02*
X18825846Y-9395482D01*
X18825846Y-9395482D02*
X18849655Y-9295482D01*
X18882989Y-9366910D02*
X18930608Y-9366910D01*
X18873465Y-9395482D02*
X18906798Y-9295482D01*
X18906798Y-9295482D02*
X18940132Y-9395482D01*
X18973465Y-9395482D02*
X18973465Y-9295482D01*
X19030608Y-9395482D02*
X18987751Y-9338339D01*
X19030608Y-9295482D02*
X18973465Y-9352625D01*
X19073465Y-9343101D02*
X19106798Y-9343101D01*
X19121084Y-9395482D02*
X19073465Y-9395482D01*
X19073465Y-9395482D02*
X19073465Y-9295482D01*
X19073465Y-9295482D02*
X19121084Y-9295482D01*
X18906798Y-8635958D02*
X18902036Y-8640720D01*
X18902036Y-8640720D02*
X18887751Y-8645482D01*
X18887751Y-8645482D02*
X18878227Y-8645482D01*
X18878227Y-8645482D02*
X18863941Y-8640720D01*
X18863941Y-8640720D02*
X18854417Y-8631196D01*
X18854417Y-8631196D02*
X18849655Y-8621672D01*
X18849655Y-8621672D02*
X18844894Y-8602625D01*
X18844894Y-8602625D02*
X18844894Y-8588339D01*
X18844894Y-8588339D02*
X18849655Y-8569291D01*
X18849655Y-8569291D02*
X18854417Y-8559768D01*
X18854417Y-8559768D02*
X18863941Y-8550244D01*
X18863941Y-8550244D02*
X18878227Y-8545482D01*
X18878227Y-8545482D02*
X18887751Y-8545482D01*
X18887751Y-8545482D02*
X18902036Y-8550244D01*
X18902036Y-8550244D02*
X18906798Y-8555006D01*
X18949655Y-8645482D02*
X18949655Y-8545482D01*
X18949655Y-8545482D02*
X18982989Y-8616910D01*
X18982989Y-8616910D02*
X19016322Y-8545482D01*
X19016322Y-8545482D02*
X19016322Y-8645482D01*
X19063941Y-8645482D02*
X19063941Y-8545482D01*
X19063941Y-8545482D02*
X19087751Y-8545482D01*
X19087751Y-8545482D02*
X19102036Y-8550244D01*
X19102036Y-8550244D02*
X19111560Y-8559768D01*
X19111560Y-8559768D02*
X19116322Y-8569291D01*
X19116322Y-8569291D02*
X19121084Y-8588339D01*
X19121084Y-8588339D02*
X19121084Y-8602625D01*
X19121084Y-8602625D02*
X19116322Y-8621672D01*
X19116322Y-8621672D02*
X19111560Y-8631196D01*
X19111560Y-8631196D02*
X19102036Y-8640720D01*
X19102036Y-8640720D02*
X19087751Y-8645482D01*
X19087751Y-8645482D02*
X19063941Y-8645482D01*
X18838941Y-9544482D02*
X18872274Y-9644482D01*
X18872274Y-9644482D02*
X18905608Y-9544482D01*
X18938941Y-9644482D02*
X18938941Y-9544482D01*
X18938941Y-9544482D02*
X18962751Y-9544482D01*
X18962751Y-9544482D02*
X18977036Y-9549244D01*
X18977036Y-9549244D02*
X18986560Y-9558768D01*
X18986560Y-9558768D02*
X18991322Y-9568291D01*
X18991322Y-9568291D02*
X18996084Y-9587339D01*
X18996084Y-9587339D02*
X18996084Y-9601625D01*
X18996084Y-9601625D02*
X18991322Y-9620672D01*
X18991322Y-9620672D02*
X18986560Y-9630196D01*
X18986560Y-9630196D02*
X18977036Y-9639720D01*
X18977036Y-9639720D02*
X18962751Y-9644482D01*
X18962751Y-9644482D02*
X18938941Y-9644482D01*
X19038941Y-9644482D02*
X19038941Y-9544482D01*
X19038941Y-9544482D02*
X19062751Y-9544482D01*
X19062751Y-9544482D02*
X19077036Y-9549244D01*
X19077036Y-9549244D02*
X19086560Y-9558768D01*
X19086560Y-9558768D02*
X19091322Y-9568291D01*
X19091322Y-9568291D02*
X19096084Y-9587339D01*
X19096084Y-9587339D02*
X19096084Y-9601625D01*
X19096084Y-9601625D02*
X19091322Y-9620672D01*
X19091322Y-9620672D02*
X19086560Y-9630196D01*
X19086560Y-9630196D02*
X19077036Y-9639720D01*
X19077036Y-9639720D02*
X19062751Y-9644482D01*
X19062751Y-9644482D02*
X19038941Y-9644482D01*
D14*
G36*
X19440417Y-10419138D02*
G01*
X19428497Y-10418227D01*
X19417748Y-10415585D01*
X19407971Y-10411269D01*
X19399135Y-10405302D01*
X19391774Y-10398018D01*
X19385760Y-10389302D01*
X19381386Y-10379632D01*
X19378717Y-10369052D01*
X19377800Y-10357368D01*
X19378564Y-10346529D01*
X19380775Y-10336784D01*
X19384367Y-10327961D01*
X19389348Y-10319922D01*
X19395612Y-10312808D01*
X19402865Y-10307007D01*
X19411215Y-10302437D01*
X19420825Y-10299093D01*
X19420825Y-10331989D01*
X19416051Y-10334834D01*
X19412199Y-10338294D01*
X19409162Y-10342408D01*
X19406958Y-10347040D01*
X19405616Y-10352111D01*
X19405155Y-10357719D01*
X19405784Y-10364460D01*
X19407595Y-10370336D01*
X19410553Y-10375517D01*
X19414734Y-10380120D01*
X19419732Y-10383760D01*
X19425553Y-10386425D01*
X19432351Y-10388100D01*
X19440326Y-10388692D01*
X19448300Y-10388100D01*
X19455100Y-10386425D01*
X19460923Y-10383760D01*
X19465926Y-10380120D01*
X19470102Y-10375518D01*
X19473058Y-10370337D01*
X19474868Y-10364460D01*
X19475497Y-10357719D01*
X19475037Y-10352111D01*
X19473697Y-10347040D01*
X19471497Y-10342408D01*
X19468455Y-10338294D01*
X19464601Y-10334834D01*
X19459827Y-10331989D01*
X19459827Y-10299093D01*
X19469481Y-10302441D01*
X19477850Y-10307014D01*
X19485103Y-10312814D01*
X19491350Y-10319922D01*
X19496310Y-10327958D01*
X19499887Y-10336780D01*
X19502090Y-10346527D01*
X19502852Y-10357368D01*
X19501935Y-10369052D01*
X19499268Y-10379632D01*
X19494899Y-10389302D01*
X19488886Y-10398025D01*
X19481551Y-10405308D01*
X19472772Y-10411269D01*
X19463049Y-10415583D01*
X19452332Y-10418226D01*
X19440417Y-10419138D01*
G37*
G36*
X19379021Y-10204327D02*
G01*
X19462834Y-10204327D01*
X19472516Y-10205092D01*
X19480553Y-10207235D01*
X19487246Y-10210620D01*
X19492823Y-10215234D01*
X19497308Y-10220971D01*
X19500573Y-10227652D01*
X19502618Y-10235457D01*
X19503340Y-10244627D01*
X19502585Y-10254223D01*
X19500439Y-10262448D01*
X19497004Y-10269541D01*
X19492273Y-10275684D01*
X19486395Y-10280640D01*
X19479366Y-10284264D01*
X19470952Y-10286554D01*
X19460842Y-10287369D01*
X19460842Y-10257572D01*
X19465913Y-10257167D01*
X19469709Y-10256084D01*
X19472520Y-10254450D01*
X19474681Y-10252109D01*
X19476002Y-10249161D01*
X19476474Y-10245413D01*
X19476056Y-10241983D01*
X19474883Y-10239260D01*
X19472970Y-10237078D01*
X19468919Y-10234937D01*
X19462796Y-10234124D01*
X19379021Y-10234124D01*
X19379021Y-10204327D01*
G37*
G36*
X19378777Y-10074366D02*
G01*
X19461193Y-10116888D01*
X19501875Y-10116888D01*
X19501875Y-10146685D01*
X19461193Y-10146685D01*
X19378777Y-10189214D01*
X19378777Y-10155257D01*
X19430327Y-10131527D01*
X19378777Y-10107965D01*
X19378777Y-10074366D01*
G37*
D11*
X15568101Y-7799154D02*
X15572863Y-7784868D01*
X15572863Y-7784868D02*
X15577625Y-7780106D01*
X15577625Y-7780106D02*
X15587148Y-7775345D01*
X15587148Y-7775345D02*
X15601434Y-7775345D01*
X15601434Y-7775345D02*
X15610958Y-7780106D01*
X15610958Y-7780106D02*
X15615720Y-7784868D01*
X15615720Y-7784868D02*
X15620482Y-7794392D01*
X15620482Y-7794392D02*
X15620482Y-7832487D01*
X15620482Y-7832487D02*
X15520482Y-7832487D01*
X15520482Y-7832487D02*
X15520482Y-7799154D01*
X15520482Y-7799154D02*
X15525244Y-7789630D01*
X15525244Y-7789630D02*
X15530006Y-7784868D01*
X15530006Y-7784868D02*
X15539529Y-7780106D01*
X15539529Y-7780106D02*
X15549053Y-7780106D01*
X15549053Y-7780106D02*
X15558577Y-7784868D01*
X15558577Y-7784868D02*
X15563339Y-7789630D01*
X15563339Y-7789630D02*
X15568101Y-7799154D01*
X15568101Y-7799154D02*
X15568101Y-7832487D01*
X15520482Y-7746773D02*
X15520482Y-7689630D01*
X15620482Y-7718202D02*
X15520482Y-7718202D01*
X15568101Y-7656297D02*
X15568101Y-7622964D01*
X15620482Y-7608678D02*
X15620482Y-7656297D01*
X15620482Y-7656297D02*
X15520482Y-7656297D01*
X15520482Y-7656297D02*
X15520482Y-7608678D01*
X15620482Y-7565821D02*
X15520482Y-7565821D01*
X15520482Y-7565821D02*
X15620482Y-7508678D01*
X15620482Y-7508678D02*
X15520482Y-7508678D01*
X17020482Y-10409868D02*
X17120482Y-10386059D01*
X17120482Y-10386059D02*
X17049053Y-10367011D01*
X17049053Y-10367011D02*
X17120482Y-10347964D01*
X17120482Y-10347964D02*
X17020482Y-10324154D01*
X17120482Y-10238440D02*
X17120482Y-10286059D01*
X17120482Y-10286059D02*
X17020482Y-10286059D01*
X17120482Y-10205106D02*
X17020482Y-10205106D01*
X17068101Y-10205106D02*
X17068101Y-10147964D01*
X17120482Y-10147964D02*
X17020482Y-10147964D01*
X17020482Y-10109868D02*
X17120482Y-10086059D01*
X17120482Y-10086059D02*
X17049053Y-10067011D01*
X17049053Y-10067011D02*
X17120482Y-10047964D01*
X17120482Y-10047964D02*
X17020482Y-10024154D01*
D12*
X19305451Y-7322940D02*
X19419737Y-7322940D01*
X19362594Y-7380083D02*
X19362594Y-7265797D01*
D11*
X17535958Y-7059868D02*
X17540720Y-7064630D01*
X17540720Y-7064630D02*
X17545482Y-7078916D01*
X17545482Y-7078916D02*
X17545482Y-7088440D01*
X17545482Y-7088440D02*
X17540720Y-7102725D01*
X17540720Y-7102725D02*
X17531196Y-7112249D01*
X17531196Y-7112249D02*
X17521672Y-7117011D01*
X17521672Y-7117011D02*
X17502625Y-7121773D01*
X17502625Y-7121773D02*
X17488339Y-7121773D01*
X17488339Y-7121773D02*
X17469291Y-7117011D01*
X17469291Y-7117011D02*
X17459768Y-7112249D01*
X17459768Y-7112249D02*
X17450244Y-7102725D01*
X17450244Y-7102725D02*
X17445482Y-7088440D01*
X17445482Y-7088440D02*
X17445482Y-7078916D01*
X17445482Y-7078916D02*
X17450244Y-7064630D01*
X17450244Y-7064630D02*
X17455006Y-7059868D01*
X17545482Y-6969392D02*
X17545482Y-7017011D01*
X17545482Y-7017011D02*
X17445482Y-7017011D01*
X17545482Y-6936059D02*
X17445482Y-6936059D01*
X17545482Y-6878916D02*
X17488339Y-6921773D01*
X17445482Y-6878916D02*
X17502625Y-6936059D01*
X18408333Y-8020958D02*
X18403571Y-8025720D01*
X18403571Y-8025720D02*
X18389286Y-8030482D01*
X18389286Y-8030482D02*
X18379762Y-8030482D01*
X18379762Y-8030482D02*
X18365476Y-8025720D01*
X18365476Y-8025720D02*
X18355952Y-8016196D01*
X18355952Y-8016196D02*
X18351191Y-8006672D01*
X18351191Y-8006672D02*
X18346429Y-7987625D01*
X18346429Y-7987625D02*
X18346429Y-7973339D01*
X18346429Y-7973339D02*
X18351191Y-7954291D01*
X18351191Y-7954291D02*
X18355952Y-7944768D01*
X18355952Y-7944768D02*
X18365476Y-7935244D01*
X18365476Y-7935244D02*
X18379762Y-7930482D01*
X18379762Y-7930482D02*
X18389286Y-7930482D01*
X18389286Y-7930482D02*
X18403571Y-7935244D01*
X18403571Y-7935244D02*
X18408333Y-7940006D01*
X18494048Y-7930482D02*
X18475000Y-7930482D01*
X18475000Y-7930482D02*
X18465476Y-7935244D01*
X18465476Y-7935244D02*
X18460714Y-7940006D01*
X18460714Y-7940006D02*
X18451191Y-7954291D01*
X18451191Y-7954291D02*
X18446429Y-7973339D01*
X18446429Y-7973339D02*
X18446429Y-8011434D01*
X18446429Y-8011434D02*
X18451191Y-8020958D01*
X18451191Y-8020958D02*
X18455952Y-8025720D01*
X18455952Y-8025720D02*
X18465476Y-8030482D01*
X18465476Y-8030482D02*
X18484524Y-8030482D01*
X18484524Y-8030482D02*
X18494048Y-8025720D01*
X18494048Y-8025720D02*
X18498810Y-8020958D01*
X18498810Y-8020958D02*
X18503571Y-8011434D01*
X18503571Y-8011434D02*
X18503571Y-7987625D01*
X18503571Y-7987625D02*
X18498810Y-7978101D01*
X18498810Y-7978101D02*
X18494048Y-7973339D01*
X18494048Y-7973339D02*
X18484524Y-7968577D01*
X18484524Y-7968577D02*
X18465476Y-7968577D01*
X18465476Y-7968577D02*
X18455952Y-7973339D01*
X18455952Y-7973339D02*
X18451191Y-7978101D01*
X18451191Y-7978101D02*
X18446429Y-7987625D01*
X16910958Y-9541667D02*
X16915720Y-9546429D01*
X16915720Y-9546429D02*
X16920482Y-9560714D01*
X16920482Y-9560714D02*
X16920482Y-9570238D01*
X16920482Y-9570238D02*
X16915720Y-9584524D01*
X16915720Y-9584524D02*
X16906196Y-9594048D01*
X16906196Y-9594048D02*
X16896672Y-9598809D01*
X16896672Y-9598809D02*
X16877625Y-9603571D01*
X16877625Y-9603571D02*
X16863339Y-9603571D01*
X16863339Y-9603571D02*
X16844291Y-9598809D01*
X16844291Y-9598809D02*
X16834768Y-9594048D01*
X16834768Y-9594048D02*
X16825244Y-9584524D01*
X16825244Y-9584524D02*
X16820482Y-9570238D01*
X16820482Y-9570238D02*
X16820482Y-9560714D01*
X16820482Y-9560714D02*
X16825244Y-9546429D01*
X16825244Y-9546429D02*
X16830006Y-9541667D01*
X16863339Y-9484524D02*
X16858577Y-9494048D01*
X16858577Y-9494048D02*
X16853815Y-9498809D01*
X16853815Y-9498809D02*
X16844291Y-9503571D01*
X16844291Y-9503571D02*
X16839530Y-9503571D01*
X16839530Y-9503571D02*
X16830006Y-9498809D01*
X16830006Y-9498809D02*
X16825244Y-9494048D01*
X16825244Y-9494048D02*
X16820482Y-9484524D01*
X16820482Y-9484524D02*
X16820482Y-9465476D01*
X16820482Y-9465476D02*
X16825244Y-9455952D01*
X16825244Y-9455952D02*
X16830006Y-9451190D01*
X16830006Y-9451190D02*
X16839530Y-9446429D01*
X16839530Y-9446429D02*
X16844291Y-9446429D01*
X16844291Y-9446429D02*
X16853815Y-9451190D01*
X16853815Y-9451190D02*
X16858577Y-9455952D01*
X16858577Y-9455952D02*
X16863339Y-9465476D01*
X16863339Y-9465476D02*
X16863339Y-9484524D01*
X16863339Y-9484524D02*
X16868101Y-9494048D01*
X16868101Y-9494048D02*
X16872863Y-9498809D01*
X16872863Y-9498809D02*
X16882387Y-9503571D01*
X16882387Y-9503571D02*
X16901434Y-9503571D01*
X16901434Y-9503571D02*
X16910958Y-9498809D01*
X16910958Y-9498809D02*
X16915720Y-9494048D01*
X16915720Y-9494048D02*
X16920482Y-9484524D01*
X16920482Y-9484524D02*
X16920482Y-9465476D01*
X16920482Y-9465476D02*
X16915720Y-9455952D01*
X16915720Y-9455952D02*
X16910958Y-9451190D01*
X16910958Y-9451190D02*
X16901434Y-9446429D01*
X16901434Y-9446429D02*
X16882387Y-9446429D01*
X16882387Y-9446429D02*
X16872863Y-9451190D01*
X16872863Y-9451190D02*
X16868101Y-9455952D01*
X16868101Y-9455952D02*
X16863339Y-9465476D01*
X18408333Y-7420482D02*
X18375000Y-7372863D01*
X18351191Y-7420482D02*
X18351191Y-7320482D01*
X18351191Y-7320482D02*
X18389286Y-7320482D01*
X18389286Y-7320482D02*
X18398810Y-7325244D01*
X18398810Y-7325244D02*
X18403571Y-7330006D01*
X18403571Y-7330006D02*
X18408333Y-7339529D01*
X18408333Y-7339529D02*
X18408333Y-7353815D01*
X18408333Y-7353815D02*
X18403571Y-7363339D01*
X18403571Y-7363339D02*
X18398810Y-7368101D01*
X18398810Y-7368101D02*
X18389286Y-7372863D01*
X18389286Y-7372863D02*
X18351191Y-7372863D01*
X18441667Y-7320482D02*
X18508333Y-7320482D01*
X18508333Y-7320482D02*
X18465476Y-7420482D01*
X18410833Y-8220482D02*
X18377500Y-8172863D01*
X18353691Y-8220482D02*
X18353691Y-8120482D01*
X18353691Y-8120482D02*
X18391786Y-8120482D01*
X18391786Y-8120482D02*
X18401310Y-8125244D01*
X18401310Y-8125244D02*
X18406071Y-8130006D01*
X18406071Y-8130006D02*
X18410833Y-8139529D01*
X18410833Y-8139529D02*
X18410833Y-8153815D01*
X18410833Y-8153815D02*
X18406071Y-8163339D01*
X18406071Y-8163339D02*
X18401310Y-8168101D01*
X18401310Y-8168101D02*
X18391786Y-8172863D01*
X18391786Y-8172863D02*
X18353691Y-8172863D01*
X18501310Y-8120482D02*
X18453691Y-8120482D01*
X18453691Y-8120482D02*
X18448929Y-8168101D01*
X18448929Y-8168101D02*
X18453691Y-8163339D01*
X18453691Y-8163339D02*
X18463214Y-8158577D01*
X18463214Y-8158577D02*
X18487024Y-8158577D01*
X18487024Y-8158577D02*
X18496548Y-8163339D01*
X18496548Y-8163339D02*
X18501310Y-8168101D01*
X18501310Y-8168101D02*
X18506071Y-8177625D01*
X18506071Y-8177625D02*
X18506071Y-8201434D01*
X18506071Y-8201434D02*
X18501310Y-8210958D01*
X18501310Y-8210958D02*
X18496548Y-8215720D01*
X18496548Y-8215720D02*
X18487024Y-8220482D01*
X18487024Y-8220482D02*
X18463214Y-8220482D01*
X18463214Y-8220482D02*
X18453691Y-8215720D01*
X18453691Y-8215720D02*
X18448929Y-8210958D01*
X18408333Y-7815958D02*
X18403571Y-7820720D01*
X18403571Y-7820720D02*
X18389286Y-7825482D01*
X18389286Y-7825482D02*
X18379762Y-7825482D01*
X18379762Y-7825482D02*
X18365476Y-7820720D01*
X18365476Y-7820720D02*
X18355952Y-7811196D01*
X18355952Y-7811196D02*
X18351191Y-7801672D01*
X18351191Y-7801672D02*
X18346429Y-7782625D01*
X18346429Y-7782625D02*
X18346429Y-7768339D01*
X18346429Y-7768339D02*
X18351191Y-7749291D01*
X18351191Y-7749291D02*
X18355952Y-7739768D01*
X18355952Y-7739768D02*
X18365476Y-7730244D01*
X18365476Y-7730244D02*
X18379762Y-7725482D01*
X18379762Y-7725482D02*
X18389286Y-7725482D01*
X18389286Y-7725482D02*
X18403571Y-7730244D01*
X18403571Y-7730244D02*
X18408333Y-7735006D01*
X18498810Y-7725482D02*
X18451191Y-7725482D01*
X18451191Y-7725482D02*
X18446429Y-7773101D01*
X18446429Y-7773101D02*
X18451191Y-7768339D01*
X18451191Y-7768339D02*
X18460714Y-7763577D01*
X18460714Y-7763577D02*
X18484524Y-7763577D01*
X18484524Y-7763577D02*
X18494048Y-7768339D01*
X18494048Y-7768339D02*
X18498810Y-7773101D01*
X18498810Y-7773101D02*
X18503571Y-7782625D01*
X18503571Y-7782625D02*
X18503571Y-7806434D01*
X18503571Y-7806434D02*
X18498810Y-7815958D01*
X18498810Y-7815958D02*
X18494048Y-7820720D01*
X18494048Y-7820720D02*
X18484524Y-7825482D01*
X18484524Y-7825482D02*
X18460714Y-7825482D01*
X18460714Y-7825482D02*
X18451191Y-7820720D01*
X18451191Y-7820720D02*
X18446429Y-7815958D01*
X17720482Y-9858333D02*
X17791910Y-9858333D01*
X17791910Y-9858333D02*
X17806196Y-9863095D01*
X17806196Y-9863095D02*
X17815720Y-9872619D01*
X17815720Y-9872619D02*
X17820482Y-9886905D01*
X17820482Y-9886905D02*
X17820482Y-9896429D01*
X17720482Y-9820238D02*
X17720482Y-9758333D01*
X17720482Y-9758333D02*
X17758577Y-9791667D01*
X17758577Y-9791667D02*
X17758577Y-9777381D01*
X17758577Y-9777381D02*
X17763339Y-9767857D01*
X17763339Y-9767857D02*
X17768101Y-9763095D01*
X17768101Y-9763095D02*
X17777625Y-9758333D01*
X17777625Y-9758333D02*
X17801434Y-9758333D01*
X17801434Y-9758333D02*
X17810958Y-9763095D01*
X17810958Y-9763095D02*
X17815720Y-9767857D01*
X17815720Y-9767857D02*
X17820482Y-9777381D01*
X17820482Y-9777381D02*
X17820482Y-9805952D01*
X17820482Y-9805952D02*
X17815720Y-9815476D01*
X17815720Y-9815476D02*
X17810958Y-9820238D01*
X16465476Y-7595482D02*
X16432143Y-7547863D01*
X16408333Y-7595482D02*
X16408333Y-7495482D01*
X16408333Y-7495482D02*
X16446428Y-7495482D01*
X16446428Y-7495482D02*
X16455952Y-7500244D01*
X16455952Y-7500244D02*
X16460714Y-7505006D01*
X16460714Y-7505006D02*
X16465476Y-7514529D01*
X16465476Y-7514529D02*
X16465476Y-7528815D01*
X16465476Y-7528815D02*
X16460714Y-7538339D01*
X16460714Y-7538339D02*
X16455952Y-7543101D01*
X16455952Y-7543101D02*
X16446428Y-7547863D01*
X16446428Y-7547863D02*
X16408333Y-7547863D01*
X16541667Y-7543101D02*
X16508333Y-7543101D01*
X16508333Y-7595482D02*
X16508333Y-7495482D01*
X16508333Y-7495482D02*
X16555952Y-7495482D01*
X16646428Y-7595482D02*
X16589286Y-7595482D01*
X16617857Y-7595482D02*
X16617857Y-7495482D01*
X16617857Y-7495482D02*
X16608333Y-7509768D01*
X16608333Y-7509768D02*
X16598809Y-7519291D01*
X16598809Y-7519291D02*
X16589286Y-7524053D01*
X15020482Y-7333333D02*
X15091910Y-7333333D01*
X15091910Y-7333333D02*
X15106196Y-7338095D01*
X15106196Y-7338095D02*
X15115720Y-7347619D01*
X15115720Y-7347619D02*
X15120482Y-7361905D01*
X15120482Y-7361905D02*
X15120482Y-7371428D01*
X15053815Y-7242857D02*
X15120482Y-7242857D01*
X15015720Y-7266667D02*
X15087148Y-7290476D01*
X15087148Y-7290476D02*
X15087148Y-7228571D01*
X18408333Y-9020482D02*
X18375000Y-8972863D01*
X18351191Y-9020482D02*
X18351191Y-8920482D01*
X18351191Y-8920482D02*
X18389286Y-8920482D01*
X18389286Y-8920482D02*
X18398810Y-8925244D01*
X18398810Y-8925244D02*
X18403571Y-8930006D01*
X18403571Y-8930006D02*
X18408333Y-8939530D01*
X18408333Y-8939530D02*
X18408333Y-8953815D01*
X18408333Y-8953815D02*
X18403571Y-8963339D01*
X18403571Y-8963339D02*
X18398810Y-8968101D01*
X18398810Y-8968101D02*
X18389286Y-8972863D01*
X18389286Y-8972863D02*
X18351191Y-8972863D01*
X18503571Y-9020482D02*
X18446429Y-9020482D01*
X18475000Y-9020482D02*
X18475000Y-8920482D01*
X18475000Y-8920482D02*
X18465476Y-8934768D01*
X18465476Y-8934768D02*
X18455952Y-8944291D01*
X18455952Y-8944291D02*
X18446429Y-8949053D01*
X16710958Y-9541667D02*
X16715720Y-9546429D01*
X16715720Y-9546429D02*
X16720482Y-9560714D01*
X16720482Y-9560714D02*
X16720482Y-9570238D01*
X16720482Y-9570238D02*
X16715720Y-9584524D01*
X16715720Y-9584524D02*
X16706196Y-9594048D01*
X16706196Y-9594048D02*
X16696672Y-9598809D01*
X16696672Y-9598809D02*
X16677625Y-9603571D01*
X16677625Y-9603571D02*
X16663339Y-9603571D01*
X16663339Y-9603571D02*
X16644291Y-9598809D01*
X16644291Y-9598809D02*
X16634768Y-9594048D01*
X16634768Y-9594048D02*
X16625244Y-9584524D01*
X16625244Y-9584524D02*
X16620482Y-9570238D01*
X16620482Y-9570238D02*
X16620482Y-9560714D01*
X16620482Y-9560714D02*
X16625244Y-9546429D01*
X16625244Y-9546429D02*
X16630006Y-9541667D01*
X16620482Y-9508333D02*
X16620482Y-9441667D01*
X16620482Y-9441667D02*
X16720482Y-9484524D01*
X18408333Y-7610958D02*
X18403571Y-7615720D01*
X18403571Y-7615720D02*
X18389286Y-7620482D01*
X18389286Y-7620482D02*
X18379762Y-7620482D01*
X18379762Y-7620482D02*
X18365476Y-7615720D01*
X18365476Y-7615720D02*
X18355952Y-7606196D01*
X18355952Y-7606196D02*
X18351191Y-7596672D01*
X18351191Y-7596672D02*
X18346429Y-7577625D01*
X18346429Y-7577625D02*
X18346429Y-7563339D01*
X18346429Y-7563339D02*
X18351191Y-7544291D01*
X18351191Y-7544291D02*
X18355952Y-7534768D01*
X18355952Y-7534768D02*
X18365476Y-7525244D01*
X18365476Y-7525244D02*
X18379762Y-7520482D01*
X18379762Y-7520482D02*
X18389286Y-7520482D01*
X18389286Y-7520482D02*
X18403571Y-7525244D01*
X18403571Y-7525244D02*
X18408333Y-7530006D01*
X18494048Y-7553815D02*
X18494048Y-7620482D01*
X18470238Y-7515720D02*
X18446429Y-7587148D01*
X18446429Y-7587148D02*
X18508333Y-7587148D01*
X17635958Y-9541667D02*
X17640720Y-9546429D01*
X17640720Y-9546429D02*
X17645482Y-9560714D01*
X17645482Y-9560714D02*
X17645482Y-9570238D01*
X17645482Y-9570238D02*
X17640720Y-9584524D01*
X17640720Y-9584524D02*
X17631196Y-9594048D01*
X17631196Y-9594048D02*
X17621672Y-9598809D01*
X17621672Y-9598809D02*
X17602625Y-9603571D01*
X17602625Y-9603571D02*
X17588339Y-9603571D01*
X17588339Y-9603571D02*
X17569291Y-9598809D01*
X17569291Y-9598809D02*
X17559768Y-9594048D01*
X17559768Y-9594048D02*
X17550244Y-9584524D01*
X17550244Y-9584524D02*
X17545482Y-9570238D01*
X17545482Y-9570238D02*
X17545482Y-9560714D01*
X17545482Y-9560714D02*
X17550244Y-9546429D01*
X17550244Y-9546429D02*
X17555006Y-9541667D01*
X17545482Y-9508333D02*
X17545482Y-9446429D01*
X17545482Y-9446429D02*
X17583577Y-9479762D01*
X17583577Y-9479762D02*
X17583577Y-9465476D01*
X17583577Y-9465476D02*
X17588339Y-9455952D01*
X17588339Y-9455952D02*
X17593101Y-9451190D01*
X17593101Y-9451190D02*
X17602625Y-9446429D01*
X17602625Y-9446429D02*
X17626434Y-9446429D01*
X17626434Y-9446429D02*
X17635958Y-9451190D01*
X17635958Y-9451190D02*
X17640720Y-9455952D01*
X17640720Y-9455952D02*
X17645482Y-9465476D01*
X17645482Y-9465476D02*
X17645482Y-9494048D01*
X17645482Y-9494048D02*
X17640720Y-9503571D01*
X17640720Y-9503571D02*
X17635958Y-9508333D01*
X18408333Y-8620482D02*
X18375000Y-8572863D01*
X18351191Y-8620482D02*
X18351191Y-8520482D01*
X18351191Y-8520482D02*
X18389286Y-8520482D01*
X18389286Y-8520482D02*
X18398810Y-8525244D01*
X18398810Y-8525244D02*
X18403571Y-8530006D01*
X18403571Y-8530006D02*
X18408333Y-8539530D01*
X18408333Y-8539530D02*
X18408333Y-8553815D01*
X18408333Y-8553815D02*
X18403571Y-8563339D01*
X18403571Y-8563339D02*
X18398810Y-8568101D01*
X18398810Y-8568101D02*
X18389286Y-8572863D01*
X18389286Y-8572863D02*
X18351191Y-8572863D01*
X18441667Y-8520482D02*
X18503571Y-8520482D01*
X18503571Y-8520482D02*
X18470238Y-8558577D01*
X18470238Y-8558577D02*
X18484524Y-8558577D01*
X18484524Y-8558577D02*
X18494048Y-8563339D01*
X18494048Y-8563339D02*
X18498810Y-8568101D01*
X18498810Y-8568101D02*
X18503571Y-8577625D01*
X18503571Y-8577625D02*
X18503571Y-8601434D01*
X18503571Y-8601434D02*
X18498810Y-8610958D01*
X18498810Y-8610958D02*
X18494048Y-8615720D01*
X18494048Y-8615720D02*
X18484524Y-8620482D01*
X18484524Y-8620482D02*
X18455952Y-8620482D01*
X18455952Y-8620482D02*
X18446429Y-8615720D01*
X18446429Y-8615720D02*
X18441667Y-8610958D01*
X16245482Y-7333333D02*
X16316910Y-7333333D01*
X16316910Y-7333333D02*
X16331196Y-7338095D01*
X16331196Y-7338095D02*
X16340720Y-7347619D01*
X16340720Y-7347619D02*
X16345482Y-7361905D01*
X16345482Y-7361905D02*
X16345482Y-7371428D01*
X16345482Y-7280952D02*
X16345482Y-7261905D01*
X16345482Y-7261905D02*
X16340720Y-7252381D01*
X16340720Y-7252381D02*
X16335958Y-7247619D01*
X16335958Y-7247619D02*
X16321672Y-7238095D01*
X16321672Y-7238095D02*
X16302625Y-7233333D01*
X16302625Y-7233333D02*
X16264529Y-7233333D01*
X16264529Y-7233333D02*
X16255006Y-7238095D01*
X16255006Y-7238095D02*
X16250244Y-7242857D01*
X16250244Y-7242857D02*
X16245482Y-7252381D01*
X16245482Y-7252381D02*
X16245482Y-7271428D01*
X16245482Y-7271428D02*
X16250244Y-7280952D01*
X16250244Y-7280952D02*
X16255006Y-7285714D01*
X16255006Y-7285714D02*
X16264529Y-7290476D01*
X16264529Y-7290476D02*
X16288339Y-7290476D01*
X16288339Y-7290476D02*
X16297863Y-7285714D01*
X16297863Y-7285714D02*
X16302625Y-7280952D01*
X16302625Y-7280952D02*
X16307387Y-7271428D01*
X16307387Y-7271428D02*
X16307387Y-7252381D01*
X16307387Y-7252381D02*
X16302625Y-7242857D01*
X16302625Y-7242857D02*
X16297863Y-7238095D01*
X16297863Y-7238095D02*
X16288339Y-7233333D01*
X17195482Y-7333333D02*
X17266910Y-7333333D01*
X17266910Y-7333333D02*
X17281196Y-7338095D01*
X17281196Y-7338095D02*
X17290720Y-7347619D01*
X17290720Y-7347619D02*
X17295482Y-7361905D01*
X17295482Y-7361905D02*
X17295482Y-7371428D01*
X17195482Y-7238095D02*
X17195482Y-7285714D01*
X17195482Y-7285714D02*
X17243101Y-7290476D01*
X17243101Y-7290476D02*
X17238339Y-7285714D01*
X17238339Y-7285714D02*
X17233577Y-7276190D01*
X17233577Y-7276190D02*
X17233577Y-7252381D01*
X17233577Y-7252381D02*
X17238339Y-7242857D01*
X17238339Y-7242857D02*
X17243101Y-7238095D01*
X17243101Y-7238095D02*
X17252625Y-7233333D01*
X17252625Y-7233333D02*
X17276434Y-7233333D01*
X17276434Y-7233333D02*
X17285958Y-7238095D01*
X17285958Y-7238095D02*
X17290720Y-7242857D01*
X17290720Y-7242857D02*
X17295482Y-7252381D01*
X17295482Y-7252381D02*
X17295482Y-7276190D01*
X17295482Y-7276190D02*
X17290720Y-7285714D01*
X17290720Y-7285714D02*
X17285958Y-7290476D01*
X18190482Y-6733333D02*
X18261910Y-6733333D01*
X18261910Y-6733333D02*
X18276196Y-6738095D01*
X18276196Y-6738095D02*
X18285720Y-6747619D01*
X18285720Y-6747619D02*
X18290482Y-6761905D01*
X18290482Y-6761905D02*
X18290482Y-6771428D01*
X18190482Y-6695238D02*
X18190482Y-6628571D01*
X18190482Y-6628571D02*
X18290482Y-6671428D01*
X19291667Y-9795482D02*
X19291667Y-9866910D01*
X19291667Y-9866910D02*
X19286905Y-9881196D01*
X19286905Y-9881196D02*
X19277381Y-9890720D01*
X19277381Y-9890720D02*
X19263095Y-9895482D01*
X19263095Y-9895482D02*
X19253571Y-9895482D01*
X19353571Y-9838339D02*
X19344048Y-9833577D01*
X19344048Y-9833577D02*
X19339286Y-9828815D01*
X19339286Y-9828815D02*
X19334524Y-9819291D01*
X19334524Y-9819291D02*
X19334524Y-9814530D01*
X19334524Y-9814530D02*
X19339286Y-9805006D01*
X19339286Y-9805006D02*
X19344048Y-9800244D01*
X19344048Y-9800244D02*
X19353571Y-9795482D01*
X19353571Y-9795482D02*
X19372619Y-9795482D01*
X19372619Y-9795482D02*
X19382143Y-9800244D01*
X19382143Y-9800244D02*
X19386905Y-9805006D01*
X19386905Y-9805006D02*
X19391667Y-9814530D01*
X19391667Y-9814530D02*
X19391667Y-9819291D01*
X19391667Y-9819291D02*
X19386905Y-9828815D01*
X19386905Y-9828815D02*
X19382143Y-9833577D01*
X19382143Y-9833577D02*
X19372619Y-9838339D01*
X19372619Y-9838339D02*
X19353571Y-9838339D01*
X19353571Y-9838339D02*
X19344048Y-9843101D01*
X19344048Y-9843101D02*
X19339286Y-9847863D01*
X19339286Y-9847863D02*
X19334524Y-9857387D01*
X19334524Y-9857387D02*
X19334524Y-9876434D01*
X19334524Y-9876434D02*
X19339286Y-9885958D01*
X19339286Y-9885958D02*
X19344048Y-9890720D01*
X19344048Y-9890720D02*
X19353571Y-9895482D01*
X19353571Y-9895482D02*
X19372619Y-9895482D01*
X19372619Y-9895482D02*
X19382143Y-9890720D01*
X19382143Y-9890720D02*
X19386905Y-9885958D01*
X19386905Y-9885958D02*
X19391667Y-9876434D01*
X19391667Y-9876434D02*
X19391667Y-9857387D01*
X19391667Y-9857387D02*
X19386905Y-9847863D01*
X19386905Y-9847863D02*
X19382143Y-9843101D01*
X19382143Y-9843101D02*
X19372619Y-9838339D01*
X16245482Y-9858333D02*
X16316910Y-9858333D01*
X16316910Y-9858333D02*
X16331196Y-9863095D01*
X16331196Y-9863095D02*
X16340720Y-9872619D01*
X16340720Y-9872619D02*
X16345482Y-9886905D01*
X16345482Y-9886905D02*
X16345482Y-9896429D01*
X16245482Y-9767857D02*
X16245482Y-9786905D01*
X16245482Y-9786905D02*
X16250244Y-9796429D01*
X16250244Y-9796429D02*
X16255006Y-9801190D01*
X16255006Y-9801190D02*
X16269291Y-9810714D01*
X16269291Y-9810714D02*
X16288339Y-9815476D01*
X16288339Y-9815476D02*
X16326434Y-9815476D01*
X16326434Y-9815476D02*
X16335958Y-9810714D01*
X16335958Y-9810714D02*
X16340720Y-9805952D01*
X16340720Y-9805952D02*
X16345482Y-9796429D01*
X16345482Y-9796429D02*
X16345482Y-9777381D01*
X16345482Y-9777381D02*
X16340720Y-9767857D01*
X16340720Y-9767857D02*
X16335958Y-9763095D01*
X16335958Y-9763095D02*
X16326434Y-9758333D01*
X16326434Y-9758333D02*
X16302625Y-9758333D01*
X16302625Y-9758333D02*
X16293101Y-9763095D01*
X16293101Y-9763095D02*
X16288339Y-9767857D01*
X16288339Y-9767857D02*
X16283577Y-9777381D01*
X16283577Y-9777381D02*
X16283577Y-9796429D01*
X16283577Y-9796429D02*
X16288339Y-9805952D01*
X16288339Y-9805952D02*
X16293101Y-9810714D01*
X16293101Y-9810714D02*
X16302625Y-9815476D01*
X18408333Y-9220482D02*
X18375000Y-9172863D01*
X18351191Y-9220482D02*
X18351191Y-9120482D01*
X18351191Y-9120482D02*
X18389286Y-9120482D01*
X18389286Y-9120482D02*
X18398810Y-9125244D01*
X18398810Y-9125244D02*
X18403571Y-9130006D01*
X18403571Y-9130006D02*
X18408333Y-9139530D01*
X18408333Y-9139530D02*
X18408333Y-9153815D01*
X18408333Y-9153815D02*
X18403571Y-9163339D01*
X18403571Y-9163339D02*
X18398810Y-9168101D01*
X18398810Y-9168101D02*
X18389286Y-9172863D01*
X18389286Y-9172863D02*
X18351191Y-9172863D01*
X18494048Y-9120482D02*
X18475000Y-9120482D01*
X18475000Y-9120482D02*
X18465476Y-9125244D01*
X18465476Y-9125244D02*
X18460714Y-9130006D01*
X18460714Y-9130006D02*
X18451191Y-9144291D01*
X18451191Y-9144291D02*
X18446429Y-9163339D01*
X18446429Y-9163339D02*
X18446429Y-9201434D01*
X18446429Y-9201434D02*
X18451191Y-9210958D01*
X18451191Y-9210958D02*
X18455952Y-9215720D01*
X18455952Y-9215720D02*
X18465476Y-9220482D01*
X18465476Y-9220482D02*
X18484524Y-9220482D01*
X18484524Y-9220482D02*
X18494048Y-9215720D01*
X18494048Y-9215720D02*
X18498810Y-9210958D01*
X18498810Y-9210958D02*
X18503571Y-9201434D01*
X18503571Y-9201434D02*
X18503571Y-9177625D01*
X18503571Y-9177625D02*
X18498810Y-9168101D01*
X18498810Y-9168101D02*
X18494048Y-9163339D01*
X18494048Y-9163339D02*
X18484524Y-9158577D01*
X18484524Y-9158577D02*
X18465476Y-9158577D01*
X18465476Y-9158577D02*
X18455952Y-9163339D01*
X18455952Y-9163339D02*
X18451191Y-9168101D01*
X18451191Y-9168101D02*
X18446429Y-9177625D01*
X17435958Y-9541667D02*
X17440720Y-9546429D01*
X17440720Y-9546429D02*
X17445482Y-9560714D01*
X17445482Y-9560714D02*
X17445482Y-9570238D01*
X17445482Y-9570238D02*
X17440720Y-9584524D01*
X17440720Y-9584524D02*
X17431196Y-9594048D01*
X17431196Y-9594048D02*
X17421672Y-9598809D01*
X17421672Y-9598809D02*
X17402625Y-9603571D01*
X17402625Y-9603571D02*
X17388339Y-9603571D01*
X17388339Y-9603571D02*
X17369291Y-9598809D01*
X17369291Y-9598809D02*
X17359768Y-9594048D01*
X17359768Y-9594048D02*
X17350244Y-9584524D01*
X17350244Y-9584524D02*
X17345482Y-9570238D01*
X17345482Y-9570238D02*
X17345482Y-9560714D01*
X17345482Y-9560714D02*
X17350244Y-9546429D01*
X17350244Y-9546429D02*
X17355006Y-9541667D01*
X17355006Y-9503571D02*
X17350244Y-9498809D01*
X17350244Y-9498809D02*
X17345482Y-9489286D01*
X17345482Y-9489286D02*
X17345482Y-9465476D01*
X17345482Y-9465476D02*
X17350244Y-9455952D01*
X17350244Y-9455952D02*
X17355006Y-9451190D01*
X17355006Y-9451190D02*
X17364530Y-9446429D01*
X17364530Y-9446429D02*
X17374053Y-9446429D01*
X17374053Y-9446429D02*
X17388339Y-9451190D01*
X17388339Y-9451190D02*
X17445482Y-9508333D01*
X17445482Y-9508333D02*
X17445482Y-9446429D01*
X18408333Y-8820482D02*
X18375000Y-8772863D01*
X18351191Y-8820482D02*
X18351191Y-8720482D01*
X18351191Y-8720482D02*
X18389286Y-8720482D01*
X18389286Y-8720482D02*
X18398810Y-8725244D01*
X18398810Y-8725244D02*
X18403571Y-8730006D01*
X18403571Y-8730006D02*
X18408333Y-8739530D01*
X18408333Y-8739530D02*
X18408333Y-8753815D01*
X18408333Y-8753815D02*
X18403571Y-8763339D01*
X18403571Y-8763339D02*
X18398810Y-8768101D01*
X18398810Y-8768101D02*
X18389286Y-8772863D01*
X18389286Y-8772863D02*
X18351191Y-8772863D01*
X18446429Y-8730006D02*
X18451191Y-8725244D01*
X18451191Y-8725244D02*
X18460714Y-8720482D01*
X18460714Y-8720482D02*
X18484524Y-8720482D01*
X18484524Y-8720482D02*
X18494048Y-8725244D01*
X18494048Y-8725244D02*
X18498810Y-8730006D01*
X18498810Y-8730006D02*
X18503571Y-8739530D01*
X18503571Y-8739530D02*
X18503571Y-8749053D01*
X18503571Y-8749053D02*
X18498810Y-8763339D01*
X18498810Y-8763339D02*
X18441667Y-8820482D01*
X18441667Y-8820482D02*
X18503571Y-8820482D01*
X18410833Y-8420482D02*
X18377500Y-8372863D01*
X18353691Y-8420482D02*
X18353691Y-8320482D01*
X18353691Y-8320482D02*
X18391786Y-8320482D01*
X18391786Y-8320482D02*
X18401310Y-8325244D01*
X18401310Y-8325244D02*
X18406071Y-8330006D01*
X18406071Y-8330006D02*
X18410833Y-8339529D01*
X18410833Y-8339529D02*
X18410833Y-8353815D01*
X18410833Y-8353815D02*
X18406071Y-8363339D01*
X18406071Y-8363339D02*
X18401310Y-8368101D01*
X18401310Y-8368101D02*
X18391786Y-8372863D01*
X18391786Y-8372863D02*
X18353691Y-8372863D01*
X18496548Y-8353815D02*
X18496548Y-8420482D01*
X18472738Y-8315720D02*
X18448929Y-8387148D01*
X18448929Y-8387148D02*
X18510833Y-8387148D01*
X17235958Y-9541667D02*
X17240720Y-9546429D01*
X17240720Y-9546429D02*
X17245482Y-9560714D01*
X17245482Y-9560714D02*
X17245482Y-9570238D01*
X17245482Y-9570238D02*
X17240720Y-9584524D01*
X17240720Y-9584524D02*
X17231196Y-9594048D01*
X17231196Y-9594048D02*
X17221672Y-9598809D01*
X17221672Y-9598809D02*
X17202625Y-9603571D01*
X17202625Y-9603571D02*
X17188339Y-9603571D01*
X17188339Y-9603571D02*
X17169291Y-9598809D01*
X17169291Y-9598809D02*
X17159768Y-9594048D01*
X17159768Y-9594048D02*
X17150244Y-9584524D01*
X17150244Y-9584524D02*
X17145482Y-9570238D01*
X17145482Y-9570238D02*
X17145482Y-9560714D01*
X17145482Y-9560714D02*
X17150244Y-9546429D01*
X17150244Y-9546429D02*
X17155006Y-9541667D01*
X17245482Y-9446429D02*
X17245482Y-9503571D01*
X17245482Y-9475000D02*
X17145482Y-9475000D01*
X17145482Y-9475000D02*
X17159768Y-9484524D01*
X17159768Y-9484524D02*
X17169291Y-9494048D01*
X17169291Y-9494048D02*
X17174053Y-9503571D01*
D15*
G04 #@! TO.C,C6*
X18098875Y-7904000D02*
X18151125Y-7904000D01*
X18098875Y-8046000D02*
X18151125Y-8046000D01*
G04 #@! TO.C,C8*
X16804000Y-9251125D02*
X16804000Y-9198875D01*
X16946000Y-9251125D02*
X16946000Y-9198875D01*
G04 #@! TO.C,R7*
X18098875Y-7304000D02*
X18151125Y-7304000D01*
X18098875Y-7446000D02*
X18151125Y-7446000D01*
G04 #@! TO.C,R5*
X18151125Y-8104000D02*
X18098875Y-8104000D01*
X18151125Y-8246000D02*
X18098875Y-8246000D01*
G04 #@! TO.C,C5*
X18098875Y-7704000D02*
X18151125Y-7704000D01*
X18098875Y-7846000D02*
X18151125Y-7846000D01*
G04 #@! TO.C,J3*
X17892000Y-9958000D02*
X17892000Y-9825000D01*
X18025000Y-9958000D02*
X17892000Y-9958000D01*
X18152000Y-9692000D02*
X18666000Y-9692000D01*
X18152000Y-9958000D02*
X18152000Y-9692000D01*
X18152000Y-9958000D02*
X18666000Y-9958000D01*
X18666000Y-9958000D02*
X18666000Y-9692000D01*
D10*
G04 #@! TO.C,RF1*
X16450000Y-7675000D02*
X16530000Y-7675000D01*
X16450000Y-7765000D02*
X16450000Y-7675000D01*
X16450000Y-8785000D02*
X16450000Y-8875000D01*
X16530000Y-8875000D02*
X16450000Y-8875000D01*
X16530000Y-8875000D02*
X16500000Y-8845000D01*
X16530000Y-8875000D02*
X16500000Y-8905000D01*
X17570000Y-7675000D02*
X17650000Y-7675000D01*
X17570000Y-8875000D02*
X17650000Y-8875000D01*
X17650000Y-7675000D02*
X17650000Y-7765000D01*
X17650000Y-8785000D02*
X17650000Y-8875000D01*
X16600000Y-8765000D02*
X16580000Y-8735000D01*
X16620000Y-8735000D01*
X16600000Y-8765000D01*
G36*
X16600000Y-8765000D02*
G01*
X16580000Y-8735000D01*
X16620000Y-8735000D01*
X16600000Y-8765000D01*
G37*
D15*
G04 #@! TO.C,J4*
X15192000Y-7433000D02*
X15192000Y-7300000D01*
X15325000Y-7433000D02*
X15192000Y-7433000D01*
X15452000Y-7167000D02*
X15966000Y-7167000D01*
X15452000Y-7433000D02*
X15452000Y-7167000D01*
X15452000Y-7433000D02*
X15966000Y-7433000D01*
X15966000Y-7433000D02*
X15966000Y-7167000D01*
G04 #@! TO.C,R1*
X18151125Y-8904000D02*
X18098875Y-8904000D01*
X18151125Y-9046000D02*
X18098875Y-9046000D01*
G04 #@! TO.C,C7*
X16604000Y-9198875D02*
X16604000Y-9251125D01*
X16746000Y-9198875D02*
X16746000Y-9251125D01*
G04 #@! TO.C,C4*
X18098875Y-7504000D02*
X18151125Y-7504000D01*
X18098875Y-7646000D02*
X18151125Y-7646000D01*
G04 #@! TO.C,J1*
X18850000Y-6535000D02*
X19550000Y-6535000D01*
X18850000Y-7215000D02*
X18850000Y-6535000D01*
X19550000Y-6535000D02*
X19550000Y-7215000D01*
X19550000Y-6625000D02*
X18850000Y-6625000D01*
X19550000Y-7215000D02*
X18850000Y-7215000D01*
G04 #@! TO.C,C3*
X17529000Y-9198875D02*
X17529000Y-9251125D01*
X17671000Y-9198875D02*
X17671000Y-9251125D01*
G04 #@! TO.C,R3*
X18151125Y-8504000D02*
X18098875Y-8504000D01*
X18151125Y-8646000D02*
X18098875Y-8646000D01*
G04 #@! TO.C,J9*
X16413000Y-7167000D02*
X16413000Y-7433000D01*
X16673000Y-7167000D02*
X16413000Y-7167000D01*
X16673000Y-7167000D02*
X16673000Y-7433000D01*
X16673000Y-7433000D02*
X16413000Y-7433000D01*
X16800000Y-7167000D02*
X16933000Y-7167000D01*
X16933000Y-7167000D02*
X16933000Y-7300000D01*
G04 #@! TO.C,J5*
X17363000Y-7167000D02*
X17363000Y-7433000D01*
X17623000Y-7167000D02*
X17363000Y-7167000D01*
X17623000Y-7167000D02*
X17623000Y-7433000D01*
X17623000Y-7433000D02*
X17363000Y-7433000D01*
X17750000Y-7167000D02*
X17883000Y-7167000D01*
X17883000Y-7167000D02*
X17883000Y-7300000D01*
G04 #@! TO.C,J7*
X15085000Y-6567000D02*
X15085000Y-6833000D01*
X17885000Y-6567000D02*
X15085000Y-6567000D01*
X17885000Y-6567000D02*
X17885000Y-6833000D01*
X17885000Y-6833000D02*
X15085000Y-6833000D01*
X18012000Y-6567000D02*
X18145000Y-6567000D01*
X18145000Y-6567000D02*
X18145000Y-6700000D01*
G04 #@! TO.C,J8*
X19192000Y-9472000D02*
X19192000Y-7434000D01*
X19458000Y-7434000D02*
X19192000Y-7434000D01*
X19458000Y-9472000D02*
X19192000Y-9472000D01*
X19458000Y-9472000D02*
X19458000Y-7434000D01*
X19458000Y-9599000D02*
X19458000Y-9732000D01*
X19458000Y-9732000D02*
X19325000Y-9732000D01*
G04 #@! TO.C,J6*
X16417000Y-9958000D02*
X16417000Y-9825000D01*
X16550000Y-9958000D02*
X16417000Y-9958000D01*
X16677000Y-9692000D02*
X17445000Y-9692000D01*
X16677000Y-9958000D02*
X16677000Y-9692000D01*
X16677000Y-9958000D02*
X17445000Y-9958000D01*
X17445000Y-9958000D02*
X17445000Y-9692000D01*
G04 #@! TO.C,R6*
X18151125Y-9104000D02*
X18098875Y-9104000D01*
X18151125Y-9246000D02*
X18098875Y-9246000D01*
G04 #@! TO.C,C2*
X17329000Y-9198875D02*
X17329000Y-9251125D01*
X17471000Y-9198875D02*
X17471000Y-9251125D01*
G04 #@! TO.C,R2*
X18151125Y-8704000D02*
X18098875Y-8704000D01*
X18151125Y-8846000D02*
X18098875Y-8846000D01*
G04 #@! TO.C,R4*
X18151125Y-8304000D02*
X18098875Y-8304000D01*
X18151125Y-8446000D02*
X18098875Y-8446000D01*
G04 #@! TO.C,J2*
X18367000Y-6567000D02*
X18500000Y-6567000D01*
X18367000Y-6700000D02*
X18367000Y-6567000D01*
X18367000Y-6827000D02*
X18367000Y-7087000D01*
X18367000Y-6827000D02*
X18633000Y-6827000D01*
X18367000Y-7087000D02*
X18633000Y-7087000D01*
X18633000Y-6827000D02*
X18633000Y-7087000D01*
G04 #@! TO.C,C1*
X17129000Y-9198875D02*
X17129000Y-9251125D01*
X17271000Y-9198875D02*
X17271000Y-9251125D01*
G04 #@! TD*
M02*
