M48
METRIC,TZ
T1C0.300
T2C0.300
T3C1.000
T4C1.200
%
G90
G05
T1
X157250Y-90000
X157250Y-90750
X157250Y-91500
X157250Y-93500
X157250Y-94500
X157250Y-95500
X157250Y-96500
X157250Y-97500
X157250Y-98500
X157250Y-99500
X157250Y-100500
X157250Y-101500
X157250Y-102500
X157250Y-103500
X158250Y-91500
X158250Y-93500
X159250Y-91500
X159250Y-93500
X160250Y-91500
X160250Y-93500
X161000Y-94250
X161250Y-91500
X162000Y-92250
X162000Y-94250
X163000Y-80000
X163000Y-82500
X163000Y-92250
X163000Y-94250
X163250Y-88000
X163250Y-89000
X163500Y-70750
X164000Y-92250
X164000Y-94250
X165000Y-90250
X165000Y-91250
X165000Y-92250
X165000Y-94250
X166000Y-94500
X167000Y-94500
X167500Y-80000
X167500Y-82500
X167500Y-84000
X168000Y-90000
X168000Y-94500
X168750Y-90000
X169000Y-94500
X170250Y-86750
X170750Y-80000
X171250Y-86750
X172000Y-94000
X174000Y-80000
X174000Y-82500
X174000Y-84000
X174000Y-94000
X174750Y-86000
X174750Y-87000
X176000Y-94000
X178000Y-83000
X179500Y-81750
X179500Y-83750
X179500Y-85750
X179500Y-87750
X179500Y-89750
X179500Y-91750
X183000Y-73750
X183000Y-75750
X183000Y-77750
X183000Y-79750
X187000Y-84000
X187000Y-87250
T2
X155750Y-90400
T3
X152180Y-67000
X153250Y-73000
X154720Y-67000
X155790Y-73000
X157260Y-67000
X158330Y-73000
X159800Y-67000
X162340Y-67000
X164880Y-67000
X165460Y-73000
X165500Y-98250
X167420Y-67000
X168000Y-73000
X168040Y-98250
X169960Y-67000
X170580Y-98250
X172500Y-67000
X173120Y-98250
X174960Y-73000
X175040Y-67000
X177500Y-73000
X177580Y-67000
X180120Y-67000
X180250Y-98250
X182790Y-98250
X185000Y-67000
X185000Y-69540
X185330Y-98250
X193250Y-75670
X193250Y-78210
X193250Y-80750
X193250Y-83290
X193250Y-85830
X193250Y-88370
X193250Y-90910
X193250Y-93450
X193250Y-95990
T4
X190250Y-68750
X193750Y-68750
M30
