G04 #@! TF.GenerationSoftware,KiCad,Pcbnew,9.0.2*
G04 #@! TF.CreationDate,2025-07-17T00:51:23+08:00*
G04 #@! TF.ProjectId,RTL8723DS-BreakOut,52544c38-3732-4334-9453-2d427265616b,rev?*
G04 #@! TF.SameCoordinates,Original*
G04 #@! TF.FileFunction,Copper,L1,Top*
G04 #@! TF.FilePolarity,Positive*
%FSLAX45Y45*%
G04 Gerber Fmt 4.5, Leading zero omitted, Abs format (unit mm)*
G04 Created by KiCad (PCBNEW 9.0.2) date 2025-07-17 00:51:23*
%MOMM*%
%LPD*%
G01*
G04 APERTURE LIST*
G04 Aperture macros list*
%AMRoundRect*
0 Rectangle with rounded corners*
0 $1 Rounding radius*
0 $2 $3 $4 $5 $6 $7 $8 $9 X,Y pos of 4 corners*
0 Add a 4 corners polygon primitive as box body*
4,1,4,$2,$3,$4,$5,$6,$7,$8,$9,$2,$3,0*
0 Add four circle primitives for the rounded corners*
1,1,$1+$1,$2,$3*
1,1,$1+$1,$4,$5*
1,1,$1+$1,$6,$7*
1,1,$1+$1,$8,$9*
0 Add four rect primitives between the rounded corners*
20,1,$1+$1,$2,$3,$4,$5,0*
20,1,$1+$1,$4,$5,$6,$7,0*
20,1,$1+$1,$6,$7,$8,$9,0*
20,1,$1+$1,$8,$9,$2,$3,0*%
G04 Aperture macros list end*
%ADD10C,0.100000*%
%ADD11C,0.150000*%
%ADD12C,0.300000*%
%ADD13C,0.400000*%
G04 #@! TA.AperFunction,EtchedComponent*
%ADD14C,0.000000*%
G04 #@! TD*
G04 #@! TA.AperFunction,SMDPad,CuDef*
%ADD15RoundRect,0.250000X-0.325000X-0.450000X0.325000X-0.450000X0.325000X0.450000X-0.325000X0.450000X0*%
G04 #@! TD*
G04 #@! TA.AperFunction,SMDPad,CuDef*
%ADD16RoundRect,0.250000X0.450000X-0.325000X0.450000X0.325000X-0.450000X0.325000X-0.450000X-0.325000X0*%
G04 #@! TD*
G04 #@! TA.AperFunction,ConnectorPad*
%ADD17R,0.500000X0.500000*%
G04 #@! TD*
G04 #@! TA.AperFunction,ComponentPad*
%ADD18R,0.500000X0.900000*%
G04 #@! TD*
G04 #@! TA.AperFunction,SMDPad,CuDef*
%ADD19RoundRect,0.250000X0.325000X0.450000X-0.325000X0.450000X-0.325000X-0.450000X0.325000X-0.450000X0*%
G04 #@! TD*
G04 #@! TA.AperFunction,ComponentPad*
%ADD20R,1.700000X1.700000*%
G04 #@! TD*
G04 #@! TA.AperFunction,ComponentPad*
%ADD21O,1.700000X1.700000*%
G04 #@! TD*
G04 #@! TA.AperFunction,SMDPad,CuDef*
%ADD22RoundRect,0.075000X-0.175000X-0.525000X0.175000X-0.525000X0.175000X0.525000X-0.175000X0.525000X0*%
G04 #@! TD*
G04 #@! TA.AperFunction,SMDPad,CuDef*
%ADD23RoundRect,0.075000X-0.525000X-0.175000X0.525000X-0.175000X0.525000X0.175000X-0.525000X0.175000X0*%
G04 #@! TD*
G04 #@! TA.AperFunction,SMDPad,CuDef*
%ADD24R,3.360000X2.440000*%
G04 #@! TD*
G04 #@! TA.AperFunction,SMDPad,CuDef*
%ADD25RoundRect,0.250000X-0.450000X0.325000X-0.450000X-0.325000X0.450000X-0.325000X0.450000X0.325000X0*%
G04 #@! TD*
G04 #@! TA.AperFunction,ComponentPad*
%ADD26R,2.400000X2.400000*%
G04 #@! TD*
G04 #@! TA.AperFunction,ComponentPad*
%ADD27C,2.400000*%
G04 #@! TD*
G04 #@! TA.AperFunction,ViaPad*
%ADD28C,0.600000*%
G04 #@! TD*
G04 #@! TA.AperFunction,Conductor*
%ADD29C,0.300000*%
G04 #@! TD*
G04 #@! TA.AperFunction,Conductor*
%ADD30C,0.500000*%
G04 #@! TD*
G04 #@! TA.AperFunction,Conductor*
%ADD31C,0.400000*%
G04 #@! TD*
G04 #@! TA.AperFunction,Conductor*
%ADD32C,0.250000*%
G04 #@! TD*
G04 APERTURE END LIST*
D10*
D11*
X17700220Y-16600720D02*
X28500220Y-16600720D01*
X28500220Y-19800720D01*
X17700220Y-19800720D01*
X17700220Y-16600720D01*
D10*
D11*
X1000000Y-1000000D02*
X28700220Y-1000000D01*
X28700220Y-20000720D01*
X1000000Y-20000720D01*
X1000000Y-1000000D01*
D10*
D11*
X1200000Y-1200000D02*
X28500220Y-1200000D01*
X28500220Y-19800720D01*
X1200000Y-19800720D01*
X1200000Y-1200000D01*
D10*
D11*
X6000000Y-1200000D02*
X6000000Y-1000000D01*
D10*
D11*
X11000000Y-1200000D02*
X11000000Y-1000000D01*
D10*
D11*
X16000000Y-1200000D02*
X16000000Y-1000000D01*
D10*
D11*
X21000000Y-1200000D02*
X21000000Y-1000000D01*
D10*
D11*
X26000000Y-1200000D02*
X26000000Y-1000000D01*
D10*
D11*
X3608916Y-1159360D02*
X3534630Y-1159360D01*
X3571773Y-1159360D02*
X3571773Y-1029360D01*
X3571773Y-1029360D02*
X3559392Y-1047932D01*
X3559392Y-1047932D02*
X3547011Y-1060313D01*
X3547011Y-1060313D02*
X3534630Y-1066503D01*
D10*
D11*
X8534630Y-1041741D02*
X8540821Y-1035551D01*
X8540821Y-1035551D02*
X8553202Y-1029360D01*
X8553202Y-1029360D02*
X8584154Y-1029360D01*
X8584154Y-1029360D02*
X8596535Y-1035551D01*
X8596535Y-1035551D02*
X8602726Y-1041741D01*
X8602726Y-1041741D02*
X8608916Y-1054122D01*
X8608916Y-1054122D02*
X8608916Y-1066503D01*
X8608916Y-1066503D02*
X8602726Y-1085075D01*
X8602726Y-1085075D02*
X8528440Y-1159360D01*
X8528440Y-1159360D02*
X8608916Y-1159360D01*
D10*
D11*
X13528440Y-1029360D02*
X13608916Y-1029360D01*
X13608916Y-1029360D02*
X13565583Y-1078884D01*
X13565583Y-1078884D02*
X13584154Y-1078884D01*
X13584154Y-1078884D02*
X13596535Y-1085075D01*
X13596535Y-1085075D02*
X13602725Y-1091265D01*
X13602725Y-1091265D02*
X13608916Y-1103646D01*
X13608916Y-1103646D02*
X13608916Y-1134599D01*
X13608916Y-1134599D02*
X13602725Y-1146980D01*
X13602725Y-1146980D02*
X13596535Y-1153170D01*
X13596535Y-1153170D02*
X13584154Y-1159360D01*
X13584154Y-1159360D02*
X13547011Y-1159360D01*
X13547011Y-1159360D02*
X13534630Y-1153170D01*
X13534630Y-1153170D02*
X13528440Y-1146980D01*
D10*
D11*
X18596535Y-1072694D02*
X18596535Y-1159360D01*
X18565583Y-1023170D02*
X18534630Y-1116027D01*
X18534630Y-1116027D02*
X18615106Y-1116027D01*
D10*
D11*
X23602725Y-1029360D02*
X23540821Y-1029360D01*
X23540821Y-1029360D02*
X23534630Y-1091265D01*
X23534630Y-1091265D02*
X23540821Y-1085075D01*
X23540821Y-1085075D02*
X23553202Y-1078884D01*
X23553202Y-1078884D02*
X23584154Y-1078884D01*
X23584154Y-1078884D02*
X23596535Y-1085075D01*
X23596535Y-1085075D02*
X23602725Y-1091265D01*
X23602725Y-1091265D02*
X23608916Y-1103646D01*
X23608916Y-1103646D02*
X23608916Y-1134599D01*
X23608916Y-1134599D02*
X23602725Y-1146980D01*
X23602725Y-1146980D02*
X23596535Y-1153170D01*
X23596535Y-1153170D02*
X23584154Y-1159360D01*
X23584154Y-1159360D02*
X23553202Y-1159360D01*
X23553202Y-1159360D02*
X23540821Y-1153170D01*
X23540821Y-1153170D02*
X23534630Y-1146980D01*
D10*
D11*
X28596535Y-1029360D02*
X28571773Y-1029360D01*
X28571773Y-1029360D02*
X28559392Y-1035551D01*
X28559392Y-1035551D02*
X28553202Y-1041741D01*
X28553202Y-1041741D02*
X28540821Y-1060313D01*
X28540821Y-1060313D02*
X28534630Y-1085075D01*
X28534630Y-1085075D02*
X28534630Y-1134599D01*
X28534630Y-1134599D02*
X28540821Y-1146980D01*
X28540821Y-1146980D02*
X28547011Y-1153170D01*
X28547011Y-1153170D02*
X28559392Y-1159360D01*
X28559392Y-1159360D02*
X28584154Y-1159360D01*
X28584154Y-1159360D02*
X28596535Y-1153170D01*
X28596535Y-1153170D02*
X28602725Y-1146980D01*
X28602725Y-1146980D02*
X28608916Y-1134599D01*
X28608916Y-1134599D02*
X28608916Y-1103646D01*
X28608916Y-1103646D02*
X28602725Y-1091265D01*
X28602725Y-1091265D02*
X28596535Y-1085075D01*
X28596535Y-1085075D02*
X28584154Y-1078884D01*
X28584154Y-1078884D02*
X28559392Y-1078884D01*
X28559392Y-1078884D02*
X28547011Y-1085075D01*
X28547011Y-1085075D02*
X28540821Y-1091265D01*
X28540821Y-1091265D02*
X28534630Y-1103646D01*
D10*
D11*
X6000000Y-19800720D02*
X6000000Y-20000720D01*
D10*
D11*
X11000000Y-19800720D02*
X11000000Y-20000720D01*
D10*
D11*
X16000000Y-19800720D02*
X16000000Y-20000720D01*
D10*
D11*
X21000000Y-19800720D02*
X21000000Y-20000720D01*
D10*
D11*
X26000000Y-19800720D02*
X26000000Y-20000720D01*
D10*
D11*
X3608916Y-19960080D02*
X3534630Y-19960080D01*
X3571773Y-19960080D02*
X3571773Y-19830080D01*
X3571773Y-19830080D02*
X3559392Y-19848652D01*
X3559392Y-19848652D02*
X3547011Y-19861033D01*
X3547011Y-19861033D02*
X3534630Y-19867223D01*
D10*
D11*
X8534630Y-19842461D02*
X8540821Y-19836271D01*
X8540821Y-19836271D02*
X8553202Y-19830080D01*
X8553202Y-19830080D02*
X8584154Y-19830080D01*
X8584154Y-19830080D02*
X8596535Y-19836271D01*
X8596535Y-19836271D02*
X8602726Y-19842461D01*
X8602726Y-19842461D02*
X8608916Y-19854842D01*
X8608916Y-19854842D02*
X8608916Y-19867223D01*
X8608916Y-19867223D02*
X8602726Y-19885795D01*
X8602726Y-19885795D02*
X8528440Y-19960080D01*
X8528440Y-19960080D02*
X8608916Y-19960080D01*
D10*
D11*
X13528440Y-19830080D02*
X13608916Y-19830080D01*
X13608916Y-19830080D02*
X13565583Y-19879604D01*
X13565583Y-19879604D02*
X13584154Y-19879604D01*
X13584154Y-19879604D02*
X13596535Y-19885795D01*
X13596535Y-19885795D02*
X13602725Y-19891985D01*
X13602725Y-19891985D02*
X13608916Y-19904366D01*
X13608916Y-19904366D02*
X13608916Y-19935319D01*
X13608916Y-19935319D02*
X13602725Y-19947700D01*
X13602725Y-19947700D02*
X13596535Y-19953890D01*
X13596535Y-19953890D02*
X13584154Y-19960080D01*
X13584154Y-19960080D02*
X13547011Y-19960080D01*
X13547011Y-19960080D02*
X13534630Y-19953890D01*
X13534630Y-19953890D02*
X13528440Y-19947700D01*
D10*
D11*
X18596535Y-19873414D02*
X18596535Y-19960080D01*
X18565583Y-19823890D02*
X18534630Y-19916747D01*
X18534630Y-19916747D02*
X18615106Y-19916747D01*
D10*
D11*
X23602725Y-19830080D02*
X23540821Y-19830080D01*
X23540821Y-19830080D02*
X23534630Y-19891985D01*
X23534630Y-19891985D02*
X23540821Y-19885795D01*
X23540821Y-19885795D02*
X23553202Y-19879604D01*
X23553202Y-19879604D02*
X23584154Y-19879604D01*
X23584154Y-19879604D02*
X23596535Y-19885795D01*
X23596535Y-19885795D02*
X23602725Y-19891985D01*
X23602725Y-19891985D02*
X23608916Y-19904366D01*
X23608916Y-19904366D02*
X23608916Y-19935319D01*
X23608916Y-19935319D02*
X23602725Y-19947700D01*
X23602725Y-19947700D02*
X23596535Y-19953890D01*
X23596535Y-19953890D02*
X23584154Y-19960080D01*
X23584154Y-19960080D02*
X23553202Y-19960080D01*
X23553202Y-19960080D02*
X23540821Y-19953890D01*
X23540821Y-19953890D02*
X23534630Y-19947700D01*
D10*
D11*
X28596535Y-19830080D02*
X28571773Y-19830080D01*
X28571773Y-19830080D02*
X28559392Y-19836271D01*
X28559392Y-19836271D02*
X28553202Y-19842461D01*
X28553202Y-19842461D02*
X28540821Y-19861033D01*
X28540821Y-19861033D02*
X28534630Y-19885795D01*
X28534630Y-19885795D02*
X28534630Y-19935319D01*
X28534630Y-19935319D02*
X28540821Y-19947700D01*
X28540821Y-19947700D02*
X28547011Y-19953890D01*
X28547011Y-19953890D02*
X28559392Y-19960080D01*
X28559392Y-19960080D02*
X28584154Y-19960080D01*
X28584154Y-19960080D02*
X28596535Y-19953890D01*
X28596535Y-19953890D02*
X28602725Y-19947700D01*
X28602725Y-19947700D02*
X28608916Y-19935319D01*
X28608916Y-19935319D02*
X28608916Y-19904366D01*
X28608916Y-19904366D02*
X28602725Y-19891985D01*
X28602725Y-19891985D02*
X28596535Y-19885795D01*
X28596535Y-19885795D02*
X28584154Y-19879604D01*
X28584154Y-19879604D02*
X28559392Y-19879604D01*
X28559392Y-19879604D02*
X28547011Y-19885795D01*
X28547011Y-19885795D02*
X28540821Y-19891985D01*
X28540821Y-19891985D02*
X28534630Y-19904366D01*
D10*
D11*
X1000000Y-6000000D02*
X1200000Y-6000000D01*
D10*
D11*
X1000000Y-11000000D02*
X1200000Y-11000000D01*
D10*
D11*
X1000000Y-16000000D02*
X1200000Y-16000000D01*
D10*
D11*
X1069048Y-3522218D02*
X1130952Y-3522218D01*
X1056667Y-3559360D02*
X1100000Y-3429360D01*
X1100000Y-3429360D02*
X1143333Y-3559360D01*
D10*
D11*
X1109286Y-8491265D02*
X1127857Y-8497456D01*
X1127857Y-8497456D02*
X1134048Y-8503646D01*
X1134048Y-8503646D02*
X1140238Y-8516027D01*
X1140238Y-8516027D02*
X1140238Y-8534599D01*
X1140238Y-8534599D02*
X1134048Y-8546980D01*
X1134048Y-8546980D02*
X1127857Y-8553170D01*
X1127857Y-8553170D02*
X1115476Y-8559360D01*
X1115476Y-8559360D02*
X1065952Y-8559360D01*
X1065952Y-8559360D02*
X1065952Y-8429360D01*
X1065952Y-8429360D02*
X1109286Y-8429360D01*
X1109286Y-8429360D02*
X1121667Y-8435551D01*
X1121667Y-8435551D02*
X1127857Y-8441741D01*
X1127857Y-8441741D02*
X1134048Y-8454122D01*
X1134048Y-8454122D02*
X1134048Y-8466503D01*
X1134048Y-8466503D02*
X1127857Y-8478884D01*
X1127857Y-8478884D02*
X1121667Y-8485075D01*
X1121667Y-8485075D02*
X1109286Y-8491265D01*
X1109286Y-8491265D02*
X1065952Y-8491265D01*
D10*
D11*
X1140238Y-13546979D02*
X1134048Y-13553170D01*
X1134048Y-13553170D02*
X1115476Y-13559360D01*
X1115476Y-13559360D02*
X1103095Y-13559360D01*
X1103095Y-13559360D02*
X1084524Y-13553170D01*
X1084524Y-13553170D02*
X1072143Y-13540789D01*
X1072143Y-13540789D02*
X1065952Y-13528408D01*
X1065952Y-13528408D02*
X1059762Y-13503646D01*
X1059762Y-13503646D02*
X1059762Y-13485075D01*
X1059762Y-13485075D02*
X1065952Y-13460313D01*
X1065952Y-13460313D02*
X1072143Y-13447932D01*
X1072143Y-13447932D02*
X1084524Y-13435551D01*
X1084524Y-13435551D02*
X1103095Y-13429360D01*
X1103095Y-13429360D02*
X1115476Y-13429360D01*
X1115476Y-13429360D02*
X1134048Y-13435551D01*
X1134048Y-13435551D02*
X1140238Y-13441741D01*
D10*
D11*
X1065952Y-18559360D02*
X1065952Y-18429360D01*
X1065952Y-18429360D02*
X1096905Y-18429360D01*
X1096905Y-18429360D02*
X1115476Y-18435551D01*
X1115476Y-18435551D02*
X1127857Y-18447932D01*
X1127857Y-18447932D02*
X1134048Y-18460313D01*
X1134048Y-18460313D02*
X1140238Y-18485075D01*
X1140238Y-18485075D02*
X1140238Y-18503646D01*
X1140238Y-18503646D02*
X1134048Y-18528408D01*
X1134048Y-18528408D02*
X1127857Y-18540789D01*
X1127857Y-18540789D02*
X1115476Y-18553170D01*
X1115476Y-18553170D02*
X1096905Y-18559360D01*
X1096905Y-18559360D02*
X1065952Y-18559360D01*
D10*
D11*
X28700220Y-6000000D02*
X28500220Y-6000000D01*
D10*
D11*
X28700220Y-11000000D02*
X28500220Y-11000000D01*
D10*
D11*
X28700220Y-16000000D02*
X28500220Y-16000000D01*
D10*
D11*
X28569268Y-3522218D02*
X28631172Y-3522218D01*
X28556887Y-3559360D02*
X28600220Y-3429360D01*
X28600220Y-3429360D02*
X28643553Y-3559360D01*
D10*
D11*
X28609506Y-8491265D02*
X28628077Y-8497456D01*
X28628077Y-8497456D02*
X28634268Y-8503646D01*
X28634268Y-8503646D02*
X28640458Y-8516027D01*
X28640458Y-8516027D02*
X28640458Y-8534599D01*
X28640458Y-8534599D02*
X28634268Y-8546980D01*
X28634268Y-8546980D02*
X28628077Y-8553170D01*
X28628077Y-8553170D02*
X28615696Y-8559360D01*
X28615696Y-8559360D02*
X28566172Y-8559360D01*
X28566172Y-8559360D02*
X28566172Y-8429360D01*
X28566172Y-8429360D02*
X28609506Y-8429360D01*
X28609506Y-8429360D02*
X28621887Y-8435551D01*
X28621887Y-8435551D02*
X28628077Y-8441741D01*
X28628077Y-8441741D02*
X28634268Y-8454122D01*
X28634268Y-8454122D02*
X28634268Y-8466503D01*
X28634268Y-8466503D02*
X28628077Y-8478884D01*
X28628077Y-8478884D02*
X28621887Y-8485075D01*
X28621887Y-8485075D02*
X28609506Y-8491265D01*
X28609506Y-8491265D02*
X28566172Y-8491265D01*
D10*
D11*
X28640458Y-13546979D02*
X28634268Y-13553170D01*
X28634268Y-13553170D02*
X28615696Y-13559360D01*
X28615696Y-13559360D02*
X28603315Y-13559360D01*
X28603315Y-13559360D02*
X28584744Y-13553170D01*
X28584744Y-13553170D02*
X28572363Y-13540789D01*
X28572363Y-13540789D02*
X28566172Y-13528408D01*
X28566172Y-13528408D02*
X28559982Y-13503646D01*
X28559982Y-13503646D02*
X28559982Y-13485075D01*
X28559982Y-13485075D02*
X28566172Y-13460313D01*
X28566172Y-13460313D02*
X28572363Y-13447932D01*
X28572363Y-13447932D02*
X28584744Y-13435551D01*
X28584744Y-13435551D02*
X28603315Y-13429360D01*
X28603315Y-13429360D02*
X28615696Y-13429360D01*
X28615696Y-13429360D02*
X28634268Y-13435551D01*
X28634268Y-13435551D02*
X28640458Y-13441741D01*
D10*
D11*
X28566172Y-18559360D02*
X28566172Y-18429360D01*
X28566172Y-18429360D02*
X28597125Y-18429360D01*
X28597125Y-18429360D02*
X28615696Y-18435551D01*
X28615696Y-18435551D02*
X28628077Y-18447932D01*
X28628077Y-18447932D02*
X28634268Y-18460313D01*
X28634268Y-18460313D02*
X28640458Y-18485075D01*
X28640458Y-18485075D02*
X28640458Y-18503646D01*
X28640458Y-18503646D02*
X28634268Y-18528408D01*
X28634268Y-18528408D02*
X28628077Y-18540789D01*
X28628077Y-18540789D02*
X28615696Y-18553170D01*
X28615696Y-18553170D02*
X28597125Y-18559360D01*
X28597125Y-18559360D02*
X28566172Y-18559360D01*
D10*
D11*
X20045803Y-19379333D02*
X20045803Y-19229333D01*
X20045803Y-19229333D02*
X20081517Y-19229333D01*
X20081517Y-19229333D02*
X20102946Y-19236476D01*
X20102946Y-19236476D02*
X20117231Y-19250761D01*
X20117231Y-19250761D02*
X20124374Y-19265047D01*
X20124374Y-19265047D02*
X20131517Y-19293619D01*
X20131517Y-19293619D02*
X20131517Y-19315047D01*
X20131517Y-19315047D02*
X20124374Y-19343619D01*
X20124374Y-19343619D02*
X20117231Y-19357904D01*
X20117231Y-19357904D02*
X20102946Y-19372190D01*
X20102946Y-19372190D02*
X20081517Y-19379333D01*
X20081517Y-19379333D02*
X20045803Y-19379333D01*
X20260088Y-19379333D02*
X20260088Y-19300761D01*
X20260088Y-19300761D02*
X20252946Y-19286476D01*
X20252946Y-19286476D02*
X20238660Y-19279333D01*
X20238660Y-19279333D02*
X20210088Y-19279333D01*
X20210088Y-19279333D02*
X20195803Y-19286476D01*
X20260088Y-19372190D02*
X20245803Y-19379333D01*
X20245803Y-19379333D02*
X20210088Y-19379333D01*
X20210088Y-19379333D02*
X20195803Y-19372190D01*
X20195803Y-19372190D02*
X20188660Y-19357904D01*
X20188660Y-19357904D02*
X20188660Y-19343619D01*
X20188660Y-19343619D02*
X20195803Y-19329333D01*
X20195803Y-19329333D02*
X20210088Y-19322190D01*
X20210088Y-19322190D02*
X20245803Y-19322190D01*
X20245803Y-19322190D02*
X20260088Y-19315047D01*
X20310088Y-19279333D02*
X20367231Y-19279333D01*
X20331517Y-19229333D02*
X20331517Y-19357904D01*
X20331517Y-19357904D02*
X20338660Y-19372190D01*
X20338660Y-19372190D02*
X20352946Y-19379333D01*
X20352946Y-19379333D02*
X20367231Y-19379333D01*
X20474374Y-19372190D02*
X20460088Y-19379333D01*
X20460088Y-19379333D02*
X20431517Y-19379333D01*
X20431517Y-19379333D02*
X20417231Y-19372190D01*
X20417231Y-19372190D02*
X20410088Y-19357904D01*
X20410088Y-19357904D02*
X20410088Y-19300761D01*
X20410088Y-19300761D02*
X20417231Y-19286476D01*
X20417231Y-19286476D02*
X20431517Y-19279333D01*
X20431517Y-19279333D02*
X20460088Y-19279333D01*
X20460088Y-19279333D02*
X20474374Y-19286476D01*
X20474374Y-19286476D02*
X20481517Y-19300761D01*
X20481517Y-19300761D02*
X20481517Y-19315047D01*
X20481517Y-19315047D02*
X20410088Y-19329333D01*
X20545803Y-19365047D02*
X20552946Y-19372190D01*
X20552946Y-19372190D02*
X20545803Y-19379333D01*
X20545803Y-19379333D02*
X20538660Y-19372190D01*
X20538660Y-19372190D02*
X20545803Y-19365047D01*
X20545803Y-19365047D02*
X20545803Y-19379333D01*
X20545803Y-19286476D02*
X20552946Y-19293619D01*
X20552946Y-19293619D02*
X20545803Y-19300761D01*
X20545803Y-19300761D02*
X20538660Y-19293619D01*
X20538660Y-19293619D02*
X20545803Y-19286476D01*
X20545803Y-19286476D02*
X20545803Y-19300761D01*
D10*
D11*
X17700220Y-19450720D02*
X28500220Y-19450720D01*
D10*
D11*
X17845803Y-19659333D02*
X17845803Y-19509333D01*
X17931517Y-19659333D02*
X17867231Y-19573619D01*
X17931517Y-19509333D02*
X17845803Y-19595047D01*
X17995803Y-19659333D02*
X17995803Y-19559333D01*
X17995803Y-19509333D02*
X17988660Y-19516476D01*
X17988660Y-19516476D02*
X17995803Y-19523619D01*
X17995803Y-19523619D02*
X18002946Y-19516476D01*
X18002946Y-19516476D02*
X17995803Y-19509333D01*
X17995803Y-19509333D02*
X17995803Y-19523619D01*
X18152946Y-19645047D02*
X18145803Y-19652190D01*
X18145803Y-19652190D02*
X18124374Y-19659333D01*
X18124374Y-19659333D02*
X18110088Y-19659333D01*
X18110088Y-19659333D02*
X18088660Y-19652190D01*
X18088660Y-19652190D02*
X18074374Y-19637904D01*
X18074374Y-19637904D02*
X18067231Y-19623619D01*
X18067231Y-19623619D02*
X18060088Y-19595047D01*
X18060088Y-19595047D02*
X18060088Y-19573619D01*
X18060088Y-19573619D02*
X18067231Y-19545047D01*
X18067231Y-19545047D02*
X18074374Y-19530761D01*
X18074374Y-19530761D02*
X18088660Y-19516476D01*
X18088660Y-19516476D02*
X18110088Y-19509333D01*
X18110088Y-19509333D02*
X18124374Y-19509333D01*
X18124374Y-19509333D02*
X18145803Y-19516476D01*
X18145803Y-19516476D02*
X18152946Y-19523619D01*
X18281517Y-19659333D02*
X18281517Y-19580761D01*
X18281517Y-19580761D02*
X18274374Y-19566476D01*
X18274374Y-19566476D02*
X18260088Y-19559333D01*
X18260088Y-19559333D02*
X18231517Y-19559333D01*
X18231517Y-19559333D02*
X18217231Y-19566476D01*
X18281517Y-19652190D02*
X18267231Y-19659333D01*
X18267231Y-19659333D02*
X18231517Y-19659333D01*
X18231517Y-19659333D02*
X18217231Y-19652190D01*
X18217231Y-19652190D02*
X18210088Y-19637904D01*
X18210088Y-19637904D02*
X18210088Y-19623619D01*
X18210088Y-19623619D02*
X18217231Y-19609333D01*
X18217231Y-19609333D02*
X18231517Y-19602190D01*
X18231517Y-19602190D02*
X18267231Y-19602190D01*
X18267231Y-19602190D02*
X18281517Y-19595047D01*
X18417231Y-19659333D02*
X18417231Y-19509333D01*
X18417231Y-19652190D02*
X18402946Y-19659333D01*
X18402946Y-19659333D02*
X18374374Y-19659333D01*
X18374374Y-19659333D02*
X18360088Y-19652190D01*
X18360088Y-19652190D02*
X18352946Y-19645047D01*
X18352946Y-19645047D02*
X18345803Y-19630761D01*
X18345803Y-19630761D02*
X18345803Y-19587904D01*
X18345803Y-19587904D02*
X18352946Y-19573619D01*
X18352946Y-19573619D02*
X18360088Y-19566476D01*
X18360088Y-19566476D02*
X18374374Y-19559333D01*
X18374374Y-19559333D02*
X18402946Y-19559333D01*
X18402946Y-19559333D02*
X18417231Y-19566476D01*
X18602946Y-19580761D02*
X18652946Y-19580761D01*
X18674374Y-19659333D02*
X18602946Y-19659333D01*
X18602946Y-19659333D02*
X18602946Y-19509333D01*
X18602946Y-19509333D02*
X18674374Y-19509333D01*
X18738660Y-19645047D02*
X18745803Y-19652190D01*
X18745803Y-19652190D02*
X18738660Y-19659333D01*
X18738660Y-19659333D02*
X18731517Y-19652190D01*
X18731517Y-19652190D02*
X18738660Y-19645047D01*
X18738660Y-19645047D02*
X18738660Y-19659333D01*
X18810088Y-19659333D02*
X18810088Y-19509333D01*
X18810088Y-19509333D02*
X18845803Y-19509333D01*
X18845803Y-19509333D02*
X18867231Y-19516476D01*
X18867231Y-19516476D02*
X18881517Y-19530761D01*
X18881517Y-19530761D02*
X18888660Y-19545047D01*
X18888660Y-19545047D02*
X18895803Y-19573619D01*
X18895803Y-19573619D02*
X18895803Y-19595047D01*
X18895803Y-19595047D02*
X18888660Y-19623619D01*
X18888660Y-19623619D02*
X18881517Y-19637904D01*
X18881517Y-19637904D02*
X18867231Y-19652190D01*
X18867231Y-19652190D02*
X18845803Y-19659333D01*
X18845803Y-19659333D02*
X18810088Y-19659333D01*
X18960088Y-19645047D02*
X18967231Y-19652190D01*
X18967231Y-19652190D02*
X18960088Y-19659333D01*
X18960088Y-19659333D02*
X18952946Y-19652190D01*
X18952946Y-19652190D02*
X18960088Y-19645047D01*
X18960088Y-19645047D02*
X18960088Y-19659333D01*
X19024374Y-19616476D02*
X19095803Y-19616476D01*
X19010089Y-19659333D02*
X19060089Y-19509333D01*
X19060089Y-19509333D02*
X19110089Y-19659333D01*
X19160088Y-19645047D02*
X19167231Y-19652190D01*
X19167231Y-19652190D02*
X19160088Y-19659333D01*
X19160088Y-19659333D02*
X19152946Y-19652190D01*
X19152946Y-19652190D02*
X19160088Y-19645047D01*
X19160088Y-19645047D02*
X19160088Y-19659333D01*
X19352946Y-19659333D02*
X19381517Y-19659333D01*
X19381517Y-19659333D02*
X19395803Y-19652190D01*
X19395803Y-19652190D02*
X19402946Y-19645047D01*
X19402946Y-19645047D02*
X19417231Y-19623619D01*
X19417231Y-19623619D02*
X19424374Y-19595047D01*
X19424374Y-19595047D02*
X19424374Y-19537904D01*
X19424374Y-19537904D02*
X19417231Y-19523619D01*
X19417231Y-19523619D02*
X19410089Y-19516476D01*
X19410089Y-19516476D02*
X19395803Y-19509333D01*
X19395803Y-19509333D02*
X19367231Y-19509333D01*
X19367231Y-19509333D02*
X19352946Y-19516476D01*
X19352946Y-19516476D02*
X19345803Y-19523619D01*
X19345803Y-19523619D02*
X19338660Y-19537904D01*
X19338660Y-19537904D02*
X19338660Y-19573619D01*
X19338660Y-19573619D02*
X19345803Y-19587904D01*
X19345803Y-19587904D02*
X19352946Y-19595047D01*
X19352946Y-19595047D02*
X19367231Y-19602190D01*
X19367231Y-19602190D02*
X19395803Y-19602190D01*
X19395803Y-19602190D02*
X19410089Y-19595047D01*
X19410089Y-19595047D02*
X19417231Y-19587904D01*
X19417231Y-19587904D02*
X19424374Y-19573619D01*
X19488660Y-19645047D02*
X19495803Y-19652190D01*
X19495803Y-19652190D02*
X19488660Y-19659333D01*
X19488660Y-19659333D02*
X19481517Y-19652190D01*
X19481517Y-19652190D02*
X19488660Y-19645047D01*
X19488660Y-19645047D02*
X19488660Y-19659333D01*
X19588660Y-19509333D02*
X19602946Y-19509333D01*
X19602946Y-19509333D02*
X19617231Y-19516476D01*
X19617231Y-19516476D02*
X19624374Y-19523619D01*
X19624374Y-19523619D02*
X19631517Y-19537904D01*
X19631517Y-19537904D02*
X19638660Y-19566476D01*
X19638660Y-19566476D02*
X19638660Y-19602190D01*
X19638660Y-19602190D02*
X19631517Y-19630761D01*
X19631517Y-19630761D02*
X19624374Y-19645047D01*
X19624374Y-19645047D02*
X19617231Y-19652190D01*
X19617231Y-19652190D02*
X19602946Y-19659333D01*
X19602946Y-19659333D02*
X19588660Y-19659333D01*
X19588660Y-19659333D02*
X19574374Y-19652190D01*
X19574374Y-19652190D02*
X19567231Y-19645047D01*
X19567231Y-19645047D02*
X19560088Y-19630761D01*
X19560088Y-19630761D02*
X19552946Y-19602190D01*
X19552946Y-19602190D02*
X19552946Y-19566476D01*
X19552946Y-19566476D02*
X19560088Y-19537904D01*
X19560088Y-19537904D02*
X19567231Y-19523619D01*
X19567231Y-19523619D02*
X19574374Y-19516476D01*
X19574374Y-19516476D02*
X19588660Y-19509333D01*
X19702946Y-19645047D02*
X19710088Y-19652190D01*
X19710088Y-19652190D02*
X19702946Y-19659333D01*
X19702946Y-19659333D02*
X19695803Y-19652190D01*
X19695803Y-19652190D02*
X19702946Y-19645047D01*
X19702946Y-19645047D02*
X19702946Y-19659333D01*
X19767231Y-19523619D02*
X19774374Y-19516476D01*
X19774374Y-19516476D02*
X19788660Y-19509333D01*
X19788660Y-19509333D02*
X19824374Y-19509333D01*
X19824374Y-19509333D02*
X19838660Y-19516476D01*
X19838660Y-19516476D02*
X19845803Y-19523619D01*
X19845803Y-19523619D02*
X19852946Y-19537904D01*
X19852946Y-19537904D02*
X19852946Y-19552190D01*
X19852946Y-19552190D02*
X19845803Y-19573619D01*
X19845803Y-19573619D02*
X19760088Y-19659333D01*
X19760088Y-19659333D02*
X19852946Y-19659333D01*
D10*
D11*
X17700220Y-19150720D02*
X28500220Y-19150720D01*
D10*
D12*
X26441385Y-19378553D02*
X26391385Y-19307124D01*
X26355671Y-19378553D02*
X26355671Y-19228553D01*
X26355671Y-19228553D02*
X26412814Y-19228553D01*
X26412814Y-19228553D02*
X26427100Y-19235696D01*
X26427100Y-19235696D02*
X26434242Y-19242839D01*
X26434242Y-19242839D02*
X26441385Y-19257124D01*
X26441385Y-19257124D02*
X26441385Y-19278553D01*
X26441385Y-19278553D02*
X26434242Y-19292839D01*
X26434242Y-19292839D02*
X26427100Y-19299981D01*
X26427100Y-19299981D02*
X26412814Y-19307124D01*
X26412814Y-19307124D02*
X26355671Y-19307124D01*
X26562814Y-19371410D02*
X26548528Y-19378553D01*
X26548528Y-19378553D02*
X26519957Y-19378553D01*
X26519957Y-19378553D02*
X26505671Y-19371410D01*
X26505671Y-19371410D02*
X26498528Y-19357124D01*
X26498528Y-19357124D02*
X26498528Y-19299981D01*
X26498528Y-19299981D02*
X26505671Y-19285696D01*
X26505671Y-19285696D02*
X26519957Y-19278553D01*
X26519957Y-19278553D02*
X26548528Y-19278553D01*
X26548528Y-19278553D02*
X26562814Y-19285696D01*
X26562814Y-19285696D02*
X26569957Y-19299981D01*
X26569957Y-19299981D02*
X26569957Y-19314267D01*
X26569957Y-19314267D02*
X26498528Y-19328553D01*
X26619957Y-19278553D02*
X26655671Y-19378553D01*
X26655671Y-19378553D02*
X26691385Y-19278553D01*
X26748528Y-19364267D02*
X26755671Y-19371410D01*
X26755671Y-19371410D02*
X26748528Y-19378553D01*
X26748528Y-19378553D02*
X26741385Y-19371410D01*
X26741385Y-19371410D02*
X26748528Y-19364267D01*
X26748528Y-19364267D02*
X26748528Y-19378553D01*
X26748528Y-19285696D02*
X26755671Y-19292839D01*
X26755671Y-19292839D02*
X26748528Y-19299981D01*
X26748528Y-19299981D02*
X26741385Y-19292839D01*
X26741385Y-19292839D02*
X26748528Y-19285696D01*
X26748528Y-19285696D02*
X26748528Y-19299981D01*
D10*
D11*
X17838660Y-19372190D02*
X17860088Y-19379333D01*
X17860088Y-19379333D02*
X17895803Y-19379333D01*
X17895803Y-19379333D02*
X17910088Y-19372190D01*
X17910088Y-19372190D02*
X17917231Y-19365047D01*
X17917231Y-19365047D02*
X17924374Y-19350761D01*
X17924374Y-19350761D02*
X17924374Y-19336476D01*
X17924374Y-19336476D02*
X17917231Y-19322190D01*
X17917231Y-19322190D02*
X17910088Y-19315047D01*
X17910088Y-19315047D02*
X17895803Y-19307904D01*
X17895803Y-19307904D02*
X17867231Y-19300761D01*
X17867231Y-19300761D02*
X17852946Y-19293619D01*
X17852946Y-19293619D02*
X17845803Y-19286476D01*
X17845803Y-19286476D02*
X17838660Y-19272190D01*
X17838660Y-19272190D02*
X17838660Y-19257904D01*
X17838660Y-19257904D02*
X17845803Y-19243619D01*
X17845803Y-19243619D02*
X17852946Y-19236476D01*
X17852946Y-19236476D02*
X17867231Y-19229333D01*
X17867231Y-19229333D02*
X17902946Y-19229333D01*
X17902946Y-19229333D02*
X17924374Y-19236476D01*
X17988660Y-19379333D02*
X17988660Y-19279333D01*
X17988660Y-19229333D02*
X17981517Y-19236476D01*
X17981517Y-19236476D02*
X17988660Y-19243619D01*
X17988660Y-19243619D02*
X17995803Y-19236476D01*
X17995803Y-19236476D02*
X17988660Y-19229333D01*
X17988660Y-19229333D02*
X17988660Y-19243619D01*
X18045803Y-19279333D02*
X18124374Y-19279333D01*
X18124374Y-19279333D02*
X18045803Y-19379333D01*
X18045803Y-19379333D02*
X18124374Y-19379333D01*
X18238660Y-19372190D02*
X18224374Y-19379333D01*
X18224374Y-19379333D02*
X18195803Y-19379333D01*
X18195803Y-19379333D02*
X18181517Y-19372190D01*
X18181517Y-19372190D02*
X18174374Y-19357904D01*
X18174374Y-19357904D02*
X18174374Y-19300761D01*
X18174374Y-19300761D02*
X18181517Y-19286476D01*
X18181517Y-19286476D02*
X18195803Y-19279333D01*
X18195803Y-19279333D02*
X18224374Y-19279333D01*
X18224374Y-19279333D02*
X18238660Y-19286476D01*
X18238660Y-19286476D02*
X18245803Y-19300761D01*
X18245803Y-19300761D02*
X18245803Y-19315047D01*
X18245803Y-19315047D02*
X18174374Y-19329333D01*
X18310088Y-19365047D02*
X18317231Y-19372190D01*
X18317231Y-19372190D02*
X18310088Y-19379333D01*
X18310088Y-19379333D02*
X18302946Y-19372190D01*
X18302946Y-19372190D02*
X18310088Y-19365047D01*
X18310088Y-19365047D02*
X18310088Y-19379333D01*
X18310088Y-19286476D02*
X18317231Y-19293619D01*
X18317231Y-19293619D02*
X18310088Y-19300761D01*
X18310088Y-19300761D02*
X18302946Y-19293619D01*
X18302946Y-19293619D02*
X18310088Y-19286476D01*
X18310088Y-19286476D02*
X18310088Y-19300761D01*
X18488660Y-19336476D02*
X18560088Y-19336476D01*
X18474374Y-19379333D02*
X18524374Y-19229333D01*
X18524374Y-19229333D02*
X18574374Y-19379333D01*
X18688660Y-19279333D02*
X18688660Y-19379333D01*
X18652946Y-19222190D02*
X18617231Y-19329333D01*
X18617231Y-19329333D02*
X18710088Y-19329333D01*
D10*
D11*
X26345803Y-19659333D02*
X26345803Y-19509333D01*
X26481517Y-19659333D02*
X26481517Y-19509333D01*
X26481517Y-19652190D02*
X26467231Y-19659333D01*
X26467231Y-19659333D02*
X26438660Y-19659333D01*
X26438660Y-19659333D02*
X26424374Y-19652190D01*
X26424374Y-19652190D02*
X26417231Y-19645047D01*
X26417231Y-19645047D02*
X26410088Y-19630761D01*
X26410088Y-19630761D02*
X26410088Y-19587904D01*
X26410088Y-19587904D02*
X26417231Y-19573619D01*
X26417231Y-19573619D02*
X26424374Y-19566476D01*
X26424374Y-19566476D02*
X26438660Y-19559333D01*
X26438660Y-19559333D02*
X26467231Y-19559333D01*
X26467231Y-19559333D02*
X26481517Y-19566476D01*
X26552945Y-19645047D02*
X26560088Y-19652190D01*
X26560088Y-19652190D02*
X26552945Y-19659333D01*
X26552945Y-19659333D02*
X26545803Y-19652190D01*
X26545803Y-19652190D02*
X26552945Y-19645047D01*
X26552945Y-19645047D02*
X26552945Y-19659333D01*
X26552945Y-19566476D02*
X26560088Y-19573619D01*
X26560088Y-19573619D02*
X26552945Y-19580761D01*
X26552945Y-19580761D02*
X26545803Y-19573619D01*
X26545803Y-19573619D02*
X26552945Y-19566476D01*
X26552945Y-19566476D02*
X26552945Y-19580761D01*
X26817231Y-19659333D02*
X26731517Y-19659333D01*
X26774374Y-19659333D02*
X26774374Y-19509333D01*
X26774374Y-19509333D02*
X26760088Y-19530761D01*
X26760088Y-19530761D02*
X26745803Y-19545047D01*
X26745803Y-19545047D02*
X26731517Y-19552190D01*
X26988660Y-19502190D02*
X26860088Y-19695047D01*
X27045803Y-19659333D02*
X27074374Y-19659333D01*
X27074374Y-19659333D02*
X27088660Y-19652190D01*
X27088660Y-19652190D02*
X27095803Y-19645047D01*
X27095803Y-19645047D02*
X27110088Y-19623619D01*
X27110088Y-19623619D02*
X27117231Y-19595047D01*
X27117231Y-19595047D02*
X27117231Y-19537904D01*
X27117231Y-19537904D02*
X27110088Y-19523619D01*
X27110088Y-19523619D02*
X27102946Y-19516476D01*
X27102946Y-19516476D02*
X27088660Y-19509333D01*
X27088660Y-19509333D02*
X27060088Y-19509333D01*
X27060088Y-19509333D02*
X27045803Y-19516476D01*
X27045803Y-19516476D02*
X27038660Y-19523619D01*
X27038660Y-19523619D02*
X27031517Y-19537904D01*
X27031517Y-19537904D02*
X27031517Y-19573619D01*
X27031517Y-19573619D02*
X27038660Y-19587904D01*
X27038660Y-19587904D02*
X27045803Y-19595047D01*
X27045803Y-19595047D02*
X27060088Y-19602190D01*
X27060088Y-19602190D02*
X27088660Y-19602190D01*
X27088660Y-19602190D02*
X27102946Y-19595047D01*
X27102946Y-19595047D02*
X27110088Y-19587904D01*
X27110088Y-19587904D02*
X27117231Y-19573619D01*
D10*
D11*
X17700220Y-18750720D02*
X28500220Y-18750720D01*
D10*
D13*
X17869393Y-18821164D02*
X17983679Y-18821164D01*
X17901536Y-19021164D02*
X17926536Y-18821164D01*
X18025345Y-19021164D02*
X18042012Y-18887830D01*
X18050345Y-18821164D02*
X18039631Y-18830688D01*
X18039631Y-18830688D02*
X18047964Y-18840211D01*
X18047964Y-18840211D02*
X18058679Y-18830688D01*
X18058679Y-18830688D02*
X18050345Y-18821164D01*
X18050345Y-18821164D02*
X18047964Y-18840211D01*
X18108679Y-18887830D02*
X18184869Y-18887830D01*
X18145583Y-18821164D02*
X18124155Y-18992592D01*
X18124155Y-18992592D02*
X18131298Y-19011640D01*
X18131298Y-19011640D02*
X18149155Y-19021164D01*
X18149155Y-19021164D02*
X18168202Y-19021164D01*
X18263441Y-19021164D02*
X18245583Y-19011640D01*
X18245583Y-19011640D02*
X18238441Y-18992592D01*
X18238441Y-18992592D02*
X18259869Y-18821164D01*
X18417012Y-19011640D02*
X18396774Y-19021164D01*
X18396774Y-19021164D02*
X18358679Y-19021164D01*
X18358679Y-19021164D02*
X18340821Y-19011640D01*
X18340821Y-19011640D02*
X18333679Y-18992592D01*
X18333679Y-18992592D02*
X18343202Y-18916402D01*
X18343202Y-18916402D02*
X18355107Y-18897354D01*
X18355107Y-18897354D02*
X18375345Y-18887830D01*
X18375345Y-18887830D02*
X18413440Y-18887830D01*
X18413440Y-18887830D02*
X18431298Y-18897354D01*
X18431298Y-18897354D02*
X18438440Y-18916402D01*
X18438440Y-18916402D02*
X18436060Y-18935450D01*
X18436060Y-18935450D02*
X18338440Y-18954497D01*
X18513441Y-19002116D02*
X18521774Y-19011640D01*
X18521774Y-19011640D02*
X18511060Y-19021164D01*
X18511060Y-19021164D02*
X18502726Y-19011640D01*
X18502726Y-19011640D02*
X18513441Y-19002116D01*
X18513441Y-19002116D02*
X18511060Y-19021164D01*
X18526536Y-18897354D02*
X18534869Y-18906878D01*
X18534869Y-18906878D02*
X18524155Y-18916402D01*
X18524155Y-18916402D02*
X18515821Y-18906878D01*
X18515821Y-18906878D02*
X18526536Y-18897354D01*
X18526536Y-18897354D02*
X18524155Y-18916402D01*
D10*
D11*
X17895803Y-18560761D02*
X17845803Y-18560761D01*
X17845803Y-18639333D02*
X17845803Y-18489333D01*
X17845803Y-18489333D02*
X17917231Y-18489333D01*
X17974374Y-18639333D02*
X17974374Y-18539333D01*
X17974374Y-18489333D02*
X17967231Y-18496476D01*
X17967231Y-18496476D02*
X17974374Y-18503619D01*
X17974374Y-18503619D02*
X17981517Y-18496476D01*
X17981517Y-18496476D02*
X17974374Y-18489333D01*
X17974374Y-18489333D02*
X17974374Y-18503619D01*
X18067231Y-18639333D02*
X18052946Y-18632190D01*
X18052946Y-18632190D02*
X18045803Y-18617904D01*
X18045803Y-18617904D02*
X18045803Y-18489333D01*
X18181517Y-18632190D02*
X18167231Y-18639333D01*
X18167231Y-18639333D02*
X18138660Y-18639333D01*
X18138660Y-18639333D02*
X18124374Y-18632190D01*
X18124374Y-18632190D02*
X18117231Y-18617904D01*
X18117231Y-18617904D02*
X18117231Y-18560761D01*
X18117231Y-18560761D02*
X18124374Y-18546476D01*
X18124374Y-18546476D02*
X18138660Y-18539333D01*
X18138660Y-18539333D02*
X18167231Y-18539333D01*
X18167231Y-18539333D02*
X18181517Y-18546476D01*
X18181517Y-18546476D02*
X18188660Y-18560761D01*
X18188660Y-18560761D02*
X18188660Y-18575047D01*
X18188660Y-18575047D02*
X18117231Y-18589333D01*
X18252945Y-18625047D02*
X18260088Y-18632190D01*
X18260088Y-18632190D02*
X18252945Y-18639333D01*
X18252945Y-18639333D02*
X18245803Y-18632190D01*
X18245803Y-18632190D02*
X18252945Y-18625047D01*
X18252945Y-18625047D02*
X18252945Y-18639333D01*
X18252945Y-18546476D02*
X18260088Y-18553619D01*
X18260088Y-18553619D02*
X18252945Y-18560761D01*
X18252945Y-18560761D02*
X18245803Y-18553619D01*
X18245803Y-18553619D02*
X18252945Y-18546476D01*
X18252945Y-18546476D02*
X18252945Y-18560761D01*
X18524374Y-18639333D02*
X18474374Y-18567904D01*
X18438660Y-18639333D02*
X18438660Y-18489333D01*
X18438660Y-18489333D02*
X18495803Y-18489333D01*
X18495803Y-18489333D02*
X18510088Y-18496476D01*
X18510088Y-18496476D02*
X18517231Y-18503619D01*
X18517231Y-18503619D02*
X18524374Y-18517904D01*
X18524374Y-18517904D02*
X18524374Y-18539333D01*
X18524374Y-18539333D02*
X18517231Y-18553619D01*
X18517231Y-18553619D02*
X18510088Y-18560761D01*
X18510088Y-18560761D02*
X18495803Y-18567904D01*
X18495803Y-18567904D02*
X18438660Y-18567904D01*
X18567231Y-18489333D02*
X18652946Y-18489333D01*
X18610088Y-18639333D02*
X18610088Y-18489333D01*
X18774374Y-18639333D02*
X18702945Y-18639333D01*
X18702945Y-18639333D02*
X18702945Y-18489333D01*
X18845803Y-18553619D02*
X18831517Y-18546476D01*
X18831517Y-18546476D02*
X18824374Y-18539333D01*
X18824374Y-18539333D02*
X18817231Y-18525047D01*
X18817231Y-18525047D02*
X18817231Y-18517904D01*
X18817231Y-18517904D02*
X18824374Y-18503619D01*
X18824374Y-18503619D02*
X18831517Y-18496476D01*
X18831517Y-18496476D02*
X18845803Y-18489333D01*
X18845803Y-18489333D02*
X18874374Y-18489333D01*
X18874374Y-18489333D02*
X18888660Y-18496476D01*
X18888660Y-18496476D02*
X18895803Y-18503619D01*
X18895803Y-18503619D02*
X18902946Y-18517904D01*
X18902946Y-18517904D02*
X18902946Y-18525047D01*
X18902946Y-18525047D02*
X18895803Y-18539333D01*
X18895803Y-18539333D02*
X18888660Y-18546476D01*
X18888660Y-18546476D02*
X18874374Y-18553619D01*
X18874374Y-18553619D02*
X18845803Y-18553619D01*
X18845803Y-18553619D02*
X18831517Y-18560761D01*
X18831517Y-18560761D02*
X18824374Y-18567904D01*
X18824374Y-18567904D02*
X18817231Y-18582190D01*
X18817231Y-18582190D02*
X18817231Y-18610761D01*
X18817231Y-18610761D02*
X18824374Y-18625047D01*
X18824374Y-18625047D02*
X18831517Y-18632190D01*
X18831517Y-18632190D02*
X18845803Y-18639333D01*
X18845803Y-18639333D02*
X18874374Y-18639333D01*
X18874374Y-18639333D02*
X18888660Y-18632190D01*
X18888660Y-18632190D02*
X18895803Y-18625047D01*
X18895803Y-18625047D02*
X18902946Y-18610761D01*
X18902946Y-18610761D02*
X18902946Y-18582190D01*
X18902946Y-18582190D02*
X18895803Y-18567904D01*
X18895803Y-18567904D02*
X18888660Y-18560761D01*
X18888660Y-18560761D02*
X18874374Y-18553619D01*
X18952945Y-18489333D02*
X19052945Y-18489333D01*
X19052945Y-18489333D02*
X18988660Y-18639333D01*
X19102945Y-18503619D02*
X19110088Y-18496476D01*
X19110088Y-18496476D02*
X19124374Y-18489333D01*
X19124374Y-18489333D02*
X19160088Y-18489333D01*
X19160088Y-18489333D02*
X19174374Y-18496476D01*
X19174374Y-18496476D02*
X19181517Y-18503619D01*
X19181517Y-18503619D02*
X19188660Y-18517904D01*
X19188660Y-18517904D02*
X19188660Y-18532190D01*
X19188660Y-18532190D02*
X19181517Y-18553619D01*
X19181517Y-18553619D02*
X19095803Y-18639333D01*
X19095803Y-18639333D02*
X19188660Y-18639333D01*
X19238660Y-18489333D02*
X19331517Y-18489333D01*
X19331517Y-18489333D02*
X19281517Y-18546476D01*
X19281517Y-18546476D02*
X19302945Y-18546476D01*
X19302945Y-18546476D02*
X19317231Y-18553619D01*
X19317231Y-18553619D02*
X19324374Y-18560761D01*
X19324374Y-18560761D02*
X19331517Y-18575047D01*
X19331517Y-18575047D02*
X19331517Y-18610761D01*
X19331517Y-18610761D02*
X19324374Y-18625047D01*
X19324374Y-18625047D02*
X19317231Y-18632190D01*
X19317231Y-18632190D02*
X19302945Y-18639333D01*
X19302945Y-18639333D02*
X19260088Y-18639333D01*
X19260088Y-18639333D02*
X19245803Y-18632190D01*
X19245803Y-18632190D02*
X19238660Y-18625047D01*
X19395802Y-18639333D02*
X19395802Y-18489333D01*
X19395802Y-18489333D02*
X19431517Y-18489333D01*
X19431517Y-18489333D02*
X19452945Y-18496476D01*
X19452945Y-18496476D02*
X19467231Y-18510761D01*
X19467231Y-18510761D02*
X19474374Y-18525047D01*
X19474374Y-18525047D02*
X19481517Y-18553619D01*
X19481517Y-18553619D02*
X19481517Y-18575047D01*
X19481517Y-18575047D02*
X19474374Y-18603619D01*
X19474374Y-18603619D02*
X19467231Y-18617904D01*
X19467231Y-18617904D02*
X19452945Y-18632190D01*
X19452945Y-18632190D02*
X19431517Y-18639333D01*
X19431517Y-18639333D02*
X19395802Y-18639333D01*
X19538660Y-18632190D02*
X19560088Y-18639333D01*
X19560088Y-18639333D02*
X19595802Y-18639333D01*
X19595802Y-18639333D02*
X19610088Y-18632190D01*
X19610088Y-18632190D02*
X19617231Y-18625047D01*
X19617231Y-18625047D02*
X19624374Y-18610761D01*
X19624374Y-18610761D02*
X19624374Y-18596476D01*
X19624374Y-18596476D02*
X19617231Y-18582190D01*
X19617231Y-18582190D02*
X19610088Y-18575047D01*
X19610088Y-18575047D02*
X19595802Y-18567904D01*
X19595802Y-18567904D02*
X19567231Y-18560761D01*
X19567231Y-18560761D02*
X19552945Y-18553619D01*
X19552945Y-18553619D02*
X19545802Y-18546476D01*
X19545802Y-18546476D02*
X19538660Y-18532190D01*
X19538660Y-18532190D02*
X19538660Y-18517904D01*
X19538660Y-18517904D02*
X19545802Y-18503619D01*
X19545802Y-18503619D02*
X19552945Y-18496476D01*
X19552945Y-18496476D02*
X19567231Y-18489333D01*
X19567231Y-18489333D02*
X19602945Y-18489333D01*
X19602945Y-18489333D02*
X19624374Y-18496476D01*
X19688660Y-18582190D02*
X19802945Y-18582190D01*
X19924374Y-18560761D02*
X19945802Y-18567904D01*
X19945802Y-18567904D02*
X19952945Y-18575047D01*
X19952945Y-18575047D02*
X19960088Y-18589333D01*
X19960088Y-18589333D02*
X19960088Y-18610761D01*
X19960088Y-18610761D02*
X19952945Y-18625047D01*
X19952945Y-18625047D02*
X19945802Y-18632190D01*
X19945802Y-18632190D02*
X19931517Y-18639333D01*
X19931517Y-18639333D02*
X19874374Y-18639333D01*
X19874374Y-18639333D02*
X19874374Y-18489333D01*
X19874374Y-18489333D02*
X19924374Y-18489333D01*
X19924374Y-18489333D02*
X19938660Y-18496476D01*
X19938660Y-18496476D02*
X19945802Y-18503619D01*
X19945802Y-18503619D02*
X19952945Y-18517904D01*
X19952945Y-18517904D02*
X19952945Y-18532190D01*
X19952945Y-18532190D02*
X19945802Y-18546476D01*
X19945802Y-18546476D02*
X19938660Y-18553619D01*
X19938660Y-18553619D02*
X19924374Y-18560761D01*
X19924374Y-18560761D02*
X19874374Y-18560761D01*
X20024374Y-18639333D02*
X20024374Y-18539333D01*
X20024374Y-18567904D02*
X20031517Y-18553619D01*
X20031517Y-18553619D02*
X20038660Y-18546476D01*
X20038660Y-18546476D02*
X20052945Y-18539333D01*
X20052945Y-18539333D02*
X20067231Y-18539333D01*
X20174374Y-18632190D02*
X20160088Y-18639333D01*
X20160088Y-18639333D02*
X20131517Y-18639333D01*
X20131517Y-18639333D02*
X20117231Y-18632190D01*
X20117231Y-18632190D02*
X20110088Y-18617904D01*
X20110088Y-18617904D02*
X20110088Y-18560761D01*
X20110088Y-18560761D02*
X20117231Y-18546476D01*
X20117231Y-18546476D02*
X20131517Y-18539333D01*
X20131517Y-18539333D02*
X20160088Y-18539333D01*
X20160088Y-18539333D02*
X20174374Y-18546476D01*
X20174374Y-18546476D02*
X20181517Y-18560761D01*
X20181517Y-18560761D02*
X20181517Y-18575047D01*
X20181517Y-18575047D02*
X20110088Y-18589333D01*
X20310088Y-18639333D02*
X20310088Y-18560761D01*
X20310088Y-18560761D02*
X20302945Y-18546476D01*
X20302945Y-18546476D02*
X20288660Y-18539333D01*
X20288660Y-18539333D02*
X20260088Y-18539333D01*
X20260088Y-18539333D02*
X20245802Y-18546476D01*
X20310088Y-18632190D02*
X20295802Y-18639333D01*
X20295802Y-18639333D02*
X20260088Y-18639333D01*
X20260088Y-18639333D02*
X20245802Y-18632190D01*
X20245802Y-18632190D02*
X20238660Y-18617904D01*
X20238660Y-18617904D02*
X20238660Y-18603619D01*
X20238660Y-18603619D02*
X20245802Y-18589333D01*
X20245802Y-18589333D02*
X20260088Y-18582190D01*
X20260088Y-18582190D02*
X20295802Y-18582190D01*
X20295802Y-18582190D02*
X20310088Y-18575047D01*
X20381517Y-18639333D02*
X20381517Y-18489333D01*
X20395802Y-18582190D02*
X20438660Y-18639333D01*
X20438660Y-18539333D02*
X20381517Y-18596476D01*
X20531517Y-18489333D02*
X20560088Y-18489333D01*
X20560088Y-18489333D02*
X20574374Y-18496476D01*
X20574374Y-18496476D02*
X20588660Y-18510761D01*
X20588660Y-18510761D02*
X20595802Y-18539333D01*
X20595802Y-18539333D02*
X20595802Y-18589333D01*
X20595802Y-18589333D02*
X20588660Y-18617904D01*
X20588660Y-18617904D02*
X20574374Y-18632190D01*
X20574374Y-18632190D02*
X20560088Y-18639333D01*
X20560088Y-18639333D02*
X20531517Y-18639333D01*
X20531517Y-18639333D02*
X20517231Y-18632190D01*
X20517231Y-18632190D02*
X20502945Y-18617904D01*
X20502945Y-18617904D02*
X20495802Y-18589333D01*
X20495802Y-18589333D02*
X20495802Y-18539333D01*
X20495802Y-18539333D02*
X20502945Y-18510761D01*
X20502945Y-18510761D02*
X20517231Y-18496476D01*
X20517231Y-18496476D02*
X20531517Y-18489333D01*
X20724374Y-18539333D02*
X20724374Y-18639333D01*
X20660088Y-18539333D02*
X20660088Y-18617904D01*
X20660088Y-18617904D02*
X20667231Y-18632190D01*
X20667231Y-18632190D02*
X20681517Y-18639333D01*
X20681517Y-18639333D02*
X20702945Y-18639333D01*
X20702945Y-18639333D02*
X20717231Y-18632190D01*
X20717231Y-18632190D02*
X20724374Y-18625047D01*
X20774374Y-18539333D02*
X20831517Y-18539333D01*
X20795802Y-18489333D02*
X20795802Y-18617904D01*
X20795802Y-18617904D02*
X20802945Y-18632190D01*
X20802945Y-18632190D02*
X20817231Y-18639333D01*
X20817231Y-18639333D02*
X20831517Y-18639333D01*
X20881517Y-18625047D02*
X20888660Y-18632190D01*
X20888660Y-18632190D02*
X20881517Y-18639333D01*
X20881517Y-18639333D02*
X20874374Y-18632190D01*
X20874374Y-18632190D02*
X20881517Y-18625047D01*
X20881517Y-18625047D02*
X20881517Y-18639333D01*
X20952945Y-18639333D02*
X20952945Y-18489333D01*
X20967231Y-18582190D02*
X21010088Y-18639333D01*
X21010088Y-18539333D02*
X20952945Y-18596476D01*
X21074374Y-18639333D02*
X21074374Y-18539333D01*
X21074374Y-18489333D02*
X21067231Y-18496476D01*
X21067231Y-18496476D02*
X21074374Y-18503619D01*
X21074374Y-18503619D02*
X21081517Y-18496476D01*
X21081517Y-18496476D02*
X21074374Y-18489333D01*
X21074374Y-18489333D02*
X21074374Y-18503619D01*
X21210088Y-18632190D02*
X21195803Y-18639333D01*
X21195803Y-18639333D02*
X21167231Y-18639333D01*
X21167231Y-18639333D02*
X21152945Y-18632190D01*
X21152945Y-18632190D02*
X21145803Y-18625047D01*
X21145803Y-18625047D02*
X21138660Y-18610761D01*
X21138660Y-18610761D02*
X21138660Y-18567904D01*
X21138660Y-18567904D02*
X21145803Y-18553619D01*
X21145803Y-18553619D02*
X21152945Y-18546476D01*
X21152945Y-18546476D02*
X21167231Y-18539333D01*
X21167231Y-18539333D02*
X21195803Y-18539333D01*
X21195803Y-18539333D02*
X21210088Y-18546476D01*
X21338660Y-18639333D02*
X21338660Y-18560761D01*
X21338660Y-18560761D02*
X21331517Y-18546476D01*
X21331517Y-18546476D02*
X21317231Y-18539333D01*
X21317231Y-18539333D02*
X21288660Y-18539333D01*
X21288660Y-18539333D02*
X21274374Y-18546476D01*
X21338660Y-18632190D02*
X21324374Y-18639333D01*
X21324374Y-18639333D02*
X21288660Y-18639333D01*
X21288660Y-18639333D02*
X21274374Y-18632190D01*
X21274374Y-18632190D02*
X21267231Y-18617904D01*
X21267231Y-18617904D02*
X21267231Y-18603619D01*
X21267231Y-18603619D02*
X21274374Y-18589333D01*
X21274374Y-18589333D02*
X21288660Y-18582190D01*
X21288660Y-18582190D02*
X21324374Y-18582190D01*
X21324374Y-18582190D02*
X21338660Y-18575047D01*
X21474374Y-18639333D02*
X21474374Y-18489333D01*
X21474374Y-18632190D02*
X21460088Y-18639333D01*
X21460088Y-18639333D02*
X21431517Y-18639333D01*
X21431517Y-18639333D02*
X21417231Y-18632190D01*
X21417231Y-18632190D02*
X21410088Y-18625047D01*
X21410088Y-18625047D02*
X21402945Y-18610761D01*
X21402945Y-18610761D02*
X21402945Y-18567904D01*
X21402945Y-18567904D02*
X21410088Y-18553619D01*
X21410088Y-18553619D02*
X21417231Y-18546476D01*
X21417231Y-18546476D02*
X21431517Y-18539333D01*
X21431517Y-18539333D02*
X21460088Y-18539333D01*
X21460088Y-18539333D02*
X21474374Y-18546476D01*
X21510088Y-18653619D02*
X21624374Y-18653619D01*
X21660088Y-18539333D02*
X21660088Y-18689333D01*
X21660088Y-18546476D02*
X21674374Y-18539333D01*
X21674374Y-18539333D02*
X21702945Y-18539333D01*
X21702945Y-18539333D02*
X21717231Y-18546476D01*
X21717231Y-18546476D02*
X21724374Y-18553619D01*
X21724374Y-18553619D02*
X21731517Y-18567904D01*
X21731517Y-18567904D02*
X21731517Y-18610761D01*
X21731517Y-18610761D02*
X21724374Y-18625047D01*
X21724374Y-18625047D02*
X21717231Y-18632190D01*
X21717231Y-18632190D02*
X21702945Y-18639333D01*
X21702945Y-18639333D02*
X21674374Y-18639333D01*
X21674374Y-18639333D02*
X21660088Y-18632190D01*
X21860088Y-18632190D02*
X21845803Y-18639333D01*
X21845803Y-18639333D02*
X21817231Y-18639333D01*
X21817231Y-18639333D02*
X21802945Y-18632190D01*
X21802945Y-18632190D02*
X21795803Y-18625047D01*
X21795803Y-18625047D02*
X21788660Y-18610761D01*
X21788660Y-18610761D02*
X21788660Y-18567904D01*
X21788660Y-18567904D02*
X21795803Y-18553619D01*
X21795803Y-18553619D02*
X21802945Y-18546476D01*
X21802945Y-18546476D02*
X21817231Y-18539333D01*
X21817231Y-18539333D02*
X21845803Y-18539333D01*
X21845803Y-18539333D02*
X21860088Y-18546476D01*
X21924374Y-18639333D02*
X21924374Y-18489333D01*
X21924374Y-18546476D02*
X21938660Y-18539333D01*
X21938660Y-18539333D02*
X21967231Y-18539333D01*
X21967231Y-18539333D02*
X21981517Y-18546476D01*
X21981517Y-18546476D02*
X21988660Y-18553619D01*
X21988660Y-18553619D02*
X21995803Y-18567904D01*
X21995803Y-18567904D02*
X21995803Y-18610761D01*
X21995803Y-18610761D02*
X21988660Y-18625047D01*
X21988660Y-18625047D02*
X21981517Y-18632190D01*
X21981517Y-18632190D02*
X21967231Y-18639333D01*
X21967231Y-18639333D02*
X21938660Y-18639333D01*
X21938660Y-18639333D02*
X21924374Y-18632190D01*
D10*
D11*
X17700220Y-18150720D02*
X28500220Y-18150720D01*
D10*
D11*
X17838660Y-18362190D02*
X17860088Y-18369333D01*
X17860088Y-18369333D02*
X17895803Y-18369333D01*
X17895803Y-18369333D02*
X17910088Y-18362190D01*
X17910088Y-18362190D02*
X17917231Y-18355047D01*
X17917231Y-18355047D02*
X17924374Y-18340761D01*
X17924374Y-18340761D02*
X17924374Y-18326476D01*
X17924374Y-18326476D02*
X17917231Y-18312190D01*
X17917231Y-18312190D02*
X17910088Y-18305047D01*
X17910088Y-18305047D02*
X17895803Y-18297904D01*
X17895803Y-18297904D02*
X17867231Y-18290761D01*
X17867231Y-18290761D02*
X17852946Y-18283619D01*
X17852946Y-18283619D02*
X17845803Y-18276476D01*
X17845803Y-18276476D02*
X17838660Y-18262190D01*
X17838660Y-18262190D02*
X17838660Y-18247904D01*
X17838660Y-18247904D02*
X17845803Y-18233619D01*
X17845803Y-18233619D02*
X17852946Y-18226476D01*
X17852946Y-18226476D02*
X17867231Y-18219333D01*
X17867231Y-18219333D02*
X17902946Y-18219333D01*
X17902946Y-18219333D02*
X17924374Y-18226476D01*
X17988660Y-18369333D02*
X17988660Y-18219333D01*
X18052946Y-18369333D02*
X18052946Y-18290761D01*
X18052946Y-18290761D02*
X18045803Y-18276476D01*
X18045803Y-18276476D02*
X18031517Y-18269333D01*
X18031517Y-18269333D02*
X18010088Y-18269333D01*
X18010088Y-18269333D02*
X17995803Y-18276476D01*
X17995803Y-18276476D02*
X17988660Y-18283619D01*
X18181517Y-18362190D02*
X18167231Y-18369333D01*
X18167231Y-18369333D02*
X18138660Y-18369333D01*
X18138660Y-18369333D02*
X18124374Y-18362190D01*
X18124374Y-18362190D02*
X18117231Y-18347904D01*
X18117231Y-18347904D02*
X18117231Y-18290761D01*
X18117231Y-18290761D02*
X18124374Y-18276476D01*
X18124374Y-18276476D02*
X18138660Y-18269333D01*
X18138660Y-18269333D02*
X18167231Y-18269333D01*
X18167231Y-18269333D02*
X18181517Y-18276476D01*
X18181517Y-18276476D02*
X18188660Y-18290761D01*
X18188660Y-18290761D02*
X18188660Y-18305047D01*
X18188660Y-18305047D02*
X18117231Y-18319333D01*
X18310088Y-18362190D02*
X18295803Y-18369333D01*
X18295803Y-18369333D02*
X18267231Y-18369333D01*
X18267231Y-18369333D02*
X18252945Y-18362190D01*
X18252945Y-18362190D02*
X18245803Y-18347904D01*
X18245803Y-18347904D02*
X18245803Y-18290761D01*
X18245803Y-18290761D02*
X18252945Y-18276476D01*
X18252945Y-18276476D02*
X18267231Y-18269333D01*
X18267231Y-18269333D02*
X18295803Y-18269333D01*
X18295803Y-18269333D02*
X18310088Y-18276476D01*
X18310088Y-18276476D02*
X18317231Y-18290761D01*
X18317231Y-18290761D02*
X18317231Y-18305047D01*
X18317231Y-18305047D02*
X18245803Y-18319333D01*
X18360088Y-18269333D02*
X18417231Y-18269333D01*
X18381517Y-18219333D02*
X18381517Y-18347904D01*
X18381517Y-18347904D02*
X18388660Y-18362190D01*
X18388660Y-18362190D02*
X18402945Y-18369333D01*
X18402945Y-18369333D02*
X18417231Y-18369333D01*
X18467231Y-18355047D02*
X18474374Y-18362190D01*
X18474374Y-18362190D02*
X18467231Y-18369333D01*
X18467231Y-18369333D02*
X18460088Y-18362190D01*
X18460088Y-18362190D02*
X18467231Y-18355047D01*
X18467231Y-18355047D02*
X18467231Y-18369333D01*
X18467231Y-18276476D02*
X18474374Y-18283619D01*
X18474374Y-18283619D02*
X18467231Y-18290761D01*
X18467231Y-18290761D02*
X18460088Y-18283619D01*
X18460088Y-18283619D02*
X18467231Y-18276476D01*
X18467231Y-18276476D02*
X18467231Y-18290761D01*
D10*
D11*
X19700220Y-19150720D02*
X19700220Y-19450720D01*
D10*
D11*
X26100220Y-19150720D02*
X26100220Y-19800720D01*
D14*
G04 #@! TA.AperFunction,EtchedComponent*
G04 #@! TO.C,AE1*
G36*
X15575678Y-8995000D02*
G01*
X15600000Y-8995000D01*
X15600000Y-9085000D01*
X15110000Y-9085000D01*
X15110000Y-9225000D01*
X15600000Y-9225000D01*
X15600000Y-9275000D01*
X15110000Y-9275000D01*
X15110000Y-9445000D01*
X15374000Y-9445000D01*
X15374000Y-9745000D01*
X15110000Y-9745000D01*
X15110000Y-9915000D01*
X15374000Y-9915000D01*
X15374000Y-10215000D01*
X15110000Y-10215000D01*
X15110000Y-10385000D01*
X15504000Y-10385000D01*
X15504000Y-10435000D01*
X15060000Y-10435000D01*
X15060000Y-10165000D01*
X15324000Y-10165000D01*
X15324000Y-9965000D01*
X15060000Y-9965000D01*
X15060000Y-9695000D01*
X15324000Y-9695000D01*
X15324000Y-9495000D01*
X15060000Y-9495000D01*
X15060000Y-9039273D01*
X15560202Y-9039273D01*
X15560859Y-9044232D01*
X15562869Y-9048763D01*
X15566136Y-9052289D01*
X15569358Y-9053978D01*
X15574184Y-9054822D01*
X15579137Y-9054169D01*
X15583655Y-9052113D01*
X15587179Y-9048749D01*
X15588240Y-9046888D01*
X15589530Y-9042336D01*
X15589604Y-9037484D01*
X15588393Y-9033218D01*
X15587958Y-9032427D01*
X15584680Y-9028633D01*
X15580439Y-9026226D01*
X15575678Y-9025242D01*
X15570838Y-9025715D01*
X15566358Y-9027682D01*
X15562681Y-9031176D01*
X15560991Y-9034465D01*
X15560202Y-9039273D01*
X15060000Y-9039273D01*
X15060000Y-8995000D01*
X15575678Y-8995000D01*
G37*
G04 #@! TD.AperFunction*
G04 #@! TD*
D15*
G04 #@! TO.P,C6,1*
G04 #@! TO.N,VBAT*
X18022500Y-7975000D03*
G04 #@! TO.P,C6,2*
G04 #@! TO.N,GND*
X18227500Y-7975000D03*
G04 #@! TD*
D16*
G04 #@! TO.P,C8,1*
G04 #@! TO.N,Net-(AE1-A)*
X16875000Y-9327500D03*
G04 #@! TO.P,C8,2*
G04 #@! TO.N,GND*
X16875000Y-9122500D03*
G04 #@! TD*
D15*
G04 #@! TO.P,R7,1*
G04 #@! TO.N,VBAT*
X18022500Y-7375000D03*
G04 #@! TO.P,R7,2*
G04 #@! TO.N,Net-(J4-Pin_1)*
X18227500Y-7375000D03*
G04 #@! TD*
D17*
G04 #@! TO.P,AE1,1,A*
G04 #@! TO.N,Net-(AE1-A)*
X15575000Y-9250000D03*
D18*
G04 #@! TO.P,AE1,2,Shield*
G04 #@! TO.N,GND*
X15575000Y-9040000D03*
G04 #@! TD*
D19*
G04 #@! TO.P,R5,1*
G04 #@! TO.N,VBAT*
X18227500Y-8175000D03*
G04 #@! TO.P,R5,2*
G04 #@! TO.N,SD_D1*
X18022500Y-8175000D03*
G04 #@! TD*
D15*
G04 #@! TO.P,C5,1*
G04 #@! TO.N,VBAT*
X18022500Y-7775000D03*
G04 #@! TO.P,C5,2*
G04 #@! TO.N,GND*
X18227500Y-7775000D03*
G04 #@! TD*
D20*
G04 #@! TO.P,J3,1,Pin_1*
G04 #@! TO.N,Net-(J3-Pin_1)*
X18025000Y-9825000D03*
D21*
G04 #@! TO.P,J3,2,Pin_2*
G04 #@! TO.N,WL_DIS*
X18279000Y-9825000D03*
G04 #@! TO.P,J3,3,Pin_3*
G04 #@! TO.N,GND*
X18533000Y-9825000D03*
G04 #@! TD*
D22*
G04 #@! TO.P,RF1,1,GND*
G04 #@! TO.N,GND*
X16600000Y-8855000D03*
G04 #@! TO.P,RF1,2,WL_BT_ANT*
G04 #@! TO.N,Net-(RF1-WL_BT_ANT)*
X16690000Y-8855000D03*
G04 #@! TO.P,RF1,3,GND*
G04 #@! TO.N,GND*
X16780000Y-8855000D03*
G04 #@! TO.P,RF1,4*
G04 #@! TO.N,N/C*
X16870000Y-8855000D03*
G04 #@! TO.P,RF1,5*
X16960000Y-8855000D03*
G04 #@! TO.P,RF1,6,HOST_WAKE_BT*
G04 #@! TO.N,HOST_WAKE_BT*
X17050000Y-8855000D03*
G04 #@! TO.P,RF1,7,BT_WAKE_HOST*
G04 #@! TO.N,BT_WAKE_HOST*
X17140000Y-8855000D03*
G04 #@! TO.P,RF1,8*
G04 #@! TO.N,N/C*
X17230000Y-8855000D03*
G04 #@! TO.P,RF1,9,VBAT_IN*
G04 #@! TO.N,VBAT*
X17320000Y-8855000D03*
G04 #@! TO.P,RF1,10*
G04 #@! TO.N,N/C*
X17410000Y-8855000D03*
G04 #@! TO.P,RF1,11*
X17500000Y-8855000D03*
D23*
G04 #@! TO.P,RF1,12,WL_DIS#*
G04 #@! TO.N,WL_DIS*
X17630000Y-8725000D03*
G04 #@! TO.P,RF1,13,WL_HOST_WAKE*
G04 #@! TO.N,WL_HOST_WAKE*
X17630000Y-8635000D03*
G04 #@! TO.P,RF1,14,SD_D2*
G04 #@! TO.N,SD_D2*
X17630000Y-8545000D03*
G04 #@! TO.P,RF1,15,SD_D3*
G04 #@! TO.N,SD_D3*
X17630000Y-8455000D03*
G04 #@! TO.P,RF1,16,SD_CMD*
G04 #@! TO.N,SD_CMD*
X17630000Y-8365000D03*
G04 #@! TO.P,RF1,17,SD_CLK*
G04 #@! TO.N,SD_CLK*
X17630000Y-8275000D03*
G04 #@! TO.P,RF1,18,SD_D0*
G04 #@! TO.N,SD_D0*
X17630000Y-8185000D03*
G04 #@! TO.P,RF1,19,SD_D1*
G04 #@! TO.N,SD_D1*
X17630000Y-8095000D03*
G04 #@! TO.P,RF1,20,GND*
G04 #@! TO.N,GND*
X17630000Y-8005000D03*
G04 #@! TO.P,RF1,21*
G04 #@! TO.N,N/C*
X17630000Y-7915000D03*
G04 #@! TO.P,RF1,22,VDDIO*
G04 #@! TO.N,VBAT*
X17630000Y-7825000D03*
D22*
G04 #@! TO.P,RF1,23*
G04 #@! TO.N,N/C*
X17500000Y-7695000D03*
G04 #@! TO.P,RF1,24,SUSCLK_IN*
G04 #@! TO.N,SUSCLK_IN*
X17410000Y-7695000D03*
G04 #@! TO.P,RF1,25,PCM_OUT*
G04 #@! TO.N,PCM_OUT*
X17320000Y-7695000D03*
G04 #@! TO.P,RF1,26,PCM_CLK*
G04 #@! TO.N,PCM_CLK*
X17230000Y-7695000D03*
G04 #@! TO.P,RF1,27,PCM_IN*
G04 #@! TO.N,PCM_IN*
X17140000Y-7695000D03*
G04 #@! TO.P,RF1,28,PCM_SYNC*
G04 #@! TO.N,PCM_SYNC*
X17050000Y-7695000D03*
G04 #@! TO.P,RF1,29*
G04 #@! TO.N,N/C*
X16960000Y-7695000D03*
G04 #@! TO.P,RF1,30,MAIN_XTAL_IN*
G04 #@! TO.N,MAIN_XTAL_IN*
X16870000Y-7695000D03*
G04 #@! TO.P,RF1,31,GND*
G04 #@! TO.N,GND*
X16780000Y-7695000D03*
G04 #@! TO.P,RF1,32,ANT/NC*
G04 #@! TO.N,unconnected-(RF1-ANT{slash}NC-Pad32)*
X16690000Y-7695000D03*
G04 #@! TO.P,RF1,33,GND*
G04 #@! TO.N,GND*
X16600000Y-7695000D03*
D23*
G04 #@! TO.P,RF1,34,BT_DIS*
G04 #@! TO.N,BT_DIS*
X16470000Y-7825000D03*
G04 #@! TO.P,RF1,35*
G04 #@! TO.N,N/C*
X16470000Y-7915000D03*
G04 #@! TO.P,RF1,36,GND*
G04 #@! TO.N,GND*
X16470000Y-8005000D03*
G04 #@! TO.P,RF1,37*
G04 #@! TO.N,N/C*
X16470000Y-8095000D03*
G04 #@! TO.P,RF1,38*
X16470000Y-8185000D03*
G04 #@! TO.P,RF1,39*
X16470000Y-8275000D03*
G04 #@! TO.P,RF1,40*
X16470000Y-8365000D03*
G04 #@! TO.P,RF1,41,UART_RTS*
G04 #@! TO.N,UART_RTS*
X16470000Y-8455000D03*
G04 #@! TO.P,RF1,42,UART_OUT*
G04 #@! TO.N,UART_OUT*
X16470000Y-8545000D03*
G04 #@! TO.P,RF1,43,UART_IN*
G04 #@! TO.N,UART_IN*
X16470000Y-8635000D03*
G04 #@! TO.P,RF1,44,UART_CTS*
G04 #@! TO.N,UART_CTS*
X16470000Y-8725000D03*
D24*
G04 #@! TO.P,RF1,45,GND*
G04 #@! TO.N,GND*
X17077000Y-8227000D03*
G04 #@! TD*
D20*
G04 #@! TO.P,J4,1,Pin_1*
G04 #@! TO.N,Net-(J4-Pin_1)*
X15325000Y-7300000D03*
D21*
G04 #@! TO.P,J4,2,Pin_2*
G04 #@! TO.N,BT_DIS*
X15579000Y-7300000D03*
G04 #@! TO.P,J4,3,Pin_3*
G04 #@! TO.N,GND*
X15833000Y-7300000D03*
G04 #@! TD*
D19*
G04 #@! TO.P,R1,1*
G04 #@! TO.N,VBAT*
X18227500Y-8975000D03*
G04 #@! TO.P,R1,2*
G04 #@! TO.N,SD_D2*
X18022500Y-8975000D03*
G04 #@! TD*
D25*
G04 #@! TO.P,C7,1*
G04 #@! TO.N,Net-(RF1-WL_BT_ANT)*
X16675000Y-9122500D03*
G04 #@! TO.P,C7,2*
G04 #@! TO.N,Net-(AE1-A)*
X16675000Y-9327500D03*
G04 #@! TD*
D15*
G04 #@! TO.P,C4,1*
G04 #@! TO.N,VBAT*
X18022500Y-7575000D03*
G04 #@! TO.P,C4,2*
G04 #@! TO.N,GND*
X18227500Y-7575000D03*
G04 #@! TD*
D26*
G04 #@! TO.P,J1,1,Pin_1*
G04 #@! TO.N,VBAT*
X19375000Y-6875000D03*
D27*
G04 #@! TO.P,J1,2,Pin_2*
G04 #@! TO.N,GND*
X19025000Y-6875000D03*
G04 #@! TD*
D25*
G04 #@! TO.P,C3,1*
G04 #@! TO.N,VBAT*
X17600000Y-9122500D03*
G04 #@! TO.P,C3,2*
G04 #@! TO.N,GND*
X17600000Y-9327500D03*
G04 #@! TD*
D19*
G04 #@! TO.P,R3,1*
G04 #@! TO.N,VBAT*
X18227500Y-8575000D03*
G04 #@! TO.P,R3,2*
G04 #@! TO.N,SD_CMD*
X18022500Y-8575000D03*
G04 #@! TD*
D20*
G04 #@! TO.P,J9,1,Pin_1*
G04 #@! TO.N,MAIN_XTAL_IN*
X16800000Y-7300000D03*
D21*
G04 #@! TO.P,J9,2,Pin_2*
G04 #@! TO.N,GND*
X16546000Y-7300000D03*
G04 #@! TD*
D20*
G04 #@! TO.P,J5,1,Pin_1*
G04 #@! TO.N,SUSCLK_IN*
X17750000Y-7300000D03*
D21*
G04 #@! TO.P,J5,2,Pin_2*
G04 #@! TO.N,GND*
X17496000Y-7300000D03*
G04 #@! TD*
D20*
G04 #@! TO.P,J7,1,Pin_1*
G04 #@! TO.N,VBAT*
X18012000Y-6700000D03*
D21*
G04 #@! TO.P,J7,2,Pin_2*
G04 #@! TO.N,PCM_OUT*
X17758000Y-6700000D03*
G04 #@! TO.P,J7,3,Pin_3*
G04 #@! TO.N,PCM_CLK*
X17504000Y-6700000D03*
G04 #@! TO.P,J7,4,Pin_4*
G04 #@! TO.N,PCM_IN*
X17250000Y-6700000D03*
G04 #@! TO.P,J7,5,Pin_5*
G04 #@! TO.N,PCM_SYNC*
X16996000Y-6700000D03*
G04 #@! TO.P,J7,6,Pin_6*
G04 #@! TO.N,UART_RTS*
X16742000Y-6700000D03*
G04 #@! TO.P,J7,7,Pin_7*
G04 #@! TO.N,UART_OUT*
X16488000Y-6700000D03*
G04 #@! TO.P,J7,8,Pin_8*
G04 #@! TO.N,UART_IN*
X16234000Y-6700000D03*
G04 #@! TO.P,J7,9,Pin_9*
G04 #@! TO.N,UART_CTS*
X15980000Y-6700000D03*
G04 #@! TO.P,J7,10,Pin_10*
G04 #@! TO.N,BT_WAKE_HOST*
X15726000Y-6700000D03*
G04 #@! TO.P,J7,11,Pin_11*
G04 #@! TO.N,HOST_WAKE_BT*
X15472000Y-6700000D03*
G04 #@! TO.P,J7,12,Pin_12*
G04 #@! TO.N,GND*
X15218000Y-6700000D03*
G04 #@! TD*
D20*
G04 #@! TO.P,J8,1,Pin_1*
G04 #@! TO.N,VBAT*
X19325000Y-9599000D03*
D21*
G04 #@! TO.P,J8,2,Pin_2*
G04 #@! TO.N,WL_HOST_WAKE*
X19325000Y-9345000D03*
G04 #@! TO.P,J8,3,Pin_3*
G04 #@! TO.N,SD_D2*
X19325000Y-9091000D03*
G04 #@! TO.P,J8,4,Pin_4*
G04 #@! TO.N,SD_D3*
X19325000Y-8837000D03*
G04 #@! TO.P,J8,5,Pin_5*
G04 #@! TO.N,SD_CMD*
X19325000Y-8583000D03*
G04 #@! TO.P,J8,6,Pin_6*
G04 #@! TO.N,SD_CLK*
X19325000Y-8329000D03*
G04 #@! TO.P,J8,7,Pin_7*
G04 #@! TO.N,SD_D0*
X19325000Y-8075000D03*
G04 #@! TO.P,J8,8,Pin_8*
G04 #@! TO.N,SD_D1*
X19325000Y-7821000D03*
G04 #@! TO.P,J8,9,Pin_9*
G04 #@! TO.N,GND*
X19325000Y-7567000D03*
G04 #@! TD*
D20*
G04 #@! TO.P,J6,1,Pin_1*
G04 #@! TO.N,HOST_WAKE_BT*
X16550000Y-9825000D03*
D21*
G04 #@! TO.P,J6,2,Pin_2*
G04 #@! TO.N,BT_WAKE_HOST*
X16804000Y-9825000D03*
G04 #@! TO.P,J6,3,Pin_3*
G04 #@! TO.N,WL_HOST_WAKE*
X17058000Y-9825000D03*
G04 #@! TO.P,J6,4,Pin_4*
G04 #@! TO.N,GND*
X17312000Y-9825000D03*
G04 #@! TD*
D19*
G04 #@! TO.P,R6,1*
G04 #@! TO.N,VBAT*
X18227500Y-9175000D03*
G04 #@! TO.P,R6,2*
G04 #@! TO.N,Net-(J3-Pin_1)*
X18022500Y-9175000D03*
G04 #@! TD*
D25*
G04 #@! TO.P,C2,1*
G04 #@! TO.N,VBAT*
X17400000Y-9122500D03*
G04 #@! TO.P,C2,2*
G04 #@! TO.N,GND*
X17400000Y-9327500D03*
G04 #@! TD*
D19*
G04 #@! TO.P,R2,1*
G04 #@! TO.N,VBAT*
X18227500Y-8775000D03*
G04 #@! TO.P,R2,2*
G04 #@! TO.N,SD_D3*
X18022500Y-8775000D03*
G04 #@! TD*
G04 #@! TO.P,R4,1*
G04 #@! TO.N,VBAT*
X18227500Y-8375000D03*
G04 #@! TO.P,R4,2*
G04 #@! TO.N,SD_D0*
X18022500Y-8375000D03*
G04 #@! TD*
D20*
G04 #@! TO.P,J2,1,Pin_1*
G04 #@! TO.N,VBAT*
X18500000Y-6700000D03*
D21*
G04 #@! TO.P,J2,2,Pin_2*
G04 #@! TO.N,GND*
X18500000Y-6954000D03*
G04 #@! TD*
D25*
G04 #@! TO.P,C1,1*
G04 #@! TO.N,VBAT*
X17200000Y-9122500D03*
G04 #@! TO.P,C1,2*
G04 #@! TO.N,GND*
X17200000Y-9327500D03*
G04 #@! TD*
D28*
G04 #@! TO.N,GND*
X16200000Y-9225000D03*
X16750000Y-8000000D03*
X16500000Y-9425000D03*
X16500000Y-9225000D03*
X16400000Y-9425000D03*
X15725000Y-9000000D03*
X17400000Y-9400000D03*
X16875000Y-9000000D03*
X18300000Y-7975000D03*
X15725000Y-10350000D03*
X17075000Y-8000000D03*
X16800000Y-9450000D03*
X18700000Y-8400000D03*
X15725000Y-9350000D03*
X16025000Y-9350000D03*
X15925000Y-9350000D03*
X18700000Y-8725000D03*
X16500000Y-9025000D03*
X16300000Y-8250000D03*
X17200000Y-9400000D03*
X16100000Y-9425000D03*
X17400000Y-8250000D03*
X15725000Y-9075000D03*
X16600000Y-9450000D03*
X15725000Y-9650000D03*
X16300000Y-9225000D03*
X15825000Y-9150000D03*
X15725000Y-9150000D03*
X16200000Y-9425000D03*
X17400000Y-8000000D03*
X15825000Y-9350000D03*
X16750000Y-8250000D03*
X16500000Y-9125000D03*
X15725000Y-9850000D03*
X15725000Y-10150000D03*
X15725000Y-9450000D03*
X17600000Y-9400000D03*
X15725000Y-9750000D03*
X16300000Y-8000000D03*
X16300000Y-9425000D03*
X15725000Y-9550000D03*
X16800000Y-9000000D03*
X18300000Y-7575000D03*
X16750000Y-8400000D03*
X15925000Y-9150000D03*
X16900000Y-9450000D03*
X18300000Y-7775000D03*
X16125000Y-9150000D03*
X17400000Y-8400000D03*
X16025000Y-9150000D03*
X16700000Y-9450000D03*
X15725000Y-9950000D03*
X15725000Y-10250000D03*
X16400000Y-9225000D03*
X15725000Y-10050000D03*
G04 #@! TO.N,Net-(J3-Pin_1)*
X17950000Y-9175000D03*
G04 #@! TO.N,WL_DIS*
X17475000Y-8700000D03*
G04 #@! TO.N,Net-(J4-Pin_1)*
X18300000Y-7375000D03*
G04 #@! TO.N,BT_DIS*
X16350000Y-7075000D03*
G04 #@! TO.N,HOST_WAKE_BT*
X17025000Y-8675000D03*
X16325000Y-8900000D03*
G04 #@! TO.N,WL_HOST_WAKE*
X17475000Y-8600000D03*
G04 #@! TO.N,BT_WAKE_HOST*
X17125000Y-8675000D03*
X16325000Y-8800000D03*
G04 #@! TO.N,SD_D2*
X17950000Y-8975000D03*
G04 #@! TO.N,SD_CMD*
X17950000Y-8575000D03*
G04 #@! TO.N,SD_D0*
X17950000Y-8375000D03*
G04 #@! TO.N,SD_D3*
X17950000Y-8775000D03*
G04 #@! TO.N,SD_CLK*
X17800000Y-8300000D03*
G04 #@! TO.N,SD_D1*
X17950000Y-8175000D03*
G04 #@! TD*
D29*
G04 #@! TO.N,GND*
X16600000Y-8855000D02*
X16600000Y-8975000D01*
X16305000Y-8005000D02*
X16300000Y-8000000D01*
X16600000Y-7695000D02*
X16600000Y-7525000D01*
X16780000Y-7695000D02*
X16780000Y-7850000D01*
X16600000Y-8855000D02*
X16600000Y-8700000D01*
X16470000Y-8005000D02*
X16305000Y-8005000D01*
X17630000Y-8005000D02*
X17770000Y-8005000D01*
X16780000Y-8855000D02*
X16780000Y-8705000D01*
X16470000Y-8005000D02*
X16620000Y-8005000D01*
X17630000Y-8005000D02*
X17480000Y-8005000D01*
X16780000Y-7695000D02*
X16780000Y-7530000D01*
X16780000Y-8855000D02*
X16780000Y-8970000D01*
X16600000Y-7695000D02*
X16600000Y-7850000D01*
D30*
G04 #@! TO.N,Net-(AE1-A)*
X16152500Y-9327500D02*
X16675000Y-9327500D01*
X16675000Y-9327500D02*
X16875000Y-9327500D01*
X16152500Y-9327500D02*
X16075000Y-9250000D01*
X16075000Y-9250000D02*
X15575000Y-9250000D01*
D31*
G04 #@! TO.N,VBAT*
X18750000Y-6700000D02*
X18825000Y-6625000D01*
X17630000Y-7825000D02*
X17825000Y-7825000D01*
X17800000Y-9350000D02*
X17775000Y-9325000D01*
D30*
X18022500Y-7375000D02*
X18022500Y-7575000D01*
D31*
X18825000Y-6625000D02*
X19250000Y-6625000D01*
X17400000Y-9000000D02*
X17400000Y-9122500D01*
D30*
X18012000Y-6937000D02*
X18022500Y-6947500D01*
D31*
X17200000Y-9122500D02*
X17400000Y-9122500D01*
X18227500Y-8375000D02*
X18227500Y-8575000D01*
X17775000Y-9325000D02*
X17775000Y-9150000D01*
X18227500Y-8775000D02*
X18227500Y-8975000D01*
D30*
X18027500Y-7975000D02*
X18227500Y-8175000D01*
X18012000Y-6700000D02*
X18012000Y-6937000D01*
X18500000Y-6700000D02*
X18012000Y-6700000D01*
D31*
X18227500Y-9322500D02*
X18200000Y-9350000D01*
X18227500Y-8175000D02*
X18227500Y-8375000D01*
X17747500Y-9122500D02*
X17600000Y-9122500D01*
X17320000Y-8920000D02*
X17400000Y-9000000D01*
X18200000Y-9350000D02*
X19076000Y-9350000D01*
X19375000Y-7071500D02*
X19375000Y-6875000D01*
X17800000Y-9350000D02*
X18200000Y-9350000D01*
D30*
X18022500Y-7575000D02*
X18022500Y-7775000D01*
D31*
X17600000Y-9122500D02*
X17400000Y-9122500D01*
X19375000Y-6750000D02*
X19375000Y-6875000D01*
X19425000Y-9599000D02*
X19500000Y-9524000D01*
X18227500Y-8975000D02*
X18227500Y-9175000D01*
X19325000Y-9599000D02*
X19425000Y-9599000D01*
X19250000Y-6625000D02*
X19375000Y-6750000D01*
X17875000Y-7775000D02*
X18022500Y-7775000D01*
X19076000Y-9350000D02*
X19325000Y-9599000D01*
X17825000Y-7825000D02*
X17875000Y-7775000D01*
D30*
X18022500Y-7775000D02*
X18022500Y-7975000D01*
D31*
X17775000Y-9150000D02*
X17747500Y-9122500D01*
X18227500Y-8575000D02*
X18227500Y-8775000D01*
X18500000Y-6700000D02*
X18750000Y-6700000D01*
X18227500Y-9175000D02*
X18227500Y-9322500D01*
X19500000Y-7196500D02*
X19375000Y-7071500D01*
D30*
X18022500Y-7975000D02*
X18027500Y-7975000D01*
D31*
X19500000Y-9524000D02*
X19500000Y-7196500D01*
D30*
X18022500Y-7375000D02*
X18022500Y-6947500D01*
D31*
X17320000Y-8855000D02*
X17320000Y-8920000D01*
D30*
G04 #@! TO.N,Net-(RF1-WL_BT_ANT)*
X16675000Y-9025000D02*
X16675000Y-9122500D01*
X16690000Y-9010000D02*
X16675000Y-9025000D01*
X16690000Y-8855000D02*
X16690000Y-9010000D01*
D32*
G04 #@! TO.N,Net-(J3-Pin_1)*
X18022500Y-9175000D02*
X17950000Y-9175000D01*
G04 #@! TO.N,WL_DIS*
X17630000Y-8725000D02*
X17500000Y-8725000D01*
X17500000Y-8725000D02*
X17475000Y-8700000D01*
G04 #@! TO.N,Net-(J4-Pin_1)*
X18300000Y-7375000D02*
X18227500Y-7375000D01*
G04 #@! TO.N,BT_DIS*
X16325000Y-7100000D02*
X16350000Y-7075000D01*
X16325000Y-7750000D02*
X16325000Y-7100000D01*
X16400000Y-7825000D02*
X16325000Y-7750000D01*
X16470000Y-7825000D02*
X16400000Y-7825000D01*
G04 #@! TO.N,SUSCLK_IN*
X17410000Y-7590000D02*
X17475000Y-7525000D01*
X17750000Y-7400000D02*
X17625000Y-7525000D01*
X17750000Y-7300000D02*
X17750000Y-7400000D01*
X17475000Y-7525000D02*
X17625000Y-7525000D01*
X17410000Y-7695000D02*
X17410000Y-7590000D01*
G04 #@! TO.N,MAIN_XTAL_IN*
X16800000Y-7400000D02*
X16800000Y-7300000D01*
X16870000Y-7470000D02*
X16800000Y-7400000D01*
X16870000Y-7695000D02*
X16870000Y-7470000D01*
G04 #@! TO.N,HOST_WAKE_BT*
X15950000Y-8550000D02*
X15950000Y-7675000D01*
X17050000Y-8700000D02*
X17025000Y-8675000D01*
X17050000Y-8855000D02*
X17050000Y-8700000D01*
X15950000Y-6875000D02*
X15647000Y-6875000D01*
X15950000Y-7675000D02*
X16025000Y-7600000D01*
X16025000Y-7600000D02*
X16025000Y-6950000D01*
X16325000Y-8900000D02*
X16300000Y-8900000D01*
X16025000Y-6950000D02*
X15950000Y-6875000D01*
X16300000Y-8900000D02*
X15950000Y-8550000D01*
X15647000Y-6875000D02*
X15472000Y-6700000D01*
G04 #@! TO.N,WL_HOST_WAKE*
X17630000Y-8635000D02*
X17510000Y-8635000D01*
X17510000Y-8635000D02*
X17475000Y-8600000D01*
G04 #@! TO.N,BT_WAKE_HOST*
X15974500Y-6824500D02*
X15850500Y-6824500D01*
X16075000Y-7625000D02*
X16075000Y-6925000D01*
X16275000Y-8800000D02*
X16000000Y-8525000D01*
X17140000Y-8855000D02*
X17140000Y-8690000D01*
X17140000Y-8690000D02*
X17125000Y-8675000D01*
X15850500Y-6824500D02*
X15726000Y-6700000D01*
X16325000Y-8800000D02*
X16275000Y-8800000D01*
X16000000Y-7700000D02*
X16075000Y-7625000D01*
X16000000Y-8525000D02*
X16000000Y-7700000D01*
X16075000Y-6925000D02*
X15974500Y-6824500D01*
G04 #@! TO.N,PCM_OUT*
X17758000Y-6767000D02*
X17500000Y-7025000D01*
X17320000Y-7620000D02*
X17320000Y-7695000D01*
X17250000Y-7150000D02*
X17250000Y-7550000D01*
X17375000Y-7025000D02*
X17250000Y-7150000D01*
X17250000Y-7550000D02*
X17320000Y-7620000D01*
X17758000Y-6700000D02*
X17758000Y-6767000D01*
X17500000Y-7025000D02*
X17375000Y-7025000D01*
G04 #@! TO.N,PCM_SYNC*
X16996000Y-6750000D02*
X17175000Y-6929000D01*
X17175000Y-7000000D02*
X17100000Y-7075000D01*
X16996000Y-6700000D02*
X16996000Y-6750000D01*
X17050000Y-7600000D02*
X17050000Y-7695000D01*
X17100000Y-7075000D02*
X17100000Y-7550000D01*
X17175000Y-6929000D02*
X17175000Y-7000000D01*
X17100000Y-7550000D02*
X17050000Y-7600000D01*
G04 #@! TO.N,UART_OUT*
X16375000Y-6825000D02*
X16325000Y-6825000D01*
X16225000Y-7700000D02*
X16150000Y-7775000D01*
X16150000Y-8450000D02*
X16245000Y-8545000D01*
X16488000Y-6700000D02*
X16488000Y-6712000D01*
X16325000Y-6825000D02*
X16225000Y-6925000D01*
X16245000Y-8545000D02*
X16470000Y-8545000D01*
X16150000Y-7775000D02*
X16150000Y-8450000D01*
X16488000Y-6712000D02*
X16375000Y-6825000D01*
X16225000Y-6925000D02*
X16225000Y-7700000D01*
G04 #@! TO.N,PCM_IN*
X17250000Y-6700000D02*
X17250000Y-7000000D01*
X17150000Y-7575000D02*
X17140000Y-7585000D01*
X17150000Y-7100000D02*
X17150000Y-7575000D01*
X17140000Y-7585000D02*
X17140000Y-7695000D01*
X17250000Y-7000000D02*
X17150000Y-7100000D01*
G04 #@! TO.N,UART_IN*
X16262074Y-8635000D02*
X16470000Y-8635000D01*
X16175000Y-7675000D02*
X16100000Y-7750000D01*
X16234000Y-6837500D02*
X16175000Y-6896500D01*
X16100000Y-7750000D02*
X16100000Y-8472926D01*
X16100000Y-8472926D02*
X16262074Y-8635000D01*
X16234000Y-6700000D02*
X16234000Y-6837500D01*
X16175000Y-6896500D02*
X16175000Y-7675000D01*
G04 #@! TO.N,PCM_CLK*
X17504000Y-6700000D02*
X17504000Y-6821000D01*
X17200000Y-7575000D02*
X17230000Y-7605000D01*
X17230000Y-7605000D02*
X17230000Y-7695000D01*
X17504000Y-6821000D02*
X17200000Y-7125000D01*
X17200000Y-7125000D02*
X17200000Y-7575000D01*
G04 #@! TO.N,UART_CTS*
X16050000Y-8500000D02*
X16275000Y-8725000D01*
X16275000Y-8725000D02*
X16470000Y-8725000D01*
X15980000Y-6750000D02*
X16125000Y-6895000D01*
X16125000Y-7661360D02*
X16050000Y-7736360D01*
X15980000Y-6700000D02*
X15980000Y-6750000D01*
X16125000Y-6895000D02*
X16125000Y-7661360D01*
X16050000Y-7736360D02*
X16050000Y-8500000D01*
G04 #@! TO.N,UART_RTS*
X16230000Y-8455000D02*
X16200000Y-8425000D01*
X16350000Y-6875000D02*
X16400000Y-6875000D01*
X16275000Y-7725000D02*
X16275000Y-6950000D01*
X16592000Y-6850000D02*
X16742000Y-6700000D01*
X16275000Y-6950000D02*
X16350000Y-6875000D01*
X16200000Y-7800000D02*
X16275000Y-7725000D01*
X16425000Y-6850000D02*
X16592000Y-6850000D01*
X16400000Y-6875000D02*
X16425000Y-6850000D01*
X16470000Y-8455000D02*
X16230000Y-8455000D01*
X16200000Y-8425000D02*
X16200000Y-7800000D01*
G04 #@! TO.N,SD_D2*
X17850000Y-8687500D02*
X17850000Y-8900000D01*
X17707500Y-8545000D02*
X17850000Y-8687500D01*
X17925000Y-8975000D02*
X17950000Y-8975000D01*
X17630000Y-8545000D02*
X17707500Y-8545000D01*
X17950000Y-8975000D02*
X18022500Y-8975000D01*
X17850000Y-8900000D02*
X17925000Y-8975000D01*
G04 #@! TO.N,SD_CMD*
X18022500Y-8575000D02*
X17950000Y-8575000D01*
X17950000Y-8575000D02*
X17912500Y-8575000D01*
X17702500Y-8365000D02*
X17630000Y-8365000D01*
X17912500Y-8575000D02*
X17702500Y-8365000D01*
G04 #@! TO.N,SD_D0*
X17900000Y-8350000D02*
X17925000Y-8375000D01*
X17925000Y-8375000D02*
X17950000Y-8375000D01*
X17950000Y-8375000D02*
X18022500Y-8375000D01*
X17900000Y-8250000D02*
X17900000Y-8350000D01*
X17835000Y-8185000D02*
X17900000Y-8250000D01*
X17630000Y-8185000D02*
X17835000Y-8185000D01*
G04 #@! TO.N,SD_D3*
X17925000Y-8775000D02*
X17950000Y-8775000D01*
X17900000Y-8650000D02*
X17900000Y-8750000D01*
X17900000Y-8750000D02*
X17925000Y-8775000D01*
X17950000Y-8775000D02*
X18022500Y-8775000D01*
X17630000Y-8455000D02*
X17705000Y-8455000D01*
X17705000Y-8455000D02*
X17900000Y-8650000D01*
G04 #@! TO.N,SD_CLK*
X17775000Y-8275000D02*
X17800000Y-8300000D01*
X17630000Y-8275000D02*
X17775000Y-8275000D01*
G04 #@! TO.N,SD_D1*
X17630000Y-8095000D02*
X17845000Y-8095000D01*
X17950000Y-8175000D02*
X18022500Y-8175000D01*
X17925000Y-8175000D02*
X17950000Y-8175000D01*
X17845000Y-8095000D02*
X17925000Y-8175000D01*
G04 #@! TD*
G04 #@! TA.AperFunction,Conductor*
G04 #@! TO.N,GND*
G36*
X17190629Y-8944111D02*
G01*
X17199187Y-8948472D01*
X17199188Y-8948472D01*
X17199188Y-8948472D01*
X17209151Y-8950050D01*
X17209151Y-8950050D01*
X17250849Y-8950050D01*
X17260812Y-8948472D01*
X17260812Y-8948472D01*
X17260813Y-8948472D01*
X17260813Y-8948472D01*
X17261416Y-8948276D01*
X17268400Y-8948076D01*
X17274384Y-8951683D01*
X17275708Y-8953487D01*
X17275949Y-8953802D01*
X17336327Y-9014179D01*
X17339675Y-9020311D01*
X17339177Y-9027281D01*
X17334990Y-9032874D01*
X17332304Y-9034403D01*
X17324716Y-9037546D01*
X17324716Y-9037546D01*
X17312172Y-9047172D01*
X17309837Y-9050214D01*
X17304195Y-9054334D01*
X17297220Y-9054750D01*
X17291128Y-9051328D01*
X17290163Y-9050215D01*
X17287828Y-9047172D01*
X17275284Y-9037546D01*
X17270769Y-9035676D01*
X17260676Y-9031496D01*
X17260676Y-9031496D01*
X17248937Y-9029950D01*
X17248937Y-9029950D01*
X17248936Y-9029950D01*
X17248935Y-9029950D01*
X17151064Y-9029950D01*
X17139325Y-9031495D01*
X17139324Y-9031496D01*
X17124716Y-9037546D01*
X17112172Y-9047172D01*
X17102546Y-9059716D01*
X17096496Y-9074324D01*
X17096496Y-9074324D01*
X17094950Y-9086064D01*
X17094950Y-9158936D01*
X17096495Y-9170675D01*
X17096496Y-9170676D01*
X17102546Y-9185284D01*
X17112172Y-9197828D01*
X17122577Y-9205813D01*
X17123528Y-9206542D01*
X17127648Y-9212185D01*
X17128064Y-9219159D01*
X17124643Y-9225251D01*
X17122489Y-9226933D01*
X17108166Y-9235768D01*
X17108166Y-9235768D01*
X17095768Y-9248165D01*
X17086564Y-9263088D01*
X17086564Y-9263088D01*
X17081049Y-9279730D01*
X17081049Y-9279731D01*
X17080000Y-9290001D01*
X17080000Y-9295000D01*
X17587600Y-9295000D01*
X17594304Y-9296969D01*
X17598879Y-9302249D01*
X17600000Y-9307400D01*
X17600000Y-9327500D01*
X17620100Y-9327500D01*
X17626804Y-9329469D01*
X17631379Y-9334749D01*
X17632500Y-9339900D01*
X17632500Y-9435000D01*
X17649997Y-9435000D01*
X17649999Y-9435000D01*
X17660270Y-9433951D01*
X17676912Y-9428436D01*
X17676912Y-9428436D01*
X17691835Y-9419232D01*
X17704232Y-9406835D01*
X17713436Y-9391912D01*
X17713436Y-9391912D01*
X17718951Y-9375270D01*
X17719092Y-9374607D01*
X17719248Y-9374640D01*
X17721576Y-9368933D01*
X17727294Y-9364917D01*
X17734275Y-9364630D01*
X17740041Y-9367894D01*
X17766199Y-9394051D01*
X17775145Y-9399216D01*
X17778752Y-9401298D01*
X17792753Y-9405050D01*
X18192753Y-9405050D01*
X18192753Y-9405050D01*
X18207247Y-9405050D01*
X19048061Y-9405050D01*
X19054765Y-9407019D01*
X19056829Y-9408682D01*
X19201318Y-9553171D01*
X19204667Y-9559303D01*
X19204950Y-9561939D01*
X19204950Y-9687326D01*
X19205943Y-9694139D01*
X19211080Y-9704649D01*
X19219351Y-9712920D01*
X19219352Y-9712920D01*
X19219352Y-9712920D01*
X19229861Y-9718057D01*
X19233267Y-9718554D01*
X19236674Y-9719050D01*
X19236674Y-9719050D01*
X19413326Y-9719050D01*
X19415597Y-9718719D01*
X19420139Y-9718057D01*
X19430648Y-9712920D01*
X19438920Y-9704648D01*
X19444057Y-9694139D01*
X19445050Y-9687326D01*
X19445050Y-9658149D01*
X19447019Y-9651446D01*
X19451250Y-9647411D01*
X19458802Y-9643051D01*
X19503782Y-9598071D01*
X19509914Y-9594722D01*
X19516883Y-9595221D01*
X19522477Y-9599408D01*
X19524918Y-9605954D01*
X19524950Y-9606839D01*
X19524950Y-10437550D01*
X19522982Y-10444254D01*
X19517701Y-10448829D01*
X19512550Y-10449950D01*
X15662400Y-10449950D01*
X15655696Y-10447982D01*
X15651121Y-10442701D01*
X15650000Y-10437550D01*
X15650000Y-9736674D01*
X16429950Y-9736674D01*
X16429950Y-9913326D01*
X16430943Y-9920139D01*
X16436080Y-9930649D01*
X16444351Y-9938920D01*
X16444351Y-9938920D01*
X16444352Y-9938920D01*
X16454861Y-9944057D01*
X16458267Y-9944554D01*
X16461674Y-9945050D01*
X16461674Y-9945050D01*
X16638326Y-9945050D01*
X16640597Y-9944719D01*
X16645139Y-9944057D01*
X16655648Y-9938920D01*
X16663920Y-9930648D01*
X16669057Y-9920139D01*
X16670050Y-9913326D01*
X16670050Y-9878191D01*
X16672018Y-9871487D01*
X16677299Y-9866912D01*
X16684215Y-9865917D01*
X16690570Y-9868820D01*
X16693498Y-9872561D01*
X16701324Y-9887920D01*
X16712431Y-9903207D01*
X16725793Y-9916569D01*
X16741080Y-9927676D01*
X16746914Y-9930648D01*
X16757916Y-9936255D01*
X16757916Y-9936255D01*
X16757917Y-9936255D01*
X16766118Y-9938920D01*
X16775888Y-9942094D01*
X16794551Y-9945050D01*
X16794552Y-9945050D01*
X16813449Y-9945050D01*
X16832112Y-9942094D01*
X16837135Y-9940462D01*
X16850083Y-9936255D01*
X16866920Y-9927676D01*
X16882207Y-9916569D01*
X16895569Y-9903207D01*
X16906676Y-9887920D01*
X16915255Y-9871083D01*
X16919207Y-9858920D01*
X16923151Y-9853152D01*
X16929587Y-9850432D01*
X16936471Y-9851624D01*
X16941619Y-9856348D01*
X16942793Y-9858920D01*
X16946745Y-9871084D01*
X16951990Y-9881376D01*
X16955324Y-9887920D01*
X16966431Y-9903207D01*
X16979793Y-9916569D01*
X16995080Y-9927676D01*
X17000914Y-9930648D01*
X17011916Y-9936255D01*
X17011917Y-9936255D01*
X17011917Y-9936255D01*
X17020119Y-9938920D01*
X17029888Y-9942094D01*
X17048551Y-9945050D01*
X17048552Y-9945050D01*
X17067449Y-9945050D01*
X17086112Y-9942094D01*
X17091135Y-9940462D01*
X17104083Y-9936255D01*
X17120920Y-9927676D01*
X17136207Y-9916569D01*
X17149569Y-9903207D01*
X17160676Y-9887920D01*
X17165562Y-9878330D01*
X17170360Y-9873251D01*
X17177142Y-9871571D01*
X17183755Y-9873825D01*
X17187659Y-9878330D01*
X17196538Y-9895756D01*
X17209027Y-9912946D01*
X17209028Y-9912946D01*
X17224054Y-9927972D01*
X17224054Y-9927973D01*
X17241244Y-9940462D01*
X17260178Y-9950109D01*
X17260178Y-9950110D01*
X17279500Y-9956387D01*
X17279500Y-9956387D01*
X17279500Y-9863211D01*
X17281299Y-9865010D01*
X17292701Y-9871593D01*
X17305417Y-9875000D01*
X17318583Y-9875000D01*
X17331299Y-9871593D01*
X17342701Y-9865010D01*
X17344500Y-9863211D01*
X17344500Y-9956387D01*
X17363822Y-9950110D01*
X17363822Y-9950109D01*
X17382756Y-9940462D01*
X17399946Y-9927973D01*
X17399946Y-9927972D01*
X17414972Y-9912946D01*
X17414973Y-9912946D01*
X17427462Y-9895756D01*
X17437109Y-9876822D01*
X17443388Y-9857500D01*
X17350211Y-9857500D01*
X17352010Y-9855701D01*
X17358593Y-9844299D01*
X17362000Y-9831583D01*
X17362000Y-9818417D01*
X17358593Y-9805701D01*
X17352010Y-9794299D01*
X17350211Y-9792500D01*
X17443388Y-9792500D01*
X17443387Y-9792500D01*
X17437109Y-9773178D01*
X17427462Y-9754244D01*
X17419666Y-9743514D01*
X17419666Y-9743514D01*
X17414972Y-9737053D01*
X17414593Y-9736674D01*
X17904950Y-9736674D01*
X17904950Y-9913326D01*
X17905943Y-9920139D01*
X17911080Y-9930649D01*
X17919351Y-9938920D01*
X17919352Y-9938920D01*
X17919352Y-9938920D01*
X17929861Y-9944057D01*
X17933267Y-9944554D01*
X17936674Y-9945050D01*
X17936674Y-9945050D01*
X18113326Y-9945050D01*
X18115597Y-9944719D01*
X18120139Y-9944057D01*
X18130648Y-9938920D01*
X18138920Y-9930648D01*
X18144057Y-9920139D01*
X18145050Y-9913326D01*
X18145050Y-9878191D01*
X18147019Y-9871487D01*
X18152299Y-9866912D01*
X18159215Y-9865917D01*
X18165570Y-9868820D01*
X18168498Y-9872561D01*
X18176324Y-9887920D01*
X18187431Y-9903207D01*
X18200793Y-9916569D01*
X18216080Y-9927676D01*
X18221914Y-9930648D01*
X18232916Y-9936255D01*
X18232917Y-9936255D01*
X18232917Y-9936255D01*
X18241119Y-9938920D01*
X18250888Y-9942094D01*
X18269551Y-9945050D01*
X18269552Y-9945050D01*
X18288449Y-9945050D01*
X18307112Y-9942094D01*
X18312135Y-9940462D01*
X18325083Y-9936255D01*
X18341920Y-9927676D01*
X18357207Y-9916569D01*
X18370569Y-9903207D01*
X18381676Y-9887920D01*
X18386562Y-9878330D01*
X18391360Y-9873251D01*
X18398142Y-9871571D01*
X18404755Y-9873825D01*
X18408659Y-9878330D01*
X18417538Y-9895756D01*
X18430027Y-9912946D01*
X18430028Y-9912946D01*
X18445054Y-9927972D01*
X18445054Y-9927973D01*
X18462244Y-9940462D01*
X18481178Y-9950109D01*
X18481178Y-9950110D01*
X18500500Y-9956387D01*
X18500500Y-9956387D01*
X18500500Y-9863211D01*
X18502299Y-9865010D01*
X18513701Y-9871593D01*
X18526417Y-9875000D01*
X18539583Y-9875000D01*
X18552299Y-9871593D01*
X18563701Y-9865010D01*
X18565500Y-9863211D01*
X18565500Y-9956387D01*
X18584822Y-9950110D01*
X18584822Y-9950109D01*
X18603756Y-9940462D01*
X18620946Y-9927973D01*
X18620946Y-9927972D01*
X18635972Y-9912946D01*
X18635973Y-9912946D01*
X18648462Y-9895756D01*
X18658109Y-9876822D01*
X18664388Y-9857500D01*
X18571211Y-9857500D01*
X18573010Y-9855701D01*
X18579593Y-9844299D01*
X18583000Y-9831583D01*
X18583000Y-9818417D01*
X18579593Y-9805701D01*
X18573010Y-9794299D01*
X18571211Y-9792500D01*
X18664388Y-9792500D01*
X18664387Y-9792500D01*
X18658109Y-9773178D01*
X18648462Y-9754244D01*
X18635973Y-9737054D01*
X18635972Y-9737054D01*
X18620946Y-9722028D01*
X18620946Y-9722027D01*
X18603756Y-9709538D01*
X18584822Y-9699891D01*
X18565500Y-9693613D01*
X18565500Y-9786789D01*
X18563701Y-9784990D01*
X18552299Y-9778408D01*
X18539583Y-9775000D01*
X18526417Y-9775000D01*
X18513701Y-9778408D01*
X18502299Y-9784990D01*
X18500500Y-9786789D01*
X18500500Y-9693613D01*
X18500500Y-9693613D01*
X18481178Y-9699891D01*
X18462244Y-9709538D01*
X18445054Y-9722027D01*
X18445054Y-9722028D01*
X18430028Y-9737054D01*
X18430027Y-9737054D01*
X18417538Y-9754245D01*
X18417538Y-9754245D01*
X18408659Y-9771670D01*
X18403862Y-9776749D01*
X18397080Y-9778429D01*
X18390466Y-9776175D01*
X18386562Y-9771670D01*
X18381676Y-9762080D01*
X18370569Y-9746793D01*
X18357207Y-9733431D01*
X18341920Y-9722324D01*
X18341337Y-9722027D01*
X18325084Y-9713745D01*
X18307112Y-9707906D01*
X18288449Y-9704950D01*
X18288448Y-9704950D01*
X18269552Y-9704950D01*
X18269551Y-9704950D01*
X18250888Y-9707906D01*
X18232916Y-9713745D01*
X18216080Y-9722324D01*
X18207358Y-9728661D01*
X18200793Y-9733431D01*
X18200793Y-9733431D01*
X18200792Y-9733431D01*
X18187431Y-9746792D01*
X18187431Y-9746793D01*
X18187431Y-9746793D01*
X18182661Y-9753358D01*
X18176324Y-9762080D01*
X18168499Y-9777439D01*
X18163701Y-9782518D01*
X18156919Y-9784198D01*
X18150305Y-9781944D01*
X18145960Y-9776472D01*
X18145050Y-9771809D01*
X18145050Y-9736674D01*
X18144057Y-9729861D01*
X18144057Y-9729861D01*
X18138920Y-9719352D01*
X18138920Y-9719352D01*
X18138920Y-9719351D01*
X18130649Y-9711080D01*
X18120139Y-9705943D01*
X18113326Y-9704950D01*
X18113326Y-9704950D01*
X17936674Y-9704950D01*
X17936674Y-9704950D01*
X17929861Y-9705943D01*
X17919351Y-9711080D01*
X17911080Y-9719351D01*
X17905943Y-9729861D01*
X17904950Y-9736674D01*
X17414593Y-9736674D01*
X17399946Y-9722028D01*
X17399946Y-9722027D01*
X17382756Y-9709538D01*
X17363822Y-9699891D01*
X17344500Y-9693613D01*
X17344500Y-9786789D01*
X17342701Y-9784990D01*
X17331299Y-9778408D01*
X17318583Y-9775000D01*
X17305417Y-9775000D01*
X17292701Y-9778408D01*
X17281299Y-9784990D01*
X17279500Y-9786789D01*
X17279500Y-9693613D01*
X17279500Y-9693613D01*
X17260178Y-9699891D01*
X17241244Y-9709538D01*
X17224054Y-9722027D01*
X17224054Y-9722028D01*
X17209028Y-9737054D01*
X17209027Y-9737054D01*
X17196538Y-9754245D01*
X17196538Y-9754245D01*
X17187659Y-9771670D01*
X17182862Y-9776749D01*
X17176080Y-9778429D01*
X17169466Y-9776175D01*
X17165562Y-9771670D01*
X17160676Y-9762080D01*
X17149569Y-9746793D01*
X17136207Y-9733431D01*
X17120920Y-9722324D01*
X17120337Y-9722027D01*
X17104084Y-9713745D01*
X17086112Y-9707906D01*
X17067449Y-9704950D01*
X17067448Y-9704950D01*
X17048552Y-9704950D01*
X17048551Y-9704950D01*
X17029888Y-9707906D01*
X17011916Y-9713745D01*
X16995080Y-9722324D01*
X16986358Y-9728661D01*
X16979793Y-9733431D01*
X16979793Y-9733431D01*
X16979792Y-9733431D01*
X16966431Y-9746792D01*
X16966431Y-9746793D01*
X16966431Y-9746793D01*
X16961661Y-9753358D01*
X16955324Y-9762080D01*
X16946745Y-9778916D01*
X16942793Y-9791080D01*
X16938849Y-9796848D01*
X16932413Y-9799568D01*
X16925529Y-9798376D01*
X16920381Y-9793652D01*
X16919207Y-9791080D01*
X16916425Y-9782518D01*
X16915255Y-9778917D01*
X16915255Y-9778917D01*
X16915255Y-9778916D01*
X16906676Y-9762080D01*
X16895569Y-9746793D01*
X16882207Y-9733431D01*
X16866920Y-9722324D01*
X16866337Y-9722027D01*
X16850084Y-9713745D01*
X16832112Y-9707906D01*
X16813449Y-9704950D01*
X16813448Y-9704950D01*
X16794552Y-9704950D01*
X16794551Y-9704950D01*
X16775888Y-9707906D01*
X16757916Y-9713745D01*
X16741080Y-9722324D01*
X16732358Y-9728661D01*
X16725793Y-9733431D01*
X16725792Y-9733431D01*
X16725792Y-9733431D01*
X16712431Y-9746792D01*
X16712431Y-9746793D01*
X16712431Y-9746793D01*
X16707661Y-9753358D01*
X16701324Y-9762080D01*
X16693498Y-9777439D01*
X16688701Y-9782518D01*
X16681919Y-9784198D01*
X16675305Y-9781944D01*
X16670960Y-9776472D01*
X16670050Y-9771809D01*
X16670050Y-9736674D01*
X16669057Y-9729861D01*
X16669057Y-9729861D01*
X16663920Y-9719352D01*
X16663920Y-9719352D01*
X16663920Y-9719351D01*
X16655648Y-9711080D01*
X16645139Y-9705943D01*
X16638326Y-9704950D01*
X16638326Y-9704950D01*
X16461674Y-9704950D01*
X16461674Y-9704950D01*
X16454861Y-9705943D01*
X16444351Y-9711080D01*
X16436080Y-9719351D01*
X16430943Y-9729861D01*
X16429950Y-9736674D01*
X15650000Y-9736674D01*
X15650000Y-9322450D01*
X15651968Y-9315746D01*
X15657249Y-9311171D01*
X15662400Y-9310050D01*
X16044990Y-9310050D01*
X16051694Y-9312019D01*
X16053758Y-9313682D01*
X16115628Y-9375552D01*
X16115629Y-9375552D01*
X16115629Y-9375552D01*
X16128340Y-9382891D01*
X16129322Y-9383458D01*
X16144594Y-9387550D01*
X16144594Y-9387550D01*
X16161165Y-9387550D01*
X16161167Y-9387550D01*
X16569333Y-9387550D01*
X16576037Y-9389519D01*
X16579171Y-9392401D01*
X16587172Y-9402828D01*
X16599716Y-9412454D01*
X16614324Y-9418504D01*
X16626064Y-9420050D01*
X16723936Y-9420050D01*
X16723936Y-9420050D01*
X16735675Y-9418505D01*
X16735676Y-9418504D01*
X16735676Y-9418504D01*
X16750284Y-9412454D01*
X16762828Y-9402828D01*
X16765162Y-9399786D01*
X16770805Y-9395666D01*
X16777780Y-9395250D01*
X16783872Y-9398671D01*
X16784837Y-9399785D01*
X16787172Y-9402828D01*
X16799716Y-9412454D01*
X16814324Y-9418504D01*
X16826064Y-9420050D01*
X16923936Y-9420050D01*
X16923936Y-9420050D01*
X16935675Y-9418505D01*
X16935676Y-9418504D01*
X16935676Y-9418504D01*
X16950284Y-9412454D01*
X16962828Y-9402828D01*
X16972454Y-9390284D01*
X16978504Y-9375676D01*
X16979910Y-9364999D01*
X17080000Y-9364999D01*
X17081049Y-9375270D01*
X17086564Y-9391912D01*
X17086564Y-9391912D01*
X17095768Y-9406835D01*
X17108165Y-9419232D01*
X17123088Y-9428436D01*
X17123088Y-9428436D01*
X17139730Y-9433951D01*
X17139731Y-9433951D01*
X17150002Y-9435000D01*
X17167500Y-9435000D01*
X17232500Y-9435000D01*
X17249997Y-9435000D01*
X17249999Y-9435000D01*
X17260270Y-9433951D01*
X17276912Y-9428436D01*
X17276912Y-9428436D01*
X17291834Y-9419232D01*
X17292308Y-9418857D01*
X17298788Y-9416242D01*
X17305652Y-9417546D01*
X17307692Y-9418857D01*
X17308166Y-9419232D01*
X17323088Y-9428436D01*
X17323088Y-9428436D01*
X17339730Y-9433951D01*
X17339731Y-9433951D01*
X17350002Y-9435000D01*
X17367500Y-9435000D01*
X17432500Y-9435000D01*
X17449997Y-9435000D01*
X17449999Y-9435000D01*
X17460270Y-9433951D01*
X17476912Y-9428436D01*
X17476912Y-9428436D01*
X17491834Y-9419232D01*
X17492308Y-9418857D01*
X17498788Y-9416242D01*
X17505652Y-9417546D01*
X17507692Y-9418857D01*
X17508166Y-9419232D01*
X17523088Y-9428436D01*
X17523088Y-9428436D01*
X17539730Y-9433951D01*
X17539731Y-9433951D01*
X17550002Y-9435000D01*
X17567500Y-9435000D01*
X17567500Y-9435000D01*
X17567500Y-9360000D01*
X17432500Y-9360000D01*
X17432500Y-9435000D01*
X17367500Y-9435000D01*
X17367500Y-9435000D01*
X17367500Y-9360000D01*
X17232500Y-9360000D01*
X17232500Y-9435000D01*
X17167500Y-9435000D01*
X17167500Y-9435000D01*
X17167500Y-9360000D01*
X17080000Y-9360000D01*
X17080000Y-9364999D01*
X16979910Y-9364999D01*
X16980050Y-9363936D01*
X16980050Y-9327500D01*
X16980050Y-9291064D01*
X16978505Y-9279325D01*
X16978504Y-9279324D01*
X16978504Y-9279324D01*
X16972454Y-9264716D01*
X16962828Y-9252172D01*
X16962828Y-9252172D01*
X16962828Y-9252172D01*
X16951472Y-9243458D01*
X16947352Y-9237815D01*
X16946936Y-9230841D01*
X16950357Y-9224749D01*
X16952511Y-9223066D01*
X16966834Y-9214232D01*
X16966834Y-9214232D01*
X16979232Y-9201835D01*
X16988436Y-9186912D01*
X16988436Y-9186912D01*
X16993951Y-9170270D01*
X16993951Y-9170269D01*
X16995000Y-9159999D01*
X16995000Y-9159997D01*
X16995000Y-9155000D01*
X16887400Y-9155000D01*
X16880696Y-9153032D01*
X16876121Y-9147751D01*
X16875000Y-9142600D01*
X16875000Y-9122500D01*
X16854900Y-9122500D01*
X16848196Y-9120532D01*
X16843621Y-9115251D01*
X16842500Y-9110100D01*
X16842500Y-9090000D01*
X16907500Y-9090000D01*
X16995000Y-9090000D01*
X16995000Y-9085003D01*
X16995000Y-9085001D01*
X16993951Y-9074730D01*
X16988436Y-9058088D01*
X16988436Y-9058088D01*
X16979232Y-9043165D01*
X16966835Y-9030768D01*
X16951912Y-9021564D01*
X16951912Y-9021564D01*
X16935270Y-9016049D01*
X16935269Y-9016049D01*
X16924999Y-9015000D01*
X16907500Y-9015000D01*
X16907500Y-9090000D01*
X16842500Y-9090000D01*
X16842500Y-9015000D01*
X16825003Y-9015000D01*
X16825001Y-9015000D01*
X16814730Y-9016049D01*
X16798088Y-9021564D01*
X16798088Y-9021564D01*
X16783165Y-9030768D01*
X16772743Y-9041190D01*
X16772676Y-9041227D01*
X16772638Y-9041294D01*
X16769613Y-9042899D01*
X16766611Y-9044539D01*
X16766534Y-9044533D01*
X16766467Y-9044569D01*
X16763053Y-9044284D01*
X16759642Y-9044040D01*
X16759555Y-9043992D01*
X16759504Y-9043988D01*
X16756427Y-9042260D01*
X16752298Y-9039092D01*
X16748178Y-9033449D01*
X16747762Y-9026474D01*
X16747868Y-9026047D01*
X16750050Y-9017906D01*
X16750050Y-9002094D01*
X16750050Y-9001335D01*
X16750050Y-9001333D01*
X16750050Y-8977400D01*
X16752018Y-8970696D01*
X16757299Y-8966121D01*
X16762450Y-8965000D01*
X16801268Y-8965000D01*
X16801270Y-8965000D01*
X16812510Y-8963520D01*
X16812511Y-8963520D01*
X16826498Y-8957726D01*
X16834439Y-8951633D01*
X16840956Y-8949113D01*
X16843928Y-8949223D01*
X16849151Y-8950050D01*
X16849151Y-8950050D01*
X16890849Y-8950050D01*
X16900812Y-8948472D01*
X16900812Y-8948472D01*
X16900813Y-8948472D01*
X16909371Y-8944111D01*
X16916237Y-8942822D01*
X16920629Y-8944111D01*
X16929187Y-8948472D01*
X16929188Y-8948472D01*
X16929188Y-8948472D01*
X16939151Y-8950050D01*
X16939151Y-8950050D01*
X16980849Y-8950050D01*
X16990812Y-8948472D01*
X16990812Y-8948472D01*
X16990813Y-8948472D01*
X16999371Y-8944111D01*
X17006237Y-8942822D01*
X17010629Y-8944111D01*
X17019187Y-8948472D01*
X17019188Y-8948472D01*
X17019188Y-8948472D01*
X17029151Y-8950050D01*
X17029151Y-8950050D01*
X17070849Y-8950050D01*
X17080812Y-8948472D01*
X17080812Y-8948472D01*
X17080813Y-8948472D01*
X17089371Y-8944111D01*
X17096237Y-8942822D01*
X17100629Y-8944111D01*
X17109187Y-8948472D01*
X17109188Y-8948472D01*
X17109188Y-8948472D01*
X17119151Y-8950050D01*
X17119151Y-8950050D01*
X17160849Y-8950050D01*
X17170812Y-8948472D01*
X17170812Y-8948472D01*
X17170813Y-8948472D01*
X17179371Y-8944111D01*
X17186237Y-8942822D01*
X17190629Y-8944111D01*
G37*
G04 #@! TD.AperFunction*
G04 #@! TA.AperFunction,Conductor*
G36*
X19228765Y-6682018D02*
G01*
X19230829Y-6683682D01*
X19248182Y-6701035D01*
X19251531Y-6707167D01*
X19251032Y-6714136D01*
X19246845Y-6719729D01*
X19244860Y-6720943D01*
X19234352Y-6726080D01*
X19226080Y-6734351D01*
X19220943Y-6744861D01*
X19219950Y-6751674D01*
X19219950Y-6998326D01*
X19220943Y-7005139D01*
X19226080Y-7015648D01*
X19234351Y-7023920D01*
X19234352Y-7023920D01*
X19234352Y-7023920D01*
X19244861Y-7029057D01*
X19248267Y-7029554D01*
X19251674Y-7030050D01*
X19251674Y-7030050D01*
X19307550Y-7030050D01*
X19314254Y-7032018D01*
X19318829Y-7037299D01*
X19319950Y-7042450D01*
X19319950Y-7078747D01*
X19320663Y-7081407D01*
X19320727Y-7081646D01*
X19320727Y-7081646D01*
X19323702Y-7092748D01*
X19330949Y-7105301D01*
X19330949Y-7105302D01*
X19441318Y-7215671D01*
X19444667Y-7221803D01*
X19444950Y-7224439D01*
X19444950Y-7466095D01*
X19442982Y-7472799D01*
X19437701Y-7477374D01*
X19430785Y-7478369D01*
X19424430Y-7475466D01*
X19423782Y-7474863D01*
X19412946Y-7464028D01*
X19412946Y-7464027D01*
X19395756Y-7451538D01*
X19376822Y-7441891D01*
X19357500Y-7435612D01*
X19357500Y-7528789D01*
X19355701Y-7526990D01*
X19344299Y-7520407D01*
X19331583Y-7517000D01*
X19318417Y-7517000D01*
X19305701Y-7520407D01*
X19294299Y-7526990D01*
X19292500Y-7528789D01*
X19292500Y-7435612D01*
X19292500Y-7435612D01*
X19273178Y-7441891D01*
X19254244Y-7451538D01*
X19237054Y-7464027D01*
X19237054Y-7464028D01*
X19222028Y-7479053D01*
X19222027Y-7479054D01*
X19209538Y-7496244D01*
X19199891Y-7515178D01*
X19193613Y-7534500D01*
X19193613Y-7534500D01*
X19286789Y-7534500D01*
X19284990Y-7536299D01*
X19278408Y-7547701D01*
X19275000Y-7560417D01*
X19275000Y-7573583D01*
X19278408Y-7586299D01*
X19284990Y-7597701D01*
X19286789Y-7599500D01*
X19193613Y-7599500D01*
X19199891Y-7618822D01*
X19209538Y-7637756D01*
X19222027Y-7654946D01*
X19222028Y-7654946D01*
X19237054Y-7669972D01*
X19237054Y-7669973D01*
X19254244Y-7682462D01*
X19271670Y-7691341D01*
X19276749Y-7696138D01*
X19278429Y-7702920D01*
X19276175Y-7709534D01*
X19271670Y-7713438D01*
X19262080Y-7718324D01*
X19258667Y-7720804D01*
X19246793Y-7729431D01*
X19246793Y-7729431D01*
X19246792Y-7729431D01*
X19233431Y-7742792D01*
X19233431Y-7742792D01*
X19233431Y-7742793D01*
X19228661Y-7749358D01*
X19222324Y-7758080D01*
X19213745Y-7774916D01*
X19207906Y-7792888D01*
X19204950Y-7811551D01*
X19204950Y-7830449D01*
X19207906Y-7849112D01*
X19213745Y-7867084D01*
X19221940Y-7883166D01*
X19222324Y-7883920D01*
X19233431Y-7899207D01*
X19246793Y-7912569D01*
X19262080Y-7923676D01*
X19266768Y-7926064D01*
X19278916Y-7932254D01*
X19278917Y-7932254D01*
X19278917Y-7932255D01*
X19287873Y-7935165D01*
X19291080Y-7936207D01*
X19296848Y-7940151D01*
X19299568Y-7946587D01*
X19298376Y-7953471D01*
X19293652Y-7958619D01*
X19291080Y-7959793D01*
X19278916Y-7963745D01*
X19262080Y-7972324D01*
X19254782Y-7977626D01*
X19246793Y-7983431D01*
X19246793Y-7983431D01*
X19246792Y-7983431D01*
X19233431Y-7996792D01*
X19233431Y-7996792D01*
X19233431Y-7996793D01*
X19230918Y-8000251D01*
X19222324Y-8012080D01*
X19213745Y-8028916D01*
X19207906Y-8046888D01*
X19204950Y-8065551D01*
X19204950Y-8084449D01*
X19207906Y-8103112D01*
X19213745Y-8121084D01*
X19216155Y-8125813D01*
X19222324Y-8137920D01*
X19233431Y-8153207D01*
X19246793Y-8166569D01*
X19262080Y-8177676D01*
X19268679Y-8181038D01*
X19278916Y-8186254D01*
X19278917Y-8186254D01*
X19278917Y-8186255D01*
X19287873Y-8189165D01*
X19291080Y-8190207D01*
X19296848Y-8194151D01*
X19299568Y-8200587D01*
X19298376Y-8207471D01*
X19293652Y-8212619D01*
X19291080Y-8213793D01*
X19278916Y-8217745D01*
X19262080Y-8226324D01*
X19257486Y-8229662D01*
X19246793Y-8237431D01*
X19246793Y-8237431D01*
X19246792Y-8237431D01*
X19233431Y-8250792D01*
X19233431Y-8250792D01*
X19233431Y-8250793D01*
X19230991Y-8254151D01*
X19222324Y-8266080D01*
X19213745Y-8282916D01*
X19207906Y-8300888D01*
X19204950Y-8319551D01*
X19204950Y-8338449D01*
X19207906Y-8357112D01*
X19213745Y-8375084D01*
X19219419Y-8386218D01*
X19222324Y-8391920D01*
X19233431Y-8407207D01*
X19246793Y-8420569D01*
X19262080Y-8431676D01*
X19269744Y-8435581D01*
X19278916Y-8440255D01*
X19278917Y-8440255D01*
X19278917Y-8440255D01*
X19287115Y-8442918D01*
X19291080Y-8444207D01*
X19296848Y-8448151D01*
X19299568Y-8454587D01*
X19298376Y-8461471D01*
X19293652Y-8466619D01*
X19291080Y-8467793D01*
X19278916Y-8471745D01*
X19262080Y-8480324D01*
X19254526Y-8485812D01*
X19246793Y-8491431D01*
X19246793Y-8491431D01*
X19246792Y-8491431D01*
X19233431Y-8504792D01*
X19233431Y-8504793D01*
X19233431Y-8504793D01*
X19229657Y-8509988D01*
X19222324Y-8520080D01*
X19213745Y-8536916D01*
X19207906Y-8554888D01*
X19204950Y-8573551D01*
X19204950Y-8592449D01*
X19207906Y-8611112D01*
X19213745Y-8629084D01*
X19220055Y-8641467D01*
X19222324Y-8645920D01*
X19233431Y-8661207D01*
X19246793Y-8674569D01*
X19262080Y-8685676D01*
X19265016Y-8687172D01*
X19278916Y-8694255D01*
X19278917Y-8694255D01*
X19278917Y-8694255D01*
X19287873Y-8697165D01*
X19291080Y-8698207D01*
X19296848Y-8702151D01*
X19299568Y-8708587D01*
X19298376Y-8715471D01*
X19293652Y-8720619D01*
X19291080Y-8721793D01*
X19278916Y-8725745D01*
X19262080Y-8734324D01*
X19258009Y-8737282D01*
X19246793Y-8745431D01*
X19246793Y-8745431D01*
X19246792Y-8745431D01*
X19233431Y-8758792D01*
X19233431Y-8758793D01*
X19233431Y-8758793D01*
X19231735Y-8761127D01*
X19222324Y-8774080D01*
X19213745Y-8790916D01*
X19207906Y-8808888D01*
X19204950Y-8827551D01*
X19204950Y-8846449D01*
X19207906Y-8865112D01*
X19213745Y-8883084D01*
X19215829Y-8887172D01*
X19222324Y-8899920D01*
X19233431Y-8915207D01*
X19246793Y-8928569D01*
X19262080Y-8939676D01*
X19268254Y-8942822D01*
X19278916Y-8948255D01*
X19278917Y-8948255D01*
X19278917Y-8948255D01*
X19284523Y-8950076D01*
X19291080Y-8952207D01*
X19296848Y-8956151D01*
X19299568Y-8962587D01*
X19298376Y-8969471D01*
X19293652Y-8974619D01*
X19291080Y-8975793D01*
X19278916Y-8979745D01*
X19262080Y-8988324D01*
X19255985Y-8992753D01*
X19246793Y-8999431D01*
X19246793Y-8999431D01*
X19246792Y-8999431D01*
X19233431Y-9012792D01*
X19233431Y-9012793D01*
X19233431Y-9012793D01*
X19229716Y-9017905D01*
X19222324Y-9028080D01*
X19213745Y-9044916D01*
X19207906Y-9062888D01*
X19204950Y-9081551D01*
X19204950Y-9100449D01*
X19207906Y-9119112D01*
X19213745Y-9137084D01*
X19217365Y-9144188D01*
X19222324Y-9153920D01*
X19233431Y-9169207D01*
X19246793Y-9182569D01*
X19262080Y-9193676D01*
X19270035Y-9197729D01*
X19278916Y-9202255D01*
X19278917Y-9202255D01*
X19278917Y-9202255D01*
X19283702Y-9203810D01*
X19291080Y-9206207D01*
X19296848Y-9210151D01*
X19299568Y-9216587D01*
X19298376Y-9223471D01*
X19293652Y-9228619D01*
X19291080Y-9229793D01*
X19278916Y-9233745D01*
X19262080Y-9242324D01*
X19254040Y-9248165D01*
X19246793Y-9253431D01*
X19246793Y-9253431D01*
X19246792Y-9253431D01*
X19233431Y-9266792D01*
X19233431Y-9266793D01*
X19233431Y-9266793D01*
X19229318Y-9272454D01*
X19222324Y-9282080D01*
X19213745Y-9298916D01*
X19207906Y-9316888D01*
X19204950Y-9335551D01*
X19204950Y-9354449D01*
X19207759Y-9372183D01*
X19206863Y-9379112D01*
X19202364Y-9384458D01*
X19195689Y-9386522D01*
X19188957Y-9384649D01*
X19186743Y-9382891D01*
X19109802Y-9305949D01*
X19109802Y-9305949D01*
X19097249Y-9298702D01*
X19097248Y-9298702D01*
X19094824Y-9298052D01*
X19094824Y-9298052D01*
X19089036Y-9296501D01*
X19083248Y-9294950D01*
X19083247Y-9294950D01*
X18297496Y-9294950D01*
X18290792Y-9292982D01*
X18286216Y-9287701D01*
X18285222Y-9280785D01*
X18288124Y-9274430D01*
X18289947Y-9272712D01*
X18290284Y-9272454D01*
X18302828Y-9262828D01*
X18312454Y-9250284D01*
X18318504Y-9235676D01*
X18320050Y-9223936D01*
X18320050Y-9126064D01*
X18320050Y-9126064D01*
X18320050Y-9126064D01*
X18318505Y-9114325D01*
X18318504Y-9114324D01*
X18318504Y-9114324D01*
X18312454Y-9099716D01*
X18302828Y-9087172D01*
X18299786Y-9084837D01*
X18295666Y-9079195D01*
X18295250Y-9072220D01*
X18298671Y-9066128D01*
X18299785Y-9065163D01*
X18302828Y-9062828D01*
X18312454Y-9050284D01*
X18318504Y-9035676D01*
X18320050Y-9023936D01*
X18320050Y-8926064D01*
X18320050Y-8926064D01*
X18320050Y-8926064D01*
X18318505Y-8914325D01*
X18318504Y-8914324D01*
X18318504Y-8914324D01*
X18312454Y-8899716D01*
X18302828Y-8887172D01*
X18299786Y-8884837D01*
X18295666Y-8879195D01*
X18295250Y-8872220D01*
X18298671Y-8866128D01*
X18299785Y-8865163D01*
X18302828Y-8862828D01*
X18312454Y-8850284D01*
X18318504Y-8835676D01*
X18320050Y-8823936D01*
X18320050Y-8726064D01*
X18320050Y-8726064D01*
X18320050Y-8726064D01*
X18318505Y-8714325D01*
X18318504Y-8714324D01*
X18318504Y-8714324D01*
X18312454Y-8699716D01*
X18302828Y-8687172D01*
X18299786Y-8684837D01*
X18295666Y-8679195D01*
X18295250Y-8672220D01*
X18298671Y-8666128D01*
X18299785Y-8665163D01*
X18302828Y-8662828D01*
X18312454Y-8650284D01*
X18318504Y-8635676D01*
X18320050Y-8623936D01*
X18320050Y-8526064D01*
X18320050Y-8526064D01*
X18320050Y-8526064D01*
X18318505Y-8514325D01*
X18318504Y-8514324D01*
X18318504Y-8514324D01*
X18312454Y-8499716D01*
X18302828Y-8487172D01*
X18299786Y-8484837D01*
X18295666Y-8479195D01*
X18295250Y-8472220D01*
X18298671Y-8466128D01*
X18299785Y-8465163D01*
X18302828Y-8462828D01*
X18312454Y-8450284D01*
X18318504Y-8435676D01*
X18320050Y-8423936D01*
X18320050Y-8326064D01*
X18320050Y-8326064D01*
X18320050Y-8326064D01*
X18318505Y-8314325D01*
X18318504Y-8314324D01*
X18318504Y-8314324D01*
X18312454Y-8299716D01*
X18302828Y-8287172D01*
X18299786Y-8284837D01*
X18295666Y-8279195D01*
X18295250Y-8272220D01*
X18298671Y-8266128D01*
X18299785Y-8265163D01*
X18302828Y-8262828D01*
X18312454Y-8250284D01*
X18318504Y-8235676D01*
X18320050Y-8223936D01*
X18320050Y-8126064D01*
X18320050Y-8126064D01*
X18318505Y-8114325D01*
X18318504Y-8114324D01*
X18318504Y-8114324D01*
X18312454Y-8099716D01*
X18312454Y-8099716D01*
X18312454Y-8099716D01*
X18307740Y-8093573D01*
X18305221Y-8087056D01*
X18306625Y-8080212D01*
X18308810Y-8077256D01*
X18319232Y-8066834D01*
X18328436Y-8051912D01*
X18328436Y-8051912D01*
X18333951Y-8035270D01*
X18333951Y-8035269D01*
X18335000Y-8024999D01*
X18335000Y-8024997D01*
X18335000Y-8007500D01*
X18239900Y-8007500D01*
X18233196Y-8005531D01*
X18228621Y-8000251D01*
X18227500Y-7995100D01*
X18227500Y-7975000D01*
X18207400Y-7975000D01*
X18200696Y-7973031D01*
X18196121Y-7967751D01*
X18195000Y-7962600D01*
X18195000Y-7942500D01*
X18260000Y-7942500D01*
X18335000Y-7942500D01*
X18335000Y-7925003D01*
X18335000Y-7925001D01*
X18333951Y-7914730D01*
X18328436Y-7898088D01*
X18328436Y-7898087D01*
X18319232Y-7883166D01*
X18318857Y-7882692D01*
X18316242Y-7876212D01*
X18317546Y-7869348D01*
X18318857Y-7867308D01*
X18319232Y-7866834D01*
X18328436Y-7851912D01*
X18328436Y-7851912D01*
X18333951Y-7835270D01*
X18333951Y-7835269D01*
X18335000Y-7824999D01*
X18335000Y-7824997D01*
X18335000Y-7807500D01*
X18260000Y-7807500D01*
X18260000Y-7942500D01*
X18195000Y-7942500D01*
X18195000Y-7742500D01*
X18260000Y-7742500D01*
X18335000Y-7742500D01*
X18335000Y-7725003D01*
X18335000Y-7725001D01*
X18333951Y-7714730D01*
X18328436Y-7698088D01*
X18328436Y-7698087D01*
X18319232Y-7683166D01*
X18318857Y-7682692D01*
X18316242Y-7676212D01*
X18317546Y-7669348D01*
X18318857Y-7667308D01*
X18319232Y-7666834D01*
X18328436Y-7651912D01*
X18328436Y-7651912D01*
X18333951Y-7635270D01*
X18333951Y-7635269D01*
X18335000Y-7624999D01*
X18335000Y-7624997D01*
X18335000Y-7607500D01*
X18260000Y-7607500D01*
X18260000Y-7742500D01*
X18195000Y-7742500D01*
X18195000Y-7587400D01*
X18196969Y-7580696D01*
X18202249Y-7576121D01*
X18207400Y-7575000D01*
X18227500Y-7575000D01*
X18227500Y-7554900D01*
X18229469Y-7548196D01*
X18234749Y-7543621D01*
X18239900Y-7542500D01*
X18335000Y-7542500D01*
X18335000Y-7525003D01*
X18335000Y-7525001D01*
X18333951Y-7514730D01*
X18328436Y-7498088D01*
X18328436Y-7498087D01*
X18319232Y-7483165D01*
X18308810Y-7472743D01*
X18307480Y-7470308D01*
X18305866Y-7468050D01*
X18305829Y-7467284D01*
X18305461Y-7466611D01*
X18305659Y-7463843D01*
X18305523Y-7461071D01*
X18305916Y-7460247D01*
X18305960Y-7459642D01*
X18306829Y-7457792D01*
X18307239Y-7457080D01*
X18312454Y-7450284D01*
X18315812Y-7442176D01*
X18316212Y-7441481D01*
X18318180Y-7439598D01*
X18319889Y-7437478D01*
X18321072Y-7436832D01*
X18321261Y-7436651D01*
X18321481Y-7436608D01*
X18322215Y-7436208D01*
X18330813Y-7432646D01*
X18341467Y-7425528D01*
X18350528Y-7416467D01*
X18357647Y-7405813D01*
X18362550Y-7393974D01*
X18365050Y-7381407D01*
X18365050Y-7368593D01*
X18365050Y-7368593D01*
X18362550Y-7356026D01*
X18362550Y-7356026D01*
X18362550Y-7356026D01*
X18357647Y-7344187D01*
X18357646Y-7344187D01*
X18357646Y-7344187D01*
X18350528Y-7333533D01*
X18350527Y-7333533D01*
X18341467Y-7324473D01*
X18341467Y-7324472D01*
X18330813Y-7317354D01*
X18330812Y-7317353D01*
X18322215Y-7313792D01*
X18316775Y-7309408D01*
X18315505Y-7307081D01*
X18312454Y-7299716D01*
X18312454Y-7299716D01*
X18312454Y-7299716D01*
X18302828Y-7287172D01*
X18290284Y-7277546D01*
X18275676Y-7271496D01*
X18275676Y-7271495D01*
X18263936Y-7269950D01*
X18191064Y-7269950D01*
X18179325Y-7271495D01*
X18179324Y-7271496D01*
X18164716Y-7277546D01*
X18152172Y-7287172D01*
X18142546Y-7299716D01*
X18142546Y-7299716D01*
X18136496Y-7314324D01*
X18136456Y-7314419D01*
X18132072Y-7319859D01*
X18125443Y-7322066D01*
X18118673Y-7320338D01*
X18113912Y-7315224D01*
X18113544Y-7314419D01*
X18113504Y-7314324D01*
X18107454Y-7299716D01*
X18097828Y-7287172D01*
X18087401Y-7279171D01*
X18083281Y-7273528D01*
X18082550Y-7269333D01*
X18082550Y-6939594D01*
X18082550Y-6939594D01*
X18078458Y-6924322D01*
X18073711Y-6916100D01*
X18072050Y-6909900D01*
X18072050Y-6832450D01*
X18074019Y-6825746D01*
X18079299Y-6821171D01*
X18084450Y-6820050D01*
X18100326Y-6820050D01*
X18102597Y-6819719D01*
X18107139Y-6819057D01*
X18117648Y-6813920D01*
X18125920Y-6805648D01*
X18131057Y-6795139D01*
X18132050Y-6788326D01*
X18132050Y-6772450D01*
X18134019Y-6765746D01*
X18139299Y-6761171D01*
X18144450Y-6760050D01*
X18367550Y-6760050D01*
X18374254Y-6762018D01*
X18378829Y-6767299D01*
X18379950Y-6772450D01*
X18379950Y-6788326D01*
X18380943Y-6795139D01*
X18386080Y-6805648D01*
X18394351Y-6813920D01*
X18394352Y-6813920D01*
X18394352Y-6813920D01*
X18404861Y-6819057D01*
X18408267Y-6819554D01*
X18411674Y-6820050D01*
X18416527Y-6820050D01*
X18423231Y-6822018D01*
X18427807Y-6827299D01*
X18428801Y-6834215D01*
X18425899Y-6840570D01*
X18423816Y-6842482D01*
X18412054Y-6851027D01*
X18412054Y-6851028D01*
X18397028Y-6866053D01*
X18397027Y-6866054D01*
X18384538Y-6883244D01*
X18374891Y-6902178D01*
X18368613Y-6921500D01*
X18368613Y-6921500D01*
X18461789Y-6921500D01*
X18459990Y-6923299D01*
X18453408Y-6934701D01*
X18450000Y-6947417D01*
X18450000Y-6960583D01*
X18453408Y-6973299D01*
X18459990Y-6984701D01*
X18461789Y-6986500D01*
X18368613Y-6986500D01*
X18374891Y-7005822D01*
X18384538Y-7024756D01*
X18397027Y-7041946D01*
X18397028Y-7041946D01*
X18412054Y-7056972D01*
X18412054Y-7056973D01*
X18429244Y-7069462D01*
X18448178Y-7079109D01*
X18448178Y-7079109D01*
X18467500Y-7085387D01*
X18467500Y-7085387D01*
X18467500Y-6992211D01*
X18469299Y-6994010D01*
X18480701Y-7000592D01*
X18493417Y-7004000D01*
X18506583Y-7004000D01*
X18519299Y-7000592D01*
X18530701Y-6994010D01*
X18532500Y-6992211D01*
X18532500Y-7085387D01*
X18551822Y-7079109D01*
X18551822Y-7079109D01*
X18570756Y-7069462D01*
X18587946Y-7056973D01*
X18587946Y-7056972D01*
X18602972Y-7041946D01*
X18602973Y-7041946D01*
X18615462Y-7024756D01*
X18625109Y-7005822D01*
X18631388Y-6986500D01*
X18538211Y-6986500D01*
X18540010Y-6984701D01*
X18546593Y-6973299D01*
X18550000Y-6960583D01*
X18550000Y-6947417D01*
X18546593Y-6934701D01*
X18540010Y-6923299D01*
X18538211Y-6921500D01*
X18631388Y-6921500D01*
X18631387Y-6921500D01*
X18625109Y-6902178D01*
X18615462Y-6883244D01*
X18606378Y-6870740D01*
X18606377Y-6870740D01*
X18602972Y-6866053D01*
X18600776Y-6863857D01*
X18855000Y-6863857D01*
X18855000Y-6886142D01*
X18857909Y-6908235D01*
X18857909Y-6908237D01*
X18863676Y-6929762D01*
X18872205Y-6950350D01*
X18872205Y-6950351D01*
X18883347Y-6969650D01*
X18883799Y-6970239D01*
X18966297Y-6887741D01*
X18969089Y-6898159D01*
X18976988Y-6911841D01*
X18988159Y-6923012D01*
X19001841Y-6930911D01*
X19012259Y-6933703D01*
X18929761Y-7016201D01*
X18930350Y-7016653D01*
X18930350Y-7016653D01*
X18949649Y-7027795D01*
X18949650Y-7027795D01*
X18970238Y-7036324D01*
X18991763Y-7042091D01*
X18991765Y-7042091D01*
X19013858Y-7045000D01*
X19036143Y-7045000D01*
X19058235Y-7042091D01*
X19058237Y-7042091D01*
X19079762Y-7036324D01*
X19100350Y-7027795D01*
X19100351Y-7027795D01*
X19119650Y-7016653D01*
X19119650Y-7016653D01*
X19120239Y-7016201D01*
X19120239Y-7016201D01*
X19037741Y-6933703D01*
X19048159Y-6930911D01*
X19061841Y-6923012D01*
X19073012Y-6911841D01*
X19080911Y-6898159D01*
X19083703Y-6887741D01*
X19166201Y-6970239D01*
X19166201Y-6970239D01*
X19166653Y-6969650D01*
X19166653Y-6969650D01*
X19177795Y-6950351D01*
X19177795Y-6950350D01*
X19186324Y-6929762D01*
X19192091Y-6908237D01*
X19192091Y-6908235D01*
X19195000Y-6886142D01*
X19195000Y-6863857D01*
X19192091Y-6841764D01*
X19192091Y-6841763D01*
X19186324Y-6820238D01*
X19177795Y-6799650D01*
X19177795Y-6799648D01*
X19166653Y-6780350D01*
X19166653Y-6780350D01*
X19166201Y-6779761D01*
X19083703Y-6862259D01*
X19080911Y-6851841D01*
X19073012Y-6838159D01*
X19061841Y-6826988D01*
X19048159Y-6819089D01*
X19037741Y-6816297D01*
X19120239Y-6733799D01*
X19119650Y-6733347D01*
X19100351Y-6722205D01*
X19100350Y-6722204D01*
X19079762Y-6713676D01*
X19058237Y-6707909D01*
X19058235Y-6707908D01*
X19036143Y-6705000D01*
X19013858Y-6705000D01*
X18991765Y-6707908D01*
X18991763Y-6707909D01*
X18970238Y-6713676D01*
X18949650Y-6722204D01*
X18949649Y-6722205D01*
X18930351Y-6733346D01*
X18929761Y-6733799D01*
X19012259Y-6816297D01*
X19001841Y-6819089D01*
X18988159Y-6826988D01*
X18976988Y-6838159D01*
X18969089Y-6851841D01*
X18966297Y-6862259D01*
X18883799Y-6779761D01*
X18883347Y-6780351D01*
X18872205Y-6799648D01*
X18872205Y-6799650D01*
X18863676Y-6820238D01*
X18857909Y-6841763D01*
X18857909Y-6841764D01*
X18855000Y-6863857D01*
X18600776Y-6863857D01*
X18587946Y-6851028D01*
X18587946Y-6851027D01*
X18576184Y-6842482D01*
X18571918Y-6836949D01*
X18571320Y-6829987D01*
X18574580Y-6823808D01*
X18580664Y-6820372D01*
X18583473Y-6820050D01*
X18588326Y-6820050D01*
X18590597Y-6819719D01*
X18595139Y-6819057D01*
X18605648Y-6813920D01*
X18613920Y-6805648D01*
X18619057Y-6795139D01*
X18620050Y-6788326D01*
X18620050Y-6767450D01*
X18622019Y-6760746D01*
X18627299Y-6756171D01*
X18632450Y-6755050D01*
X18757247Y-6755050D01*
X18757247Y-6755050D01*
X18757248Y-6755050D01*
X18771249Y-6751298D01*
X18775842Y-6748646D01*
X18783802Y-6744051D01*
X18844171Y-6683682D01*
X18850303Y-6680333D01*
X18852939Y-6680050D01*
X19222061Y-6680050D01*
X19228765Y-6682018D01*
G37*
G04 #@! TD.AperFunction*
G04 #@! TA.AperFunction,Conductor*
G36*
X15171043Y-6552018D02*
G01*
X15175618Y-6557299D01*
X15176613Y-6564215D01*
X15173710Y-6570570D01*
X15168171Y-6574243D01*
X15166178Y-6574890D01*
X15147244Y-6584538D01*
X15130054Y-6597027D01*
X15130053Y-6597028D01*
X15115028Y-6612053D01*
X15115027Y-6612054D01*
X15102538Y-6629244D01*
X15092891Y-6648178D01*
X15086612Y-6667500D01*
X15086612Y-6667500D01*
X15179789Y-6667500D01*
X15177990Y-6669299D01*
X15171407Y-6680701D01*
X15168000Y-6693417D01*
X15168000Y-6706583D01*
X15171407Y-6719299D01*
X15177990Y-6730701D01*
X15179789Y-6732500D01*
X15086612Y-6732500D01*
X15092891Y-6751822D01*
X15102538Y-6770756D01*
X15115027Y-6787946D01*
X15115028Y-6787946D01*
X15130053Y-6802972D01*
X15130054Y-6802973D01*
X15147244Y-6815462D01*
X15166178Y-6825109D01*
X15166178Y-6825109D01*
X15185500Y-6831387D01*
X15185500Y-6831387D01*
X15185500Y-6738211D01*
X15187299Y-6740010D01*
X15198701Y-6746592D01*
X15211417Y-6750000D01*
X15224583Y-6750000D01*
X15237299Y-6746592D01*
X15248701Y-6740010D01*
X15250500Y-6738211D01*
X15250500Y-6831387D01*
X15269822Y-6825109D01*
X15269822Y-6825109D01*
X15288756Y-6815462D01*
X15305946Y-6802973D01*
X15305946Y-6802972D01*
X15320972Y-6787946D01*
X15320973Y-6787946D01*
X15333462Y-6770756D01*
X15342341Y-6753330D01*
X15347138Y-6748251D01*
X15353920Y-6746571D01*
X15360534Y-6748825D01*
X15364438Y-6753330D01*
X15369324Y-6762919D01*
X15371377Y-6765746D01*
X15380431Y-6778207D01*
X15393793Y-6791569D01*
X15409080Y-6802676D01*
X15414751Y-6805566D01*
X15425916Y-6811254D01*
X15425916Y-6811254D01*
X15425917Y-6811255D01*
X15434095Y-6813912D01*
X15443888Y-6817094D01*
X15462551Y-6820050D01*
X15462552Y-6820050D01*
X15481449Y-6820050D01*
X15490244Y-6818657D01*
X15500112Y-6817094D01*
X15509291Y-6814111D01*
X15516275Y-6813912D01*
X15521891Y-6817136D01*
X15608516Y-6903762D01*
X15608517Y-6903763D01*
X15608950Y-6904196D01*
X15608950Y-6904196D01*
X15617804Y-6913049D01*
X15617804Y-6913050D01*
X15617804Y-6913050D01*
X15627659Y-6918740D01*
X15627660Y-6918740D01*
X15627660Y-6918740D01*
X15628646Y-6919309D01*
X15628647Y-6919310D01*
X15628647Y-6919310D01*
X15634813Y-6920962D01*
X15640740Y-6922550D01*
X15640740Y-6922550D01*
X15654020Y-6922550D01*
X15654021Y-6922550D01*
X15925168Y-6922550D01*
X15931872Y-6924518D01*
X15933936Y-6926182D01*
X15973818Y-6966064D01*
X15977167Y-6972196D01*
X15977450Y-6974832D01*
X15977450Y-7234486D01*
X15975481Y-7241190D01*
X15970201Y-7245766D01*
X15963285Y-7246760D01*
X15956930Y-7243858D01*
X15954001Y-7240116D01*
X15948462Y-7229244D01*
X15935973Y-7212054D01*
X15935972Y-7212053D01*
X15920946Y-7197028D01*
X15920946Y-7197027D01*
X15903756Y-7184538D01*
X15884822Y-7174891D01*
X15865500Y-7168612D01*
X15865500Y-7261789D01*
X15863701Y-7259990D01*
X15852299Y-7253407D01*
X15839583Y-7250000D01*
X15826417Y-7250000D01*
X15813701Y-7253407D01*
X15802299Y-7259990D01*
X15800500Y-7261789D01*
X15800500Y-7168612D01*
X15781178Y-7174891D01*
X15762244Y-7184538D01*
X15745054Y-7197027D01*
X15745053Y-7197028D01*
X15730028Y-7212053D01*
X15730027Y-7212054D01*
X15717538Y-7229245D01*
X15717537Y-7229245D01*
X15708659Y-7246670D01*
X15703862Y-7251749D01*
X15697079Y-7253429D01*
X15690466Y-7251175D01*
X15686562Y-7246670D01*
X15683770Y-7241190D01*
X15681676Y-7237080D01*
X15670569Y-7221793D01*
X15657207Y-7208431D01*
X15641920Y-7197324D01*
X15641337Y-7197027D01*
X15625084Y-7188745D01*
X15607112Y-7182906D01*
X15588449Y-7179950D01*
X15588448Y-7179950D01*
X15569552Y-7179950D01*
X15569551Y-7179950D01*
X15550888Y-7182906D01*
X15532916Y-7188745D01*
X15516080Y-7197324D01*
X15507358Y-7203661D01*
X15500793Y-7208431D01*
X15500792Y-7208431D01*
X15500792Y-7208431D01*
X15487431Y-7221792D01*
X15487431Y-7221792D01*
X15487431Y-7221793D01*
X15485509Y-7224439D01*
X15476324Y-7237080D01*
X15468498Y-7252438D01*
X15463701Y-7257518D01*
X15456919Y-7259198D01*
X15450305Y-7256944D01*
X15445960Y-7251472D01*
X15445050Y-7246809D01*
X15445050Y-7211674D01*
X15444057Y-7204861D01*
X15444057Y-7204861D01*
X15438920Y-7194352D01*
X15438920Y-7194351D01*
X15438920Y-7194351D01*
X15430648Y-7186080D01*
X15420139Y-7180943D01*
X15413326Y-7179950D01*
X15413326Y-7179950D01*
X15236674Y-7179950D01*
X15236674Y-7179950D01*
X15229861Y-7180943D01*
X15219351Y-7186080D01*
X15211080Y-7194351D01*
X15205943Y-7204861D01*
X15204950Y-7211674D01*
X15204950Y-7388326D01*
X15205943Y-7395139D01*
X15211080Y-7405648D01*
X15219351Y-7413920D01*
X15219351Y-7413920D01*
X15219352Y-7413920D01*
X15229861Y-7419057D01*
X15233267Y-7419554D01*
X15236674Y-7420050D01*
X15236674Y-7420050D01*
X15413326Y-7420050D01*
X15415597Y-7419719D01*
X15420139Y-7419057D01*
X15430648Y-7413920D01*
X15438920Y-7405648D01*
X15444057Y-7395139D01*
X15445050Y-7388326D01*
X15445050Y-7353191D01*
X15447018Y-7346487D01*
X15452299Y-7341911D01*
X15459215Y-7340917D01*
X15465570Y-7343820D01*
X15468498Y-7347561D01*
X15476324Y-7362920D01*
X15487431Y-7378207D01*
X15500793Y-7391569D01*
X15516080Y-7402676D01*
X15522237Y-7405813D01*
X15532916Y-7411254D01*
X15532916Y-7411254D01*
X15532917Y-7411255D01*
X15541118Y-7413920D01*
X15550888Y-7417094D01*
X15569551Y-7420050D01*
X15569552Y-7420050D01*
X15588449Y-7420050D01*
X15607112Y-7417094D01*
X15609042Y-7416467D01*
X15625083Y-7411255D01*
X15641920Y-7402676D01*
X15657207Y-7391569D01*
X15670569Y-7378207D01*
X15681676Y-7362920D01*
X15686562Y-7353330D01*
X15691359Y-7348251D01*
X15698142Y-7346571D01*
X15704755Y-7348825D01*
X15708659Y-7353330D01*
X15717538Y-7370756D01*
X15730027Y-7387946D01*
X15730028Y-7387946D01*
X15745053Y-7402972D01*
X15745054Y-7402973D01*
X15762244Y-7415462D01*
X15781178Y-7425109D01*
X15781178Y-7425109D01*
X15800500Y-7431387D01*
X15800500Y-7431387D01*
X15800500Y-7338211D01*
X15802299Y-7340010D01*
X15813701Y-7346592D01*
X15826417Y-7350000D01*
X15839583Y-7350000D01*
X15852299Y-7346592D01*
X15863701Y-7340010D01*
X15865500Y-7338211D01*
X15865500Y-7431387D01*
X15884822Y-7425109D01*
X15884822Y-7425109D01*
X15903756Y-7415462D01*
X15920946Y-7402973D01*
X15920946Y-7402972D01*
X15935972Y-7387946D01*
X15935973Y-7387946D01*
X15948462Y-7370756D01*
X15954001Y-7359884D01*
X15958799Y-7354804D01*
X15965581Y-7353125D01*
X15972195Y-7355379D01*
X15976540Y-7360850D01*
X15977450Y-7365514D01*
X15977450Y-7575168D01*
X15975481Y-7581872D01*
X15973818Y-7583936D01*
X15911951Y-7645803D01*
X15911950Y-7645804D01*
X15905690Y-7656646D01*
X15904665Y-7660474D01*
X15902450Y-7668740D01*
X15902450Y-8543740D01*
X15902450Y-8556260D01*
X15905690Y-8568354D01*
X15908691Y-8573551D01*
X15911950Y-8579196D01*
X15911951Y-8579197D01*
X16270803Y-8938049D01*
X16271448Y-8938544D01*
X16271359Y-8938659D01*
X16273962Y-8941097D01*
X16274086Y-8940996D01*
X16274473Y-8941467D01*
X16283533Y-8950527D01*
X16283533Y-8950528D01*
X16294187Y-8957646D01*
X16294187Y-8957647D01*
X16296869Y-8958757D01*
X16306026Y-8962550D01*
X16306026Y-8962550D01*
X16306026Y-8962550D01*
X16318593Y-8965050D01*
X16318593Y-8965050D01*
X16331407Y-8965050D01*
X16341907Y-8962961D01*
X16343974Y-8962550D01*
X16355813Y-8957647D01*
X16366467Y-8950528D01*
X16375528Y-8941467D01*
X16382646Y-8930813D01*
X16387550Y-8918974D01*
X16388770Y-8912839D01*
X16390050Y-8906407D01*
X16390050Y-8893593D01*
X16387550Y-8881026D01*
X16387550Y-8881026D01*
X16387550Y-8881026D01*
X16382646Y-8869187D01*
X16382646Y-8869187D01*
X16382646Y-8869187D01*
X16375528Y-8858533D01*
X16375141Y-8858062D01*
X16375304Y-8857928D01*
X16372415Y-8852639D01*
X16372911Y-8845670D01*
X16375251Y-8842028D01*
X16375141Y-8841938D01*
X16375527Y-8841467D01*
X16375528Y-8841467D01*
X16382646Y-8830813D01*
X16387550Y-8818974D01*
X16388528Y-8814058D01*
X16390050Y-8806407D01*
X16390050Y-8795751D01*
X16392018Y-8789047D01*
X16397299Y-8784472D01*
X16404215Y-8783478D01*
X16404390Y-8783504D01*
X16414151Y-8785050D01*
X16512662Y-8785050D01*
X16519365Y-8787019D01*
X16523941Y-8792299D01*
X16524844Y-8798314D01*
X16525027Y-8798326D01*
X16525000Y-8798732D01*
X16525000Y-8894645D01*
X16573554Y-8846091D01*
X16579687Y-8842742D01*
X16586656Y-8843240D01*
X16591090Y-8846091D01*
X16608909Y-8863909D01*
X16612258Y-8870042D01*
X16611759Y-8877011D01*
X16608909Y-8881446D01*
X16541691Y-8948664D01*
X16553502Y-8957726D01*
X16567489Y-8963520D01*
X16567489Y-8963520D01*
X16578730Y-8965000D01*
X16578732Y-8965000D01*
X16617550Y-8965000D01*
X16618418Y-8965255D01*
X16619315Y-8965126D01*
X16621719Y-8966224D01*
X16624254Y-8966969D01*
X16624847Y-8967653D01*
X16625670Y-8968029D01*
X16627099Y-8970252D01*
X16628829Y-8972249D01*
X16629058Y-8973300D01*
X16629448Y-8973907D01*
X16629950Y-8977400D01*
X16629950Y-8980007D01*
X16627981Y-8986711D01*
X16627387Y-8987556D01*
X16626948Y-8988129D01*
X16625161Y-8991224D01*
X16623374Y-8994319D01*
X16619042Y-9001822D01*
X16614950Y-9017094D01*
X16614950Y-9017095D01*
X16614950Y-9022951D01*
X16612981Y-9029655D01*
X16607701Y-9034230D01*
X16607295Y-9034407D01*
X16599716Y-9037546D01*
X16587172Y-9047172D01*
X16577546Y-9059716D01*
X16571496Y-9074324D01*
X16571495Y-9074324D01*
X16569950Y-9086064D01*
X16569950Y-9158936D01*
X16571495Y-9170675D01*
X16571496Y-9170676D01*
X16577546Y-9185284D01*
X16587172Y-9197828D01*
X16599716Y-9207454D01*
X16614324Y-9213504D01*
X16614419Y-9213544D01*
X16619859Y-9217928D01*
X16622066Y-9224557D01*
X16620338Y-9231327D01*
X16615224Y-9236088D01*
X16614419Y-9236456D01*
X16599716Y-9242546D01*
X16589632Y-9250284D01*
X16587172Y-9252172D01*
X16581463Y-9259611D01*
X16579171Y-9262599D01*
X16573528Y-9266719D01*
X16569333Y-9267450D01*
X16182510Y-9267450D01*
X16175806Y-9265482D01*
X16173742Y-9263818D01*
X16123759Y-9213836D01*
X16123759Y-9213835D01*
X16111872Y-9201948D01*
X16111871Y-9201948D01*
X16101708Y-9196080D01*
X16101708Y-9196080D01*
X16101708Y-9196080D01*
X16098178Y-9194042D01*
X16097923Y-9193974D01*
X16082906Y-9189950D01*
X16067094Y-9189950D01*
X16066335Y-9189950D01*
X16066333Y-9189950D01*
X15662400Y-9189950D01*
X15655696Y-9187982D01*
X15651121Y-9182701D01*
X15650000Y-9177550D01*
X15650000Y-8500000D01*
X15062450Y-8500000D01*
X15055746Y-8498032D01*
X15051171Y-8492751D01*
X15050050Y-8487600D01*
X15050050Y-6562450D01*
X15052018Y-6555746D01*
X15057299Y-6551171D01*
X15062450Y-6550050D01*
X15164339Y-6550050D01*
X15171043Y-6552018D01*
G37*
G04 #@! TD.AperFunction*
G04 #@! TA.AperFunction,Conductor*
G36*
X17456889Y-7783013D02*
G01*
X17457289Y-7782973D01*
X17460629Y-7784111D01*
X17469187Y-7788472D01*
X17469188Y-7788472D01*
X17469188Y-7788472D01*
X17479151Y-7790050D01*
X17479151Y-7790050D01*
X17520850Y-7790050D01*
X17521335Y-7790012D01*
X17521346Y-7790144D01*
X17527674Y-7790961D01*
X17533020Y-7795459D01*
X17535085Y-7802134D01*
X17534976Y-7803664D01*
X17534988Y-7803665D01*
X17534950Y-7804150D01*
X17534950Y-7845849D01*
X17536528Y-7855812D01*
X17540889Y-7864371D01*
X17542178Y-7871237D01*
X17540889Y-7875629D01*
X17536528Y-7884188D01*
X17534950Y-7894151D01*
X17534950Y-7935849D01*
X17535777Y-7941072D01*
X17534882Y-7948001D01*
X17533368Y-7950560D01*
X17527274Y-7958502D01*
X17527274Y-7958502D01*
X17521480Y-7972489D01*
X17521480Y-7972489D01*
X17520000Y-7983730D01*
X17520000Y-8026270D01*
X17521480Y-8037510D01*
X17521480Y-8037511D01*
X17527274Y-8051498D01*
X17527274Y-8051498D01*
X17533367Y-8059439D01*
X17535887Y-8065956D01*
X17535777Y-8068928D01*
X17534950Y-8074151D01*
X17534950Y-8115849D01*
X17536528Y-8125812D01*
X17540889Y-8134371D01*
X17542178Y-8141237D01*
X17540889Y-8145629D01*
X17536528Y-8154188D01*
X17534950Y-8164151D01*
X17534950Y-8205849D01*
X17536528Y-8215812D01*
X17540889Y-8224371D01*
X17542178Y-8231237D01*
X17540889Y-8235629D01*
X17536528Y-8244188D01*
X17534950Y-8254151D01*
X17534950Y-8295849D01*
X17536528Y-8305812D01*
X17540889Y-8314371D01*
X17542178Y-8321237D01*
X17540889Y-8325629D01*
X17536528Y-8334188D01*
X17534950Y-8344151D01*
X17534950Y-8385849D01*
X17536528Y-8395812D01*
X17540889Y-8404371D01*
X17542178Y-8411238D01*
X17540889Y-8415629D01*
X17536528Y-8424188D01*
X17534950Y-8434151D01*
X17534950Y-8475849D01*
X17536528Y-8485812D01*
X17540889Y-8494371D01*
X17542178Y-8501238D01*
X17540889Y-8505629D01*
X17536528Y-8514188D01*
X17534950Y-8524151D01*
X17534950Y-8538624D01*
X17532982Y-8545328D01*
X17527701Y-8549903D01*
X17520785Y-8550897D01*
X17515661Y-8548934D01*
X17505813Y-8542354D01*
X17505812Y-8542353D01*
X17493974Y-8537450D01*
X17493974Y-8537450D01*
X17481407Y-8534950D01*
X17481407Y-8534950D01*
X17468593Y-8534950D01*
X17468593Y-8534950D01*
X17456026Y-8537450D01*
X17456026Y-8537450D01*
X17444188Y-8542353D01*
X17444187Y-8542354D01*
X17433533Y-8549472D01*
X17433533Y-8549473D01*
X17424473Y-8558533D01*
X17424472Y-8558533D01*
X17417354Y-8569187D01*
X17417353Y-8569188D01*
X17412450Y-8581026D01*
X17412450Y-8581026D01*
X17409950Y-8593593D01*
X17409950Y-8593593D01*
X17409950Y-8606407D01*
X17409950Y-8606407D01*
X17409950Y-8606407D01*
X17412450Y-8618974D01*
X17412450Y-8618974D01*
X17417353Y-8630812D01*
X17417354Y-8630813D01*
X17424472Y-8641467D01*
X17424859Y-8641938D01*
X17424696Y-8642072D01*
X17427586Y-8647364D01*
X17427087Y-8654333D01*
X17424749Y-8657972D01*
X17424859Y-8658062D01*
X17424472Y-8658533D01*
X17417354Y-8669187D01*
X17417353Y-8669188D01*
X17412450Y-8681026D01*
X17412450Y-8681026D01*
X17409950Y-8693593D01*
X17409950Y-8693593D01*
X17409950Y-8706407D01*
X17409950Y-8706407D01*
X17409950Y-8706407D01*
X17412450Y-8718974D01*
X17412450Y-8718974D01*
X17417353Y-8730812D01*
X17417354Y-8730813D01*
X17423934Y-8740661D01*
X17426022Y-8747329D01*
X17424173Y-8754067D01*
X17418975Y-8758736D01*
X17413624Y-8759950D01*
X17389151Y-8759950D01*
X17379188Y-8761528D01*
X17370629Y-8765889D01*
X17363763Y-8767178D01*
X17359371Y-8765889D01*
X17350812Y-8761528D01*
X17340849Y-8759950D01*
X17340849Y-8759950D01*
X17299151Y-8759950D01*
X17299151Y-8759950D01*
X17289188Y-8761528D01*
X17280629Y-8765889D01*
X17273763Y-8767178D01*
X17269371Y-8765889D01*
X17260812Y-8761528D01*
X17250849Y-8759950D01*
X17250849Y-8759950D01*
X17209151Y-8759950D01*
X17209151Y-8759950D01*
X17201890Y-8761100D01*
X17194960Y-8760205D01*
X17189615Y-8755705D01*
X17187551Y-8749030D01*
X17187550Y-8748853D01*
X17187550Y-8695196D01*
X17187788Y-8692777D01*
X17190050Y-8681407D01*
X17190050Y-8668593D01*
X17187550Y-8656026D01*
X17187550Y-8656026D01*
X17187550Y-8656026D01*
X17182647Y-8644187D01*
X17182646Y-8644187D01*
X17182646Y-8644187D01*
X17175528Y-8633533D01*
X17175527Y-8633533D01*
X17166467Y-8624473D01*
X17166467Y-8624472D01*
X17155813Y-8617354D01*
X17155812Y-8617353D01*
X17143974Y-8612450D01*
X17143974Y-8612450D01*
X17131407Y-8609950D01*
X17131407Y-8609950D01*
X17118593Y-8609950D01*
X17118593Y-8609950D01*
X17106026Y-8612450D01*
X17106026Y-8612450D01*
X17094188Y-8617353D01*
X17094187Y-8617354D01*
X17083533Y-8624472D01*
X17083062Y-8624859D01*
X17082928Y-8624696D01*
X17077636Y-8627586D01*
X17070667Y-8627087D01*
X17067028Y-8624749D01*
X17066938Y-8624859D01*
X17066467Y-8624472D01*
X17055813Y-8617354D01*
X17055812Y-8617353D01*
X17043974Y-8612450D01*
X17043974Y-8612450D01*
X17031407Y-8609950D01*
X17031407Y-8609950D01*
X17018593Y-8609950D01*
X17018593Y-8609950D01*
X17006026Y-8612450D01*
X17006026Y-8612450D01*
X16994188Y-8617353D01*
X16994187Y-8617354D01*
X16983533Y-8624472D01*
X16983533Y-8624473D01*
X16974473Y-8633533D01*
X16974472Y-8633533D01*
X16967354Y-8644187D01*
X16967353Y-8644188D01*
X16962450Y-8656026D01*
X16962450Y-8656026D01*
X16959950Y-8668593D01*
X16959950Y-8668593D01*
X16959950Y-8681407D01*
X16959950Y-8681407D01*
X16959950Y-8681407D01*
X16962450Y-8693974D01*
X16962450Y-8693974D01*
X16967353Y-8705812D01*
X16967354Y-8705813D01*
X16974472Y-8716467D01*
X16974473Y-8716467D01*
X16983533Y-8725527D01*
X16983533Y-8725528D01*
X16994187Y-8732646D01*
X16994187Y-8732646D01*
X16994187Y-8732647D01*
X16994795Y-8732898D01*
X16996352Y-8734153D01*
X16998170Y-8734983D01*
X16999017Y-8736300D01*
X17000235Y-8737282D01*
X17000867Y-8739179D01*
X17001948Y-8740861D01*
X17002344Y-8743616D01*
X17002442Y-8743911D01*
X17002450Y-8744354D01*
X17002450Y-8748853D01*
X17000482Y-8755557D01*
X16995201Y-8760132D01*
X16988285Y-8761127D01*
X16988110Y-8761100D01*
X16980849Y-8759950D01*
X16980849Y-8759950D01*
X16939151Y-8759950D01*
X16939151Y-8759950D01*
X16929188Y-8761528D01*
X16920629Y-8765889D01*
X16913763Y-8767178D01*
X16909371Y-8765889D01*
X16900812Y-8761528D01*
X16890849Y-8759950D01*
X16890849Y-8759950D01*
X16849151Y-8759950D01*
X16849151Y-8759950D01*
X16843928Y-8760777D01*
X16836998Y-8759882D01*
X16834440Y-8758367D01*
X16826498Y-8752274D01*
X16826498Y-8752274D01*
X16812511Y-8746480D01*
X16812510Y-8746480D01*
X16801270Y-8745000D01*
X16758730Y-8745000D01*
X16747489Y-8746480D01*
X16747489Y-8746480D01*
X16733502Y-8752274D01*
X16733502Y-8752274D01*
X16725560Y-8758368D01*
X16719043Y-8760887D01*
X16716072Y-8760777D01*
X16710849Y-8759950D01*
X16710849Y-8759950D01*
X16669151Y-8759950D01*
X16669151Y-8759950D01*
X16663928Y-8760777D01*
X16656998Y-8759882D01*
X16654439Y-8758367D01*
X16646498Y-8752274D01*
X16646498Y-8752274D01*
X16632511Y-8746480D01*
X16632510Y-8746480D01*
X16621270Y-8745000D01*
X16578732Y-8745000D01*
X16578326Y-8745027D01*
X16578313Y-8744840D01*
X16572157Y-8743875D01*
X16566935Y-8739234D01*
X16565050Y-8732662D01*
X16565050Y-8704151D01*
X16563472Y-8694188D01*
X16563472Y-8694188D01*
X16563472Y-8694187D01*
X16559111Y-8685629D01*
X16557822Y-8678763D01*
X16559111Y-8674371D01*
X16563472Y-8665813D01*
X16563575Y-8665162D01*
X16565050Y-8655849D01*
X16565050Y-8614151D01*
X16563472Y-8604188D01*
X16563472Y-8604188D01*
X16563472Y-8604187D01*
X16559111Y-8595629D01*
X16557822Y-8588763D01*
X16559111Y-8584371D01*
X16563472Y-8575813D01*
X16563930Y-8572921D01*
X16565050Y-8565849D01*
X16565050Y-8524151D01*
X16563472Y-8514188D01*
X16563472Y-8514188D01*
X16563472Y-8514187D01*
X16559111Y-8505629D01*
X16557822Y-8498763D01*
X16559111Y-8494371D01*
X16563472Y-8485813D01*
X16563626Y-8484838D01*
X16565050Y-8475849D01*
X16565050Y-8434151D01*
X16563472Y-8424188D01*
X16563472Y-8424188D01*
X16563472Y-8424187D01*
X16559111Y-8415629D01*
X16557822Y-8408763D01*
X16559111Y-8404371D01*
X16561848Y-8399000D01*
X16950962Y-8399000D01*
X16950962Y-8399000D01*
X17203038Y-8399000D01*
X17203038Y-8399000D01*
X17077000Y-8272962D01*
X16950962Y-8399000D01*
X16561848Y-8399000D01*
X16563472Y-8395813D01*
X16563734Y-8394155D01*
X16565050Y-8385849D01*
X16565050Y-8344151D01*
X16563472Y-8334188D01*
X16563472Y-8334188D01*
X16563472Y-8334187D01*
X16559111Y-8325629D01*
X16557822Y-8318763D01*
X16559111Y-8314371D01*
X16563472Y-8305813D01*
X16563472Y-8305812D01*
X16565050Y-8295849D01*
X16565050Y-8254151D01*
X16563472Y-8244188D01*
X16563472Y-8244188D01*
X16563472Y-8244187D01*
X16559111Y-8235629D01*
X16557822Y-8228763D01*
X16559111Y-8224371D01*
X16563472Y-8215813D01*
X16563792Y-8213793D01*
X16565050Y-8205849D01*
X16565050Y-8164151D01*
X16563472Y-8154188D01*
X16563472Y-8154188D01*
X16563472Y-8154187D01*
X16559111Y-8145629D01*
X16557822Y-8138763D01*
X16559111Y-8134371D01*
X16563472Y-8125813D01*
X16564221Y-8121083D01*
X16565050Y-8115849D01*
X16565050Y-8100215D01*
X16859000Y-8100215D01*
X16859000Y-8353784D01*
X16859640Y-8359737D01*
X16859640Y-8359738D01*
X16864665Y-8373209D01*
X16864665Y-8373209D01*
X16873281Y-8384718D01*
X16873281Y-8384719D01*
X16873303Y-8384735D01*
X16873303Y-8384735D01*
X17031038Y-8227000D01*
X17031038Y-8227000D01*
X17031038Y-8227000D01*
X17122962Y-8227000D01*
X17122962Y-8227000D01*
X17280697Y-8384735D01*
X17280697Y-8384735D01*
X17280719Y-8384719D01*
X17289335Y-8373209D01*
X17289335Y-8373209D01*
X17294360Y-8359738D01*
X17294360Y-8359737D01*
X17295000Y-8353784D01*
X17295000Y-8353783D01*
X17295000Y-8100217D01*
X17295000Y-8100215D01*
X17294360Y-8094263D01*
X17294360Y-8094262D01*
X17289335Y-8080791D01*
X17289335Y-8080791D01*
X17280719Y-8069281D01*
X17280719Y-8069281D01*
X17280697Y-8069265D01*
X17280697Y-8069265D01*
X17122962Y-8227000D01*
X17031038Y-8227000D01*
X16873303Y-8069265D01*
X16873281Y-8069281D01*
X16864665Y-8080791D01*
X16864665Y-8080791D01*
X16859640Y-8094262D01*
X16859640Y-8094263D01*
X16859000Y-8100215D01*
X16565050Y-8100215D01*
X16565050Y-8074151D01*
X16564223Y-8068928D01*
X16565118Y-8061998D01*
X16566632Y-8059439D01*
X16570039Y-8055000D01*
X16950962Y-8055000D01*
X17077000Y-8181038D01*
X17203038Y-8055000D01*
X16950962Y-8055000D01*
X16570039Y-8055000D01*
X16572726Y-8051498D01*
X16578520Y-8037511D01*
X16578520Y-8037510D01*
X16580000Y-8026270D01*
X16580000Y-8026268D01*
X16580000Y-7983732D01*
X16580000Y-7983730D01*
X16578520Y-7972489D01*
X16578520Y-7972489D01*
X16572726Y-7958502D01*
X16572726Y-7958502D01*
X16566632Y-7950560D01*
X16564113Y-7944044D01*
X16564223Y-7941072D01*
X16564993Y-7936207D01*
X16565050Y-7935849D01*
X16565050Y-7894151D01*
X16563472Y-7884188D01*
X16563472Y-7884188D01*
X16563472Y-7884187D01*
X16559111Y-7875629D01*
X16557822Y-7868763D01*
X16559111Y-7864371D01*
X16563472Y-7855813D01*
X16563728Y-7854196D01*
X16565050Y-7845849D01*
X16565050Y-7817338D01*
X16567018Y-7810634D01*
X16572299Y-7806059D01*
X16578313Y-7805160D01*
X16578326Y-7804973D01*
X16578732Y-7805000D01*
X16621268Y-7805000D01*
X16621270Y-7805000D01*
X16632510Y-7803520D01*
X16632511Y-7803520D01*
X16646498Y-7797726D01*
X16654439Y-7791632D01*
X16660956Y-7789113D01*
X16663928Y-7789223D01*
X16669151Y-7790050D01*
X16669151Y-7790050D01*
X16710849Y-7790050D01*
X16713079Y-7789697D01*
X16716072Y-7789223D01*
X16723001Y-7790118D01*
X16725560Y-7791632D01*
X16733502Y-7797726D01*
X16733502Y-7797726D01*
X16747489Y-7803520D01*
X16747489Y-7803520D01*
X16758730Y-7805000D01*
X16758732Y-7805000D01*
X16801268Y-7805000D01*
X16801270Y-7805000D01*
X16812510Y-7803520D01*
X16812511Y-7803520D01*
X16826498Y-7797726D01*
X16834439Y-7791632D01*
X16840956Y-7789113D01*
X16843928Y-7789223D01*
X16849151Y-7790050D01*
X16849151Y-7790050D01*
X16890849Y-7790050D01*
X16900812Y-7788472D01*
X16900812Y-7788472D01*
X16900813Y-7788472D01*
X16909371Y-7784111D01*
X16916237Y-7782822D01*
X16920629Y-7784111D01*
X16929187Y-7788472D01*
X16929188Y-7788472D01*
X16929188Y-7788472D01*
X16939151Y-7790050D01*
X16939151Y-7790050D01*
X16980849Y-7790050D01*
X16990812Y-7788472D01*
X16990812Y-7788472D01*
X16990813Y-7788472D01*
X16999371Y-7784111D01*
X17006237Y-7782822D01*
X17010629Y-7784111D01*
X17019187Y-7788472D01*
X17019188Y-7788472D01*
X17019188Y-7788472D01*
X17029151Y-7790050D01*
X17029151Y-7790050D01*
X17070849Y-7790050D01*
X17080812Y-7788472D01*
X17080812Y-7788472D01*
X17080813Y-7788472D01*
X17089371Y-7784111D01*
X17096237Y-7782822D01*
X17100629Y-7784111D01*
X17109187Y-7788472D01*
X17109188Y-7788472D01*
X17109188Y-7788472D01*
X17119151Y-7790050D01*
X17119151Y-7790050D01*
X17160849Y-7790050D01*
X17170812Y-7788472D01*
X17170812Y-7788472D01*
X17170813Y-7788472D01*
X17179371Y-7784111D01*
X17186237Y-7782822D01*
X17190629Y-7784111D01*
X17199187Y-7788472D01*
X17199188Y-7788472D01*
X17199188Y-7788472D01*
X17209151Y-7790050D01*
X17209151Y-7790050D01*
X17250849Y-7790050D01*
X17260812Y-7788472D01*
X17260812Y-7788472D01*
X17260813Y-7788472D01*
X17269371Y-7784111D01*
X17276237Y-7782822D01*
X17280629Y-7784111D01*
X17289187Y-7788472D01*
X17289188Y-7788472D01*
X17289188Y-7788472D01*
X17299151Y-7790050D01*
X17299151Y-7790050D01*
X17340849Y-7790050D01*
X17350812Y-7788472D01*
X17350812Y-7788472D01*
X17350813Y-7788472D01*
X17359371Y-7784111D01*
X17366237Y-7782822D01*
X17370629Y-7784111D01*
X17379187Y-7788472D01*
X17379188Y-7788472D01*
X17379188Y-7788472D01*
X17389151Y-7790050D01*
X17389151Y-7790050D01*
X17430849Y-7790050D01*
X17440812Y-7788472D01*
X17440812Y-7788472D01*
X17440813Y-7788472D01*
X17449371Y-7784111D01*
X17449908Y-7784010D01*
X17450337Y-7783670D01*
X17453305Y-7783372D01*
X17456237Y-7782822D01*
X17456889Y-7783013D01*
G37*
G04 #@! TD.AperFunction*
G04 #@! TA.AperFunction,Conductor*
G36*
X16291833Y-7785664D02*
G01*
X16296268Y-7788514D01*
X16361950Y-7854196D01*
X16370804Y-7863049D01*
X16373358Y-7864524D01*
X16378180Y-7869581D01*
X16379502Y-7876441D01*
X16378207Y-7880892D01*
X16376528Y-7884188D01*
X16374950Y-7894151D01*
X16374950Y-7935849D01*
X16375777Y-7941072D01*
X16374882Y-7948001D01*
X16373367Y-7950560D01*
X16367274Y-7958502D01*
X16367274Y-7958502D01*
X16361480Y-7972489D01*
X16361480Y-7972489D01*
X16360000Y-7983730D01*
X16360000Y-8026270D01*
X16361480Y-8037510D01*
X16361480Y-8037511D01*
X16367274Y-8051498D01*
X16367274Y-8051498D01*
X16373367Y-8059439D01*
X16375887Y-8065956D01*
X16375777Y-8068928D01*
X16374950Y-8074151D01*
X16374950Y-8115849D01*
X16376528Y-8125812D01*
X16380889Y-8134371D01*
X16382178Y-8141237D01*
X16380889Y-8145629D01*
X16376528Y-8154188D01*
X16374950Y-8164151D01*
X16374950Y-8205849D01*
X16376528Y-8215812D01*
X16380889Y-8224371D01*
X16382178Y-8231237D01*
X16380889Y-8235629D01*
X16376528Y-8244188D01*
X16374950Y-8254151D01*
X16374950Y-8295849D01*
X16376528Y-8305812D01*
X16380889Y-8314371D01*
X16382178Y-8321237D01*
X16380889Y-8325629D01*
X16376528Y-8334188D01*
X16374950Y-8344151D01*
X16374950Y-8385849D01*
X16376100Y-8393110D01*
X16375204Y-8400040D01*
X16370705Y-8405385D01*
X16364030Y-8407449D01*
X16363853Y-8407450D01*
X16259950Y-8407450D01*
X16253246Y-8405482D01*
X16248671Y-8400201D01*
X16247550Y-8395050D01*
X16247550Y-7824832D01*
X16249518Y-7818128D01*
X16251182Y-7816064D01*
X16278732Y-7788514D01*
X16284864Y-7785165D01*
X16291833Y-7785664D01*
G37*
G04 #@! TD.AperFunction*
G04 #@! TA.AperFunction,Conductor*
G36*
X17927584Y-7832018D02*
G01*
X17932159Y-7837299D01*
X17932336Y-7837705D01*
X17937546Y-7850284D01*
X17937546Y-7850284D01*
X17937546Y-7850284D01*
X17947172Y-7862828D01*
X17950214Y-7865162D01*
X17954334Y-7870805D01*
X17954750Y-7877780D01*
X17951328Y-7883872D01*
X17950215Y-7884837D01*
X17948498Y-7886154D01*
X17947172Y-7887172D01*
X17937546Y-7899716D01*
X17931496Y-7914324D01*
X17931496Y-7914324D01*
X17929950Y-7926063D01*
X17929950Y-7926064D01*
X17929950Y-8023936D01*
X17931495Y-8035675D01*
X17931496Y-8035676D01*
X17932255Y-8037510D01*
X17937546Y-8050284D01*
X17947172Y-8062828D01*
X17950214Y-8065162D01*
X17954334Y-8070805D01*
X17954750Y-8077780D01*
X17952026Y-8083132D01*
X17951206Y-8084076D01*
X17947172Y-8087172D01*
X17937546Y-8099716D01*
X17937479Y-8099878D01*
X17936740Y-8100729D01*
X17934103Y-8102419D01*
X17931574Y-8104266D01*
X17931185Y-8104289D01*
X17930858Y-8104499D01*
X17927725Y-8104495D01*
X17924599Y-8104681D01*
X17924255Y-8104491D01*
X17923871Y-8104490D01*
X17921527Y-8102980D01*
X17918611Y-8101365D01*
X17874197Y-8056951D01*
X17874196Y-8056950D01*
X17863354Y-8050690D01*
X17863354Y-8050690D01*
X17859322Y-8049610D01*
X17851260Y-8047450D01*
X17851260Y-8047450D01*
X17751351Y-8047450D01*
X17744647Y-8045481D01*
X17740072Y-8040201D01*
X17739057Y-8033431D01*
X17740000Y-8026270D01*
X17740000Y-8026268D01*
X17740000Y-7983732D01*
X17740000Y-7983730D01*
X17738520Y-7972489D01*
X17738520Y-7972489D01*
X17732726Y-7958502D01*
X17732726Y-7958502D01*
X17726633Y-7950560D01*
X17724113Y-7944044D01*
X17724223Y-7941072D01*
X17724993Y-7936207D01*
X17725050Y-7935849D01*
X17725050Y-7894150D01*
X17725012Y-7893665D01*
X17725183Y-7893651D01*
X17725984Y-7887459D01*
X17730484Y-7882115D01*
X17737159Y-7880051D01*
X17737335Y-7880050D01*
X17832247Y-7880050D01*
X17832247Y-7880050D01*
X17832248Y-7880050D01*
X17846249Y-7876298D01*
X17848123Y-7875216D01*
X17858802Y-7869051D01*
X17894171Y-7833682D01*
X17896863Y-7832211D01*
X17899445Y-7830552D01*
X17900065Y-7830463D01*
X17900303Y-7830333D01*
X17902939Y-7830050D01*
X17920880Y-7830050D01*
X17927584Y-7832018D01*
G37*
G04 #@! TD.AperFunction*
G04 #@! TA.AperFunction,Conductor*
G36*
X17886695Y-6743056D02*
G01*
X17891040Y-6748527D01*
X17891950Y-6753191D01*
X17891950Y-6788326D01*
X17892943Y-6795139D01*
X17898080Y-6805648D01*
X17906351Y-6813920D01*
X17906352Y-6813920D01*
X17906352Y-6813920D01*
X17916861Y-6819057D01*
X17920267Y-6819554D01*
X17923674Y-6820050D01*
X17923674Y-6820050D01*
X17939550Y-6820050D01*
X17946254Y-6822018D01*
X17950829Y-6827299D01*
X17951950Y-6832450D01*
X17951950Y-6928333D01*
X17951950Y-6928335D01*
X17951950Y-6944905D01*
X17951950Y-6944905D01*
X17951950Y-6944906D01*
X17956042Y-6960178D01*
X17956042Y-6960179D01*
X17956042Y-6960179D01*
X17957065Y-6961950D01*
X17957065Y-6961950D01*
X17957065Y-6961950D01*
X17960789Y-6968399D01*
X17962450Y-6974599D01*
X17962450Y-7269333D01*
X17960482Y-7276037D01*
X17957599Y-7279171D01*
X17947172Y-7287172D01*
X17937546Y-7299716D01*
X17931496Y-7314324D01*
X17931496Y-7314324D01*
X17929950Y-7326063D01*
X17929950Y-7326064D01*
X17929950Y-7423936D01*
X17931495Y-7435675D01*
X17931496Y-7435676D01*
X17937546Y-7450284D01*
X17947172Y-7462828D01*
X17950214Y-7465162D01*
X17954334Y-7470805D01*
X17954750Y-7477780D01*
X17951328Y-7483872D01*
X17950215Y-7484837D01*
X17947460Y-7486950D01*
X17947172Y-7487172D01*
X17937546Y-7499716D01*
X17931496Y-7514324D01*
X17931496Y-7514324D01*
X17929950Y-7526063D01*
X17929950Y-7526064D01*
X17929950Y-7623936D01*
X17931495Y-7635675D01*
X17931496Y-7635676D01*
X17936332Y-7647352D01*
X17937546Y-7650284D01*
X17947172Y-7662828D01*
X17950214Y-7665162D01*
X17954334Y-7670805D01*
X17954750Y-7677780D01*
X17951328Y-7683872D01*
X17950215Y-7684837D01*
X17948581Y-7686090D01*
X17947172Y-7687172D01*
X17937546Y-7699716D01*
X17932336Y-7712295D01*
X17927952Y-7717736D01*
X17921322Y-7719942D01*
X17920880Y-7719950D01*
X17867752Y-7719950D01*
X17864567Y-7720803D01*
X17864567Y-7720804D01*
X17853751Y-7723702D01*
X17841199Y-7730949D01*
X17841198Y-7730949D01*
X17805829Y-7766318D01*
X17799697Y-7769667D01*
X17797061Y-7769950D01*
X17705506Y-7769950D01*
X17699876Y-7768599D01*
X17695812Y-7766528D01*
X17685849Y-7764950D01*
X17685849Y-7764950D01*
X17574151Y-7764950D01*
X17574151Y-7764950D01*
X17573665Y-7764988D01*
X17573654Y-7764857D01*
X17567323Y-7764038D01*
X17561978Y-7759537D01*
X17559915Y-7752862D01*
X17560024Y-7751336D01*
X17560012Y-7751335D01*
X17560050Y-7750849D01*
X17560050Y-7639151D01*
X17558472Y-7629188D01*
X17558472Y-7629188D01*
X17558472Y-7629187D01*
X17552353Y-7617178D01*
X17552353Y-7617178D01*
X17552352Y-7617177D01*
X17542823Y-7607648D01*
X17542822Y-7607647D01*
X17542822Y-7607647D01*
X17530813Y-7601528D01*
X17530812Y-7601528D01*
X17530812Y-7601528D01*
X17520849Y-7599950D01*
X17520849Y-7599950D01*
X17497232Y-7599950D01*
X17495108Y-7599326D01*
X17492899Y-7599168D01*
X17491820Y-7598361D01*
X17490528Y-7597981D01*
X17489078Y-7596308D01*
X17487305Y-7594981D01*
X17486835Y-7593719D01*
X17485953Y-7592701D01*
X17485638Y-7590509D01*
X17484864Y-7588435D01*
X17485150Y-7587118D01*
X17484958Y-7585785D01*
X17485878Y-7583771D01*
X17486349Y-7581607D01*
X17487676Y-7579835D01*
X17487861Y-7579430D01*
X17488464Y-7578782D01*
X17491064Y-7576182D01*
X17497196Y-7572833D01*
X17499832Y-7572550D01*
X17631260Y-7572550D01*
X17631260Y-7572550D01*
X17643354Y-7569309D01*
X17654196Y-7563049D01*
X17788050Y-7429196D01*
X17789751Y-7426250D01*
X17794807Y-7421428D01*
X17800489Y-7420050D01*
X17838326Y-7420050D01*
X17840597Y-7419719D01*
X17845139Y-7419057D01*
X17855648Y-7413920D01*
X17863920Y-7405648D01*
X17869057Y-7395139D01*
X17870050Y-7388326D01*
X17870050Y-7211674D01*
X17869057Y-7204861D01*
X17863920Y-7194352D01*
X17863920Y-7194351D01*
X17863920Y-7194351D01*
X17855649Y-7186080D01*
X17845139Y-7180943D01*
X17838326Y-7179950D01*
X17838326Y-7179950D01*
X17661674Y-7179950D01*
X17661674Y-7179950D01*
X17654861Y-7180943D01*
X17644351Y-7186080D01*
X17636080Y-7194351D01*
X17630943Y-7204861D01*
X17629950Y-7211674D01*
X17629950Y-7216527D01*
X17627982Y-7223231D01*
X17622701Y-7227807D01*
X17615785Y-7228801D01*
X17609430Y-7225899D01*
X17607518Y-7223816D01*
X17598973Y-7212054D01*
X17598972Y-7212053D01*
X17583946Y-7197028D01*
X17583946Y-7197027D01*
X17566756Y-7184538D01*
X17547822Y-7174891D01*
X17528500Y-7168612D01*
X17528500Y-7261789D01*
X17526701Y-7259990D01*
X17515299Y-7253407D01*
X17502583Y-7250000D01*
X17489417Y-7250000D01*
X17476701Y-7253407D01*
X17465299Y-7259990D01*
X17463500Y-7261789D01*
X17463500Y-7168612D01*
X17444178Y-7174891D01*
X17425244Y-7184538D01*
X17408054Y-7197027D01*
X17408054Y-7197028D01*
X17393028Y-7212053D01*
X17393027Y-7212054D01*
X17380538Y-7229244D01*
X17370891Y-7248178D01*
X17364613Y-7267500D01*
X17364613Y-7267500D01*
X17457789Y-7267500D01*
X17455990Y-7269299D01*
X17449408Y-7280701D01*
X17446000Y-7293417D01*
X17446000Y-7306583D01*
X17449408Y-7319299D01*
X17455990Y-7330701D01*
X17457789Y-7332500D01*
X17364613Y-7332500D01*
X17370891Y-7351822D01*
X17380538Y-7370756D01*
X17393027Y-7387946D01*
X17393028Y-7387946D01*
X17408054Y-7402972D01*
X17408054Y-7402973D01*
X17425244Y-7415462D01*
X17444178Y-7425109D01*
X17444178Y-7425109D01*
X17463500Y-7431387D01*
X17463500Y-7431387D01*
X17463500Y-7338211D01*
X17465299Y-7340010D01*
X17476701Y-7346592D01*
X17489417Y-7350000D01*
X17502583Y-7350000D01*
X17515299Y-7346592D01*
X17526701Y-7340010D01*
X17528500Y-7338211D01*
X17528500Y-7431387D01*
X17547822Y-7425109D01*
X17547822Y-7425109D01*
X17566756Y-7415462D01*
X17583946Y-7402973D01*
X17583946Y-7402972D01*
X17598972Y-7387946D01*
X17598973Y-7387946D01*
X17607518Y-7376184D01*
X17613051Y-7371917D01*
X17620013Y-7371320D01*
X17626192Y-7374580D01*
X17629628Y-7380664D01*
X17629950Y-7383473D01*
X17629950Y-7388326D01*
X17630943Y-7395139D01*
X17636080Y-7405648D01*
X17644351Y-7413920D01*
X17644352Y-7413920D01*
X17644352Y-7413920D01*
X17645193Y-7414331D01*
X17650351Y-7419043D01*
X17652143Y-7425797D01*
X17649999Y-7432447D01*
X17648515Y-7434239D01*
X17608936Y-7473818D01*
X17602804Y-7477167D01*
X17600168Y-7477450D01*
X17481260Y-7477450D01*
X17468740Y-7477450D01*
X17462756Y-7479053D01*
X17456646Y-7480690D01*
X17445804Y-7486950D01*
X17445803Y-7486951D01*
X17371951Y-7560803D01*
X17371950Y-7560804D01*
X17365691Y-7571646D01*
X17365690Y-7571647D01*
X17365586Y-7572037D01*
X17365408Y-7572328D01*
X17365380Y-7572397D01*
X17365369Y-7572393D01*
X17361949Y-7578002D01*
X17355664Y-7581055D01*
X17348727Y-7580225D01*
X17344841Y-7577595D01*
X17301182Y-7533936D01*
X17297833Y-7527804D01*
X17297550Y-7525168D01*
X17297550Y-7174832D01*
X17299519Y-7168128D01*
X17301182Y-7166064D01*
X17391064Y-7076182D01*
X17397196Y-7072833D01*
X17399832Y-7072550D01*
X17506260Y-7072550D01*
X17506260Y-7072550D01*
X17518354Y-7069309D01*
X17529196Y-7063049D01*
X17770241Y-6822005D01*
X17776373Y-6818657D01*
X17777064Y-6818527D01*
X17786112Y-6817094D01*
X17804083Y-6811255D01*
X17820920Y-6802676D01*
X17836207Y-6791569D01*
X17849569Y-6778207D01*
X17860676Y-6762920D01*
X17868502Y-6747561D01*
X17873299Y-6742482D01*
X17880081Y-6740802D01*
X17886695Y-6743056D01*
G37*
G04 #@! TD.AperFunction*
G04 #@! TA.AperFunction,Conductor*
G36*
X16874471Y-6726624D02*
G01*
X16879619Y-6731348D01*
X16880793Y-6733919D01*
X16880933Y-6734351D01*
X16884745Y-6746084D01*
X16891541Y-6759420D01*
X16893324Y-6762920D01*
X16904431Y-6778207D01*
X16917793Y-6791569D01*
X16933080Y-6802676D01*
X16938751Y-6805566D01*
X16949916Y-6811254D01*
X16949917Y-6811254D01*
X16949917Y-6811255D01*
X16958095Y-6813912D01*
X16967888Y-6817094D01*
X16986551Y-6820050D01*
X16986552Y-6820050D01*
X16993668Y-6820050D01*
X17000372Y-6822018D01*
X17002436Y-6823682D01*
X17123818Y-6945064D01*
X17125288Y-6947757D01*
X17126948Y-6950339D01*
X17127037Y-6950959D01*
X17127167Y-6951196D01*
X17127450Y-6953832D01*
X17127450Y-6975168D01*
X17125482Y-6981872D01*
X17123818Y-6983936D01*
X17061951Y-7045803D01*
X17061950Y-7045804D01*
X17055691Y-7056646D01*
X17054070Y-7062693D01*
X17052489Y-7068593D01*
X17052450Y-7068740D01*
X17052450Y-7525168D01*
X17050482Y-7531872D01*
X17048818Y-7533936D01*
X17011951Y-7570803D01*
X17011950Y-7570804D01*
X17005691Y-7581646D01*
X17005691Y-7581646D01*
X17003760Y-7588853D01*
X17002864Y-7592195D01*
X16999228Y-7598161D01*
X16992943Y-7601213D01*
X16988947Y-7601232D01*
X16980849Y-7599950D01*
X16980849Y-7599950D01*
X16939151Y-7599950D01*
X16939151Y-7599950D01*
X16931890Y-7601100D01*
X16924960Y-7600204D01*
X16919615Y-7595705D01*
X16917551Y-7589030D01*
X16917550Y-7588853D01*
X16917550Y-7463740D01*
X16917550Y-7463740D01*
X16914310Y-7451646D01*
X16908050Y-7440804D01*
X16901485Y-7434239D01*
X16898137Y-7428107D01*
X16898635Y-7421138D01*
X16902822Y-7415544D01*
X16904807Y-7414331D01*
X16905648Y-7413920D01*
X16913920Y-7405648D01*
X16919057Y-7395139D01*
X16920050Y-7388326D01*
X16920050Y-7211674D01*
X16919057Y-7204861D01*
X16913920Y-7194352D01*
X16913920Y-7194351D01*
X16913920Y-7194351D01*
X16905649Y-7186080D01*
X16895139Y-7180943D01*
X16888326Y-7179950D01*
X16888326Y-7179950D01*
X16711674Y-7179950D01*
X16711674Y-7179950D01*
X16704861Y-7180943D01*
X16694351Y-7186080D01*
X16686080Y-7194351D01*
X16680943Y-7204861D01*
X16679950Y-7211674D01*
X16679950Y-7216527D01*
X16677981Y-7223231D01*
X16672701Y-7227807D01*
X16665785Y-7228801D01*
X16659430Y-7225899D01*
X16657518Y-7223816D01*
X16648973Y-7212054D01*
X16648972Y-7212053D01*
X16633946Y-7197028D01*
X16633946Y-7197027D01*
X16616756Y-7184538D01*
X16597822Y-7174891D01*
X16578500Y-7168612D01*
X16578500Y-7261789D01*
X16576701Y-7259990D01*
X16565299Y-7253407D01*
X16552583Y-7250000D01*
X16539417Y-7250000D01*
X16526701Y-7253407D01*
X16515299Y-7259990D01*
X16513500Y-7261789D01*
X16513500Y-7168612D01*
X16513500Y-7168612D01*
X16494178Y-7174891D01*
X16475244Y-7184538D01*
X16458054Y-7197027D01*
X16458053Y-7197028D01*
X16443028Y-7212053D01*
X16443027Y-7212054D01*
X16430538Y-7229244D01*
X16420891Y-7248178D01*
X16414612Y-7267500D01*
X16414612Y-7267500D01*
X16507789Y-7267500D01*
X16505990Y-7269299D01*
X16499407Y-7280701D01*
X16496000Y-7293417D01*
X16496000Y-7306583D01*
X16499407Y-7319299D01*
X16505990Y-7330701D01*
X16507789Y-7332500D01*
X16414612Y-7332500D01*
X16420891Y-7351822D01*
X16430538Y-7370756D01*
X16443027Y-7387946D01*
X16443028Y-7387946D01*
X16458053Y-7402972D01*
X16458054Y-7402973D01*
X16475244Y-7415462D01*
X16494178Y-7425109D01*
X16494178Y-7425109D01*
X16513500Y-7431387D01*
X16513500Y-7431387D01*
X16513500Y-7338211D01*
X16515299Y-7340010D01*
X16526701Y-7346592D01*
X16539417Y-7350000D01*
X16552583Y-7350000D01*
X16565299Y-7346592D01*
X16576701Y-7340010D01*
X16578500Y-7338211D01*
X16578500Y-7431387D01*
X16597822Y-7425109D01*
X16597822Y-7425109D01*
X16616756Y-7415462D01*
X16633946Y-7402973D01*
X16633946Y-7402972D01*
X16648972Y-7387946D01*
X16648973Y-7387946D01*
X16657518Y-7376184D01*
X16663051Y-7371917D01*
X16670012Y-7371320D01*
X16676192Y-7374580D01*
X16679628Y-7380664D01*
X16679950Y-7383473D01*
X16679950Y-7388326D01*
X16680943Y-7395139D01*
X16686080Y-7405648D01*
X16694351Y-7413920D01*
X16694351Y-7413920D01*
X16694352Y-7413920D01*
X16704861Y-7419057D01*
X16708267Y-7419554D01*
X16711674Y-7420050D01*
X16711674Y-7420050D01*
X16749511Y-7420050D01*
X16756215Y-7422018D01*
X16760249Y-7426250D01*
X16761950Y-7429196D01*
X16818818Y-7486064D01*
X16822167Y-7492196D01*
X16822450Y-7494832D01*
X16822450Y-7573649D01*
X16820482Y-7580353D01*
X16815201Y-7584928D01*
X16808432Y-7585943D01*
X16801270Y-7585000D01*
X16801268Y-7585000D01*
X16758730Y-7585000D01*
X16747489Y-7586480D01*
X16747489Y-7586480D01*
X16733502Y-7592274D01*
X16733502Y-7592274D01*
X16725560Y-7598367D01*
X16719043Y-7600887D01*
X16716072Y-7600777D01*
X16710849Y-7599950D01*
X16710849Y-7599950D01*
X16669151Y-7599950D01*
X16669151Y-7599950D01*
X16663928Y-7600777D01*
X16656998Y-7599882D01*
X16654439Y-7598367D01*
X16646498Y-7592274D01*
X16646498Y-7592274D01*
X16632511Y-7586480D01*
X16632510Y-7586480D01*
X16621270Y-7585000D01*
X16578730Y-7585000D01*
X16567489Y-7586480D01*
X16567489Y-7586480D01*
X16553502Y-7592274D01*
X16541691Y-7601336D01*
X16541691Y-7601336D01*
X16608909Y-7668554D01*
X16612258Y-7674687D01*
X16611760Y-7681656D01*
X16608909Y-7686090D01*
X16591090Y-7703909D01*
X16584958Y-7707258D01*
X16577989Y-7706759D01*
X16573554Y-7703909D01*
X16525000Y-7655355D01*
X16525000Y-7751268D01*
X16525027Y-7751674D01*
X16524840Y-7751686D01*
X16523875Y-7757842D01*
X16519234Y-7763065D01*
X16512662Y-7764950D01*
X16414151Y-7764950D01*
X16413665Y-7764988D01*
X16413652Y-7764818D01*
X16407454Y-7764015D01*
X16403679Y-7761433D01*
X16376182Y-7733936D01*
X16372833Y-7727804D01*
X16372550Y-7725168D01*
X16372550Y-7144354D01*
X16374518Y-7137650D01*
X16379799Y-7133075D01*
X16380204Y-7132899D01*
X16380813Y-7132646D01*
X16391467Y-7125528D01*
X16400528Y-7116467D01*
X16407646Y-7105813D01*
X16412550Y-7093974D01*
X16415050Y-7081407D01*
X16415050Y-7068593D01*
X16415050Y-7068593D01*
X16412550Y-7056026D01*
X16412550Y-7056026D01*
X16412550Y-7056026D01*
X16407646Y-7044187D01*
X16407646Y-7044187D01*
X16407646Y-7044187D01*
X16400528Y-7033533D01*
X16400527Y-7033533D01*
X16391467Y-7024473D01*
X16391467Y-7024472D01*
X16380813Y-7017354D01*
X16380812Y-7017353D01*
X16368974Y-7012450D01*
X16368974Y-7012450D01*
X16356407Y-7009950D01*
X16356407Y-7009950D01*
X16343593Y-7009950D01*
X16343593Y-7009950D01*
X16337369Y-7011188D01*
X16335271Y-7011000D01*
X16333185Y-7011300D01*
X16331860Y-7010695D01*
X16330410Y-7010565D01*
X16328746Y-7009273D01*
X16326830Y-7008398D01*
X16326042Y-7007172D01*
X16324892Y-7006279D01*
X16324191Y-7004292D01*
X16323052Y-7002520D01*
X16322699Y-7000061D01*
X16322568Y-6999690D01*
X16322550Y-6999026D01*
X16322550Y-6974832D01*
X16324518Y-6968128D01*
X16326182Y-6966064D01*
X16366064Y-6926182D01*
X16372196Y-6922833D01*
X16374832Y-6922550D01*
X16406260Y-6922550D01*
X16406260Y-6922550D01*
X16418354Y-6919309D01*
X16429196Y-6913049D01*
X16441064Y-6901182D01*
X16447196Y-6897833D01*
X16449832Y-6897550D01*
X16598260Y-6897550D01*
X16598260Y-6897550D01*
X16610354Y-6894309D01*
X16621196Y-6888049D01*
X16692109Y-6817136D01*
X16698241Y-6813788D01*
X16704709Y-6814111D01*
X16707444Y-6815000D01*
X16713888Y-6817094D01*
X16732551Y-6820050D01*
X16732552Y-6820050D01*
X16751449Y-6820050D01*
X16770112Y-6817094D01*
X16775134Y-6815462D01*
X16788083Y-6811255D01*
X16804920Y-6802676D01*
X16820207Y-6791569D01*
X16833569Y-6778207D01*
X16844676Y-6762920D01*
X16853255Y-6746083D01*
X16857207Y-6733919D01*
X16861151Y-6728152D01*
X16867587Y-6725432D01*
X16874471Y-6726624D01*
G37*
G04 #@! TD.AperFunction*
G04 #@! TD*
M02*
